<?xml version="1.0" encoding="UTF-8"?>
<svg width="48px" height="48px" viewBox="0 0 48 48" version="1.1" xmlns="http://www.w3.org/2000/svg" xmlns:xlink="http://www.w3.org/1999/xlink">
    <!-- Generator: Sketch 64 (93537) - https://sketch.com -->
    <title>48l</title>
    <desc>Created with Sketch.</desc>
    <g id="页面-1" stroke="none" stroke-width="1" fill="none" fill-rule="evenodd">
        <g id="AI-互动课开发套件-产品图标" transform="translate(-188.000000, -206.000000)" fill="#00A4FF" fill-rule="nonzero">
            <path d="M231.563379,216.094407 C234.356988,220.017582 236,224.816918 236,230 C236,243.254834 225.254834,254 212,254 C207.607846,254 203.491255,252.820169 199.94987,250.760148 C199.668137,250.913038 199.344224,251 199,251 C197.895431,251 197,250.104569 197,249 C197,247.895431 197.895431,247 199,247 C200.104569,247 201,247.895431 201,249 C201,249.018196 200.999757,249.036335 200.999274,249.054415 C204.234212,250.928179 207.991937,252 212,252 C224.150264,252 234,242.150264 234,230 C234,225.370225 232.569879,221.074472 230.127297,217.530403 L231.563379,216.094407 Z M212,206 C216.964635,206 221.577189,207.507437 225.404921,210.08957 C225.592332,210.031607 225.792475,210 226,210 C227.104569,210 228,210.895431 228,212 C228,213.104569 227.104569,214 226,214 C224.895431,214 224,213.104569 224,212 C224,211.858506 224.014693,211.720443 224.042638,211.587255 C220.584145,209.318896 216.446095,208 212,208 C199.849736,208 190,217.849736 190,230 C190,234.630212 191.430391,238.926339 193.873395,242.4706 L192.437335,243.906596 C189.643292,239.983236 188,235.183524 188,230 C188,216.745166 198.745166,206 212,206 Z M211.556349,217 L227.112698,226.101632 L221.564,229.31 L221.632621,236.477106 L211.556349,242.305264 L201.480078,236.477106 L201.548,229.31 L196,226.101632 L211.556349,217 Z M203.59,230.491 L203.537856,230.491862 L203.491187,235.329886 L211.555739,239.99467 L219.621706,235.328472 L219.575037,230.491862 L219.522,230.491 L211.556349,235.099491 L203.59,230.491 Z M211.556349,219.316236 L199.977476,226.091026 L211.556349,232.788034 L223.135223,226.091026 L211.556349,219.316236 Z" id="48l"></path>
        </g>
    </g>
</svg>