<?xml version="1.0" encoding="UTF-8"?>
<svg width="48px" height="48px" viewBox="0 0 48 48" version="1.1" xmlns="http://www.w3.org/2000/svg" xmlns:xlink="http://www.w3.org/1999/xlink">
    <title>CoDesign-48px</title>
    <g id="CoDesign-48px" stroke="none" stroke-width="1" fill="none" fill-rule="evenodd">
        <path d="M24,0 L46,12 L44,13.1 L24,2.2 L4,13.1 L4,34.9 L24,45.8 L44,34.9 L44,19.1 L46,18 L46,36 L24,48 L2,36 L2,12 L24,0 Z M35,27.8 L35,30 L24,36 L13,30 L13,27.8 L24,33.8 L35,27.8 Z M24,18 L35,24 L24,30 L13,24 L24,18 Z M24,20.2 L17,24 L24,27.8 L31,24 L24,20.2 Z M26.9938032,13.6329836 L35,18 L35,20.2 L27.00544,15.8393309 L26.9938032,13.6329836 Z M24,12 L24,14.2 L13,20.2 L13,18 L24,12 Z" id="Combined-Shape" fill="#00A4FF" fill-rule="nonzero"></path>
    </g>
</svg>