<svg xmlns="http://www.w3.org/2000/svg" width="48" height="48" viewBox="0 0 48 48">
  <g fill="#00A4FF" fill-rule="evenodd">
    <path d="M45 36.1C43.7 36.1 42.6 36.9 42.2 38.1L4 38.1 4 12.1 2 12.1 2 38.1 2 40.1 4 40.1 42.2 40.1C42.6 41.3 43.7 42.1 45 42.1 46.7 42.1 48 40.8 48 39.1 48 37.4 46.7 36.1 45 36.1zM5.8 4.1L44 4.1 44 30.1 46 30.1 46 4.1 46 2.1 44 2.1 5.8 2.1C5.4.9 4.3.1 3 .1 1.3.1 0 1.4 0 3.1 0 4.8 1.3 6.1 3 6.1 4.3 6.1 5.4 5.3 5.8 4.1z" transform="translate(0 3)"/>
    <g transform="translate(14 13.845)">
      <path fill-rule="nonzero" d="M19.660254,14.423848 L19.660254,16.7320508 L10,22.3094011 L0.339745962,16.7320508 L0.339745962,16.1547005 L3.33974596,16.1547005 L10,20 L17.660254,15.5773503 L17.660254,13.2691475 L19.660254,14.423848 Z M2.33974596,9.03400419 L0.339745962,7.87930365 L0.339745962,5.57735027 L10,-5.32907052e-15 L19.660254,5.57735027 L19.660254,6.15470054 L16.660254,6.15470054 L10,2.30940108 L2.33974596,6.73205081 L2.33974596,9.03400419 Z"/>
      <rect width="2" height="6" x="9" y="8.155"/>
      <path d="M14,11.155943 L18.6629181,13.84808 L17.6629181,15.5801308 L14,13.4653441 L14,11.155943 Z M6,8.83986926 L6,11.1492703 L1.34413569,8.46120583 L2.34413569,6.72915502 L6,8.83986926 Z"/>
      <circle cx="18" cy="6.155" r="2"/>
      <circle cx="2" cy="16.155" r="2"/>
    </g>
  </g>
</svg>
