<svg xmlns="http://www.w3.org/2000/svg" width="48" height="48" viewBox="0 0 48 48">
  <g fill="none" fill-rule="evenodd">
    <path fill="#00A4FF" d="M45 36.1C43.7 36.1 42.6 36.9 42.2 38.1L4 38.1 4 12.1 2 12.1 2 38.1 2 40.1 4 40.1 42.2 40.1C42.6 41.3 43.7 42.1 45 42.1 46.7 42.1 48 40.8 48 39.1 48 37.4 46.7 36.1 45 36.1zM5.8 4.1L44 4.1 44 30.1 46 30.1 46 4.1 46 2.1 44 2.1 5.8 2.1C5.4.9 4.3.1 3 .1 1.3.1 0 1.4 0 3.1 0 4.8 1.3 6.1 3 6.1 4.3 6.1 5.4 5.3 5.8 4.1z" transform="translate(0 3)"/>
    <g transform="translate(14 11)">
      <path fill="#FFF" stroke="#0DA8FF" stroke-width="2" d="M13.87497,22.9961554 C13.4322658,24.723333 11.8652237,26 10,26 C8.13477634,26 6.56773423,24.723333 6.12503,22.9961554 C6.08368073,22.9987059 6.04199149,23 6,23 C4.8954305,23 4,22.1045695 4,21 C4,19.8954305 4.8954305,19 6,19 C6.38539239,19 6.74532497,19.1090064 7.05064771,19.2978692 C7.78189588,18.5001496 8.83253984,18 10,18 C11.1674602,18 12.2181041,18.5001496 12.9493523,19.2978692 C13.254675,19.1090064 13.6146076,19 14,19 C15.1045695,19 16,19.8954305 16,21 C16,22.1045695 15.1045695,23 14,23 C13.9580085,23 13.9163193,22.9987059 13.87497,22.9961554 Z"/>
      <path fill="#FFF" stroke="#0DA8FF" stroke-width="2" d="M0.155215474,20 C0.988705467,16.0209836 5.07930066,13 10,13 C14.9206993,13 19.0112945,16.0209836 19.8447845,20 L0.155215474,20 Z"/>
      <path fill="#FFF" stroke="#0DA8FF" stroke-width="2" d="M5,6.94801203 L5,20 L15,20 L15,6.94678107 L10.0113016,1.48155936 L5,6.94801203 Z"/>
      <circle cx="10" cy="10" r="2" fill="#0DA8FF"/>
    </g>
  </g>
</svg>
