<svg xmlns="http://www.w3.org/2000/svg" width="48" height="48" viewBox="0 0 48 48">
  <g fill="none" fill-rule="evenodd">
    <path fill="#00A4FF" d="M45 36.1C43.7 36.1 42.6 36.9 42.2 38.1L4 38.1 4 12.1 2 12.1 2 38.1 2 40.1 4 40.1 42.2 40.1C42.6 41.3 43.7 42.1 45 42.1 46.7 42.1 48 40.8 48 39.1 48 37.4 46.7 36.1 45 36.1zM5.8 4.1L44 4.1 44 30.1 46 30.1 46 4.1 46 2.1 44 2.1 5.8 2.1C5.4.9 4.3.1 3 .1 1.3.1 0 1.4 0 3.1 0 4.8 1.3 6.1 3 6.1 4.3 6.1 5.4 5.3 5.8 4.1z" transform="translate(0 2)"/>
    <g fill="#0DA8FF" transform="translate(13 10)">
      <path fill-rule="nonzero" d="M5.71005471,5.0862573 L6.71042984,6.81895785 C4.45296625,8.0219947 3,10.3788981 3,13 C3,14.6758854 3.58836583,16.2557271 4.6460056,17.5097156 C4.76517176,17.6510047 4.88931545,17.7870368 5.0181012,17.9176134 L2.46105239,17.9176134 C1.53711739,16.5040592 1,14.8147549 1,13 C1,9.58274252 2.90453378,6.61031274 5.71005471,5.0862573 Z M9.70445484,4.00476098 C9.80258112,4.0015951 9.90110428,4 10,4 C14.9705627,4 19,8.02943725 19,13 C19,17.9705627 14.9705627,22 10,22 C8.44959,22 6.99074502,21.6079636 5.71718759,20.9176134 L10,20.9176134 L10,20 C13.8659932,20 17,16.8659932 17,13 C17,9.4350451 14.3350699,6.49251798 10.8886658,6.05587478 L9.70445422,4.0047602 Z"/>
      <rect width="11" height="2" y="20"/>
      <path d="M18.4656342,20 L23.5698748,20 L23.5698748,22 L16,22 C16.884233,21.4070191 17.709534,20.7370274 18.4656342,20 Z"/>
      <path d="M11.2426407,5.94974747 L15.2426407,5.94974747 L15.2426407,7.94974747 L9.24264069,7.94974747 L9.24264069,5.94974747 L9.24264069,1.94974747 L11.2426407,1.94974747 L11.2426407,5.94974747 Z" transform="rotate(45 12.243 4.95)"/>
      <path d="M20.2426407,22.2426407 L24.2426407,22.2426407 L24.2426407,24.2426407 L18.2426407,24.2426407 L18.2426407,22.2426407 L18.2426407,18.2426407 L20.2426407,18.2426407 L20.2426407,22.2426407 Z" transform="rotate(-135 21.243 21.243)"/>
    </g>
  </g>
</svg>
