<svg xmlns="http://www.w3.org/2000/svg" width="48" height="48" viewBox="0 0 48 48">
  <g fill="none" fill-rule="evenodd" transform="translate(0 3)">
    <path fill="#00A4FF" d="M44 36.1C42.7 36.1 41.6 36.9 41.2 38.1L4 38.1 4 12.1 2 12.1 2 38.1 2 40.1 4 40.1 41.2 40.1C41.6 41.3 42.7 42.1 44 42.1 45.7 42.1 47 40.8 47 39.1 47 37.4 45.7 36.1 44 36.1zM5.8 4.1L44 4.1 44 30.1 46 30.1 46 4.1 46 2.1 44 2.1 5.8 2.1C5.4.9 4.3.1 3 .1 1.3.1 0 1.4 0 3.1 0 4.8 1.3 6.1 3 6.1 4.3 6.1 5.4 5.3 5.8 4.1z"/>
    <g transform="translate(13 10)">
      <polygon fill="#0DA8FF" points="3 1 18 1 18 3 3 3"/>
      <path stroke="#0DA8FF" stroke-width="2" d="M6.99658768,1.9796339 L6.99658768,5.86300517 L1.65018796,21 L19.4471435,21 L14.049969,5.8645556 L14.049969,1.99747391 L6.99658768,1.9796339 Z"/>
      <path stroke="#0DA8FF" stroke-width="2" d="M2.5,17.5 C2.83333333,17.5 4.09948754,17.4255774 6.29846263,17.2767321 C9.59692527,17.0534642 10,14.5 13,14.5 C15,14.5 16.5,15 17.5,16"/>
      <circle cx="11" cy="10" r="2" fill="#0DA8FF"/>
    </g>
  </g>
</svg>
