<svg xmlns="http://www.w3.org/2000/svg" width="48" height="48" viewBox="0 0 48 48">
  <g fill="none" fill-rule="evenodd">
    <path fill="#00A4FF" d="M45 36.1C43.7 36.1 42.6 36.9 42.2 38.1L4 38.1 4 12.1 2 12.1 2 38.1 2 40.1 4 40.1 42.2 40.1C42.6 41.3 43.7 42.1 45 42.1 46.7 42.1 48 40.8 48 39.1 48 37.4 46.7 36.1 45 36.1zM5.8 4.1L44 4.1 44 30.1 46 30.1 46 4.1 46 2.1 44 2.1 5.8 2.1C5.4.9 4.3.1 3 .1 1.3.1 0 1.4 0 3.1 0 4.8 1.3 6.1 3 6.1 4.3 6.1 5.4 5.3 5.8 4.1z" transform="translate(0 3)"/>
    <g fill-rule="nonzero" stroke="#00A4FF" transform="matrix(0 -1 -1 0 36 32)">
      <circle cx="3" cy="3" r="2" stroke-width="2"/>
      <circle cx="3" cy="22" r="2" stroke-width="2"/>
      <rect width="1" height="15" x="2.5" y="5.5"/>
      <circle cx="12" cy="3" r="2" stroke-width="2"/>
      <polyline stroke-width="2" points="11.903 5.427 11.903 11.263 2.999 16.747"/>
    </g>
  </g>
</svg>
