<svg xmlns="http://www.w3.org/2000/svg" xmlns:xlink="http://www.w3.org/1999/xlink" width="48" height="48" viewBox="0 0 48 48">
  <defs>
    <path id="制品库-a" d="M24.8359375,0.15234375 L9.015625,0.15234375 C8.49707031,0.15234375 8.078125,0.571289063 8.078125,1.08984375 L8.078125,8.00390625 L1.1640625,8.00390625 C0.645507812,8.00390625 0.2265625,8.42285156 0.2265625,8.94140625 L0.2265625,16.9101562 C0.2265625,17.4287109 0.645507812,17.8476562 1.1640625,17.8476562 L16.984375,17.8476562 C17.5029297,17.8476562 17.921875,17.4287109 17.921875,16.9101562 L17.921875,9.99609375 L24.8359375,9.99609375 C25.3544922,9.99609375 25.7734375,9.57714844 25.7734375,9.05859375 L25.7734375,1.08984375 C25.7734375,0.571289063 25.3544922,0.15234375 24.8359375,0.15234375 Z M10.0703125,2.14453125 L15.9296875,2.14453125 L15.9296875,8.00390625 L10.0703125,8.00390625 L10.0703125,2.14453125 Z M8.078125,15.8554688 L2.21875,15.8554688 L2.21875,9.99609375 L8.078125,9.99609375 L8.078125,15.8554688 Z M15.9296875,15.8554688 L10.0703125,15.8554688 L10.0703125,9.99609375 L15.9296875,9.99609375 L15.9296875,15.8554688 Z M23.78125,8.00390625 L17.921875,8.00390625 L17.921875,2.14453125 L23.78125,2.14453125 L23.78125,8.00390625 Z"/>
  </defs>
  <g fill="none" fill-rule="evenodd">
    <path fill="#00A4FF" d="M45 36.1C43.7 36.1 42.6 36.9 42.2 38.1L4 38.1 4 12.1 2 12.1 2 38.1 2 40.1 4 40.1 42.2 40.1C42.6 41.3 43.7 42.1 45 42.1 46.7 42.1 48 40.8 48 39.1 48 37.4 46.7 36.1 45 36.1zM5.8 4.1L44 4.1 44 30.1 46 30.1 46 4.1 46 2.1 44 2.1 5.8 2.1C5.4.9 4.3.1 3 .1 1.3.1 0 1.4 0 3.1 0 4.8 1.3 6.1 3 6.1 4.3 6.1 5.4 5.3 5.8 4.1z" transform="translate(0 3)"/>
    <use fill="#00A4FF" fill-rule="nonzero" transform="translate(11 16)" xlink:href="#制品库-a"/>
  </g>
</svg>
