<svg xmlns="http://www.w3.org/2000/svg" width="48" height="48" viewBox="0 0 48 48">
  <g fill="none" fill-rule="evenodd">
    <path fill="#00A4FF" d="M45 36.1C43.7 36.1 42.6 36.9 42.2 38.1L4 38.1 4 12.1 2 12.1 2 38.1 2 40.1 4 40.1 42.2 40.1C42.6 41.3 43.7 42.1 45 42.1 46.7 42.1 48 40.8 48 39.1 48 37.4 46.7 36.1 45 36.1zM5.8 4.1L44 4.1 44 30.1 46 30.1 46 4.1 46 2.1 44 2.1 5.8 2.1C5.4.9 4.3.1 3 .1 1.3.1 0 1.4 0 3.1 0 4.8 1.3 6.1 3 6.1 4.3 6.1 5.4 5.3 5.8 4.1z" transform="translate(0 3)"/>
    <path stroke="#00A4FF" stroke-width="2" d="M15.1213203,15.1213203 L15.1213203,15.0208152 L16.1213203,15.0208152 L20.0208152,15.0208152 C22.782239,15.0208152 25.0208152,17.2593915 25.0208152,20.0208152 C25.0208152,22.782239 22.782239,25.0208152 20.0208152,25.0208152 C17.3486385,25.0208152 15.1474579,22.9176348 15.0260894,20.2529553 L15.0208152,20.1143989 L15.0208152,15.1213203 L15.1213203,15.1213203 Z M15.0208152,15.0208152 L15.0208152,15.1213203 L10.1213203,15.1213203 C7.35989658,15.1213203 5.12132033,12.8827441 5.12132033,10.1213203 C5.12132033,7.35989658 7.35989658,5.12132033 10.1213203,5.12132033 C12.7934971,5.12132033 14.9946776,7.22450078 15.1160462,9.88918032 L15.1213203,10.0277366 L15.1213203,15.0208152 L15.0208152,15.0208152 Z" transform="rotate(-45 30.435 8.707)"/>
  </g>
</svg>
