<?xml version="1.0" encoding="UTF-8"?>
<svg width="48px" height="48px" viewBox="0 0 48 48" version="1.1" xmlns="http://www.w3.org/2000/svg" xmlns:xlink="http://www.w3.org/1999/xlink">
    <title>48px，00A4FF，描边2px备份</title>
    <g id="48px，00A4FF，描边2px备份" stroke="none" stroke-width="1" fill="none" fill-rule="evenodd">
        <path d="M23.9419823,0 C15.1409823,0 7.17998231,3.201 1.01798231,7.519 C1.01798231,7.519 -0.483017691,33.317 23.9419823,48 C48.3659823,33.317 46.8659823,7.519 46.8659823,7.519 C40.7039823,3.201 32.7429823,0 23.9419823,0 M23.9419823,2 C32.9459823,2 40.1779823,5.455 44.8799823,8.585 C44.8629823,10.625 44.5939823,15.725 42.6099823,21.791 C39.3149823,31.865 33.0379823,39.887 23.9419823,45.65 C14.8459823,39.887 8.56798231,31.865 5.27298231,21.791 C3.28898231,15.724 3.01998231,10.623 3.00298231,8.585 C7.70598231,5.455 14.9369823,2 23.9419823,2" id="Fill-13备份" fill="#00A4FF"></path>
        <g id="编组-2" transform="translate(11.000000, 9.928571)">
            <g id="编组" transform="translate(0.000000, 1.068571)"></g>
            <path d="M23.0145173,8.57879531 L24.9854827,8.91834754 C23.9154467,15.1294795 20.6621935,20.7923645 14.3643691,24.7181649 L13.9582373,24.9663773 L12.444799,25.873188 L12.44,10.0614644 L14.44,10.0608574 L14.443,22.265 L14.4646503,22.2515356 C19.3507233,18.7951837 21.9726519,14.108751 22.9446978,8.9653919 L23.0145173,8.57879531 Z" id="路径" fill="#00A4FF" fill-rule="nonzero"></path>
            <path d="M13.0603202,0.0685714286 C17.0065018,0.0849036579 20.8619152,1.30978634 24.1615295,3.41035118 L24.5547856,3.66660093 L25.9219449,4.57824316 L12.9808349,11.7367975 L2.983,6.244 L2.99766139,6.41682261 C3.04455661,6.90179344 3.11293692,7.40844141 3.20565175,7.93290797 L3.30658361,8.46317114 C3.80184605,10.8925416 4.73497395,13.2980657 6.20959296,15.5433779 C7.30760987,17.2152611 8.67475846,18.7447661 10.3376857,20.1027153 L10.759595,20.4386116 L9.5332778,22.0185312 C7.50168199,20.4416277 5.84667142,18.6340906 4.53788415,16.6412803 C2.91515091,14.1704436 1.89040683,11.5287409 1.34689217,8.86268268 C1.02087321,7.26348844 0.908244526,5.88907356 0.919519561,4.849167 L0.930588598,4.46282629 L1.02694752,2.8874722 L12.977,9.453 L22.007,4.457 L21.9305456,4.41429626 C19.3415242,3.00031267 16.4465156,2.16362754 13.4987176,2.07606579 L13.0561836,2.06857143 L12.9149104,2.06857143 C10.6813249,2.07761258 8.47059891,2.51767254 6.36893758,3.33214777 L5.92028235,3.5123884 L5.1520646,1.66581279 C7.456596,0.707074933 9.89582204,0.156007958 12.3782762,0.0780186111 L12.910859,0.0685714286 L13.0603202,0.0685714286 Z" id="Stroke-3" fill="#00A4FF" fill-rule="nonzero"></path>
        </g>
    </g>
</svg>