<?xml version="1.0" encoding="utf-8"?>
<!-- Generator: Adobe Illustrator 23.0.3, SVG Export Plug-In . SVG Version: 6.00 Build 0)  -->
<svg version="1.1" id="图层_1" xmlns="http://www.w3.org/2000/svg" xmlns:xlink="http://www.w3.org/1999/xlink" x="0px" y="0px"
	 width="48px" height="48px" viewBox="0 0 48 48" style="enable-background:new 0 0 48 48;" xml:space="preserve">
<g>
	<rect id="Rectangle-196" x="10" y="17" style="fill:#00A4FF;" width="2" height="2"/>
	<rect id="Rectangle-196-Copy-3" x="36" y="17" style="fill:#00A4FF;" width="2" height="2"/>
	<rect id="Rectangle-196-Copy" x="10" y="23" style="fill:#00A4FF;" width="2" height="2"/>
	<rect id="Rectangle-196-Copy-4" x="36" y="23" style="fill:#00A4FF;" width="2" height="2"/>
	<rect id="Rectangle-196-Copy-2" x="10" y="29" style="fill:#00A4FF;" width="2" height="2"/>
	<rect id="Rectangle-196-Copy-5" x="36" y="29" style="fill:#00A4FF;" width="2" height="2"/>
	<path id="Combined-Shape_3_" style="fill:#00A4FF;" d="M23.5,18.354V21v1.5H25h2.645L24.5,29.239V26v-1.5H23h-2.573L23.5,18.354
		 M25,12l-7,14h5v10l7-15h-5V12L25,12z"/>
	<polygon style="fill:#00A4FF;" points="14,14 14,34 18,34 18,36 12,36 12,12 18,12 18,14 	"/>
	<polygon style="fill:#00A4FF;" points="36,12 36,36 30,36 30,34 34,34 34,14 30,14 30,12 	"/>
	<path id="Shape_2_" style="fill:#00A4FF;" d="M24.101,45c-11.63,0-21.092-9.421-21.092-21S12.471,3,24.101,3
		c10.604,0,19.382,7.84,20.851,18h2.047C45.523,9.716,35.837,1,24.101,1C11.342,1,1,11.297,1,24s10.342,23,23.101,23
		C35.837,47,45.523,38.284,47,27h-2.047C43.482,37.16,34.705,45,24.101,45z"/>
</g>
</svg>
