<?xml version="1.0" encoding="UTF-8"?>
<svg width="48px" height="48px" viewBox="0 0 48 48" version="1.1" xmlns="http://www.w3.org/2000/svg" xmlns:xlink="http://www.w3.org/1999/xlink">
    <title>IP虚拟人-48px</title>
    <g id="IP虚拟人-48px" stroke="none" stroke-width="1" fill="none" fill-rule="evenodd">
        <path d="M4.87173625,9.50004556 L6.43045416,11.0587635 C0.124289142,19.5980243 0.83820965,31.6937523 8.57221569,39.4277583 C15.7184941,46.5740368 26.5887654,47.7266393 34.9363078,42.8855659 C34.9180938,42.7746885 34.9090909,42.6611099 34.9090909,42.5454286 C34.9090909,41.3404437 35.8859242,40.3636104 37.0909091,40.3636104 C38.295894,40.3636104 39.2727273,41.3404437 39.2727273,42.5454286 C39.2727273,43.7504135 38.295894,44.7272467 37.0909091,44.7272467 C36.8255391,44.7272467 36.5712344,44.6798705 36.3359916,44.5931146 C27.1153525,50.1268146 14.9781739,48.9192735 7.02943725,40.9705368 C-1.55816823,32.3829313 -2.2774019,18.9065463 4.87173625,9.50004556 Z M40.9705628,7.02941127 C49.5581683,15.6170167 50.2774019,29.0934017 43.1282638,38.4999025 L41.5695458,36.9411845 C47.8757109,28.4019238 47.1617904,16.3061957 39.4277843,8.57218971 C32.2815059,1.42591126 21.4112346,0.273308747 13.0636922,5.11438217 C13.0819062,5.22525949 13.0909091,5.33883811 13.0909091,5.45451947 C13.0909091,6.65950438 12.1140758,7.63633766 10.9090909,7.63633766 C9.704106,7.63633766 8.72727273,6.65950438 8.72727273,5.45451947 C8.72727273,4.24953457 9.704106,3.27270129 10.9090909,3.27270129 C11.1744609,3.27270129 11.4287656,3.32007757 11.6640084,3.40683348 C20.8846475,-2.12686654 33.0218261,-0.919325403 40.9705628,7.02941127 Z" id="形状结合" fill="#00A4FF" fill-rule="nonzero" transform="translate(24.000000, 23.999974) scale(-1, 1) translate(-24.000000, -23.999974) "></path>
        <path d="M29.6806535,10 L18.4295952,10 L12,16.4148846 L12,31.5859651 L18.4101238,38 L29.6646064,38 L36,31.5892456 L36,16.4100459 L29.6806535,10 Z" id="矩形" stroke="#00A4FF" stroke-width="2"></path>
        <rect id="矩形" fill="#00A4FF" x="11" y="17" width="26" height="2"></rect>
        <rect id="矩形" stroke="#00A4FF" fill="#D8D8D8" x="17.5" y="24.5" width="1" height="2"></rect>
        <rect id="矩形备份-3" stroke="#00A4FF" fill="#D8D8D8" x="23.5" y="23.5" width="1" height="4"></rect>
        <rect id="矩形备份-4" stroke="#00A4FF" fill="#D8D8D8" x="29.5" y="24.5" width="1" height="2"></rect>
        <path d="M26,33 C26,31.8954305 25.1045695,31 24,31 C22.8954305,31 22,31.8954305 22,33" id="椭圆形备份-2" stroke="#00A4FF" stroke-width="2" transform="translate(24.000000, 32.000000) rotate(-180.000000) translate(-24.000000, -32.000000) "></path>
        <rect id="矩形" stroke="#00A4FF" fill="#D8D8D8" x="7.5" y="21.5" width="1" height="7"></rect>
        <rect id="矩形" stroke="#00A4FF" fill="#D8D8D8" x="39.5" y="21.5" width="1" height="7"></rect>
    </g>
</svg>