<?xml version="1.0" encoding="UTF-8"?>
<svg width="49px" height="48px" viewBox="0 0 49 48" version="1.1" xmlns="http://www.w3.org/2000/svg" xmlns:xlink="http://www.w3.org/1999/xlink">
    <!-- Generator: Sketch 51.2 (57519) - http://www.bohemiancoding.com/sketch -->
    <title>便捷个性化-48x48 copy</title>
    <desc>Created with Sketch.</desc>
    <defs></defs>
    <g id="Page-1" stroke="none" stroke-width="1" fill="none" fill-rule="evenodd">
        <g id="便捷个性化-48x48-copy" transform="translate(0.140625, 0.000000)" fill="#00A4FF">
            <g id="Group">
                <path d="M24,22 C22.9,22 22,22.9 22,24 C22,25.1 22.9,26 24,26 C25.1,26 26,25.1 26,24 C26,22.9 25.1,22 24,22 M24,28 C21.8,28 20,26.2 20,24 C20,21.8 21.8,20 24,20 C26.2,20 28,21.8 28,24 C28,26.2 26.2,28 24,28" id="Shape"></path>
                <path d="M24,0 C10.7,0 0,10.7 0,24 C0,37.3 10.7,48 24,48 C37.3,48 48,37.3 48,24 C48,10.7 37.3,0 24,0 M24,2 C36.1,2 46,11.9 46,24 C46,36.1 36.1,46 24,46 C11.9,46 2,36.1 2,24 C2,11.9 11.9,2 24,2" id="Shape"></path>
                <path d="M28.8,17.6 L30.2,16.2 C26.6,13.3 21.4,13.3 17.7,16.2 L19.1,17.6 C20.4,16.6 22.1,16 23.9,16 C25.7,16 27.5,16.6 28.8,17.6 Z M19.2,30.4 L17.8,31.8 C21.4,34.7 26.6,34.7 30.3,31.8 L28.9,30.4 C27.6,31.4 25.9,32 24.1,32 C22.2,32 20.5,31.4 19.2,30.4 Z M17.6,19.2 L16.2,17.8 C13.3,21.4 13.3,26.6 16.2,30.3 L17.6,28.9 C16.6,27.6 16,25.9 16,24.1 C16,22.2 16.6,20.5 17.6,19.2 Z M30.4,28.8 L31.8,30.2 C34.7,26.6 34.7,21.4 31.8,17.7 L30.4,19.1 C31.4,20.4 32,22.1 32,23.9 C32,25.8 31.4,27.5 30.4,28.8 Z M10,23 C10.5,16.1 16,10.5 22.9,10.1 L22.9,8.1 C15,8.6 8.5,15 8,23 L10,23 Z M25,10.1 C31.9,10.6 37.5,16.1 37.9,23 L39.9,23 C39.4,15 33,8.6 25,8.1 L25,10.1 Z M23,37.9 C16.1,37.4 10.5,31.9 10.1,25 L8,25 C8.5,33 15,39.4 23,39.9 L23,37.9 Z M37.9,25 C37.4,31.9 31.9,37.5 25,37.9 L25,39.9 C33,39.4 39.4,33 39.9,25 L37.9,25 Z" id="Shape"></path>
            </g>
        </g>
    </g>
</svg>