<?xml version="1.0" encoding="utf-8"?>
<!-- Generator: Adobe Illustrator 23.0.3, SVG Export Plug-In . SVG Version: 6.00 Build 0)  -->
<svg version="1.1" id="图层_1" xmlns="http://www.w3.org/2000/svg" xmlns:xlink="http://www.w3.org/1999/xlink" x="0px" y="0px"
	 width="48px" height="48px" viewBox="0 0 48 48" style="enable-background:new 0 0 48 48;" xml:space="preserve">
<polygon style="fill:#00A4FF;" points="43.323,4.045 46,4.045 46,2.045 8.305,2.045 8.19,2.163 1.859,8.491 1.859,8.506 
	1.859,38.532 9.328,46 9.329,45.998 9.329,45.999 37.942,45.999 38.514,45.999 45.953,38.532 45.953,8.011 45.953,7.996 
	43.953,8.004 43.953,37.763 37.719,43.994 37.721,43.999 10.091,43.999 10.093,43.994 3.859,37.763 3.859,9.263 9.077,4.045 
	41.558,4.045 "/>
<g>
	<circle style="fill:#00A4FF;" cx="24" cy="12" r="2"/>
	<circle style="fill:#00A4FF;" cx="24" cy="24" r="2"/>
	<circle style="fill:#00A4FF;" cx="24" cy="36" r="2"/>
	<circle style="fill:#00A4FF;" cx="14" cy="18" r="2"/>
	<circle style="fill:#00A4FF;" cx="34" cy="18" r="2"/>
	<circle style="fill:#00A4FF;" cx="14" cy="31" r="2"/>
	<circle style="fill:#00A4FF;" cx="34" cy="31" r="2"/>
	
		<polygon style="fill:none;stroke:#00A4FF;stroke-width:2;stroke-linecap:round;stroke-linejoin:round;stroke-miterlimit:10;" points="
		13,18 24,12 35,18 24,24 	"/>
	<g>
		<line style="fill:none;stroke:#00A4FF;stroke-width:2;stroke-linejoin:round;" x1="35" y1="30" x2="34.122" y2="30.479"/>
		
			<line style="fill:none;stroke:#00A4FF;stroke-width:2;stroke-linejoin:round;stroke-dasharray:2.106,2.106;" x1="32.273" y1="31.487" x2="25.802" y2="35.017"/>
		<polyline style="fill:none;stroke:#00A4FF;stroke-width:2;stroke-linejoin:round;" points="24.878,35.521 24,36 23.122,35.521 		
			"/>
		
			<line style="fill:none;stroke:#00A4FF;stroke-width:2;stroke-linejoin:round;stroke-dasharray:2.106,2.106;" x1="21.273" y1="34.513" x2="14.802" y2="30.983"/>
		<line style="fill:none;stroke:#00A4FF;stroke-width:2;stroke-linejoin:round;" x1="13.878" y1="30.479" x2="13" y2="30"/>
	</g>
	<rect x="13" y="18" style="fill:#00A4FF;" width="2" height="13"/>
	<rect x="23" y="24" style="fill:#00A4FF;" width="2" height="13"/>
	<rect x="33" y="18" style="fill:#00A4FF;" width="2" height="13"/>
</g>
</svg>
