<?xml version="1.0" encoding="utf-8"?>
<!-- Generator: Adobe Illustrator 17.0.0, SVG Export Plug-In . SVG Version: 6.00 Build 0)  -->
<!DOCTYPE svg PUBLIC "-//W3C//DTD SVG 1.1//EN" "http://www.w3.org/Graphics/SVG/1.1/DTD/svg11.dtd">
<svg version="1.1" id="图层_1" xmlns="http://www.w3.org/2000/svg" xmlns:xlink="http://www.w3.org/1999/xlink" x="0px" y="0px"
	 width="48px" height="48px" viewBox="0 0 48 48" style="enable-background:new 0 0 48 48;" xml:space="preserve">
<style type="text/css">
	.st0{fill:#7C848E;}
	.st1{fill:#CEE3FF;}
	.st2{fill:#00A4FF;}
	.st3{fill-rule:evenodd;clip-rule:evenodd;fill:#00A4FF;}
	.st4{opacity:0.6;}
	.st5{fill:#BBBBBB;}
	.st6{fill:#FFFFFF;}
	.st7{fill:#E5E5E5;}
	.st8{fill:#444444;}
	.st9{fill:#EAEBEC;}
	.st10{opacity:0;fill:#CB3333;}
	.st11{fill-rule:evenodd;clip-rule:evenodd;fill:#878787;}
	.st12{fill-rule:evenodd;clip-rule:evenodd;fill:none;stroke:#878787;stroke-miterlimit:10;}
	.st13{fill:#878787;}
	.st14{fill:#666666;}
	.st15{fill:#999999;}
	.st16{fill:none;stroke:#E5E5E5;stroke-width:2;stroke-miterlimit:10;stroke-dasharray:8,4;}
	.st17{fill:url(#SVGID_1_);}
	.st18{fill:url(#SVGID_2_);}
	.st19{fill:url(#SVGID_3_);}
	.st20{fill:url(#SVGID_4_);}
	.st21{fill:url(#SVGID_5_);}
</style>
<rect x="13" y="18" class="st2" width="22" height="2"/>
<rect x="13" y="35" class="st2" width="22" height="2"/>
<rect x="13" y="19" class="st2" width="2" height="3"/>
<rect x="13" y="33" class="st2" width="2" height="3"/>
<rect x="33" y="33" class="st2" width="2" height="3"/>
<rect x="33" y="19" class="st2" width="2" height="3"/>
<rect x="19" y="11" class="st2" width="2" height="7"/>
<rect x="27" y="11" class="st2" width="2" height="7"/>
<rect x="21" y="26" class="st2" width="2" height="5"/>
<rect x="17" y="24" class="st2" width="2" height="7"/>
<rect x="13" y="24" class="st2" width="2" height="7"/>
<rect x="25" y="26" class="st2" width="2" height="5"/>
<rect x="23" y="24" class="st2" width="2" height="2"/>
<rect x="29" y="24" class="st2" width="6" height="2"/>
<rect x="23" y="27" class="st2" width="2" height="2"/>
<rect x="31" y="24" class="st2" width="2" height="7"/>
<polygon class="st2" points="13,24 17,31 19,31 15,24 "/>
<path class="st2" d="M44.76,27C43.297,37.16,34.558,45,24,45C12.421,45,3,35.579,3,24S12.421,3,24,3c10.558,0,19.297,7.84,20.76,18
	h2.038C45.328,9.716,35.685,1,24,1C11.297,1,1,11.297,1,24s10.297,23,23,23c11.685,0,21.328-8.716,22.799-20H44.76z"/>
<path class="st2" d="M23,26h2c0-1.105-0.895-2-2-2s-2,0.895-2,2c0,1.104,0.895,2,2,2V26z"/>
<path class="st2" d="M25,26h-2c0-1.105,0.895-2,2-2s2,0.895,2,2c0,1.104-0.895,2-2,2V26z"/>
</svg>
