<svg xmlns="http://www.w3.org/2000/svg" width="48" height="48" viewBox="0 0 48 48">
  <g fill="none" fill-rule="evenodd">
    <path fill="#00A4FF" d="M44.76,27 C43.297,37.16 34.558,45 24,45 C12.421,45 3,35.579 3,24 C3,12.421 12.421,3 24,3 C34.558,3 43.297,10.84 44.76,21 L46.798,21 C45.328,9.716 35.685,1 24,1 C11.297,1 1,11.297 1,24 C1,36.703 11.297,47 24,47 C35.685,47 45.328,38.284 46.799,27 L44.76,27 Z"/>
    <path fill="#00A4FF" fill-rule="nonzero" d="M36,16 L36,35 L12,35 L12,16 L36,16 Z M34,18 L14,18 L14,33 L34,33 L34,18 Z"/>
    <polygon fill="#00A4FF" points="12 22 35 22 35 24 12 24"/>
    <polygon fill="#00A4FF" points="15 13 17 13 17 18 15 18"/>
    <polygon fill="#00A4FF" points="32 13 34 13 34 18 32 18"/>
  </g>
</svg>
