<?xml version="1.0" encoding="utf-8"?>
<!-- Generator: Adobe Illustrator 23.0.3, SVG Export Plug-In . SVG Version: 6.00 Build 0)  -->
<svg version="1.1" id="图层_1" xmlns="http://www.w3.org/2000/svg" xmlns:xlink="http://www.w3.org/1999/xlink" x="0px" y="0px"
	 width="48px" height="48px" viewBox="0 0 48 48" style="enable-background:new 0 0 48 48;" xml:space="preserve">
<g>
	<path style="fill-rule:evenodd;clip-rule:evenodd;fill:#00A4FF;" d="M44.76,27C43.297,37.16,34.558,45,24,45
		C12.421,45,3,35.579,3,24S12.421,3,24,3c10.558,0,19.297,7.84,20.76,18h2.038C45.328,9.716,35.685,1,24,1C11.297,1,1,11.297,1,24
		s10.297,23,23,23c11.685,0,21.328-8.716,22.799-20H44.76z"/>
	<polygon style="fill-rule:evenodd;clip-rule:evenodd;fill:#00A4FF;" points="9,32 9,34 9,36 11,36 37,36 39,36 39,34 39,32 37,32 
		37,34 11,34 11,32 	"/>
	<polygon style="fill-rule:evenodd;clip-rule:evenodd;fill:#00A4FF;" points="39,16 39,14 37,14 29,14 29,10 27,10 27,14 21,14 
		21,10 19,10 19,14 11,14 9,14 9,16 9,18 11,18 11,16 37,16 37,18 39,18 	"/>
	<polygon style="fill-rule:evenodd;clip-rule:evenodd;fill:#00A4FF;" points="17,17 17,17 17,18.6 17,19.7 17,19.7 17,21.3 
		20.4,21.3 20.4,22.4 17,22.4 17,24 20.4,24 22,24 22,22.4 22,21.3 22,20 22,19.7 18.6,19.7 18.6,18.6 22,18.6 22,17 18.6,17 
		18.6,17 	"/>
	<path style="fill-rule:evenodd;clip-rule:evenodd;fill:#00A4FF;" d="M24,22v2h0v0h2v0h2c1.105,0,2-0.895,2-2h0v-3h0v0
		c0-1.105-0.895-2-2-2h-4v2h0L24,22L24,22z M28,20v1v1h-2v-3h2V20z"/>
	<path style="fill-rule:evenodd;clip-rule:evenodd;fill:#00A4FF;" d="M22,28v5h2v-2h2v2h2v-5c0-1.105-0.895-2-2-2h-2
		C22.895,26,22,26.895,22,28z M26,29h-2v-1h2V29z"/>
	<path style="fill-rule:evenodd;clip-rule:evenodd;fill:#00A4FF;" d="M14,26h-2v5c0,1.105,0.895,2,2,2c0,0,0,0,0,0v0h4v0
		c1.105,0,2-0.895,2-2v-5h-2v3v2h-1v-5h-2v5h-1v-2V26z M16,31L16,31L16,31L16,31z"/>
	<path style="fill-rule:evenodd;clip-rule:evenodd;fill:#00A4FF;" d="M34,33h2v-5c0-1.105-0.895-2-2-2h-4v2v5h2v-5h2v2V33z"/>
</g>
</svg>
