<?xml version="1.0" encoding="utf-8"?>
<!-- Generator: Adobe Illustrator 23.0.3, SVG Export Plug-In . SVG Version: 6.00 Build 0)  -->
<svg version="1.1" id="图层_1" xmlns="http://www.w3.org/2000/svg" xmlns:xlink="http://www.w3.org/1999/xlink" x="0px" y="0px"
	 width="48px" height="48px" viewBox="0 0 48 48" style="enable-background:new 0 0 48 48;" xml:space="preserve">
<g>
	<g>
		<defs>
			<path id="SVGID_4_" d="M44.952,27c-1.469,10.16-10.247,18-20.851,18c-11.63,0-21.092-9.421-21.092-21S12.471,3,24.101,3
				c10.604,0,19.382,7.84,20.851,18h2.047C45.523,9.716,35.837,1,24.101,1C11.342,1,1,11.297,1,24s10.342,23,23.101,23
				C35.837,47,45.523,38.284,47,27H44.952z"/>
		</defs>
		<use xlink:href="#SVGID_4_"  style="overflow:visible;fill:#00A4FF;"/>
		<clipPath id="SVGID_2_">
			<use xlink:href="#SVGID_4_"  style="overflow:visible;"/>
		</clipPath>
	</g>
</g>
<g>
	<g>
		<defs>
			<rect id="SVGID_38_" x="19" y="12" width="2" height="5"/>
		</defs>
		<use xlink:href="#SVGID_38_"  style="overflow:visible;fill:#00A4FF;"/>
		<clipPath id="SVGID_3_">
			<use xlink:href="#SVGID_38_"  style="overflow:visible;"/>
		</clipPath>
	</g>
	<g>
		<defs>
			<rect id="SVGID_40_" x="13" y="17" width="2" height="4"/>
		</defs>
		<use xlink:href="#SVGID_40_"  style="overflow:visible;fill:#00A4FF;"/>
		<clipPath id="SVGID_5_">
			<use xlink:href="#SVGID_40_"  style="overflow:visible;"/>
		</clipPath>
	</g>
	<g>
		<defs>
			<rect id="SVGID_42_" x="33" y="17" width="2" height="4"/>
		</defs>
		<use xlink:href="#SVGID_42_"  style="overflow:visible;fill:#00A4FF;"/>
		<clipPath id="SVGID_7_">
			<use xlink:href="#SVGID_42_"  style="overflow:visible;"/>
		</clipPath>
	</g>
	<g>
		<defs>
			<rect id="SVGID_44_" x="13" y="32" width="2" height="4"/>
		</defs>
		<use xlink:href="#SVGID_44_"  style="overflow:visible;fill:#00A4FF;"/>
		<clipPath id="SVGID_9_">
			<use xlink:href="#SVGID_44_"  style="overflow:visible;"/>
		</clipPath>
	</g>
	<g>
		<defs>
			<rect id="SVGID_46_" x="33" y="32" width="2" height="4"/>
		</defs>
		<use xlink:href="#SVGID_46_"  style="overflow:visible;fill:#00A4FF;"/>
		<clipPath id="SVGID_11_">
			<use xlink:href="#SVGID_46_"  style="overflow:visible;"/>
		</clipPath>
	</g>
	<g>
		<defs>
			<rect id="SVGID_48_" x="27" y="12" width="2" height="5"/>
		</defs>
		<use xlink:href="#SVGID_48_"  style="overflow:visible;fill:#00A4FF;"/>
		<clipPath id="SVGID_13_">
			<use xlink:href="#SVGID_48_"  style="overflow:visible;"/>
		</clipPath>
	</g>
	<g>
		<defs>
			<rect id="SVGID_50_" x="13" y="17" width="22" height="2"/>
		</defs>
		<use xlink:href="#SVGID_50_"  style="overflow:visible;fill:#00A4FF;"/>
		<clipPath id="SVGID_15_">
			<use xlink:href="#SVGID_50_"  style="overflow:visible;"/>
		</clipPath>
	</g>
	<g>
		<defs>
			<rect id="SVGID_52_" x="13" y="34" width="22" height="2"/>
		</defs>
		<use xlink:href="#SVGID_52_"  style="overflow:visible;fill:#00A4FF;"/>
		<clipPath id="SVGID_17_">
			<use xlink:href="#SVGID_52_"  style="overflow:visible;"/>
		</clipPath>
	</g>
	<g>
		<rect x="30" y="25" style="fill:#00A4FF;" width="2" height="5"/>
		<rect x="33" y="25" style="fill:#00A4FF;" width="2" height="1"/>
		<path style="fill:#00A4FF;" d="M35,26L35,26l-5,0v2h3C34.105,28,35,27.105,35,26z"/>
		<path style="fill:#00A4FF;" d="M35,25L35,25c0-1.105-0.895-2-2-2h-3v2H35z"/>
	</g>
	<rect x="13" y="23" style="fill:#00A4FF;" width="2" height="7"/>
	<rect x="15.5" y="24" transform="matrix(-1.836970e-16 1 -1 -1.836970e-16 43 10)" style="fill:#00A4FF;" width="2" height="5"/>
	<rect x="17" y="23" style="fill:#00A4FF;" width="2" height="7"/>
	<rect x="21" y="22" transform="matrix(-1.836970e-16 1 -1 -1.836970e-16 46 2)" style="fill:#00A4FF;" width="2" height="4"/>
	<rect x="21" y="23" style="fill:#00A4FF;" width="2" height="7"/>
	<rect x="26" y="22" transform="matrix(-1.836970e-16 1 -1 -1.836970e-16 51 -3)" style="fill:#00A4FF;" width="2" height="4"/>
	<rect x="26" y="23" style="fill:#00A4FF;" width="2" height="7"/>
</g>
</svg>
