<?xml version="1.0" encoding="utf-8"?>
<!-- Generator: Adobe Illustrator 23.0.3, SVG Export Plug-In . SVG Version: 6.00 Build 0)  -->
<svg version="1.1" id="图层_1" xmlns="http://www.w3.org/2000/svg" xmlns:xlink="http://www.w3.org/1999/xlink" x="0px" y="0px"
	 width="48px" height="48px" viewBox="0 0 48 48" style="enable-background:new 0 0 48 48;" xml:space="preserve">
<polygon style="fill:#00A4FF;" points="43.332,3.905 46,3.905 46,1.903 8.425,1.903 8.311,2.021 2,8.355 2,8.37 2,38.427 
	9.445,45.903 9.446,45.901 9.446,45.902 37.968,45.902 38.538,45.902 45.953,38.427 45.953,7.875 45.953,7.86 43.96,7.868 
	43.96,37.657 37.745,43.895 37.747,43.9 10.206,43.9 10.208,43.895 3.994,37.657 3.994,9.128 9.195,3.905 41.572,3.905 "/>
<g>
	<polygon style="fill:#00A4FF;" points="15.93,29.823 15,29.27 15,18.538 24,13.205 24.746,13.647 24.748,13.644 28.989,16.163 
		30.932,15.009 24,10.903 13,17.419 13,30.384 13.987,30.972 	"/>
	<polygon style="fill:#00A4FF;" points="30,19.196 20,25.121 20,21.5 25.027,18.516 25.027,18.514 25.789,18.063 27.03,17.326 
		25.096,16.177 18,20.381 18,28.599 20.133,27.338 20.133,27.328 20.151,27.335 28,22.685 28,26.306 20.963,30.466 22.912,31.624 
		30,27.424 	"/>
	<polygon style="fill:#00A4FF;" points="32.044,17.98 33,18.541 33,29.268 24,34.6 20.944,32.789 20.951,32.785 19,31.626 
		17.036,32.788 24,36.903 35,30.386 35,17.416 33.993,16.826 	"/>
</g>
</svg>
