<?xml version="1.0" encoding="utf-8"?>
<!-- Generator: Adobe Illustrator 22.0.0, SVG Export Plug-In . SVG Version: 6.00 Build 0)  -->
<svg version="1.1" id="图层_1" xmlns="http://www.w3.org/2000/svg" xmlns:xlink="http://www.w3.org/1999/xlink" x="0px" y="0px"
	 width="48px" height="48px" viewBox="0 0 48 48" style="enable-background:new 0 0 48 48;" xml:space="preserve">
<g>
	<g id="XMLID_52_">
		<path id="XMLID_53_" style="fill:#00A4FF;" d="M46,34V6H2v36h44v-2H4V16h40v18H46z M4,14V8h40v6H4z"/>
	</g>
</g>
<path id="XMLID_15_" style="fill-rule:evenodd;clip-rule:evenodd;fill:#00A4FF;" d="M10,20.9V23h12v-2.1H10z"/>
<path id="XMLID_12_" style="fill-rule:evenodd;clip-rule:evenodd;fill:#00A4FF;" d="M10,27v2h12v-2H10z"/>
<path id="XMLID_10_" style="fill-rule:evenodd;clip-rule:evenodd;fill:#00A4FF;" d="M10,33v2h6v-2H10z"/>
<g id="XMLID_3_">
	<path style="fill:#00A4FF;" d="M36,23v8.5l-3-1.7l-1-0.6l-1,0.6l-3,1.7V23H36 M38,21H26v14l6-3.5l6,3.5V21L38,21z"/>
</g>
</svg>
