<?xml version="1.0" encoding="utf-8"?>
<!-- Generator: Adobe Illustrator 22.0.1, SVG Export Plug-In . SVG Version: 6.00 Build 0)  -->
<svg version="1.1" id="图层_1" xmlns="http://www.w3.org/2000/svg" xmlns:xlink="http://www.w3.org/1999/xlink" x="0px" y="0px"
	 viewBox="0 0 49.1 49.4" style="enable-background:new 0 0 49.1 49.4;" xml:space="preserve">
<style type="text/css">
	.st0{fill:url(#SVGID_1_);}
	.st1{fill:url(#SVGID_2_);}
</style>
<g>
	
		<linearGradient id="SVGID_1_" gradientUnits="userSpaceOnUse" x1="46.0167" y1="4.35" x2="2.8167" y2="47.55" gradientTransform="matrix(1 0 0 -1 0 51.5)">
		<stop  offset="4.926108e-03" style="stop-color:#0063FF"/>
		<stop  offset="1" style="stop-color:#00C8DE"/>
	</linearGradient>
	<path class="st0" d="M0.4,44.8h6.6v-1.1H1.5V7.5h5.5V6.3H0.4V44.8z M41.8,6.3v1.1h5.5v36.2h-5.5v1.1h6.6V6.3H41.8z"/>
</g>
<g>
	
		<linearGradient id="SVGID_2_" gradientUnits="userSpaceOnUse" x1="36.0623" y1="15.8736" x2="14.3826" y2="37.5533" gradientTransform="matrix(1 0 0 -1 0 51.5)">
		<stop  offset="4.926108e-03" style="stop-color:#0076FB"/>
		<stop  offset="1" style="stop-color:#00B6E3"/>
	</linearGradient>
	<path class="st1" d="M16.4,20.2l0.5,2.3L14,23.2l1.7,7l-2.8,0.7l-1.7-6.9l-3,0.9l-0.4-2.3L16.4,20.2 M20.2,22.1c0.4,0,0.9,0,1.3,0
		c1.3,0.1,0.8-0.1,1.7,0.4c0.9,0.5,0.6,1.7,0.6,1.7l-0.8,4.2l-2.2-0.3l0.5-2.4c0,0,0,0-0.1,0c-0.1,0-0.4,0-0.9,0.1
		c-0.9,0.2-0.9,0.5-0.9,0.7c0,0.4,0.9,0.4,1.1,0.4c0,0,0,0,0,0l-0.4,0.9c0,0-0.3,0-0.6,0c-0.5,0-1.3,0-1.7-0.1c-0.8-0.2-1-1.3-0.8-2
		c0.2-0.7,1-1.2,2-1.4c1-0.2,2.2-0.3,2.2-0.3s0.1-0.1,0.1-0.3c0.1-0.2-0.1-0.3-0.3-0.4c-0.1-0.1-0.4-0.1-0.8-0.1c-0.8,0-2,0.1-2,0.1
		l0.5-1.4C18.8,22.2,19.4,22.1,20.2,22.1 M38.7,22.4l2.3,0.1l-1.5,7.5h-2.2l0.3-0.8c0,0-0.7,0.5-1.9,0.5c-0.2,0-0.5,0-0.8-0.1
		c-1.7-0.3-2-2-1.6-3.5c0.4-1.3,1.5-2,2.2-2.3c0.2-0.1,0.4-0.1,0.7-0.1c0.8,0,1.9,0.2,1.9,0.2l0.3,0.1L38.7,22.4 M36.4,28.1
		c0.4,0,1-0.2,1.3-0.8c0.4-0.7,0.5-1.4,0.1-1.7c-0.1-0.1-0.3-0.1-0.4-0.1c-0.5,0-1.2,0.3-1.5,0.8c-0.4,0.7-0.2,1.7,0.3,1.8
		C36.3,28.1,36.3,28.1,36.4,28.1 M29.1,23c0.3,0,0.5,0,0.8,0c1,0,1.7,1.3,1.8,1.8c0.1,0.6,0,1.5-0.1,2.3c-0.2,0.7-1.2,1.2-2,1.2l0,0
		c-0.8,0-1.6-0.4-1.6-0.4l0.3,2.9l-2,0.1l-0.6-7.1c0,0,0.1-0.1,1.4-0.4C28,23.1,28.6,23,29.1,23 M29,27C29,27,29,27,29,27
		c0.6-0.1,0.9-0.7,0.8-1.4c-0.1-0.6-0.5-1-1.1-1c-0.1,0-0.2,0-0.3,0c-0.4,0.1-0.7,0.4-0.6,1.1C27.9,26.4,28.5,27,29,27 M17.3,18.8
		l-1.1,0.3l-8.6,2.4l-1,0.3l0.2,1l0.5,2.3l0.2,1.2l1.2-0.4l1.9-0.6l1.4,5.8l0.3,1.1l1.1-0.3l2.8-0.7l1.1-0.3l-0.3-1.1L16.4,28
		c0.3,0.4,0.7,0.7,1.2,0.9c0.5,0.1,1.1,0.2,2,0.2l0,0l1.2,0.1l2.2,0.3l1,0.1l0.2-1l0.6-3.1l0.5,5.5l0.1,1.1l1.1-0.1l2-0.1l1.1-0.1
		l-0.1-1.1l-0.1-1.2c0.1,0,0.2,0,0.3,0c1,0,2.1-0.4,2.7-1.2c0.1,0.4,0.3,0.8,0.5,1.2c0.5,0.7,1.2,1.2,2.1,1.4c0.3,0.1,0.7,0.1,1,0.1
		c0.1,0,0.1,0,0.2,0L36,31.3h1.5h2.2h0.9l0.2-0.9l1.5-7.5l0.3-1.3l-1.3-0.1L39,21.4l-1-0.1l-0.1,1l-0.1,0.6c-0.4,0-0.8-0.1-1.2-0.1
		s-0.8,0-1,0.1c-0.8,0.3-1.8,0.9-2.4,1.9c0-0.1,0-0.1,0-0.2c-0.2-0.8-1.2-2.5-2.9-2.6c-0.3,0-0.6,0-0.8,0c-0.7,0-1.4,0.1-2.3,0.4
		c-1.5,0.4-1.6,0.5-1.7,0.6l-0.1,0.1c-0.1-0.5-0.5-1.1-1.1-1.4c-0.1,0-0.1-0.1-0.2-0.1c-0.5-0.3-0.7-0.4-1.3-0.4c-0.1,0-0.3,0-0.7,0
		c-0.4,0-0.9,0-1.4,0c-0.8,0-1.5,0-1.6,0l-0.7,0l-0.1,0.4L17.8,20L17.3,18.8L17.3,18.8z M15.4,24l1.8-0.4l-0.3,0.8
		c-0.4,0.4-0.7,0.8-0.8,1.3c0,0.2-0.1,0.4-0.1,0.6L15.4,24L15.4,24z"/>
</g>
</svg>
