<?xml version="1.0" encoding="UTF-8"?>
<svg width="48px" height="48px" viewBox="0 0 48 48" version="1.1" xmlns="http://www.w3.org/2000/svg" xmlns:xlink="http://www.w3.org/1999/xlink">
    <title>TDSQL  MySQL-48px</title>
    <g id="TDSQL--MySQL-48px" stroke="none" stroke-width="1" fill="none" fill-rule="evenodd">
        <path d="M46,28.5 L46,44.5 L28.5263429,47.819 L28.5253429,43.559 L28.5253429,41.549 L28.5263429,31.819 L39.9983429,29.64 L39.9993429,29.541 L41.9993429,29.202 L41.9983429,29.26 L46,28.5 Z M22,3 C32.5,3 41,6.6 41,11 L41,19.999 L39,19.999 L39,14.5 C35.9,17.1 29.5,18.9 22,18.9 C14.5,18.9 8.1,17.1 5,14.5 L5,20 C5,21.6577688 9.91961255,24.8423139 17.8839916,25.7258247 L17.8841438,27.8467322 C12.2148919,27.2807546 7.49544118,25.5389496 5,23.4 L5,29 C5,30.7499331 9.91998373,33.9419303 17.884893,34.747748 L17.8841438,36.7467322 C12.2148919,36.1807546 7.49544118,34.4389496 5,32.3 L5,38 C5,39.7215219 9.89000224,42.9248627 17.8843182,43.7835469 L17.8845268,45.7923354 C9.36573268,44.9231656 3,41.4615828 3,38 L3,10 C4.1,6 12.2,3 22,3 Z M44,30.88 L41.9983429,31.269 L42,41 L30.5253429,43.179 L30.5263429,45.438 L44,42.819 L44,30.88 Z M42,25 L41.9993429,26.968 L39,27.566032 L38.9993429,27.574 L26.5263429,29.999 L26.5253429,43.939 L24.5263429,44.319 L24.5263429,28.319 L42,25 Z M38,22 L37.9993429,23.968 L35,24.566032 L34.9993429,24.574 L22.5263429,26.999 L22.5263429,40.939 L20.5263429,41.319 L20.5263429,25.319 L38,22 Z M39.9983429,31.658 L30.5263429,33.499 L30.5253429,41.16 L40,39.319 L39.9983429,31.658 Z M22,5 C11.7,5 5,8.5 5,11 C5,13.5 11.6,17 22,17 C32.4,17 39,13.4 39,11 C39,8.6 32.4,5 22,5 Z" id="形状结合" fill="#00A4FF" fill-rule="nonzero"></path>
    </g>
</svg>