<?xml version="1.0" encoding="UTF-8"?>
<svg width="48px" height="48px" viewBox="0 0 48 48" version="1.1" xmlns="http://www.w3.org/2000/svg" xmlns:xlink="http://www.w3.org/1999/xlink">
    <title>TDSQL-A ClickHouse 版-48px</title>
    <g id="TDSQL-A-ClickHouse-版-48px" stroke="none" stroke-width="1" fill="none" fill-rule="evenodd">
        <g id="Redis48px" transform="translate(3.000000, 3.000000)" fill="#00A4FF" fill-rule="nonzero">
            <path d="M38,22 L38,43 L36,43 L36,22 L38,22 Z M33,22 L33,43 L31,43 L31,22 L33,22 Z M28,22 L28,43 L26,43 L26,22 L28,22 Z M23,41 L23,43 L21,43 L21,41 L23,41 Z M19,-1.20792265e-13 C29.5,-1.20792265e-13 38,3.6 38,8 L38,19 L36,19 L36,11.5 C32.9,14.1 26.5,15.9 19,15.9 C11.5,15.9 5.1,14.1 2,11.5 L2,17 C2,18.8 7.8,22.4 17,22.9 L17,25 C10.4,24.7 4.8,22.8 2,20.4 L2,26 C2,27.9 7.8,31.5 17,31.9 L17,33.9 C10.4,33.6 4.8,31.7 2,29.3 L2,35 C2,36.8685915 7.76119626,40.483 17.0000356,40.9498973 L17.0005751,42.9514247 C7.44177854,42.4854669 0,38.7427335 0,35 L0,7 C1.1,3 9.2,-1.20792265e-13 19,-1.20792265e-13 Z M23,22 L23,40 L21,40 L21,22 L23,22 Z M43,30 L43,35 L41,35 L41,30 L43,30 Z M19,2 C8.7,2 2,5.5 2,8 C2,10.5 8.6,14 19,14 C29.4,14 36,10.4 36,8 C36,5.6 29.4,2 19,2 Z" id="形状结合"></path>
        </g>
    </g>
</svg>