<?xml version="1.0" encoding="utf-8"?>
<!-- Generator: Adobe Illustrator 22.0.1, SVG Export Plug-In . SVG Version: 6.00 Build 0)  -->
<svg version="1.1" id="图层_1" xmlns="http://www.w3.org/2000/svg" xmlns:xlink="http://www.w3.org/1999/xlink" x="0px" y="0px"
	 viewBox="0 0 49.6 49.6" style="enable-background:new 0 0 49.6 49.6;" xml:space="preserve">
<style type="text/css">
	.st0{fill:#00A3FF;}
	.st1{fill:#00C8DC;}
	.st2{fill:#006EFF;}
</style>
<g id="XMLID_19_">
	<path id="XMLID_22_" class="st0" d="M42.9,36.2c-0.8,0.8-2.4,2-5.2,2c-1.2,0-2.6,0-3.2,0c-0.8,0-6.8,0-14,0c5.2-5,9.6-9.2,10-9.6
		c0.4-0.4,1.4-1.4,2.4-2.2c2-1.8,3.6-2,5-2c2,0,3.6,0.8,5,2C45.7,29,45.7,33.6,42.9,36.2 M46.3,23.2c-2-2.2-5-3.6-8.2-3.6
		c-2.8,0-5.2,1-7.4,2.6c-0.8,0.8-2,1.6-3,2.8c-0.8,0.8-18,17.6-18,17.6c1,0.2,2.2,0.2,3.2,0.2s20.9,0,21.7,0c1.6,0,2.8,0,4-0.2
		c2.6-0.2,5.2-1.2,7.4-3.2C50.7,35,50.7,27.6,46.3,23.2z"/>
	<path id="XMLID_2_" class="st1" d="M18.4,22c-2.2-1.6-4.4-2.4-7-2.4c-3.2,0-6.2,1.4-8.2,3.6C-1.1,27.8-1.1,35,3.4,39.6
		c2,1.8,4,2.8,6.4,3l4.6-4.4c-0.8,0-1.8,0-2.6,0c-2.6-0.2-4.2-1-5.2-2c-2.8-2.8-2.8-7.2-0.2-10c1.4-1.4,3-2,5-2c1.2,0,3,0.2,4.8,2
		c0.8,0.8,3,2.4,3.8,3.2h0.2l3-3v-0.2C21.8,24.8,19.6,23,18.4,22"/>
	<path id="XMLID_1_" class="st2" d="M39.4,17c-2.2-6-8-10.2-14.6-10.2c-7.8,0-14,5.8-15.2,13c0.6,0,1.2-0.2,2-0.2s1.8,0.2,2.6,0.2
		l0,0c1-5,5.4-8.6,10.6-8.6c4.4,0,8.2,2.6,10,6.4c0,0,0.2,0.2,0.2,0C36.4,17.4,38,17,39.4,17C39.4,17.2,39.4,17.2,39.4,17"/>
</g>
</svg>
