<?xml version="1.0" encoding="utf-8"?>
<!-- Generator: Adobe Illustrator 19.0.0, SVG Export Plug-In . SVG Version: 6.00 Build 0)  -->
<svg version="1.1" id="图层_1" xmlns="http://www.w3.org/2000/svg" xmlns:xlink="http://www.w3.org/1999/xlink" x="0px" y="0px"
	 width="48px" height="48px" viewBox="-390 127 48 48" style="enable-background:new -390 127 48 48;" xml:space="preserve">
<style type="text/css">
	.st0{fill:#00A4FF;}
</style>
<path class="st0" d="M-345.24,154c-1.463,10.16-10.202,18-20.76,18c-11.579,0-21-9.421-21-21s9.421-21,21-21
	c10.558,0,19.297,7.84,20.76,18h2.038c-1.47-11.284-11.113-20-22.798-20c-12.703,0-23,10.297-23,23s10.297,23,23,23
	c11.685,0,21.328-8.716,22.799-20H-345.24z"/>
<g id="_编组__1_">
	<polygon id="_路径__1_" class="st0" points="-365.1,164 -365.1,162.43 -355.1,158 -355.1,155.69 -357.1,154.55 -364.1,150.84 
		-364.1,153.14 -357.121,156.85 -366.1,160.7 -375.1,156.84 -375.1,149.44 -377.1,148.3 -377.1,158 -367.1,162.43 -367.1,164 	"/>
	<rect id="_路径_3_1_" x="-367.1" y="149" class="st0" width="2" height="4"/>
	<polygon id="_路径_4_1_" class="st0" points="-355.1,144 -365.1,139.57 -365.1,138 -367.1,138 -367.1,139.57 -377.1,144 
		-377.1,145.99 -375.1,147.14 -375.1,147.14 -368.1,150.86 -368.1,148.55 -374.82,145 -366.1,141.3 -357.1,145.16 -357.1,152.24 
		-355.1,153.39 	"/>
</g>
</svg>
