<svg id="图层_1" data-name="图层 1" xmlns="http://www.w3.org/2000/svg" width="48" height="48" viewBox="0 0 48 48"><defs><style>.cls-1{fill:#00a4ff;}</style></defs><title>48px，00A4FF，描边2px 副本 2</title><path class="cls-1" d="M24,2.41A34,34,0,0,1,44,8.84c0,.23,0,.46,0,.7A41.72,41.72,0,0,1,24,45,41.76,41.76,0,0,1,4,9.56c0-.24,0-.47,0-.71v0A34,34,0,0,1,24,2.41m0-2A36.24,36.24,0,0,0,2.26,7.65l-.21.16v.27c0,.48,0,1,0,1.48a43.59,43.59,0,0,0,21.7,37.58l.27.16.28-.16A43.6,43.6,0,0,0,46,9.54c0-.49,0-1,0-1.46V7.81l-.21-.16A36.24,36.24,0,0,0,24,.41Z"/><polygon class="cls-1" points="36.01 29.7 26.2 29.7 26.2 27.7 34.01 27.7 34.01 11.84 15.5 11.84 15.5 15.76 13.5 15.76 13.5 9.84 36.01 9.84 36.01 29.7"/><rect class="cls-1" x="23.28" y="18.58" width="11.21" height="2"/><rect class="cls-1" x="28.43" y="20.36" width="2" height="7.69"/><rect class="cls-1" x="23.82" y="11.09" width="2" height="7.8"/><path class="cls-1" d="M17.15,31.39A8.31,8.31,0,0,1,12.2,30a4.51,4.51,0,0,1-1.5-4.81,9.46,9.46,0,0,1,.53-1.67,4.78,4.78,0,0,0,.43-1.64l.1-1.69,1.65,1a5.43,5.43,0,0,1,.86.6A4.27,4.27,0,0,0,15,18.73L14.73,17l1.64.67a6.6,6.6,0,0,1,3.07,3.21,3.36,3.36,0,0,0,.27-.7l.46-1.63,1.2,1.19c1,1,3.43,4.17,2.81,7.17-.37,1.82-1.72,3.19-4,4.09A9.05,9.05,0,0,1,17.15,31.39Zm-3.84-7.66c-.07.2-.15.38-.22.56a8.13,8.13,0,0,0-.43,1.34,2.66,2.66,0,0,0,.66,2.74c1.61,1.39,5.38,1,6.08.76q2.49-1,2.82-2.64c.3-1.43-.53-3.06-1.3-4.17a7.9,7.9,0,0,1-1,1.4l-1.29,1.41-.42-1.86a6.42,6.42,0,0,0-1.23-2.65,9.51,9.51,0,0,1-1.73,3.45l-.8,1.15-.83-1.13Z"/></svg>