<?xml version="1.0" encoding="UTF-8"?>
<svg width="48px" height="48px" viewBox="0 0 48 48" version="1.1" xmlns="http://www.w3.org/2000/svg" xmlns:xlink="http://www.w3.org/1999/xlink">
    <title> wedate-32px-4</title>
    <g id="-wedate-32px-4" stroke="none" stroke-width="1" fill="none" fill-rule="evenodd">
        <path d="M25.2499761,34.000274 L25.6196118,33.9944302 C30.8500249,33.821 35,29.6162617 35,24.5 C35,19.3520614 30.806304,15.1472471 25.5601491,15.0037838 L25.2830809,15 L12.787,15 L14.0111155,13 L25.2830809,13 C31.7541566,13 37,18.1487254 37,24.5 C37,30.7189564 31.9704566,35.7849478 25.6858914,35.9933316 L25.2830809,36 L13.6778806,36 L14.59,34 L25.2499761,34.000274 Z" id="形状结合" fill="#00A4FF" fill-rule="nonzero"></path>
        <path d="M26.191886,19 L25.2899076,21 L21.9048526,21 L17.6607793,31 L15.7288526,30.9614539 L20.0088526,21 L16,21 L16.9578069,19 L26.191886,19 Z" id="形状结合" fill="#00A4FF" fill-rule="nonzero"></path>
        <polygon id="路径-6" fill="#00A4FF" points="20.8039642 29 20 30.9754524 21.9945757 31 22.7728945 29"></polygon>
        <path d="M45,39 C43.7,39 42.6,39.8 42.2,41 L4,41 L4,15 L2,15 L2,41 L2,43 L4,43 L42.2,43 C42.6,44.2 43.7,45 45,45 C46.7,45 48,43.7 48,42 C48,40.3 46.7,39 45,39 Z" id="Shape" fill="#00A4FF" fill-rule="nonzero"></path>
        <path d="M5.8,7 L44,7 L44,33 L46,33 L46,7 L46,5 L44,5 L5.8,5 C5.4,3.8 4.3,3 3,3 C1.3,3 0,4.3 0,6 C0,7.7 1.3,9 3,9 C4.3,9 5.4,8.2 5.8,7 Z" id="Shape" fill="#00A4FF" fill-rule="nonzero"></path>
    </g>
</svg>