<?xml version="1.0" encoding="utf-8"?>
<!-- Generator: Adobe Illustrator 22.0.0, SVG Export Plug-In . SVG Version: 6.00 Build 0)  -->
<svg version="1.1" id="图层_1" xmlns="http://www.w3.org/2000/svg" xmlns:xlink="http://www.w3.org/1999/xlink" x="0px" y="0px"
	 width="48px" height="48px" viewBox="0 0 48 48" style="enable-background:new 0 0 48 48;" xml:space="preserve">
<style type="text/css">
	.st0{fill:#00A4FF;}
	.st1{fill:#2277DA;}
	.st2{fill:none;stroke:#2277DA;stroke-width:2;stroke-miterlimit:10;}
	.st3{fill-rule:evenodd;clip-rule:evenodd;fill:#2277DA;}
	.st4{fill:none;stroke:#00A4FF;stroke-width:2;stroke-miterlimit:10;}
	.st5{fill:none;}
	.st6{fill:#FFFFFF;}
</style>
<g id="XMLID_373_">
	<g>
		<path class="st0" d="M44.8,27C43.3,37.2,34.6,45,24,45C12.4,45,3,35.6,3,24C3,12.4,12.4,3,24,3c10.6,0,19.3,7.8,20.8,18h2
			C45.3,9.7,35.7,1,24,1C11.3,1,1,11.3,1,24c0,12.7,10.3,23,23,23c11.7,0,21.3-8.7,22.8-20H44.8z"/>
	</g>
</g>
<circle id="XMLID_385_" class="st0" cx="24" cy="34" r="2"/>
<circle id="XMLID_386_" class="st0" cx="24" cy="14" r="2"/>
<rect id="XMLID_387_" x="21" y="17" transform="matrix(6.123234e-17 -1 1 6.123234e-17 6 42)" class="st0" width="6" height="2"/>
<rect id="XMLID_388_" x="21" y="29" transform="matrix(6.123234e-17 -1 1 6.123234e-17 -6 54)" class="st0" width="6" height="2"/>
<circle id="XMLID_389_" class="st0" cx="34" cy="24" r="1"/>
<circle id="XMLID_390_" class="st0" cx="14" cy="24" r="1"/>
<g id="XMLID_391_">
	<rect id="XMLID_392_" x="14" y="23" class="st0" width="20" height="2"/>
</g>
<g id="XMLID_393_">
	
		<rect id="XMLID_395_" x="28" y="11.9" transform="matrix(0.7071 -0.7071 0.7071 0.7071 -4.9413 26.0711)" class="st0" width="2" height="14.1"/>
</g>
<g id="XMLID_396_">
	
		<rect id="XMLID_397_" x="18" y="21.9" transform="matrix(0.7071 -0.7071 0.7071 0.7071 -14.9413 21.9485)" class="st0" width="2" height="14.1"/>
</g>
</svg>
