<svg xmlns="http://www.w3.org/2000/svg" x="0" y="0" width="48" height="48" viewBox="0 0 48 48" enable-background="new 0 0 48 48"><title>&#x4E13;&#x7528;&#x5BBF;&#x4E3B;&#x673A; 48</title><g class="nc-icon-wrapper"><path class="st0" d="M24.1 45c-11.6 0-21-9.4-21-21s9.4-21 21-21c10.4 0 19.3 7.7 20.8 18h2C45.2 8.4 33.7-.5 21.1 1.2S-.4 14.4 1.3 27s13.2 21.5 25.8 19.8c10.3-1.4 18.4-9.5 19.8-19.8h-2c-1.5 10.3-10.3 18-20.8 18z" fill="#00A4FF"/><path class="st0" fill="#00A4FF" d="M14 23.8v6l10 5.7 10-5.7v-6l-2 1.1v3.7l-8 4.6-8-4.6v-3.7z"/><path class="st0" d="M34 18.2l-10-5.8-10 5.8v2.3l.5.3 9.5 5.5 9.5-5.5.5-.3v-2.3zm-2 1.2L24 24l-8-4.6 8-4.6 8 4.6z" fill="#00A4FF"/></g></svg>