<svg id="图层_1" data-name="图层 1" xmlns="http://www.w3.org/2000/svg" width="48" height="48" viewBox="0 0 48 48"><defs><style>.cls-1{fill:#00a4ff;}.cls-2{fill:none;}</style></defs><title>48px，00A4FF，描边2px 副本 14</title><path class="cls-1" d="M24,32.85A13.7,13.7,0,0,1,10.33,19.17a13.55,13.55,0,0,1,4.22-9.88l1.38,1.44a11.68,11.68,0,1,0,16.2,0l1.39-1.43a13.56,13.56,0,0,1,4.17,9.83A13.7,13.7,0,0,1,24,32.85Z"/><path class="cls-1" d="M17.9,25.27a8.74,8.74,0,0,1-2.72-6.38,8.83,8.83,0,0,1,17.66,0,8.74,8.74,0,0,1-2.69,6.35l-1.39-1.43a6.83,6.83,0,1,0-9.48,0Z"/><g id="路径-2"><polygon class="cls-1" points="25.42 14.73 22.9 14.73 20.89 21.59 23.56 21.59 22.32 28.31 26.88 18.71 24.18 18.71 25.42 14.73 25.42 14.73"/></g><path class="cls-1" d="M24,2.43A34.08,34.08,0,0,1,44,8.88c0,.23,0,.47,0,.7A41.86,41.86,0,0,1,24,45.13,41.89,41.89,0,0,1,4,9.6c0-.24,0-.47,0-.7v0A34.14,34.14,0,0,1,24,2.43m0-2A36.31,36.31,0,0,0,2.2,7.69L2,7.85v.27c0,.49,0,1,0,1.48A43.72,43.72,0,0,0,23.71,47.29l.28.16.28-.16A43.74,43.74,0,0,0,46,9.59q0-.73,0-1.47V7.85l-.21-.16A36.31,36.31,0,0,0,24,.43Z"/><rect class="cls-2" width="48" height="48"/></svg>