<svg id="图层_1" data-name="图层 1" xmlns="http://www.w3.org/2000/svg" width="48" height="48" viewBox="0 0 48 48">
  <defs>
    <style>
      .cls-1 {
        fill: #00a4ff;
      }

      .cls-2 {
        fill: none;
        stroke: #00a4ff;
        stroke-miterlimit: 10;
        stroke-width: 2px;
      }
    </style>
  </defs>
  <title> </title>
  <g>
    <path class="cls-1" d="M24,2.39A38,38,0,0,1,44.94,9a45.32,45.32,0,0,1-2.27,13.2A43.67,43.67,0,0,1,24,46,43.67,43.67,0,0,1,5.33,22.18,45.42,45.42,0,0,1,3.06,9,38,38,0,0,1,24,2.39m0-2A40.24,40.24,0,0,0,1.08,7.91,46.79,46.79,0,0,0,24,48.39h0A46.79,46.79,0,0,0,46.92,7.91,40.24,40.24,0,0,0,24,.39Z"/>
    <g>
      <path class="cls-1" d="M32.72,23.75V28H15.28V23.75H32.72m2-2H13.28V30H34.72V21.75Z"/>
      <path class="cls-1" d="M32.72,13.45v4.24H15.28V13.45H32.72m2-2H13.28v8.24H34.72V11.45Z"/>
      <line class="cls-2" x1="27.63" y1="15.57" x2="30.64" y2="15.57"/>
      <line class="cls-2" x1="27.82" y1="25.88" x2="30.83" y2="25.88"/>
    </g>
  </g>
</svg>
