<?xml version="1.0" encoding="utf-8"?>
<!-- Generator: Adobe Illustrator 23.0.1, SVG Export Plug-In . SVG Version: 6.00 Build 0)  -->
<!DOCTYPE svg PUBLIC "-//W3C//DTD SVG 1.1//EN" "http://www.w3.org/Graphics/SVG/1.1/DTD/svg11.dtd" [
	<!ENTITY ns_extend "http://ns.adobe.com/Extensibility/1.0/">
	<!ENTITY ns_ai "http://ns.adobe.com/AdobeIllustrator/10.0/">
	<!ENTITY ns_graphs "http://ns.adobe.com/Graphs/1.0/">
	<!ENTITY ns_vars "http://ns.adobe.com/Variables/1.0/">
	<!ENTITY ns_imrep "http://ns.adobe.com/ImageReplacement/1.0/">
	<!ENTITY ns_sfw "http://ns.adobe.com/SaveForWeb/1.0/">
	<!ENTITY ns_custom "http://ns.adobe.com/GenericCustomNamespace/1.0/">
	<!ENTITY ns_adobe_xpath "http://ns.adobe.com/XPath/1.0/">
]>
<svg version="1.1" id="图层_1" xmlns:x="&ns_extend;" xmlns:i="&ns_ai;" xmlns:graph="&ns_graphs;"
	 xmlns="http://www.w3.org/2000/svg" xmlns:xlink="http://www.w3.org/1999/xlink" x="0px" y="0px" width="48px" height="48px"
	 viewBox="0 0 48 48" style="enable-background:new 0 0 48 48;" xml:space="preserve">
<style type="text/css">
	.st0{fill:#00A4FF;}
</style>
<metadata>
	<sfw  xmlns="&ns_sfw;">
		<slices></slices>
		<sliceSourceBounds  bottomLeftOrigin="true" height="48" width="44" x="2" y="0"></sliceSourceBounds>
	</sfw>
</metadata>
<g id="XMLID_414_">
	<g>
		<polygon class="st0" points="44,19.1 44,34.9 24,45.8 4,34.9 4,13.1 24,2.2 44,13.1 44,13.1 46,12 46,12 24,0 2,12 2,36 24,48 
			46,36 46,18 		"/>
	</g>
</g>
<polygon class="st0" points="30.9,30 25,33.3 25,25.4 33,21 33,26.6 35,27.7 35,18 26,13.1 26,15.3 32.6,18.9 24,23.7 15.4,18.9 
	22,15.3 22,13.1 13,18 13,27.7 15,26.6 15,21 23,25.4 23,33.3 17.1,30 15.1,31.1 24,36 32.9,31.1 "/>
</svg>
