<?xml version="1.0" encoding="UTF-8"?>
<svg width="48px" height="48px" viewBox="0 0 48 48" version="1.1" xmlns="http://www.w3.org/2000/svg" xmlns:xlink="http://www.w3.org/1999/xlink">
    <!-- Generator: Sketch 63.1 (92452) - https://sketch.com -->
    <title>48</title>
    <desc>Created with Sketch.</desc>
    <g id="页面-1" stroke="none" stroke-width="1" fill="none" fill-rule="evenodd">
        <g id="编组-9" transform="translate(0.000000, 3.000000)" fill="#00A4FF">
            <g id="b2d772970f9a5c11b1e47de44819ceea" fill-rule="nonzero">
                <g id="XMLID_84_">
                    <g id="XMLID_11_">
                        <circle id="XMLID_16_" cx="3.256" cy="3.228" r="3.2"></circle>
                    </g>
                </g>
                <g id="XMLID_83_" transform="translate(41.000000, 35.000000)">
                    <g id="XMLID_2_">
                        <circle id="XMLID_15_" cx="3.8" cy="3.885" r="3.2"></circle>
                    </g>
                </g>
                <g id="XMLID_82_" transform="translate(3.000000, 2.000000)">
                    <g id="XMLID_13_">
                        <polygon id="XMLID_14_" points="43 26.997 41 26.997 41 1.997 0 1.997 0 -0.003 43 -0.003"></polygon>
                    </g>
                </g>
                <g id="XMLID_81_" transform="translate(2.000000, 13.000000)">
                    <g id="XMLID_12_">
                        <polygon id="XMLID_1_" points="43 26.997 0 26.997 0 -0.003 2 -0.003 2 24.997 43 24.997"></polygon>
                    </g>
                </g>
            </g>
            <rect id="矩形" x="11" y="15" width="6" height="2"></rect>
            <rect id="矩形备份-3" x="22" y="15" width="6" height="2"></rect>
            <rect id="矩形备份-6" x="33" y="15" width="6" height="2"></rect>
            <rect id="矩形备份-2" x="9" y="15" width="2" height="12"></rect>
            <rect id="矩形备份-4" x="20" y="15" width="2" height="12"></rect>
            <rect id="矩形备份-7" x="31" y="15" width="2" height="12"></rect>
            <rect id="矩形备份" x="11" y="25" width="6" height="2"></rect>
            <rect id="矩形备份-5" x="22" y="25" width="6" height="2"></rect>
            <rect id="矩形备份-8" x="33" y="25" width="6" height="2"></rect>
        </g>
    </g>
</svg>