<?xml version="1.0" encoding="UTF-8"?>
<svg width="48px" height="48px" viewBox="0 0 48 48" version="1.1" xmlns="http://www.w3.org/2000/svg" xmlns:xlink="http://www.w3.org/1999/xlink">
    <!-- Generator: Sketch 56.3 (81716) - https://sketch.com -->
    <title>云导播台-48px 蓝</title>
    <desc>Created with Sketch.</desc>
    <g id="云导播台-48px-蓝" stroke="none" stroke-width="1" fill="none" fill-rule="evenodd">
        <path d="M25,4.04780497 C32.2652756,4.56055146 38,10.6168879 38,18.0126409 L38,18.2126771 C42.5644806,19.1392178 46,23.1747251 46,28.0126409 C46,33.5354884 41.5228475,38.0126409 36,38.0126409 L29.9061492,38.0126409 L27.9530746,36.0126409 L36,36.0126409 C40.418278,36.0126409 44,32.4309189 44,28.0126409 C44,24.1910264 41.2989554,20.9231185 37.6021356,20.1727037 L36,19.8474873 L36,18.0126409 C36,11.7219771 31.1595305,6.56186559 25,6.05371469 L25,9.01264091 L19.1038468,4.86539067 C20.4955569,4.46458837 21.5394447,4.21385189 22.2355102,4.11318122 C22.9315757,4.01251055 23.8530723,3.97899712 25,4.01264091 L25,4.04780497 Z M21,36.0126409 L21,33.0126409 L27,38.0126409 L23.6666667,38.0126409 L12,38.0126409 C6.4771525,38.0126409 2,33.5354884 2,28.0126409 C2,23.1747251 5.43551936,19.1392178 10,18.2126771 L10,18.0126409 C10,12.9532565 12.6837564,8.52069708 16.7053271,6.06090475 L18.5178637,7.33524765 C14.647403,9.3264812 12,13.360394 12,18.0126409 L12,19.8474873 L10.3978644,20.1727037 C6.70104461,20.9231185 4,24.1910264 4,28.0126409 C4,32.4309189 7.581722,36.0126409 12,36.0126409 L21,36.0126409 Z M10,43 L38,43 L38,45 L10,45 L10,43 Z M22,28 C21.64941,28 21.4512779,27.9266177 21.0572197,27.7320211 C20.387828,27.4014573 20,26.7311373 20,26.0123457 L20,17.9465021 C20,17.2277105 20.387828,16.5573904 21.0572197,16.2268267 C21.6903812,15.9141543 22.3984449,15.9141543 22.9114457,16.254438 L29.9427803,20.2597485 C30.612172,20.5903123 31,21.2606323 31,21.9794239 C31,22.6982155 30.612172,23.3685355 29.994779,23.6714879 L22.9909842,27.6591242 C22.7200827,27.8692393 22.3594985,28 22,28 Z M28.9262167,21.9803894 L22,18.0345863 L22,25.9219204 L28.9262167,21.9803894 Z" id="形状结合" fill="#03A5FF" fill-rule="nonzero"></path>
        <rect id="矩形" x="0" y="0" width="48" height="48"></rect>
    </g>
</svg>