<?xml version="1.0" encoding="UTF-8"?>
<svg width="48px" height="48px" viewBox="0 0 48 48" version="1.1" xmlns="http://www.w3.org/2000/svg" xmlns:xlink="http://www.w3.org/1999/xlink">
    <!-- Generator: Sketch 52.5 (67469) - http://www.bohemiancoding.com/sketch -->
    <title>云审计</title>
    <desc>Created with Sketch.</desc>
    <g id="云审计" stroke="none" stroke-width="1" fill="none" fill-rule="evenodd">
        <g>
            <rect id="矩形" fill="#D8D8D8" opacity="0" x="0" y="0" width="48" height="48"></rect>
            <g id="XMLID_2_" transform="translate(1.000000, 4.000000)" fill="#00A4FF" fill-rule="nonzero">
                <g id="Group-24">
                    <path d="M2,20 C2,12.2 6.2,5.5 12.5,1.8 L11.5,0.1 C4.6,4.1 0,11.5 0,20 C0,28.5 4.6,35.9 11.5,39.9 L12.5,38.2 C6.2,34.5 2,27.8 2,20 Z M34.5,0.1 L33.5,1.8 C39.8,5.5 44,12.2 44,20 C44,27.8 39.8,34.5 33.5,38.2 L34.5,39.9 C41.4,35.9 46,28.5 46,20 C46,11.5 41.4,4.1 34.5,0.1 Z" id="Shape"></path>
                    <rect id="Rectangle-4" x="12" y="28" width="22" height="2"></rect>
                    <polygon id="Rectangle-4-Copy" points="12 22 22 22 22 24 12 24"></polygon>
                    <polygon id="Rectangle-4-Copy-2" points="12 16 22 16 22 18 12 18"></polygon>
                    <polygon id="Rectangle-4-Copy-3" points="12 10 22 10 22 12 12 12"></polygon>
                    <polygon id="Rectangle-210" transform="translate(29.063491, 17.220157) rotate(30.000000) translate(-29.063491, -17.220157) " points="27.5634909 9.74906315 30.5634909 9.74906315 30.5634909 22.7490632 28.6848141 24.6912518 27.5634909 22.7490632"></polygon>
                </g>
            </g>
        </g>
    </g>
</svg>