<?xml version="1.0" encoding="utf-8"?>
<!-- Generator: Adobe Illustrator 16.0.0, SVG Export Plug-In . SVG Version: 6.00 Build 0)  -->
<!DOCTYPE svg PUBLIC "-//W3C//DTD SVG 1.1//EN" "http://www.w3.org/Graphics/SVG/1.1/DTD/svg11.dtd">
<svg version="1.1" id="图层_1" xmlns="http://www.w3.org/2000/svg" xmlns:xlink="http://www.w3.org/1999/xlink" x="0px" y="0px"
	 width="48px" height="48px" viewBox="0 0 48 48" enable-background="new 0 0 48 48" xml:space="preserve">
<g>
	<g id="_编组_">
		<g id="_编组_2">
			<polygon fill="#00A4FF" points="9.349,44.932 9.349,3.069 38.65,3.069 38.65,38.652 40.744,38.652 40.744,0.976 7.256,0.976 
				7.256,47.023 40.744,47.023 40.744,44.932 			"/>
		</g>
		<rect id="_矩形_" x="20.86" y="36.559" fill="#00A4FF" width="6.279" height="2.094"/>
	</g>
	<path fill="#00A4FF" d="M28.904,9.512l-2.758,3.33h-7.662l2.76-3.33H28.904 M33.096,7.542H20.319l-6.025,7.27H27.07L33.096,7.542
		L33.096,7.542z"/>
	<rect x="14.294" y="14.729" fill="#00A4FF" width="1.97" height="10.378"/>
	<rect x="25.17" y="14.729" fill="#00A4FF" width="1.969" height="10.378"/>
	<rect x="31.209" y="7.542" fill="#00A4FF" width="1.969" height="10.379"/>
	<g>
		<rect x="20.396" y="8.545" fill="#00A4FF" width="1.97" height="4.878"/>
		<rect x="20.396" y="12.85" fill="#00A4FF" width="1.97" height="6.075"/>
	</g>
	<polygon fill="#00A4FF" points="25.166,17.92 25.166,19.891 28.986,19.891 26.227,23.22 18.567,23.22 21.326,19.891 26.309,19.891 
		26.309,17.92 20.401,17.92 14.377,25.189 27.152,25.189 33.178,17.92 	"/>
</g>
</svg>
