<?xml version="1.0" encoding="utf-8"?>
<!-- Generator: Adobe Illustrator 24.0.1, SVG Export Plug-In . SVG Version: 6.00 Build 0)  -->
<svg version="1.1" id="图层_1" xmlns="http://www.w3.org/2000/svg" xmlns:xlink="http://www.w3.org/1999/xlink" x="0px" y="0px"
	 width="48px" height="48px" viewBox="0 0 48 48" style="enable-background:new 0 0 48 48;" xml:space="preserve">
<style type="text/css">
	.st0{fill-rule:evenodd;clip-rule:evenodd;fill:#00A4FF;}
	.st1{fill:#00A4FF;}
	.st2{fill:none;stroke:#2277DA;stroke-width:2;stroke-miterlimit:10;}
	.st3{fill:none;stroke:#00A4FF;stroke-width:2;stroke-miterlimit:10;}
</style>
<g id="图层_1_1_">
	<polygon class="st0" points="38,44 37,44 10,44 10,4 38,4 38,38 40,38 40,2 8,2 8,46 40,46 40,44 	"/>
	<rect x="21" y="36" class="st1" width="6" height="2"/>
	<polygon class="st2" points="28.9,9.6 27.7,9.6 24,16 28,14.1 32,16.4 32,15.3 32,11.4 	"/>
	<polygon class="st3" points="16,15.7 16,16.7 16,20.6 19.1,22.5 20.3,22.5 24,16 20,18 	"/>
	<polygon class="st3" points="23,11.2 19.7,9.3 19.7,9.3 16,11.4 16,14.5 16,15.7 23,12.3 	"/>
	<polygon class="st3" points="28.9,9.6 27.7,9.6 24,16 28,14.1 32,16.4 32,15.3 32,11.4 	"/>
	<polygon class="st3" points="25,20.9 28.3,22.8 28.3,22.8 32,20.6 32,17.6 32,16.4 25,19.8 	"/>
</g>
</svg>
