<?xml version="1.0" encoding="utf-8"?>
<!-- Generator: Adobe Illustrator 21.0.0, SVG Export Plug-In . SVG Version: 6.00 Build 0)  -->
<svg version="1.1" id="图层_1" xmlns="http://www.w3.org/2000/svg" xmlns:xlink="http://www.w3.org/1999/xlink" x="0px" y="0px"
	 width="48px" height="48px" viewBox="0 0 48 48" style="enable-background:new 0 0 48 48;" xml:space="preserve">
<style type="text/css">
	.st0{fill:#00A4FF;}
</style>
<path id="XMLID_701_" class="st0" d="M21,4c10.4,0,17,3.6,17,6s-6.6,6-17,6S4,12.5,4,10S10.7,4,21,4 M21,2C10.5,2,2,5.6,2,10
	s8.5,8,19,8s19-3.6,19-8S31.5,2,21,2L21,2z"/>
<rect id="XMLID_723_" x="2" y="9.1" class="st0" width="2" height="27"/>
<rect id="XMLID_685_" x="2" y="10.1" class="st0" width="2" height="27"/>
<g>
	<g>
		<path class="st0" d="M21,27.1c0.2,0,0.4,0,0.7,0L21.6,27c-0.6-0.7-1-1.3-1.3-1.9C10.3,24.9,4,21,4,19.1H2
			C2,23.1,10.5,27.1,21,27.1z M40,19.3c0-0.1,0-0.2,0-0.3h0v-9h-2v9.2c-0.2,1.2-2.4,2.9-6,4.1c0.7,0.4,1.4,0.8,2.1,1.4
			c1.6-0.7,2.9-1.4,3.9-2.3v5.8c0,0.2-0.2,0.4-0.3,0.7c0.7,0.9,1.1,1.5,1.5,2.3l0.1,0c0.2,0.1,0.5,0.1,0.7,0.2v-3.1
			c0-0.1,0-0.2,0-0.3h0V19.3z M21,36.1c0.8,0,1.6,0,2.3-0.1c0-0.7,0-1.4,0.1-2c-0.8,0-1.6,0.1-2.4,0.1c-10.4,0-17-4-17-6H2
			C2,32.1,10.5,36.1,21,36.1z M21,43.1c-10.4,0-17-4-17-6H2c0,4,8.5,8,19,8c3.6,0,7-0.5,9.8-1.3c-0.5-0.6-0.9-1.1-1.3-1.7
			C27.1,42.7,24.3,43.1,21,43.1z"/>
	</g>
</g>
<g>
	<path class="st0" d="M43.3,44.9c-1.2-2.5-3.5-4.9-4.5-5.9c-0.6-0.6-0.7-1.4-0.3-2.1c0.4-0.7,1.2-1,2-0.8c0.5,0.1,1,0.2,1.5,0.3
		c-1.4-0.8-2.8-1.1-3.8-1.4c-0.2-0.1-0.4-0.1-0.5-0.1c-0.8-0.2-1.5-0.8-1.9-1.6c-0.5-1.1-1-1.7-3.4-4.7c-1.6-2-5.3-3.2-6.6-3.5
		l-0.2,0c-0.2,0-0.3-0.1-0.4-0.2l-0.1-0.1c-0.4-0.4-0.9-0.6-1.3-0.9c0.1,0.2,0.3,0.4,0.6,0.7l0.2,0.2c0.8,0.9,1.1,2.1,1.3,3.2
		c0.1,0.3,0.1,0.6,0.2,0.8c0.1,0.3,0.4,0.9,1,1.7c0.4,0.6,0.5,1.2,0.4,1.9c-0.3,1.1-0.4,2.2-0.4,3.1c0,0,0,0,0,0
		c0.4-0.4,0.9-0.6,1.5-0.5c1.1,0.1,1.5,0.9,2.4,2.4c1,1.7,2.6,4.6,4.6,5.5l-0.9,1.8c-2.5-1.2-4.4-4.4-5.4-6.3
		c-0.3-0.6-0.6-1.1-0.8-1.4c0,0.1-0.1,0.5-0.1,1.6c0,0.5,0,0.9-0.1,1.2c-0.1,0.4-0.4,0.7-0.8,0.8c-0.4,0.1-0.8,0-1-0.3
		c-0.2-0.3-0.5-0.7-0.7-1.2c-1.2-2.3-0.4-6-0.1-7.1c0-0.1,0-0.2,0-0.3c-0.6-0.9-1.1-1.7-1.3-2.3c-0.1-0.3-0.1-0.6-0.2-0.9
		c-0.2-0.9-0.5-1.9-0.9-2.4L23,25.9c-0.8-0.9-2.4-2.8-1-4c1.3-1.2,3.9,0.8,4.5,1.3c0.7,0.2,5.4,1.4,7.7,4.2c2.5,3.1,3,3.7,3.6,5.1
		c0.1,0.3,0.3,0.4,0.6,0.5c0.1,0,0.3,0.1,0.5,0.1c1.4,0.4,3.8,1,6,2.7c0.5,0.4,0.9,0.8,1.1,1.1C46,37,46,37.3,46,37.6
		c-0.1,0.3-0.3,0.5-0.6,0.6c-0.9,0.4-3.1,0.2-4.6-0.1c1.2,1.2,3.2,3.5,4.3,5.9L43.3,44.9z"/>
</g>
<g>
	<path class="st0" d="M28.4,29.9c-0.4-0.8-1.2-1.2-1.2-1.2l0.9-1.8c0.2,0.1,1.5,0.8,2.2,2.2L28.4,29.9z"/>
</g>
</svg>
