<?xml version="1.0" encoding="UTF-8"?>
<svg width="48px" height="48px" viewBox="0 0 48 48" version="1.1" xmlns="http://www.w3.org/2000/svg" xmlns:xlink="http://www.w3.org/1999/xlink">
    <title>画板</title>
    <g id="画板" stroke="none" stroke-width="1" fill="none" fill-rule="evenodd">
        <path d="M40,2 L40,38 L38,38 L38,4 L10,4 L10,44 L40,44 L40,46 L8,46 L8,2 L40,2 Z M27,36 L27,38 L21,38 L21,36 L27,36 Z M19.9643295,14.264391 L19.9566245,16.5781079 L18.4999901,17.42 L18.4999901,19.1 L23.9999901,22.3 L29.4999901,19.1 L31.4999901,17.945 L31.4999901,20.3 L23.9999901,24.7 L16.4999901,20.4 L16.4999901,16.264 L19.9643295,14.264391 Z M23.9999801,14 C25.1045496,14 25.9999801,14.8954305 25.9999801,16 C25.9999801,17.1045695 25.1045496,18 23.9999801,18 C22.8954106,18 21.9999801,17.1045695 21.9999801,16 C21.9999801,14.8954305 22.8954106,14 23.9999801,14 Z M23.9999901,7.3 L31.4999901,11.6 L31.4999901,15.637 L28.0356308,17.6340783 L28.0433358,15.3203614 L29.4999901,14.481 L29.4999901,12.8 L23.9999901,9.6 L18.4999901,12.8 L16.5029288,13.9526682 L16.4999901,11.7 L23.9999901,7.3 Z" id="形状结合" fill="#00A4FF"></path>
    </g>
</svg>