<?xml version="1.0" encoding="utf-8"?>
<!-- Generator: Adobe Illustrator 21.0.0, SVG Export Plug-In . SVG Version: 6.00 Build 0)  -->
<svg version="1.1" id="图层_1" xmlns="http://www.w3.org/2000/svg" xmlns:xlink="http://www.w3.org/1999/xlink" x="0px" y="0px"
	 width="48px" height="48px" viewBox="0 0 48 48" style="enable-background:new 0 0 48 48;" xml:space="preserve">
<style type="text/css">
	.st0{fill:#00A4FF;}
</style>
<g>
	<path class="st0" d="M44.9,34.1c-0.6-4.6-3.5-8.9-9.9-14.1l0,0v0c-6.4,5.3-9.3,9.6-9.9,14.1c-0.6,4.7,1.8,8.2,8.9,9.9V47h0.1H35h0
		h0.9H36v-2.9C43.1,42.3,45.5,38.9,44.9,34.1z M34,42c-6.8-1.8-7.3-5-6.9-7.6c0.5-3.5,2.6-6.9,6.9-10.9V42z M36,42V23.5
		c4.3,4,6.5,7.4,6.9,10.9C43.3,37,42.8,40.2,36,42z"/>
	<path class="st0" d="M22,43c-10.4,0-17-3.6-17-6v-5.4c3,2.5,9,4.3,16,4.4c0-0.5,0-1.1,0.1-1.6c0-0.1,0-0.3,0.1-0.4
		C11.3,33.8,5,30.4,5,28v-5.4c3.1,2.6,9.5,4.4,17,4.4c0.6,0,1.2,0,1.8,0c0.4-0.7,0.9-1.4,1.4-2.1C24.2,25,23.1,25,22,25
		c-10.4,0-17-3.6-17-6v-5.4c3.1,2.6,9.5,4.4,17,4.4s13.9-1.8,17-4.4v4.9c0.7,0.7,1.4,1.3,2,1.9V10c0-4.4-8.5-8-19-8S3,5.6,3,10v27
		c0,4.4,8.5,8,19,8c1.3,0,2.6-0.1,3.8-0.2c-0.9-0.6-1.6-1.2-2.2-1.9C23,43,22.5,43,22,43z M22,4c10.4,0,17,3.6,17,6s-6.6,6-17,6
		S5,12.4,5,10S11.6,4,22,4z"/>
</g>
</svg>
