<?xml version="1.0" encoding="UTF-8"?>
<svg width="48px" height="48px" viewBox="0 0 48 48" version="1.1" xmlns="http://www.w3.org/2000/svg" xmlns:xlink="http://www.w3.org/1999/xlink">
    <title>tendis-48px</title>
    <g id="tendis-48px" stroke="none" stroke-width="1" fill="none" fill-rule="evenodd">
        <rect id="Rectangle-Copy" fill="#444444" opacity="0" x="0" y="0" width="48" height="48"></rect>
        <g id="Redis48px" transform="translate(4.000000, 3.000000)" fill="#00A4FF" fill-rule="nonzero">
            <path d="M19,0 C29.5,0 38,3.6 38,8 L38,19 L36,19 L36,11.5 C32.9,14.1 26.5,15.9 19,15.9 C11.5,15.9 5.1,14.1 2,11.5 L2,17 C2,18.8 7.8,22.4 17,22.9 L17,25 C10.4,24.7 4.8,22.8 2,20.4 L2,26 C2,27.9 7.8,31.5 17,31.9 L17,33.9 C10.4,33.6 4.8,31.7 2,29.3 L2,35 C2,36.8685915 7.76119626,40.483 17.0000356,40.9498973 L17.0005751,42.9514247 C7.44177854,42.4854669 0,38.7427335 0,35 L0,7 C1.1,3 9.2,0 19,0 Z M19,2 C8.7,2 2,5.5 2,8 C2,10.5 8.6,14 19,14 C29.4,14 36,10.4 36,8 C36,5.6 29.4,2 19,2 Z" id="形状结合"></path>
        </g>
        <path d="M46,25 L46,40.8155091 L37.3121613,46 L25,46 L25,25 L46,25 Z M44,27 L27,27 L27,44 L36.76,44 L44,39.68 L44,27 Z M41.452,36.138 L41.452,38.438 L35.45257,41.8585524 L29.453,38.438 L29.453,36.138 L35.45257,39.5585524 L41.452,36.138 Z M41.452,32.039 L41.452,34.378 L35.45257,37.8585524 L29.453,34.378 L29.453,32.039 L35.45257,35.4585524 L41.452,32.039 Z M35.5,29.5837695 L39.0355339,31.5 L35.5,33.4722878 L31.9644661,31.5 L35.5,29.5837695 Z" id="形状结合" fill="#00A4FF" fill-rule="nonzero"></path>
    </g>
</svg>