<svg id="图层_1" data-name="图层 1" xmlns="http://www.w3.org/2000/svg" xmlns:xlink="http://www.w3.org/1999/xlink" width="48" height="48" viewBox="0 0 48 48"><defs><style>.cls-1{fill:none;}.cls-2{clip-path:url(#clip-path);}.cls-3{fill:#00a4ff;}</style><clipPath id="clip-path"><circle class="cls-1" cx="336" cy="145" r="35"/></clipPath></defs><title>icon</title><path class="cls-3" d="M24,45A21,21,0,1,1,44.76,21h2a23,23,0,1,0,0,6h-2A21,21,0,0,1,24,45ZM35,18,24,12,13,18V30l4.09,2.23A3,3,0,0,1,18,30.54L15,28.9V21l9,5,9-5v7.9l-8,4.38A2,2,0,0,0,24,33a2,2,0,1,0,2,2s0-.08,0-.12L35,30ZM24,23.7,15.32,18.9,24,14.17l8.66,4.72Z"/></svg>