<?xml version="1.0" encoding="utf-8"?>
<!-- Generator: Adobe Illustrator 21.0.0, SVG Export Plug-In . SVG Version: 6.00 Build 0)  -->
<svg version="1.1" id="图层_1" xmlns="http://www.w3.org/2000/svg" xmlns:xlink="http://www.w3.org/1999/xlink" x="0px" y="0px"
	 width="48px" height="48px" viewBox="0 0 48 48" style="enable-background:new 0 0 48 48;" xml:space="preserve">
<style type="text/css">
	.st0{fill:#00A4FF;}
</style>
<g>
	<path class="st0" d="M4,38v-5.4c3.1,2.6,9.5,4.4,17,4.4c0.1,0,0.3,0,0.4,0l-1.6-2C10.1,34.7,4,31.3,4,29v-6.4
		c3.1,2.6,9.5,4.4,17,4.4c1.3,0,2.7-0.1,3.9-0.2l1.1-2.1C24.5,24.9,22.8,25,21,25c-10.4,0-17-3.6-17-6v-5.4c3.1,2.6,9.5,4.4,17,4.4
		s13.9-1.8,17-4.4V19h1h1v-9c0-4.4-8.5-8-19-8S2,5.6,2,10v28c0,4.4,8.5,8,19,8c3.7,0,7.1-0.4,10-1.2v-2.1c-2.7,0.8-6.1,1.3-10,1.3
		C10.6,44,4,40.4,4,38z M21,4c10.4,0,17,3.6,17,6s-6.6,6-17,6S4,12.4,4,10S10.6,4,21,4z"/>
	<path class="st0" d="M44.3,29H35v0v-3v-6.7L33.7,19L25,35.1l0.7,0.9H35v9.7l1.5,0.3L45,30L44.3,29z M37,40.8V36v-2h-2h-7.1l5.1-9.5
		V26v3v2h2h7.2L37,40.8z"/>
</g>
</svg>
