<?xml version="1.0" encoding="UTF-8"?>
<svg width="48px" height="48px" viewBox="0 0 48 48" version="1.1" xmlns="http://www.w3.org/2000/svg" xmlns:xlink="http://www.w3.org/1999/xlink">
    <title>云数据仓库clickhouse-48px</title>
    <g id="云数据仓库clickhouse-48px" stroke="none" stroke-width="1" fill="none" fill-rule="evenodd">
        <rect id="Rectangle-Copy" fill="#444444" opacity="0" x="0" y="0" width="48" height="48"></rect>
        <g id="分组-149" transform="translate(0.000000, 3.000000)" fill="#00A4FF">
            <g id="Group-92" fill-rule="nonzero">
                <path d="M45,36 C43.7,36 42.6,36.8 42.2,38 L4,38 L4,12 L2,12 L2,38 L2,40 L4,40 L42.2,40 C42.6,41.2 43.7,42 45,42 C46.7,42 48,40.7 48,39 C48,37.3 46.7,36 45,36 Z" id="Shape"></path>
                <path d="M5.8,4 L44,4 L44,30 L46,30 L46,4 L46,2 L44,2 L5.8,2 C5.4,0.8 4.3,0 3,0 C1.3,0 0,1.3 0,3 C0,4.7 1.3,6 3,6 C4.3,6 5.4,5.2 5.8,4 Z" id="Shape"></path>
            </g>
            <path d="M14,30 L14,32 L12,32 L12,30 L14,30 Z M20,10 L20,32 L18,32 L18,10 L20,10 Z M26,10 L26,32 L24,32 L24,10 L26,10 Z M32,10 L32,32 L30,32 L30,10 L32,10 Z M14,10 L14,28 L12,28 L12,10 L14,10 Z M38,18 L38,24 L36,24 L36,18 L38,18 Z" id="形状结合"></path>
        </g>
    </g>
</svg>