<?xml version="1.0" encoding="utf-8"?>
<!-- Generator: Adobe Illustrator 21.0.0, SVG Export Plug-In . SVG Version: 6.00 Build 0)  -->
<svg version="1.1" id="图层_1" xmlns="http://www.w3.org/2000/svg" xmlns:xlink="http://www.w3.org/1999/xlink" x="0px" y="0px"
	 width="48px" height="48px" viewBox="0 0 48 48" style="enable-background:new 0 0 48 48;" xml:space="preserve">
<style type="text/css">
	.st0{fill:#00A4FF;}
</style>
<g>
	<path class="st0" d="M45,39c-1.3,0-2.4,0.8-2.8,2H4V15H2v26v2h2h38.2c0.4,1.2,1.5,2,2.8,2c1.7,0,3-1.3,3-3S46.7,39,45,39z"/>
	<path class="st0" d="M5.8,7H44v26h2V7V5h-2H5.8C5.4,3.8,4.3,3,3,3C1.3,3,0,4.3,0,6s1.3,3,3,3C4.3,9,5.4,8.2,5.8,7z"/>
	<path class="st0" d="M13,24.4V36h22V24.4l-11-6.6L13,24.4z M33,34H15v-8.4l9-5.4l9,5.4V34z"/>
	<polygon class="st0" points="38,20.6 24,12 10,20.6 10,22.9 24,14.3 38,22.9 	"/>
</g>
</svg>
