<?xml version="1.0" encoding="utf-8"?>
<!-- Generator: Adobe Illustrator 21.0.0, SVG Export Plug-In . SVG Version: 6.00 Build 0)  -->
<svg version="1.1" id="图层_1" xmlns="http://www.w3.org/2000/svg" xmlns:xlink="http://www.w3.org/1999/xlink" x="0px" y="0px"
	 width="48px" height="48px" viewBox="0 0 48 48" style="enable-background:new 0 0 48 48;" xml:space="preserve">
<style type="text/css">
	.st0{fill:#00A4FF;}
</style>
<g>
	<path class="st0" d="M33,45L33,45L33,45L33,45L33,45l-10-5.7V37l10,5.7L43,37v2.3L33,45z M33,40L33,40L33,40L33,40l-10-5.8v-2.3
		l10,5.7l10-5.7v2.3L33,40L33,40z M33,35L33,35L33,35L33,35l-10-5.8v-2.5L33,21l0,0l0,0l0,0l0,0l10,5.7v2.5L33,35L33,35z M33,23.4
		L24.9,28l8.1,4.6l8.1-4.6L33,23.4z M38,13.5c-3.1,2.6-9.5,4.4-17,4.4S7.1,16.1,4,13.5V19c0,1.8,5.8,5.4,15,5.9V26v1
		c-6.6-0.3-12.2-2.2-15-4.6V28c0,1.9,5.8,5.5,15,5.9v2c-6.6-0.3-12.2-2.2-15-4.6V37c0,2,6.6,6,17,6c1,0,1.9,0,2.7-0.1l2.6,1.7
		C24.7,44.9,22.9,45,21,45c-10.5,0-19-4-19-8V10.1V9c1.1-4,9.2-7,19-7c10.5,0,19,3.6,19,8v9c0,0.1,0,0.2,0,0.3V21l-2-1.3V13.5z
		 M21,4C10.7,4,4,7.5,4,10s6.6,6,17,6s17-3.6,17-6S31.4,4,21,4z"/>
</g>
</svg>
