<svg xmlns="http://www.w3.org/2000/svg" width="48" height="48" viewBox="0 0 48 48">
  <title>画板 3</title>
  <path d="M38.941,31.449a1.61,1.61,0,1,0-1.61,1.61A1.61,1.61,0,0,0,38.941,31.449Zm5.165,3.888c-.032-.825-.082-2.225-.177-3.194C43.469,27.469,42,25,39.792,23.083a6.84,6.84,0,0,0-6.118-1.772A39.05,39.05,0,0,0,24,23.583v2.064c1.83-.606,3.433-1.08,4.773-1.446a7.641,7.641,0,0,0-1.164,3.872c-.1,2.675.058,4.986,2.59,7.581A11.89,11.89,0,0,0,32,34.625a7.991,7.991,0,0,1-2.5-6.282c.079-2.119,1.188-4.343,2.7-4.978.028-.012.059-.016.087-.027.7-.149,1.079-.213,1.091-.213l.656-.063v-.026c.2-.008.388-.011.568-.016A5.769,5.769,0,0,1,38.656,24.3c2.469,2,3.25,5.04,3.483,8.05.087,1.135.138,2.849.151,3.536a20.834,20.834,0,0,1-8.034.118A11.012,11.012,0,0,1,32,37.414c.005,0,.028,5.607.028,5.607l-3.015-.011V39.118A31.1,31.1,0,0,1,24,40.583V42.5a27.4,27.4,0,0,0,3.042-.742v3.2h6.989V38a22.727,22.727,0,0,0,8.259-.141c-.03,2.064-.322,3.757-.978,4.61A1.325,1.325,0,0,1,40.187,43C39.451,43,39,42.1,39,41.388V40.029H37v1.359c0,2.036,1.112,3.57,3.171,3.57a3.169,3.169,0,0,0,2.415-.969c.99-1.05,1.628-2.954,1.616-6.71a11.459,11.459,0,0,0,1.827-.905V34.156A8.8,8.8,0,0,1,44.106,35.337Z" style="fill: #00a4ff"/>
  <path d="M21,18c7.455,0,13.888-1.812,17-4.443V18h2V10c0-4.418-8.507-8-19-8S2,5.582,2,10V38c0,4.276,7.974,7.758,18,7.979v-2C10.205,43.758,4,40.366,4,38V32.557c2.971,2.512,8.974,4.274,16,4.428V34.979C10.205,34.758,4,31.366,4,29V22.557c2.971,2.512,8.974,4.274,16,4.428V24.979C10.205,24.758,4,21.366,4,19V13.557C7.112,16.188,13.545,18,21,18ZM21,4c10.378,0,17,3.554,17,6s-6.622,6-17,6S4,12.446,4,10,10.622,4,21,4Z" style="fill: #00a4ff"/>
</svg>
