<?xml version="1.0" encoding="UTF-8"?>
<svg width="48px" height="48px" viewBox="0 0 48 48" version="1.1" xmlns="http://www.w3.org/2000/svg" xmlns:xlink="http://www.w3.org/1999/xlink">
    <!-- Generator: Sketch 52.5 (67469) - http://www.bohemiancoding.com/sketch -->
    <title>云拨测</title>
    <desc>Created with Sketch.</desc>
    <g id="云拨测" stroke="none" stroke-width="1" fill="none" fill-rule="evenodd">
        <g>
            <rect id="矩形" fill="#D8D8D8" opacity="0" x="0" y="0" width="48" height="48"></rect>
            <g id="分组-54" transform="translate(1.000000, 4.000000)">
                <g id="XMLID_2_" fill="#00A4FF" fill-rule="nonzero">
                    <path d="M2,20 C2,12.2 6.2,5.5 12.5,1.8 L11.5,0.1 C4.6,4.1 0,11.5 0,20 C0,28.5 4.6,35.9 11.5,39.9 L12.5,38.2 C6.2,34.5 2,27.8 2,20 Z M34.5,0.1 L33.5,1.8 C39.8,5.5 44,12.2 44,20 C44,27.8 39.8,34.5 33.5,38.2 L34.5,39.9 C41.4,35.9 46,28.5 46,20 C46,11.5 41.4,4.1 34.5,0.1 Z" id="Shape"></path>
                </g>
                <path d="M17.5,10.5 C14.2,12.4 12,16 12,20.1 C12,24.3013113 14.3243747,27.9333881 17.7642897,29.7873957 M28.6884477,29.5292832 C31.8779993,27.6088289 34,24.1142513 34,20.1 C34,16 31.8,12.5 28.5,10.6" id="Shape" stroke="#00A4FF" stroke-width="2"></path>
                <circle id="Oval" fill="#00A4FF" fill-rule="nonzero" cx="23" cy="20" r="2"></circle>
            </g>
        </g>
    </g>
</svg>