<?xml version="1.0" encoding="utf-8"?>
<!-- Generator: Adobe Illustrator 21.0.0, SVG Export Plug-In . SVG Version: 6.00 Build 0)  -->
<svg version="1.1" id="图层_1" xmlns="http://www.w3.org/2000/svg" xmlns:xlink="http://www.w3.org/1999/xlink" x="0px" y="0px"
	 width="48px" height="48px" viewBox="0 0 48 48" style="enable-background:new 0 0 48 48;" xml:space="preserve">
<style type="text/css">
	.st0{fill:#03A5FF;}
</style>
<g>
	<path class="st0" d="M20.8,31.5c-0.2,0-0.4-0.1-0.6-0.2c-0.4-0.2-0.6-0.6-0.6-1v-9.8c0-0.4,0.2-0.8,0.6-1c0.4-0.2,0.8-0.2,1.1,0
		l8.5,4.9c0.4,0.2,0.6,0.6,0.6,1s-0.2,0.8-0.6,1l-8.5,4.9C21.2,31.4,21,31.5,20.8,31.5z M21.7,22.1v6.8l5.9-3.4L21.7,22.1z"/>
</g>
<g>
	<path class="st0" d="M36.2,40.1h-9.3v-2h9.3c4.5,0,8.2-3.7,8.2-8.2c0-4.2-3.3-7.8-7.5-8.2l-1-0.1l0.1-1c0.1-0.5,0.1-1,0.1-1.4
		c0-6.6-5.4-12-12-12c-6.6,0-12,5.4-12,12c0,0.4,0,0.9,0.1,1.4l0.1,1l-1,0.1C7,22,3.6,25.6,3.6,29.9c0,4.5,3.7,8.2,8.2,8.2h9.3v2
		h-9.3c-5.6,0-10.2-4.6-10.2-10.2c0-4.9,3.6-9.2,8.4-10c0-0.2,0-0.4,0-0.6c0-7.7,6.3-14,14-14s14,6.3,14,14c0,0.2,0,0.4,0,0.6
		c4.8,0.9,8.4,5.1,8.4,10C46.5,35.5,41.9,40.1,36.2,40.1z"/>
</g>
</svg>
