<?xml version="1.0" encoding="utf-8"?>
<!-- Generator: Adobe Illustrator 22.1.0, SVG Export Plug-In . SVG Version: 6.00 Build 0)  -->
<svg version="1.1" id="图层_1" xmlns="http://www.w3.org/2000/svg" xmlns:xlink="http://www.w3.org/1999/xlink" x="0px" y="0px"
	 width="48px" height="48px" viewBox="0 0 48 48" style="enable-background:new 0 0 48 48;" xml:space="preserve">
<style type="text/css">
	.st0{fill:#00A4FF;}
	.st1{fill:none;stroke:#00A4FF;stroke-width:2;stroke-miterlimit:10;}
</style>
<g>
	<g id="XMLID_2_">
		<path class="st0" d="M3,24C3,16.2,7.2,9.5,13.5,5.8l-1-1.7C5.6,8.1,1,15.5,1,24c0,8.5,4.6,15.9,11.5,19.9l1-1.7
			C7.2,38.5,3,31.8,3,24z M35.5,4.1l-1,1.7C40.8,9.5,45,16.2,45,24c0,7.8-4.2,14.5-10.5,18.2l1,1.7C42.4,39.9,47,32.5,47,24
			C47,15.5,42.4,8.1,35.5,4.1z"/>
	</g>
	<path class="st1" d="M18.5,14.5C15.2,16.4,13,20,13,24.1c0,6.1,4.9,11,11,11c6.1,0,11-4.9,11-11c0-4.1-2.2-7.6-5.5-9.5L24,24"/>
	<circle class="st0" cx="24" cy="24" r="2"/>
</g>
<g>
</g>
<g>
</g>
<g>
</g>
<g>
</g>
<g>
</g>
<g>
</g>
<g>
</g>
<g>
</g>
<g>
</g>
<g>
</g>
<g>
</g>
<g>
</g>
<g>
</g>
<g>
</g>
<g>
</g>
</svg>
