<?xml version="1.0" encoding="UTF-8"?>
<svg width="47px" height="46px" viewBox="0 0 47 46" version="1.1" xmlns="http://www.w3.org/2000/svg" xmlns:xlink="http://www.w3.org/1999/xlink">
    <!-- Generator: Sketch 51.2 (57519) - http://www.bohemiancoding.com/sketch -->
    <title>云硬盘</title>
    <desc>Created with Sketch.</desc>
    <defs></defs>
    <g id="Welcome" stroke="none" stroke-width="1" fill="none" fill-rule="evenodd">
        <g id="腾讯云产品图标48px" transform="translate(-695.000000, -184.000000)" fill="#00A4FF" fill-rule="nonzero">
            <g id="计算" transform="translate(61.000000, 184.000000)">
                <g id="云硬盘" transform="translate(634.500000, 0.000000)">
                    <g id="XMLID_497_">
                        <path d="M43.8,26 C42.3,36.2 33.6,44 23,44 C11.4,44 2,34.6 2,23 C2,11.4 11.4,2 23,2 C33.6,2 42.3,9.8 43.8,20 L45.8,20 C44.3,8.7 34.7,0 23,0 C10.3,0 0,10.3 0,23 C0,35.7 10.3,46 23,46 C34.7,46 44.3,37.3 45.8,26 L43.8,26 Z" id="Shape"></path>
                    </g>
                    <path d="M33,35 L13,35 L13,13 L33,13 L33,35 Z M15,33 L31,33 L31,15 L15,15 L15,33 Z" id="XMLID_411_"></path>
                    <g id="XMLID_468_" transform="translate(13.000000, 27.000000)">
                        <rect id="XMLID_410_" x="0" y="0" width="20" height="2"></rect>
                    </g>
                    <g id="XMLID_469_" transform="translate(28.000000, 28.000000)">
                        <rect id="XMLID_405_" x="0" y="0" width="2" height="6"></rect>
                    </g>
                </g>
            </g>
        </g>
    </g>
</svg>