<?xml version="1.0" encoding="UTF-8"?>
<svg width="48px" height="48px" viewBox="0 0 48 48" version="1.1" xmlns="http://www.w3.org/2000/svg" xmlns:xlink="http://www.w3.org/1999/xlink">
    <!-- Generator: Sketch 64 (93537) - https://sketch.com -->
    <title>画板备份 3</title>
    <desc>Created with Sketch.</desc>
    <g id="画板备份-3" stroke="none" stroke-width="1" fill="none" fill-rule="evenodd">
        <polyline id="Stroke-1" stroke="#00A4FF" stroke-width="2" points="28.7002 16.9335 23.0002 22.5335 19.4002 19.0335"></polyline>
        <path d="M24,8.6332 C19.6,8.6332 16,11.7332 15.4,15.8332 C12.3,16.4332 10,19.0332 10,22.1332 C10,25.7342 13,28.5332 16.6,28.5332 L31.4,28.5332 C35,28.5332 38,25.6332 38,22.1332 C38,18.9332 35.7,16.3332 32.6,15.8332 C32,11.7332 28.4,8.6332 24,8.6332 M24,10.6332 C27.3,10.6332 30.1,13.0332 30.6,16.1332 L30.8,17.5332 L32.2,17.8332 C34.4,18.2332 36,20.0332 36,22.2332 C36,24.6332 33.9,26.6332 31.4,26.6332 L16.6,26.6332 C14.1,26.6332 12,24.6332 12,22.2332 C12,20.1332 13.6,18.2332 15.8,17.8332 L17.2,17.5332 L17.4,16.1332 C17.9,12.9332 20.7,10.6332 24,10.6332" id="Fill-2" fill="#00A4FF"></path>
        <path d="M23.9419823,0 C15.1409823,0 7.17998231,3.201 1.01798231,7.519 C1.01798231,7.519 -0.483017691,33.317 23.9419823,48 C48.3659823,33.317 46.8659823,7.519 46.8659823,7.519 C40.7039823,3.201 32.7429823,0 23.9419823,0 M23.9419823,2 C32.9459823,2 40.1779823,5.455 44.8799823,8.585 C44.8629823,10.625 44.5939823,15.725 42.6099823,21.791 C39.3149823,31.865 33.0379823,39.887 23.9419823,45.65 C14.8459823,39.887 8.56798231,31.865 5.27298231,21.791 C3.28898231,15.724 3.01998231,10.623 3.00298231,8.585 C7.70598231,5.455 14.9369823,2 23.9419823,2" id="Fill-13备份" fill="#00A4FF"></path>
    </g>
</svg>