<?xml version="1.0" encoding="UTF-8"?>
<svg width="48px" height="48px" viewBox="0 0 48 48" version="1.1" xmlns="http://www.w3.org/2000/svg" xmlns:xlink="http://www.w3.org/1999/xlink">
    <!-- Generator: Sketch 52.3 (67297) - http://www.bohemiancoding.com/sketch -->
    <title>人体识别-48-蓝</title>
    <desc>Created with Sketch.</desc>
    <g id="人体识别-48-蓝" stroke="none" stroke-width="1" fill="none" fill-rule="evenodd">
        <path d="M35.5415423,5.31039455 C27.0415423,0.0103945489 15.7415423,1.11039455 8.34154225,8.41039455 C0.941542254,15.7103945 -0.058457746,27.1103945 5.24154225,35.6103945 L3.84154225,37.0103945 C-2.15845775,27.7103945 -1.15845775,15.1103945 7.04154225,7.01039455 C15.2415423,-1.08960545 27.7415423,-2.18960545 37.0415423,3.81039455 L35.5415423,5.31039455 Z M12.3415423,42.7103945 C20.8415423,48.0103945 32.1415423,46.9103945 39.5415423,39.6103945 C46.9415423,32.3103945 47.9415423,20.9103945 42.6415423,12.4103945 L44.0415423,11.0103945 C50.0415423,20.3103945 49.0415423,32.9103945 40.8415423,41.0103945 C32.6415423,49.1103945 20.1415423,50.2103945 10.8415423,44.2103945 L12.3415423,42.7103945 Z" id="Oval-5_2_" fill="#00A4FF" fill-rule="nonzero"></path>
        <circle id="Oval-99_2_" fill="#00A4FF" cx="4" cy="35" r="2"></circle>
        <circle id="Oval-99-Copy_2_" fill="#00A4FF" cx="43" cy="12" r="2"></circle>
        <circle id="椭圆形-copy" stroke="#00A4FF" stroke-width="2" cx="24" cy="17" r="5"></circle>
        <path d="M27.5173499,24 L30.5977699,26.2422025 L28.0008269,34.2495788 L19.596943,34.2495788 L17,26.2422025 L20.08042,24 C21.1999502,24.5595908 22.4627241,24.8743794 23.7988849,24.8743794 C25.1350457,24.8743794 26.3978197,24.5595908 27.5173499,24 Z" id="合并形状" stroke="#00A4FF" stroke-width="2"></path>
    </g>
</svg>