<?xml version="1.0" encoding="UTF-8"?>
<svg width="48px" height="48px" viewBox="0 0 48 48" version="1.1" xmlns="http://www.w3.org/2000/svg" xmlns:xlink="http://www.w3.org/1999/xlink">
    <!-- Generator: Sketch 52.5 (67469) - http://www.bohemiancoding.com/sketch -->
    <title>iPhone 8 Copy</title>
    <desc>Created with Sketch.</desc>
    <g id="iPhone-8-Copy" stroke="none" stroke-width="1" fill="none" fill-rule="evenodd">
        <g id="Group-17" transform="translate(0.000000, -2.000000)">
            <g id="Group-2-Copy-2" transform="translate(19.149188, 26.261755) rotate(-45.000000) translate(-19.149188, -26.261755) translate(10.149188, 16.761755)" fill-rule="nonzero">
                <path d="M3.00222147,17.1537218 L3.00222147,7.35372179 C3.00222147,3.74546142 5.92729444,0.820388455 9.5355548,0.820388455 L9.5355548,0.820388455 C13.1438152,0.820388455 16.0688881,3.74546142 16.0688881,7.35372179 L16.0688881,17.1537218" id="Path-Copy-8" stroke="#00A4FF" stroke-width="2"></path>
                <circle id="Oval-Copy-14" fill="#00A4FF" cx="2.82444369" cy="16.1060885" r="2"></circle>
                <circle id="Oval-Copy-15" fill="#00A4FF" cx="15.8911104" cy="16.1060885" r="2"></circle>
            </g>
            <path d="M21.8379557,33.5583831 L21.8379557,23.7583831 C21.8379557,20.1501227 24.7630287,17.2250497 28.3712891,17.2250497 L28.3712891,17.2250497 C31.9795494,17.2250497 34.9046224,20.1501227 34.9046224,23.7583831 L34.9046224,33.5583831" id="Path-Copy-10" stroke="#00A4FF" stroke-width="2" fill-rule="nonzero" transform="translate(28.371289, 25.391716) scale(-1, -1) rotate(-45.000000) translate(-28.371289, -25.391716) "></path>
            <circle id="Oval-Copy-18" fill="#00A4FF" fill-rule="nonzero" transform="translate(28.038631, 15.819530) scale(-1, -1) rotate(-45.000000) translate(-28.038631, -15.819530) " cx="28.0386313" cy="15.81953" r="2"></circle>
            <circle id="Oval-Copy-19" fill="#00A4FF" fill-rule="nonzero" transform="translate(18.979267, 25.213939) scale(-1, -1) rotate(-45.000000) translate(-18.979267, -25.213939) " cx="18.979267" cy="25.2139386" r="2"></circle>
            <g id="智营网优INO-Copy" transform="translate(0.067622, 0.000000)"></g>
        </g>
        <polygon id="XMLID_80_" fill="#00A4FF" fill-rule="nonzero" points="44 19.1 44 34.9 24 45.8 4 34.9 4 13.1 24 2.2 44 13.1 44 13.1 46 12 46 12 24 0 2 12 2 36 24 48 46 36 46 18"></polygon>
    </g>
</svg>