<?xml version="1.0" encoding="UTF-8"?>
<svg width="48px" height="48px" viewBox="0 0 48 48" version="1.1" xmlns="http://www.w3.org/2000/svg" xmlns:xlink="http://www.w3.org/1999/xlink">
    <!-- Generator: Sketch 56.3 (81716) - https://sketch.com -->
    <title>美颜美妆 48 蓝色备份</title>
    <desc>Created with Sketch.</desc>
    <g id="美颜美妆-48-蓝色备份" stroke="none" stroke-width="1" fill="none" fill-rule="evenodd">
        <g id="33333">
            <rect id="Rectangle-Copy" fill="#444444" fill-rule="nonzero" opacity="0" x="0" y="0" width="48" height="48"></rect>
            <g id="XMLID_355_" transform="translate(10.000000, 27.000000)" fill="#00A4FF" fill-rule="nonzero">
                <path d="M2.28571429,8 L0,8 C0,3.589 4.10171429,0 9.14285714,0 L16,0 L16,2 L9.14285714,2 C5.36114286,2 2.28571429,4.691 2.28571429,8 Z" id="XMLID_14_"></path>
            </g>
            <g id="XMLID_362_" transform="translate(16.000000, 11.000000)" fill="#00A4FF" fill-rule="nonzero">
                <path d="M7,14 C3.1395,14 0,10.8605 0,7 C0,3.1395 3.1395,0 7,0 C10.8605,0 14,3.1395 14,7 C14,10.8605 10.8605,14 7,14 Z M7,2.33333333 C4.42633333,2.33333333 2.33333333,4.42633333 2.33333333,7 C2.33333333,9.57366667 4.42633333,11.6666667 7,11.6666667 C9.57366667,11.6666667 11.6666667,9.57366667 11.6666667,7 C11.6666667,4.42633333 9.57366667,2.33333333 7,2.33333333 Z" id="XMLID_11_"></path>
            </g>
            <g id="XMLID_369_" transform="translate(0.000000, 3.000000)" fill="#00A4FF" fill-rule="nonzero">
                <g id="XMLID_370_">
                    <circle id="XMLID_9_" cx="3.256" cy="3.228" r="3.2"></circle>
                </g>
            </g>
            <g id="XMLID_367_" transform="translate(41.000000, 38.000000)" fill="#00A4FF" fill-rule="nonzero">
                <g id="XMLID_368_">
                    <circle id="XMLID_8_" cx="3.8" cy="3.885" r="3.2"></circle>
                </g>
            </g>
            <polygon id="XMLID_7_" fill="#00A4FF" fill-rule="nonzero" points="46 31.997 44 31.997 44 6.997 3 6.997 3 4.997 46 4.997"></polygon>
            <polygon id="XMLID_1_" fill="#00A4FF" fill-rule="nonzero" points="45 42.997 2 42.997 2 15.997 4 15.997 4 40.997 45 40.997"></polygon>
            <rect id="矩形备份-2" stroke="#00A4FF" stroke-width="2" x="30.5237459" y="27.0516711" width="6" height="7"></rect>
            <path d="M32.2379501,24.5960004 L32.2379501,27.1211079 L30.9872508,27.1211079 L30.9872508,21.9108934 C30.9872508,21.548933 31.182848,21.2152272 31.498664,21.0383781 L35.6895335,18.6915957 C35.7193885,18.6748776 35.7530336,18.6660988 35.7872508,18.6660988 C35.8977078,18.6660988 35.9872508,18.7556418 35.9872508,18.8660988 L35.9872508,27.1211079 L32.2379501,27.1211079 L32.2379501,24.5960004 Z M32.9872508,22.2884963 L32.9872508,26.1211079 L33.9872508,26.1211079 L33.9872508,21.8531747 L32.9872508,22.2884963 Z" id="形状结合" fill="#00A4FF" fill-rule="nonzero"></path>
        </g>
    </g>
</svg>