<?xml version="1.0" encoding="UTF-8"?>
<svg width="48px" height="48px" viewBox="0 0 48 48" version="1.1" xmlns="http://www.w3.org/2000/svg" xmlns:xlink="http://www.w3.org/1999/xlink">
    <!-- Generator: Sketch 52.5 (67469) - http://www.bohemiancoding.com/sketch -->
    <title>iPhone 8</title>
    <desc>Created with Sketch.</desc>
    <g id="iPhone-8" stroke="none" stroke-width="1" fill="none" fill-rule="evenodd">
        <g id="区块链" transform="translate(1.000000, 0.000000)" fill="#00A4FF" fill-rule="nonzero">
            <path d="M23.104,45 C11.504,45 2.104,35.6 2.104,24 C2.104,12.4 11.504,3 23.104,3 C33.504,3 42.404,10.7 43.904,21 L45.904,21 C44.204,8.4 32.704,-0.5 20.104,1.2 C7.504,2.9 -1.396,14.4 0.304,27 C2.004,39.6 13.504,48.5 26.104,46.8 C36.404,45.4 44.504,37.3 45.904,27 L43.904,27 C42.404,37.3 33.504,45 23.104,45 Z" id="Shape"></path>
        </g>
        <g id="Group-5" transform="translate(12.000000, 12.800000)" fill="#01A4FF" fill-rule="nonzero">
            <path d="M17.4314276,14.2372857 C19.8526342,14.1424453 22.1271176,12.9791965 23.6696693,11.0702355 L23.552775,10.8919748 C22.1428092,8.74215341 20.5162444,6.74262238 18.6986577,4.92484519 L18.5305692,4.75675668 C15.5399007,1.76601912 11.0026444,1.25090379 7.47576759,3.23003669 C9.29403135,3.28245555 11.056994,3.70403224 12.678044,4.46115449 C12.767488,4.50291869 12.856367,4.54564214 12.9451656,4.5895654 C13.1213293,4.67676233 13.2954923,4.76784707 13.4673192,4.86262365 C13.8961532,5.09909564 14.311495,5.35932796 14.7115749,5.6420163 C14.8719266,5.75533153 15.0288722,5.87145947 15.1817733,5.99000492 C15.3362963,6.10971584 15.487868,6.23258143 15.6368961,6.35898299 C15.7012515,6.41360309 15.7789232,6.48283581 15.8076921,6.51197777 C15.8953172,6.58489862 15.9808587,6.66033445 16.0834177,6.75629099 C16.244417,6.91055294 16.6122282,7.31527484 16.7611253,7.51260439 C17.5720535,8.5873098 18.0013847,9.90624448 17.9606609,11.2816253 C17.92856,12.3649124 17.6045691,13.3783366 17.0646758,14.2450381 C17.1874621,14.2446666 17.3095684,14.2420857 17.4314276,14.2372857 Z M1.34848449,6.33110481 L1.54967455,6.68483793 L1.36779054,6.30742353 C1.36135219,6.31531482 1.35491684,6.32320859 1.34848449,6.33110481 Z M25.7796634,10.6407053 C25.9691083,10.9295888 25.9680045,11.3036623 25.7768538,11.591442 C25.7768538,11.591442 25.686747,11.71717 25.5426565,11.9143413 C23.6565354,14.4956291 20.704084,16.1106272 17.509709,16.2357532 C17.3517714,16.2419743 17.1931313,16.2450849 17.0336885,16.2450849 C15.1790746,16.2450849 13.4234979,15.8222454 11.8568644,15.0688806 C11.9565037,15.0721919 12.0568453,15.0723926 12.1581903,15.0682786 C14.2263311,14.984092 15.9002297,13.2913291 15.9615384,11.2223856 C15.9894334,10.2802783 15.6878065,9.4106176 15.1646254,8.71725711 C15.0733146,8.59624514 14.7692795,8.26702434 14.6997428,8.20039751 C14.6440532,8.14842056 14.5869588,8.09804908 14.5283593,8.04928306 C14.4466143,7.9746289 14.384737,7.91947447 14.3427273,7.88381975 C14.2164976,7.77675526 14.0878597,7.67250033 13.9569139,7.57105497 C13.8260684,7.46960961 13.6928148,7.37107416 13.5573536,7.27534827 C13.218801,7.03613388 12.8664013,6.81518167 12.5015592,6.61399675 C12.3556626,6.53352279 12.207759,6.45615941 12.057949,6.38200697 C11.9830942,6.34498091 11.9077376,6.3087576 11.8318794,6.27333701 C10.3911746,5.60044621 8.78400317,5.22446622 7.08893245,5.22446622 C5.57798858,5.22446622 4.1369828,5.52318318 2.82140403,6.06462647 C2.38291123,6.24504068 1.95826556,6.45244677 1.54967455,6.68483793 C1.36374155,6.77444298 1.18011642,6.86796135 0.999200507,6.9659951 C0.968395635,6.98265181 0.937189396,6.97221628 0.919127907,6.95084352 C0.900966077,6.92937042 0.895948997,6.89696008 0.918525858,6.86826238 C1.89013361,5.63285655 2.93378663,4.45494646 4.04617365,3.34255944 C4.0916284,3.2971047 4.13678212,3.25335576 4.18173516,3.21030921 C8.58181483,-1.046583 15.5993052,-1.00303474 19.9447991,3.34255944 L20.1128713,3.51063163 C22.0272887,5.42524977 23.7403206,7.53111901 25.2251757,9.79512662 L25.7796634,10.6407053 Z" id="Stroke-1"></path>
        </g>
        <g id="Group-5" transform="translate(23.050179, 27.715591) scale(-1, -1) translate(-23.050179, -27.715591) translate(10.050179, 19.215591)" fill="#01A4FF" fill-rule="nonzero">
            <path d="M17.4314276,14.2372857 C19.8526342,14.1424453 22.1271176,12.9791965 23.6696693,11.0702355 L23.552775,10.8919748 C22.1428092,8.74215341 20.5162444,6.74262238 18.6986577,4.92484519 L18.5305692,4.75675668 C15.5399007,1.76601912 11.0026444,1.25090379 7.47576759,3.23003669 C9.29403135,3.28245555 11.056994,3.70403224 12.678044,4.46115449 C12.767488,4.50291869 12.856367,4.54564214 12.9451656,4.5895654 C13.1213293,4.67676233 13.2954923,4.76784707 13.4673192,4.86262365 C13.8961532,5.09909564 14.311495,5.35932796 14.7115749,5.6420163 C14.8719266,5.75533153 15.0288722,5.87145947 15.1817733,5.99000492 C15.3362963,6.10971584 15.487868,6.23258143 15.6368961,6.35898299 C15.7012515,6.41360309 15.7789232,6.48283581 15.8076921,6.51197777 C15.8953172,6.58489862 15.9808587,6.66033445 16.0834177,6.75629099 C16.244417,6.91055294 16.6122282,7.31527484 16.7611253,7.51260439 C17.5720535,8.5873098 18.0013847,9.90624448 17.9606609,11.2816253 C17.92856,12.3649124 17.6045691,13.3783366 17.0646758,14.2450381 C17.1874621,14.2446666 17.3095684,14.2420857 17.4314276,14.2372857 Z M1.34848449,6.33110481 L1.54967455,6.68483793 L1.36779054,6.30742353 C1.36135219,6.31531482 1.35491684,6.32320859 1.34848449,6.33110481 Z M25.7796634,10.6407053 C25.9691083,10.9295888 25.9680045,11.3036623 25.7768538,11.591442 C25.7768538,11.591442 25.686747,11.71717 25.5426565,11.9143413 C23.6565354,14.4956291 20.704084,16.1106272 17.509709,16.2357532 C17.3517714,16.2419743 17.1931313,16.2450849 17.0336885,16.2450849 C15.1790746,16.2450849 13.4234979,15.8222454 11.8568644,15.0688806 C11.9565037,15.0721919 12.0568453,15.0723926 12.1581903,15.0682786 C14.2263311,14.984092 15.9002297,13.2913291 15.9615384,11.2223856 C15.9894334,10.2802783 15.6878065,9.4106176 15.1646254,8.71725711 C15.0733146,8.59624514 14.7692795,8.26702434 14.6997428,8.20039751 C14.6440532,8.14842056 14.5869588,8.09804908 14.5283593,8.04928306 C14.4466143,7.9746289 14.384737,7.91947447 14.3427273,7.88381975 C14.2164976,7.77675526 14.0878597,7.67250033 13.9569139,7.57105497 C13.8260684,7.46960961 13.6928148,7.37107416 13.5573536,7.27534827 C13.218801,7.03613388 12.8664013,6.81518167 12.5015592,6.61399675 C12.3556626,6.53352279 12.207759,6.45615941 12.057949,6.38200697 C11.9830942,6.34498091 11.9077376,6.3087576 11.8318794,6.27333701 C10.3911746,5.60044621 8.78400317,5.22446622 7.08893245,5.22446622 C5.57798858,5.22446622 4.1369828,5.52318318 2.82140403,6.06462647 C2.38291123,6.24504068 1.95826556,6.45244677 1.54967455,6.68483793 C1.36374155,6.77444298 1.18011642,6.86796135 0.999200507,6.9659951 C0.968395635,6.98265181 0.937189396,6.97221628 0.919127907,6.95084352 C0.900966077,6.92937042 0.895948997,6.89696008 0.918525858,6.86826238 C1.89013361,5.63285655 2.93378663,4.45494646 4.04617365,3.34255944 C4.0916284,3.2971047 4.13678212,3.25335576 4.18173516,3.21030921 C8.58181483,-1.046583 15.5993052,-1.00303474 19.9447991,3.34255944 L20.1128713,3.51063163 C22.0272887,5.42524977 23.7403206,7.53111901 25.2251757,9.79512662 L25.7796634,10.6407053 Z" id="Stroke-1"></path>
        </g>
    </g>
</svg>