<?xml version="1.0" encoding="utf-8"?>
<!-- Generator: Adobe Illustrator 19.0.0, SVG Export Plug-In . SVG Version: 6.00 Build 0)  -->
<svg version="1.1" id="图层_1" xmlns="http://www.w3.org/2000/svg" xmlns:xlink="http://www.w3.org/1999/xlink" x="0px" y="0px"
	 width="48px" height="48px" viewBox="0 0 48 48" style="enable-background:new 0 0 48 48;" xml:space="preserve">
<style type="text/css">
	.st0{fill:#00A4FF;}
</style>
<g id="XMLID_84_">
	<g id="XMLID_11_">
		<circle id="XMLID_16_" class="st0" cx="3.256" cy="6.228" r="3.2"/>
	</g>
</g>
<g id="XMLID_83_">
	<g id="XMLID_2_">
		<circle id="XMLID_15_" class="st0" cx="44.8" cy="41.885" r="3.2"/>
	</g>
</g>
<g id="XMLID_82_">
	<g id="XMLID_13_">
		<polygon id="XMLID_14_" class="st0" points="46,31.997 44,31.997 44,6.997 3,6.997 3,4.997 46,4.997 		"/>
	</g>
</g>
<g id="XMLID_81_">
	<g id="XMLID_12_">
		<polygon id="XMLID_1_" class="st0" points="45,42.997 2,42.997 2,15.997 4,15.997 4,40.997 45,40.997 		"/>
	</g>
</g>
<g id="XMLID_7_">
	<polygon id="XMLID_10_" class="st0" points="39,19 37,19 37,13 11,13 11,19 9,19 9,11 39,11 	"/>
</g>
<g id="XMLID_8_">
	<polygon id="XMLID_9_" class="st0" points="39,37 9,37 9,29 11,29 11,35 37,35 37,29 39,29 	"/>
</g>
<g id="XMLID_94_">
	<path id="XMLID_4_" class="st0" d="M24,25.111c-2.512,0-4.556-2.043-4.556-4.556S21.488,16,24,16c2.512,0,4.556,2.043,4.556,4.556
		S26.512,25.111,24,25.111z M24,18c-1.409,0-2.556,1.146-2.556,2.556s1.146,2.556,2.556,2.556s2.556-1.146,2.556-2.556
		S25.409,18,24,18z"/>
</g>
<g id="XMLID_93_">
	<path id="XMLID_3_" class="st0" d="M33,33h-2v-1c0-2.145-1.744-3.889-3.889-3.889h-6.223C18.745,28.111,17,29.855,17,32v1h-2v-1
		c0-3.247,2.642-5.889,5.889-5.889h6.223C30.358,26.111,33,28.753,33,32V33z"/>
</g>
</svg>
