<?xml version="1.0" encoding="utf-8"?>
<!-- Generator: Adobe Illustrator 19.0.0, SVG Export Plug-In . SVG Version: 6.00 Build 0)  -->
<svg version="1.1" id="图层_1" xmlns="http://www.w3.org/2000/svg" xmlns:xlink="http://www.w3.org/1999/xlink" x="0px" y="0px"
	 width="48px" height="48px" viewBox="0 0 48 48" style="enable-background:new 0 0 48 48;" xml:space="preserve">
<style type="text/css">
	.st0{fill:#00A4FF;}
</style>
<g id="XMLID_355_">
	<path id="XMLID_14_" class="st0" d="M13,34h-2c0-4.411,3.589-8,8-8h6v2h-6C15.691,28,13,30.691,13,34z"/>
</g>
<g id="XMLID_362_">
	<path id="XMLID_11_" class="st0" d="M22,24c-3.309,0-6-2.691-6-6s2.691-6,6-6s6,2.691,6,6S25.309,24,22,24z M22,14
		c-2.206,0-4,1.794-4,4s1.794,4,4,4s4-1.794,4-4S24.206,14,22,14z"/>
</g>
<g id="XMLID_369_">
	<g id="XMLID_370_">
		<circle id="XMLID_9_" class="st0" cx="3.256" cy="6.228" r="3.2"/>
	</g>
</g>
<g id="XMLID_367_">
	<g id="XMLID_368_">
		<circle id="XMLID_8_" class="st0" cx="44.8" cy="41.885" r="3.2"/>
	</g>
</g>
<g id="XMLID_365_">
	<g id="XMLID_366_">
		<polygon id="XMLID_7_" class="st0" points="46,31.997 44,31.997 44,6.997 3,6.997 3,4.997 46,4.997 		"/>
	</g>
</g>
<g id="XMLID_363_">
	<g id="XMLID_364_">
		<polygon id="XMLID_1_" class="st0" points="45,42.997 2,42.997 2,15.997 4,15.997 4,40.997 45,40.997 		"/>
	</g>
</g>
<g id="XMLID_356_">
	<g id="XMLID_361_">
		<rect id="XMLID_6_" x="27" y="26" class="st0" width="10" height="2"/>
	</g>
	<g id="XMLID_360_">
		<rect id="XMLID_5_" x="31" y="27" class="st0" width="2" height="7"/>
	</g>
	<g id="XMLID_359_">
		<rect id="XMLID_4_" x="27" y="29" class="st0" width="10" height="2"/>
	</g>
	<g id="XMLID_358_">
		
			<rect id="XMLID_3_" x="32.812" y="21.537" transform="matrix(0.7071 0.7071 -0.7071 0.7071 27.0173 -16.8198)" class="st0" width="2" height="5.332"/>
	</g>
	<g id="XMLID_357_">
		
			<rect id="XMLID_2_" x="27.591" y="23.203" transform="matrix(0.7072 0.7071 -0.7071 0.7072 25.9737 -14.306)" class="st0" width="5.332" height="2"/>
	</g>
</g>
</svg>
