<?xml version="1.0" encoding="utf-8"?>
<!-- Generator: Adobe Illustrator 19.0.0, SVG Export Plug-In . SVG Version: 6.00 Build 0)  -->
<svg version="1.1" id="图层_1" xmlns="http://www.w3.org/2000/svg" xmlns:xlink="http://www.w3.org/1999/xlink" x="0px" y="0px"
	 width="48px" height="48px" viewBox="0 0 48 48" style="enable-background:new 0 0 48 48;" xml:space="preserve">
<style type="text/css">
	.st0{fill:none;stroke:#00A4FF;stroke-width:2;stroke-miterlimit:10;}
	.st1{fill:#00A4FF;}
</style>
<g id="XMLID_315_">
	<path id="XMLID_102_" class="st0" d="M24,22c-2.2,0-4-1.8-4-4s1.8-4,4-4"/>
	<path id="XMLID_101_" class="st0" d="M15,33v-1.5l0,0c0-3,2.5-5.5,5.5-5.5h7c3,0,5.5,2.5,5.5,5.5l0,0V33"/>
	<rect id="XMLID_100_" x="25" y="13" class="st1" width="2" height="2"/>
	<rect id="XMLID_99_" x="28" y="14" class="st1" width="2" height="2"/>
	<rect id="XMLID_98_" x="33" y="18" class="st1" width="2" height="2"/>
	<rect id="XMLID_97_" x="28" y="20" class="st1" width="2" height="2"/>
	<rect id="XMLID_96_" x="32" y="15" class="st1" width="2" height="2"/>
	<rect id="XMLID_87_" x="25" y="21" class="st1" width="2" height="2"/>
	<rect id="XMLID_86_" x="29" y="17" class="st1" width="2" height="2"/>
	<circle id="XMLID_84_" class="st1" cx="3.1" cy="6.3" r="3.2"/>
	<circle id="XMLID_83_" class="st1" cx="44.9" cy="41.7" r="3.2"/>
	<polyline id="XMLID_82_" class="st0" points="3,6 45,6 45,32 	"/>
	<polyline id="XMLID_81_" class="st0" points="3,16 3,42 45,42 	"/>
</g>
</svg>
