<svg id="图层_1" data-name="图层 1" xmlns="http://www.w3.org/2000/svg" width="48" height="48" viewBox="0 0 48 48">
  <defs>
    <style>
      .cls-1 {
        fill: #00a4ff;
      }
    </style>
  </defs>
  <title> </title>
  <path class="cls-1" d="M24,2.39A38,38,0,0,1,44.94,9a45.32,45.32,0,0,1-2.27,13.2A43.67,43.67,0,0,1,24,46,43.67,43.67,0,0,1,5.33,22.18,45.42,45.42,0,0,1,3.06,9,38,38,0,0,1,24,2.39m0-2A40.24,40.24,0,0,0,1.08,7.91,46.79,46.79,0,0,0,24,48.39h0A46.79,46.79,0,0,0,46.92,7.91,40.24,40.24,0,0,0,24,.39Z"/>
  <polygon class="cls-1" points="33.07 7.75 33.07 33.61 14.93 33.61 14.93 7.75 16.93 7.75 16.93 31.61 31.07 31.61 31.07 9.75 17.93 9.75 17.93 7.75 33.07 7.75"/>
  <rect class="cls-1" x="16.43" y="26.88" width="13.65" height="2"/>
  <path class="cls-1" d="M24,24.49l-5.14-3V15.58l5.14-3,5.14,3v5.94Zm-3.14-4.12L24,22.18l3.14-1.81V16.74L24,14.92l-3.14,1.82Z"/>
  <polygon class="cls-1" points="27.64 21.81 24 19.71 20.36 21.81 19.36 20.08 24 17.4 28.64 20.08 27.64 21.81"/>
  <rect class="cls-1" x="21.83" y="15.39" width="4.33" height="2" transform="translate(7.1 40.03) rotate(-88.77)"/>
  <rect class="cls-1" x="31.07" y="26.26" width="0.01" height="3.85"/>
</svg>
