<?xml version="1.0" encoding="UTF-8"?>
<svg width="48px" height="48px" viewBox="0 0 48 48" version="1.1" xmlns="http://www.w3.org/2000/svg" xmlns:xlink="http://www.w3.org/1999/xlink">
    <!-- Generator: Sketch 60 (88103) - https://sketch.com -->
    <title>产品图标_00_48@1x</title>
    <desc>Created with Sketch.</desc>
    <g id="产品图标_00_48" stroke="none" stroke-width="1" fill="none" fill-rule="evenodd">
        <g id="编组-4" transform="translate(1.000000, 1.000000)">
            <path d="M23.1009411,44 C11.4711238,44 2.00877748,34.579 2.00877748,23 C2.00877748,11.421 11.4711238,2 23.1009411,2 C33.7052774,2 42.4826306,9.84 43.9520514,20 L45.9989956,20 C44.5225442,8.716 34.8372235,0 23.1009411,0 C10.3421909,0 0,10.297 0,23 C0,35.703 10.3421909,46 23.1009411,46 C34.8372235,46 44.5225442,37.284 46,26 L43.9530557,26 C42.4816262,36.16 33.7052774,44 23.1009411,44 Z" id="Shape" fill="#00A4FF" fill-rule="nonzero"></path>
            <g id="编组" transform="translate(10.899000, 12.000000)">
                <g id="编组-3">
                    <g id="xinche"></g>
                    <g id="编组-2" transform="translate(11.000000, 8.000000)"></g>
                </g>
            </g>
        </g>
        <g id="编组-5" transform="translate(11.000000, 13.000000)" fill="#00A4FF">
            <path d="M19.3558623,1.68689448e-05 C20.6029276,1.68689448e-05 21.7023507,0.799396163 22.0579919,1.9644715 L23.29,5.999 L21.022,5.999 L19.9884531,2.61578447 C19.9264125,2.41254003 19.7254355,2.2466586 19.4689432,2.20836393 L19.3558623,2.20000514 L6.63644887,2.20000514 C6.37331894,2.19910955 6.14787644,2.33911046 6.04680141,2.53162916 L6.01135058,2.61709485 L3.92643367,9.45326523 C3.81307895,9.82626932 3.65535328,10.1843823 3.45601716,10.5228773 L3.29875624,10.7729963 L2.24993548,12.3292642 C2.19581625,12.4095018 2.16785248,12.4991517 2.16670063,12.5892139 L2.17451041,12.6790801 L3.50760505,19.7662496 C3.5087876,19.7723604 3.52695029,19.7884137 3.56397984,19.7959513 L3.60736824,19.7999667 L3.99191295,19.7999701 C4.186504,19.8003196 4.36604946,19.7237618 4.48737972,19.6013223 L4.55284669,19.522601 L6.24870944,17.049944 L9,17.049 L9,19.249 L7.38013543,19.2499365 L6.33085486,20.7798427 C5.80301621,21.544686 4.92557262,22.0016429 3.98808066,21.9999797 L3.60736824,21.9999797 C2.52090414,22.0044041 1.58546542,21.2439207 1.38159346,20.1904301 L0.046314318,13.091812 C-0.084633939,12.3952944 0.0645944836,11.6758186 0.462312264,11.0861591 L1.51066427,9.5305864 C1.66109211,9.3060046 1.77809153,9.06125627 1.85609115,8.80459137 L3.94165231,1.96630483 C4.30478672,0.794513346 5.40247421,-0.00423193688 6.64378188,1.68689448e-05 L19.3558623,1.68689448e-05 Z" id="形状结合" fill-rule="nonzero"></path>
            <path d="M24.9,11 L12.1,11 C11.4924868,11 11,11.4924868 11,12.1 L11,20.9 C11,21.5075132 11.4924868,22 12.1,22 L24.9,22 C25.5075132,22 26,21.5075132 26,20.9 L26,12.1 C26,11.4924868 25.5075132,11 24.9,11 Z M24,13 L24,20 L13,20 L13,13 L24,13 Z" id="矩形" fill-rule="nonzero"></path>
            <path d="M23,10 L21,10 L21,9 L16,9 L16,10 L14,10 L14,9 C14,8.44771525 14.4477153,8 15,8 L22,8 C22.5128358,8 22.9355072,8.38604019 22.9932723,8.88337887 L23,9 L23,10 Z" id="形状结合"></path>
            <rect id="矩形" x="12" y="14" width="12" height="2"></rect>
        </g>
    </g>
</svg>