<?xml version="1.0" encoding="UTF-8"?>
<svg width="48px" height="48px" viewBox="0 0 48 48" version="1.1" xmlns="http://www.w3.org/2000/svg" xmlns:xlink="http://www.w3.org/1999/xlink">
    <title>企业微信汽车行业版-48备份 2</title>
    <g id="企业微信汽车行业版-48备份-2" stroke="none" stroke-width="1" fill="none" fill-rule="evenodd">
        <path d="M24,3 C35.5979797,3 45,12.4020203 45,24 C45,35.5979797 35.5979797,45 24,45 C12.4020203,45 3,35.5979797 3,24 C3,12.4020203 12.4020203,3 24,3 M24,1 C11.2974508,1 1,11.2974508 1,24 C1,36.7025492 11.2974508,47 24,47 C36.7025492,47 47,36.7025492 47,24 C47,17.9000207 44.5767927,12.0498807 40.263456,7.73654403 C35.9501193,3.42320733 30.0999793,1 24,1 Z" id="形状备份" fill="#00A4FF" fill-rule="nonzero"></path>
        <path d="M29.3,10.55 C30.8742173,10.5701538 32.3200475,11.4224326 33.1,12.79 L36.5359233,18.729 L37.81,18.73 C38.5039964,18.732122 39.1293184,19.1344817 39.4223822,19.753991 L39.48,19.89 L39.94,21.12 C39.9920401,21.2637333 39.9709282,21.4237961 39.8834,21.5491206 C39.7958717,21.6744451 39.6528628,21.7493735 39.5,21.75 L39.5,21.75 L38.1149233,21.749 L38.87,23.55 C39.037141,23.9559415 39.1221136,24.3910009 39.1200385,24.83 L39.1200385,26.93 L37.12,26.93 L37.12,24.83 C37.1216642,24.6582055 37.087611,24.4879395 37.02,24.33 L36.0918361,22.0964752 C32.8236836,22.9898082 28.3502206,23.51 23.63,23.51 C18.9275898,23.51 14.4642865,22.9919353 11.1981821,22.1019556 L10.24,24.33 C10.1803974,24.489959 10.1499164,24.6592975 10.15,24.83 L10.15,29.83 C10.1157119,30.4525719 10.5879561,30.987188 11.21,31.03 L12.56,31.03 L12.56,33.86 C12.5488708,33.9714971 12.582756,34.0828187 12.6541193,34.1692058 C12.7254826,34.255593 12.8284066,34.3098825 12.94,34.32 L15.7,34.32 C15.9297475,34.2937844 16.0976238,34.0905658 16.08,33.86 L16.08,31.06 L19.08,31.06 L19.08,33.06 L18.08,33.06 L18.08,33.89 C18.0906968,34.5318493 17.8459364,35.1516506 17.3995811,35.6130094 C16.9532258,36.0743682 16.3418522,36.3394786 15.7,36.35 L12.94,36.35 C12.2981478,36.3394786 11.6867742,36.0743682 11.2404189,35.6130094 C10.7940636,35.1516506 10.5493032,34.5318493 10.56,33.89 L10.56,33 C9.12746331,32.6426429 8.12931437,31.3462918 8.15,29.87 L8.15,24.87 C8.14678871,24.4341347 8.23182928,24.0021286 8.4,23.6 L9.17692329,21.749 L7.77,21.75 C7.61713719,21.7493735 7.47412828,21.6744451 7.38660004,21.5491206 C7.2990718,21.4237961 7.27795988,21.2637333 7.33,21.12 L7.79,19.89 C8.05170032,19.1940037 8.71643238,18.7322736 9.46,18.73 L10.7439233,18.729 L14.17,12.82 C14.9476442,11.4316741 16.4087948,10.5656657 18,10.55 L29.3,10.55 Z M29.3,12.55 L18,12.55 C17.1366785,12.559107 16.3453808,13.033121 15.93,13.79 L12.1587421,20.2936258 C15.2002557,21.0676184 19.2953162,21.51 23.63,21.51 C27.9775112,21.51 32.0901593,21.0649963 35.1370556,20.2867458 L31.37,13.79 C30.9546192,13.033121 30.1633215,12.559107 29.3,12.55 Z" id="形状结合备份" fill="#00A4FF" fill-rule="nonzero"></path>
        <path d="M23.93,38.08 C23.7108821,38.0779866 23.4977732,38.0081149 23.32,37.88 C23.0144224,37.6457041 22.8705162,37.2567686 22.95,36.88 L22.95,36.68 C22.9787417,36.5261638 23.0222772,36.3754639 23.08,36.23 C23.22,35.91 23.3,35.74 22.71,35.23 C21.4533854,34.1231637 20.7263015,32.5344853 20.71,30.86 C20.7378955,29.132396 21.5019142,27.4988513 22.81,26.37 C24.8170605,24.5489158 27.5995832,23.84766 30.23,24.5 C31.7067851,24.7789709 33.0636217,25.5009893 34.12,26.57 L34.21,26.66 C34.5215247,26.9497327 34.7848334,27.287308 34.99,27.66 L33.27,28.66 C33.1473953,28.4443047 32.9883815,28.2514583 32.8,28.09 L32.71,27.99 C31.9292715,27.2044708 30.9284845,26.6744373 29.84,26.47 C27.830259,25.9480188 25.6927143,26.4701958 24.15,27.86 C23.2685315,28.612274 22.7456022,29.7017102 22.71,30.86 C22.728735,31.9714362 23.219652,33.0223623 24.06,33.75 C24.5480068,34.1694705 24.8967936,34.7275293 25.06,35.35 C25.6745879,35.0905204 26.36002,35.0516557 27,35.24 C27.5984292,35.3893495 28.2208207,35.4165579 28.83,35.32 L29,37.32 C28.1588885,37.4376546 27.3029029,37.3900999 26.48,37.18 C26.1306316,37.0910927 25.7597975,37.1726762 25.48,37.4 L24.79,37.78 L24.45,37.97 C24.2897629,38.0529027 24.1100825,38.090912 23.93,38.08 L23.93,38.08 Z" id="路径备份" fill="#00A4FF" fill-rule="nonzero"></path>
        <path d="M34.22,36.58 C33.3306345,36.4114622 32.5200114,35.9587765 31.91,35.29 C31.7799369,35.1705329 31.5800631,35.1705329 31.45,35.29 C31.3801625,35.3543718 31.3404344,35.445021 31.3404344,35.54 C31.3404344,35.634979 31.3801625,35.7256282 31.45,35.79 C32.1556158,36.444099 32.6087164,37.3255214 32.73,38.28 C32.9093616,38.9416929 33.5502213,39.3689327 34.23,39.28 C34.8946381,39.1685863 35.3774488,38.5872353 35.3649247,37.9134401 C35.3524006,37.2396449 34.8483194,36.6766375 34.18,36.59 L34.22,36.58 Z M38.48,32.87 C37.9616888,32.6337043 37.3510337,32.7454582 36.95,33.15 L36.95,33.15 C36.7292292,33.3660504 36.5912202,33.6526844 36.56,33.96 C36.3955964,34.8537094 35.9424027,35.6687555 35.27,36.28 C35.180057,36.3650622 35.1472456,36.4943722 35.1857509,36.612027 C35.2242561,36.7296818 35.3271696,36.8145728 35.45,36.83 C35.5746448,36.8482356 35.6987978,36.7939187 35.77,36.69 C36.429238,35.9857396 37.3132269,35.5331373 38.27,35.41 C38.8166399,35.2561569 39.2101475,34.7788609 39.2569383,34.2129162 C39.303729,33.6469714 38.9939516,33.1115298 38.48,32.87 L38.48,32.87 Z M34,31.63 C34.8893655,31.7985378 35.6999886,32.2512235 36.31,32.92 C36.3987744,33.0093754 36.530687,33.0404136 36.65,33 C36.7659255,32.9586418 36.8492004,32.8562061 36.8660181,32.7342784 C36.8828357,32.6123506 36.8304007,32.4911963 36.73,32.42 C36.0243842,31.765901 35.5712836,30.8844786 35.45,29.93 C35.3157992,29.4540942 34.932158,29.089635 34.45,28.98 C33.9648033,28.8500187 33.4475598,29.0001684 33.1073795,29.369747 C32.7671991,29.7393256 32.6603389,30.2672145 32.83,30.74 C33.0057173,31.2448261 33.4665875,31.5954025 34,31.63 Z M32.95,31.93 C33.0123243,31.8697118 33.047514,31.786712 33.047514,31.7 C33.047514,31.613288 33.0123243,31.5302882 32.95,31.47 C32.821929,31.3455243 32.618071,31.3455243 32.49,31.47 L32.49,31.47 C31.8318484,32.2003308 30.9347531,32.6719263 29.96,32.8 C29.4767682,32.9076247 29.0922481,33.2729188 28.96,33.75 C28.8418618,34.2195845 28.9784828,34.716733 29.32,35.06 C29.6916708,35.4219129 30.2368598,35.5408614 30.7255013,35.3666501 C31.2141428,35.1924387 31.5611157,34.7554151 31.62,34.24 C31.7858203,33.3519071 32.2349097,32.5414411 32.9,31.93 L32.95,31.93 Z" id="形状备份-2" fill="#00A4FF" fill-rule="nonzero"></path>
    </g>
</svg>