<?xml version="1.0" encoding="UTF-8"?>
<svg width="48px" height="48px" viewBox="0 0 48 48" version="1.1" xmlns="http://www.w3.org/2000/svg" xmlns:xlink="http://www.w3.org/1999/xlink">
    <!-- Generator: Sketch 56.3 (81716) - https://sketch.com -->
    <title>48x48备份 3</title>
    <desc>Created with Sketch.</desc>
    <g id="48x48备份-3" stroke="none" stroke-width="1" fill="none" fill-rule="evenodd">
        <g id="编组-2" transform="translate(1.000000, 1.000000)">
            <path d="M43.76,26 C42.297,36.16 33.558,44 23,44 C11.421,44 2,34.579 2,23 C2,11.421 11.421,2 23,2 C33.558,2 42.297,9.84 43.76,20 L45.798,20 C44.328,8.716 34.685,0 23,0 C10.297,0 0,10.297 0,23 C0,35.703 10.297,46 23,46 C34.685,46 44.328,37.284 45.799,26 L43.76,26 Z" id="Shape" fill="#00A4FF" fill-rule="nonzero"></path>
            <g id="编组" transform="translate(12.000000, 6.000000)">
                <path d="M1,7.61803399 L1,29 L13,29 L13,1.61803399 L1,7.61803399 Z" id="矩形" stroke="#00A4FF" stroke-width="2"></path>
                <polyline id="路径" stroke="#00A4FF" stroke-width="2" transform="translate(17.500000, 19.000000) scale(-1, 1) translate(-17.500000, -19.000000) " points="21.1818182 29 13 29 13 14.0666667 22 9"></polyline>
                <rect id="矩形" fill="#00A4FF" x="4" y="24" width="4" height="2"></rect>
            </g>
        </g>
    </g>
</svg>