<?xml version="1.0" encoding="UTF-8"?>
<svg width="48px" height="48px" viewBox="0 0 48 48" version="1.1" xmlns="http://www.w3.org/2000/svg" xmlns:xlink="http://www.w3.org/1999/xlink">
    <!-- Generator: Sketch 55.2 (78181) - https://sketchapp.com -->
    <title>48x48</title>
    <desc>Created with Sketch.</desc>
    <g id="48x48" stroke="none" stroke-width="1" fill="none" fill-rule="evenodd">
        <path d="M44.76,27 C43.297,37.16 34.558,45 24,45 C12.421,45 3,35.579 3,24 C3,12.421 12.421,3 24,3 C34.558,3 43.297,10.84 44.76,21 L46.798,21 C45.328,9.716 35.685,1 24,1 C11.297,1 1,11.297 1,24 C1,36.703 11.297,47 24,47 C35.685,47 45.328,38.284 46.799,27 L44.76,27 Z" id="Shape" fill="#00A4FF" fill-rule="nonzero"></path>
        <path d="M27.5,23.66 L28.5,23.66 L28.5,19.66 L30.5,19.66 L30.5,19.6847815 L38.9658928,28.1506743 L37.5516792,29.5648879 L30.5,36.6165671 L30.5,36.62 L30.4965671,36.62 L30.4806114,36.6359557 L30.4646557,36.62 L28.5,36.62 L28.5,32.62 L23.5,32.62 L23.5,30.62 L30.5,30.62 L30.5,32.62 L30.5,33.78814 L36.1374657,28.1506743 L30.5,22.5132087 L30.5,23.66 L30.5,25.66 L27.5,25.66 L19.5,25.66 L19.5,29.66 L17.5353443,29.66 L17.5193886,29.6759557 L17.5034329,29.66 L17.5,29.66 L17.5,29.6565671 L10.4483208,22.6048879 L9.03410721,21.1906743 L17.5,12.7247815 L17.5,12.7 L19.5,12.7 L19.5,16.7 L24.5,16.7 L24.5,18.7 L17.5,18.7 L17.5,16.7 L17.5,15.5532087 L11.8625343,21.1906743 L17.5,26.82814 L17.5,25.66 L17.5,23.66 L27.5,23.66 Z" id="形状结合" fill="#00A4FF"></path>
    </g>
</svg>