<?xml version="1.0" encoding="UTF-8"?>
<svg width="48px" height="48px" viewBox="0 0 48 48" version="1.1" xmlns="http://www.w3.org/2000/svg" xmlns:xlink="http://www.w3.org/1999/xlink">
    <!-- Generator: Sketch 52.6 (67491) - http://www.bohemiancoding.com/sketch -->
    <title>企业画像-48</title>
    <desc>Created with Sketch.</desc>
    <g id="企业画像-48" stroke="none" stroke-width="1" fill="none" fill-rule="evenodd">
        <rect id="Rectangle-Copy" fill="#444444" opacity="0" x="0" y="0" width="48" height="48"></rect>
        <g id="806540701f0c6d97e488781e3abf9588" transform="translate(0.000000, 3.000000)" fill="#00A4FF">
            <g id="Group-4-Copy">
                <path d="M5.8,4 L44,4 L44,29 L46,29 L46,2 L5.8,2 C5.4,0.8 4.3,0 3,0 C1.3,0 0,1.3 0,3 C0,4.7 1.3,6 3,6 C4.3,6 5.4,5.2 5.8,4 Z" id="Shape"></path>
                <path d="M45,36 C43.7,36 42.6,36.8 42.2,38 L4,38 L4,13 L2,13 L2,40 L42.2,40 C42.6,41.2 43.7,42 45,42 C46.7,42 48,40.7 48,39 C48,37.3 46.7,36 45,36 Z" id="Shape"></path>
            </g>
        </g>
        <g id="分组" transform="translate(12.000000, 12.000000)">
            <path d="M14.4793125,7.81685995 L19.0470459,3.1726293 L20.4729541,4.5750507 L15.8703882,9.25469717 C15.512304,8.6832888 15.037333,8.19293405 14.4793125,7.81685995 Z M15.8220397,14.4206022 L22.2045519,20.6863986 L20.8034481,22.1136014 L14.4050974,15.8322562 C14.9706666,15.4660788 15.4540435,14.9842612 15.8220397,14.4206022 Z M9.32264694,15.9120955 L5.5929541,19.7042507 L4.1670459,18.3018293 L7.86186586,14.545131 C8.24719638,15.0968598 8.74540278,15.5635797 9.32264694,15.9120955 Z M7.72032425,9.26972626 L4.17944807,5.79360143 L5.58055193,4.36639857 L9.10556455,7.82694995 C8.5487956,8.20527325 8.07598508,8.69746858 7.72032425,9.26972626 Z" id="合并形状" fill="#00A4FF" fill-rule="nonzero"></path>
            <g>
                <path d="M6,3 C6,4.657 4.657,6 3,6 C1.343,6 0,4.657 0,3 C0,1.343 1.343,0 3,0 C4.657,0 6,1.343 6,3 Z" id="Stroke-5" fill="#00A4FF"></path>
                <path d="M25.8,23 C25.8,24.5464 24.5464,25.8 23,25.8 C21.4536,25.8 20.2,24.5464 20.2,23 C20.2,21.4536 21.4536,20.2 23,20.2 C24.5464,20.2 25.8,21.4536 25.8,23 Z" id="Stroke-7" fill="#00A4FF"></path>
                <path d="M24,3 C24,4.657 22.657,6 21,6 C19.343,6 18,4.657 18,3 C18,1.343 19.343,0 21,0 C22.657,0 24,1.343 24,3 Z" id="Stroke-9" fill="#00A4FF"></path>
                <path d="M5.8,20.6 C5.8,22.1464 4.5464,23.4 3,23.4 C1.4536,23.4 0.2,22.1464 0.2,20.6 C0.2,19.0536 1.4536,17.8 3,17.8 C4.5464,17.8 5.8,19.0536 5.8,20.6 Z" id="Stroke-11" fill="#00A4FF"></path>
                <path d="M16.5998,11.75632 C16.6238,14.40712 14.4946,16.57552 11.8438,16.59992 C9.193,16.62392 7.0242,14.49472 7.0002,11.84352 C6.9762,9.19272 9.1054,7.02432 11.7562,7.00032 C14.407,6.97592 16.5758,9.10552 16.5998,11.75632 Z" id="Stroke-3" stroke="#00A4FF" stroke-width="2"></path>
            </g>
        </g>
    </g>
</svg>