<?xml version="1.0" encoding="UTF-8"?>
<svg width="48px" height="48px" viewBox="0 0 48 48" version="1.1" xmlns="http://www.w3.org/2000/svg" xmlns:xlink="http://www.w3.org/1999/xlink">
    <title>画板</title>
    <g id="画板" stroke="none" stroke-width="1" fill="none" fill-rule="evenodd">
        <g id="ab40d29530cd5a6ee43fcc794d7b6070" fill-rule="nonzero">
            <rect id="矩形" x="0" y="0" width="48" height="48"></rect>
            <path d="M4,16 L4,41 L42.2,41 C42.6,39.8 43.7,39 45,39 C46.7,39 48,40.3 48,42 C48,43.7 46.7,45 45,45 C43.765,45 42.7105,44.278 42.2651875,43.17695 L42.2,43 L2,43 L2,16 L4,16 Z M28.038,13.031 L35.038,18.031 L35.038,30.031 L28.038,35.031 L28.038,33.031 L33.038,29.46 L33.038,28.031 L24.038,28.031 L24.038,26.031 L33.038,26.031 L33.038,18.603 L28.038,15.031 L28.038,13.031 Z M20.038,13.031 L20.038,15.031 L15.038,18.603 L15.038,20.031 L24.038,20.031 L24.038,22.031 L15.038,22.031 L15.038,29.46 L20.038,33.031 L20.038,35.031 L13.038,30.031 L13.038,18.031 L20.038,13.031 Z M3.2,3 C4.53,3 5.58925,3.722 6.1205375,4.82305 L6.2,5 L46,5 L46,32 L44,32 L44,7 L6.3,7 C5.9,8.4 4.7,9.4 3.2,9.4 C1.4,9.4 0,8 0,6.2 C0,4.4 1.4,3 3.2,3 Z M20.038,25.031 C21.1425695,25.031 22.038,25.9264305 22.038,27.031 C22.038,28.1355695 21.1425695,29.031 20.038,29.031 C18.9334305,29.031 18.038,28.1355695 18.038,27.031 C18.038,25.9264305 18.9334305,25.031 20.038,25.031 Z M28.038,19.031 C29.1425695,19.031 30.038,19.9264305 30.038,21.031 C30.038,22.1355695 29.1425695,23.031 28.038,23.031 C26.9334305,23.031 26.038,22.1355695 26.038,21.031 C26.038,19.9264305 26.9334305,19.031 28.038,19.031 Z" id="形状结合" fill="#00A4FF"></path>
        </g>
    </g>
</svg>