<?xml version="1.0" encoding="UTF-8"?>
<svg width="32px" height="32px" viewBox="0 0 32 32" version="1.1" xmlns="http://www.w3.org/2000/svg" xmlns:xlink="http://www.w3.org/1999/xlink">
    <!-- Generator: Sketch 52.6 (67491) - http://www.bohemiancoding.com/sketch -->
    <title>SSL证书-32px</title>
    <desc>Created with Sketch.</desc>
    <g id="SSL证书-32px" stroke="none" stroke-width="1" fill="none" fill-rule="evenodd">
        <rect id="Rectangle-Copy" fill="#444444" opacity="0" x="0" y="0" width="32" height="32"></rect>
        <path d="M31,22.021 L31,4 L1,4 L1,28 L31,28 L31,25.992 L29,25.992 L29,26 L3,26 L3,11 L29,11 L29,22.021 L31,22.021 Z M3,9 L3,6 L29,6 L29,9 L3,9 Z M7,22 L12,22 L12,20 L7,20 L7,22 Z M15,17 L7,17 L7,19 L15,19 L15,17 Z M15,14 L7,14 L7,16 L15,16 L15,14 Z M21,20 L25,22 L25,14 L17,14 L17,22 L21,20 Z M19,16 L23,16 L23,18.764 L21.894,18.211 L21,17.764 L20.106,18.211 L19,18.764 L19,16 Z" id="XMLID_79_" fill="#00A4FF"></path>
    </g>
</svg>