<?xml version="1.0" encoding="UTF-8"?>
<svg width="48px" height="48px" viewBox="0 0 48 48" version="1.1" xmlns="http://www.w3.org/2000/svg" xmlns:xlink="http://www.w3.org/1999/xlink">
    <!-- Generator: Sketch 56.3 (81716) - https://sketch.com -->
    <title>48x48备份 3</title>
    <desc>Created with Sketch.</desc>
    <g id="48x48备份-3" stroke="none" stroke-width="1" fill="none" fill-rule="evenodd">
        <path d="M44.76,27 C43.297,37.16 34.558,45 24,45 C12.421,45 3,35.579 3,24 C3,12.421 12.421,3 24,3 C34.558,3 43.297,10.84 44.76,21 L46.798,21 C45.328,9.716 35.685,1 24,1 C11.297,1 1,11.297 1,24 C1,36.703 11.297,47 24,47 C35.685,47 45.328,38.284 46.799,27 L44.76,27 Z" id="Shape" fill="#00A4FF" fill-rule="nonzero"></path>
        <path d="M24.9820548,24 L24.9820548,26 L29,26 L29,28 L24.9820548,28 L24.9820548,31.5 L23.0365892,31.5 L23.0365892,28 L15,28 L15,34 L33,34 L33,30 L35,30 L35,36 L13,36 L13,26 L23.0365892,26 L23.0365892,24 L19,24 L19,22 L22.1391976,22 L16.7,16.5 L19.4513039,16.5 L24.009322,21.1089703 L28.5673402,16.5 L31.3186441,16.5 L25.8794465,22 L33.1355932,22 L33.1355932,14 L15,14 L15,20 L13,20 L13,12 L35,12 L35,24 L24.9820548,24 Z" id="形状结合" fill="#00A4FF" fill-rule="nonzero"></path>
    </g>
</svg>