<svg id="图层_1" data-name="图层 1" xmlns="http://www.w3.org/2000/svg" width="48" height="48" viewBox="0 0 48 48"><defs><style>.cls-1{opacity:0;}.cls-2{fill:#00a4ff;}</style></defs><title>48px，00A4FF，描边2px 副本 8</title><g class="cls-1"><rect class="cls-2" width="48" height="48"/></g><path class="cls-2" d="M46,8.12V7.86L45.8,7.7a36.36,36.36,0,0,0-43.6,0L2,7.86v.26c0,.49,0,1,0,1.49A43.71,43.71,0,0,0,23.71,47.29l.28.16.28-.16A43.73,43.73,0,0,0,46,9.59Q46,8.86,46,8.12Zm-22,37A41.86,41.86,0,0,1,4,9.61c0-.24,0-.48,0-.71v0A34.37,34.37,0,0,1,44,8.88c0,.24,0,.47,0,.71A41.84,41.84,0,0,1,24,45.13Z"/><path class="cls-2" d="M37.94,24h-28V23a14,14,0,1,1,28,0ZM12,22H35.89A12,12,0,0,0,12,22Z"/><polygon class="cls-2" points="23.21 12.71 21.64 16.96 23.55 16.96 22.88 20.61 26.05 15.38 24.15 15.38 25.07 12.71 23.21 12.71"/><path class="cls-2" d="M23.94,10.78a1,1,0,0,1-1-1V8.18a1,1,0,0,1,2,0v1.6A1,1,0,0,1,23.94,10.78Z"/><path class="cls-2" d="M23.94,32.49a1,1,0,0,1-1-1V23a1,1,0,0,1,2,0v8.5A1,1,0,0,1,23.94,32.49Z"/><path class="cls-2" d="M22.07,34.19a2.87,2.87,0,0,1-2.86-2.87,1,1,0,0,1,2,0,.87.87,0,1,0,1.73,0,1,1,0,0,1,2,0A2.88,2.88,0,0,1,22.07,34.19Z"/></svg>