<svg id="图层_1" data-name="图层 1" xmlns="http://www.w3.org/2000/svg" width="48" height="48" viewBox="0 0 48 48"><defs><style>.cls-1{fill:#00a4ff;}</style></defs><title>48px，00A4FF，描边2px_5</title><polygon class="cls-1" points="29 13.78 27 13.78 24 18.78 21 13.78 19 13.78 22 18.78 19 18.78 19 20.78 23 20.78 23 22.78 19 22.78 19 24.78 23 24.78 23 27.78 25 27.78 25 24.78 29 24.78 29 22.78 25 22.78 25 20.78 29 20.78 29 18.78 26 18.78 29 13.78"/><path class="cls-1" d="M24,47.43l-.5-.29A43.17,43.17,0,0,1,2,9.83V7.91l.39-.29a36,36,0,0,1,43.18,0l.39.29v2A43.22,43.22,0,0,1,24.52,47.1ZM4,8.94v.89A41.23,41.23,0,0,0,24,45.08,41.23,41.23,0,0,0,44,9.83V8.94A34,34,0,0,0,4,8.94Z"/><path class="cls-1" d="M14,19a10.19,10.19,0,0,1,8.26-8.25v-2A12.14,12.14,0,0,0,12,19Z"/><path class="cls-1" d="M14,22.53H12A12.13,12.13,0,0,0,22.25,32.8v-2A10.19,10.19,0,0,1,14,22.53Z"/><path class="cls-1" d="M34,19h2A12.14,12.14,0,0,0,25.75,8.76v2A10.19,10.19,0,0,1,34,19Z"/><path class="cls-1" d="M34,22.53a10.19,10.19,0,0,1-8.26,8.25v2A12.13,12.13,0,0,0,36,22.53Z"/></svg>