<?xml version="1.0" encoding="utf-8"?>
<!-- Generator: Adobe Illustrator 23.0.3, SVG Export Plug-In . SVG Version: 6.00 Build 0)  -->
<svg version="1.1" id="图层_1" xmlns="http://www.w3.org/2000/svg" xmlns:xlink="http://www.w3.org/1999/xlink" x="0px" y="0px"
	 width="48px" height="48px" viewBox="0 0 48 48" style="enable-background:new 0 0 48 48;" xml:space="preserve">
<g>
	<g id="全球应用加速-48px_3_">
		<g transform="translate(3.000000, 0.000000)">
			<polygon id="Path_4_" style="fill-rule:evenodd;clip-rule:evenodd;fill:#00A4FF;" points="40,17.8 40,35.1 21,46 2,35.1 2,12.9 
				21,2 39.2,12.4 40.8,11.3 21,0 0,12 0,36 21,48 42,36 42,16.5 			"/>
		</g>
	</g>
	<g>
		<polygon style="fill:#00A4FF;" points="18.071,16.473 18.071,16.486 24,13.275 34,18.691 34,25.013 36,23.931 36,17.5 24,11 
			12,17.5 12,19.758 		"/>
		<polygon style="fill:#00A4FF;" points="34,29.295 34,29.309 24,34.725 14,29.309 14,22.979 12,24.061 12,30.5 24,37 36,30.5 
			36,28.213 		"/>
	</g>
	<g>
		<path style="fill:#00A4FF;" d="M13,21c-1.105,0-2,0.895-2,2s0.895,2,2,2c1.105,0,2-0.895,2-2S14.105,21,13,21L13,21z"/>
	</g>
	<g>
		<path style="fill:#00A4FF;" d="M35,23c-1.105,0-2,0.895-2,2s0.895,2,2,2s2-0.895,2-2S36.105,23,35,23L35,23z"/>
	</g>
	<path style="fill:#00A4FF;" d="M24,19.236l2,1l0,7.528l-2,1l-2-1l0-7.528L24,19.236 M24,17l-4,2l0,10l4,2l4-2l0-10L24,17L24,17z"/>
</g>
</svg>
