<?xml version="1.0" encoding="utf-8"?>
<!-- Generator: Adobe Illustrator 22.1.0, SVG Export Plug-In . SVG Version: 6.00 Build 0)  -->
<svg version="1.1" id="图层_1" xmlns="http://www.w3.org/2000/svg" xmlns:xlink="http://www.w3.org/1999/xlink" x="0px" y="0px"
	 width="48px" height="48px" viewBox="0 0 48 48" style="enable-background:new 0 0 48 48;" xml:space="preserve">
<style type="text/css">
	.st0{fill:#00A4FF;}
</style>
<polygon class="st0" points="43,17.8 43,35.1 24,46 5,35.1 5,12.9 24,2 42.2,12.4 43.8,11.3 24,0 3,12 3,36 24,48 45,36 45,16.5 "/>
<path class="st0" d="M25.4,20v-5.1c0.2-0.3,0.4-0.7,0.4-1.2c0-1.1-0.9-2-2-2c-1.1,0-2,0.9-2,2c0,0.2,0,0.4,0.1,0.6L13.8,28h2.3
	l7.3-12.3V22h6.3l1.1-2H25.4z"/>
<path class="st0" d="M35,20h-2.3l-7.2,12.3c0,0,0,0,0,0V26h-6.3L18,28h5.4v4.8c-0.4,0.4-0.6,0.9-0.6,1.4c0,1.1,0.9,2,2,2s2-0.9,2-2
	c0-0.1,0-0.2,0-0.3L35,20z"/>
</svg>
