<?xml version="1.0" encoding="UTF-8"?>
<svg width="48px" height="48px" viewBox="0 0 48 48" version="1.1" xmlns="http://www.w3.org/2000/svg" xmlns:xlink="http://www.w3.org/1999/xlink">
    <!-- Generator: Sketch 55.2 (78181) - https://sketchapp.com -->
    <title>48-蓝色</title>
    <desc>Created with Sketch.</desc>
    <g id="48-蓝色" stroke="none" stroke-width="1" fill="none" fill-rule="evenodd">
        <g fill="#00A4FF" fill-rule="nonzero" id="形状结合">
            <path d="M12.8672531,30.5348658 L23.9831559,36.5663569 L35.4570627,29.6892985 L27.2530165,25.2538133 L27.2527302,25.2395833 L17.3306959,30.9283343 L17.3306959,19.7829106 L21.8672531,17.1475331 L21.8672531,12.6017593 L12.8672531,17.8126388 L12.8672531,30.5348658 Z M11.1292149,31.8672531 L10.8672531,31.8672531 L10.8672531,16.6595728 L23.8672531,9.13274691 L23.8672531,15.9856927 L29.0068453,13 L29.1844582,21.8266297 L31.9374027,20.1694247 L31.9374027,22.5536487 L29.2810321,24.0766661 L39.4967721,29.5997656 L24.0324398,38.8685455 L11.1292149,31.8672531 Z M44.2563168,11.6949899 L42.0144197,12.7100312 L24,2.30940108 L5.21539031,13.1547005 L5.21539031,34.8452995 L24,45.6905989 L42.7846097,34.8452995 L42.7846097,20.2864802 L44.7846097,19.3809603 L44.7846097,36 L24,48 L3.21539031,36 L3.21539031,12 L24,0 L44.2563168,11.6949899 Z M33.0044753,22 L33,19.6792063 L35.9955247,17.7910121 L36,20.1547437 L33.0044753,22 Z M19.3306959,27.4762374 L27.206869,22.9604711 L27.0755589,16.4349024 L19.3306959,20.9340495 L19.3306959,27.4762374 Z M25.4077486,34 L23.4638475,32.9091863 L28.6083097,29.8230593 L30.6036411,30.9110938 L25.4077486,34 Z"></path>
        </g>
    </g>
</svg>