<svg id="图层_1" data-name="图层 1" xmlns="http://www.w3.org/2000/svg" width="48" height="48" viewBox="0 0 48 48"><defs><style>.cls-1{fill:#00a4ff;}</style></defs><title>48px，00A4FF，描边2px 副本 3</title><path class="cls-1" d="M24,2.5A34,34,0,0,1,44,8.92c0,.24,0,.47,0,.7A41.71,41.71,0,0,1,24,45.06,41.75,41.75,0,0,1,4,9.64c0-.23,0-.47,0-.7v0A34,34,0,0,1,24,2.5m0-2A36.18,36.18,0,0,0,2.26,7.74l-.21.16v.26c0,.49,0,1,0,1.48a43.6,43.6,0,0,0,21.7,37.59l.27.16.28-.16A43.61,43.61,0,0,0,46,9.63q0-.74,0-1.47V7.9l-.21-.16A36.18,36.18,0,0,0,24,.5Z"/><polygon class="cls-1" points="29.16 30.82 13.13 30.82 13.13 8.67 32.43 8.67 32.43 20 30.43 20 30.43 10.67 15.13 10.67 15.13 28.82 29.16 28.82 29.16 30.82"/><rect class="cls-1" x="16.18" y="13.32" width="13.29" height="2"/><rect class="cls-1" x="16.18" y="17.2" width="10.4" height="2"/><rect class="cls-1" x="16.18" y="21.06" width="7.67" height="2"/><polygon class="cls-1" points="32.23 27.18 29.46 24.42 26.76 27.13 25.34 25.71 29.46 21.59 32.23 24.36 35.71 20.87 37.13 22.29 32.23 27.18"/></svg>