<?xml version="1.0" encoding="utf-8"?>
<!-- Generator: Adobe Illustrator 23.0.3, SVG Export Plug-In . SVG Version: 6.00 Build 0)  -->
<svg version="1.1" id="图层_1" xmlns="http://www.w3.org/2000/svg" xmlns:xlink="http://www.w3.org/1999/xlink" x="0px" y="0px"
	 width="48px" height="48px" viewBox="0 0 48 48" style="enable-background:new 0 0 48 48;" xml:space="preserve">
<g>
	<path style="fill:#00A4FF;" d="M24,11.309l11,6.346v12.69l-11,6.346l-11-6.346v-12.69L24,11.309 M24,9l-13,7.5v15L24,39l13-7.5v-15
		L24,9L24,9z"/>
	<g>
		<defs>
			<path id="SVGID_3_" d="M24.101,45c-11.63,0-21.092-9.421-21.092-21S12.471,3,24.101,3c10.604,0,19.382,7.84,20.851,18h2.047
				C45.523,9.716,35.837,1,24.101,1C11.342,1,1,11.297,1,24s10.342,23,23.101,23C35.837,47,45.523,38.284,47,27h-2.047
				C43.482,37.16,34.705,45,24.101,45z"/>
		</defs>
		<use xlink:href="#SVGID_3_"  style="overflow:visible;fill:#00A4FF;"/>
		<clipPath id="SVGID_2_">
			<use xlink:href="#SVGID_3_"  style="overflow:visible;"/>
		</clipPath>
	</g>
	<g>
		<rect x="23" y="20" style="fill-rule:evenodd;clip-rule:evenodd;fill:#00A4FF;" width="2" height="7"/>
		<rect x="28" y="17" style="fill-rule:evenodd;clip-rule:evenodd;fill:#00A4FF;" width="2" height="10"/>
		<rect x="18" y="23" style="fill-rule:evenodd;clip-rule:evenodd;fill:#00A4FF;" width="2" height="4"/>
		<rect x="16" y="29" style="fill-rule:evenodd;clip-rule:evenodd;fill:#00A4FF;" width="16" height="2"/>
	</g>
</g>
</svg>
