<?xml version="1.0" encoding="utf-8"?>
<!-- Generator: Adobe Illustrator 17.0.0, SVG Export Plug-In . SVG Version: 6.00 Build 0)  -->
<!DOCTYPE svg PUBLIC "-//W3C//DTD SVG 1.1//EN" "http://www.w3.org/Graphics/SVG/1.1/DTD/svg11.dtd">
<svg version="1.1" id="图层_1" xmlns="http://www.w3.org/2000/svg" xmlns:xlink="http://www.w3.org/1999/xlink" x="0px" y="0px"
	 width="48px" height="48px" viewBox="0 0 48 48" style="enable-background:new 0 0 48 48;" xml:space="preserve">
<path style="fill:#00A4FF;" d="M44.76,27C43.297,37.16,34.558,45,24,45C12.421,45,3,35.579,3,24S12.421,3,24,3
	c10.558,0,19.297,7.84,20.76,18h2.038C45.328,9.716,35.685,1,24,1C11.297,1,1,11.297,1,24s10.297,23,23,23
	c11.685,0,21.328-8.716,22.799-20H44.76z"/>
<g>
	<path style="fill:#00A4FF;" d="M33,28v6H15v-6H33 M35,26H13v10h22V26L35,26z"/>
</g>
<rect x="23" y="30" style="fill:#00A4FF;" width="2" height="2"/>
<rect x="18" y="30" style="fill:#00A4FF;" width="2" height="2"/>
<rect x="28" y="30" style="fill:#00A4FF;" width="2" height="2"/>
<path style="fill:#00A4FF;" d="M24,13c-4.311,0-8.033,2.486-9.837,6.098l1.723,1.034C17.336,17.102,20.423,15,24,15
	c3.577,0,6.664,2.102,8.114,5.132l1.723-1.034C32.033,15.486,28.311,13,24,13z"/>
<path style="fill:#00A4FF;" d="M24,19c-2.128,0-3.932,1.334-4.655,3.207l1.758,1.054C21.434,21.965,22.602,21,24,21
	c1.398,0,2.566,0.965,2.897,2.262l1.758-1.054C27.932,20.334,26.128,19,24,19z"/>
</svg>
