<?xml version="1.0" encoding="utf-8"?>
<!-- Generator: Adobe Illustrator 16.0.0, SVG Export Plug-In . SVG Version: 6.00 Build 0)  -->
<!DOCTYPE svg PUBLIC "-//W3C//DTD SVG 1.1//EN" "http://www.w3.org/Graphics/SVG/1.1/DTD/svg11.dtd">
<svg version="1.1" id="图层_1" xmlns="http://www.w3.org/2000/svg" xmlns:xlink="http://www.w3.org/1999/xlink" x="0px" y="0px"
	 width="48px" height="48px" viewBox="0 0 48 48" enable-background="new 0 0 48 48" xml:space="preserve">
<g>
	<g>
		<path fill="#00A4FF" d="M43,17.833v17.31L24,46L5,35.143V12.857L24,2l18.173,10.385l1.615-1.077L24,0L3,12v24l21,12l21-12V16.5
			L43,17.833z M13,18.993l8.939,5.205v10.614l2.105,1.217V22.993L13,16.634V18.993z M24.039,34.379l-9.01-5.154v-0.018l0.003-10.035
			l-2.021-1.206v9.909v2.469l11.002,6.287L24.039,34.379z"/>
	</g>
	<polygon fill="#00A4FF" points="17.715,15.884 26.654,21.089 26.654,31.703 28.76,32.92 28.76,19.883 17.715,13.524 	"/>
	<polygon fill="#00A4FF" points="23.237,12.381 32.177,17.586 32.177,28.201 34.282,29.418 34.282,16.381 23.237,10.022 	"/>
</g>
</svg>
