<?xml version="1.0" encoding="utf-8"?>
<!-- Generator: Adobe Illustrator 23.0.3, SVG Export Plug-In . SVG Version: 6.00 Build 0)  -->
<svg version="1.1" id="图层_1" xmlns="http://www.w3.org/2000/svg" xmlns:xlink="http://www.w3.org/1999/xlink" x="0px" y="0px"
	 width="48px" height="48px" viewBox="0 0 48 48" style="enable-background:new 0 0 48 48;" xml:space="preserve">
<path style="fill:#00A4FF;" d="M7.025,7.732h36.15v23.923h1.913V5.818H6.834C6.356,4.766,5.304,4,4.06,4C2.339,4,1,5.34,1,7.062
	s1.339,3.062,3.06,3.062C5.495,10.124,6.642,9.072,7.025,7.732z"/>
<path style="fill:#00A4FF;" d="M43.94,37.876c-1.435,0-2.678,1.053-2.965,2.392H4.825V16.344H2.913v25.837h38.254
	C41.645,43.234,42.696,44,43.94,44c1.721,0,3.06-1.34,3.06-3.062S45.661,37.876,43.94,37.876z"/>
<g>
	<rect x="15" y="15" style="fill:#00A4FF;" width="6" height="2"/>
	<rect x="13" y="17" transform="matrix(-1.836970e-16 1 -1 -1.836970e-16 34 2)" style="fill:#00A4FF;" width="6" height="2"/>
	<rect x="27" y="15" style="fill:#00A4FF;" width="6" height="2"/>
	<rect x="29" y="17" transform="matrix(-1.836970e-16 1 -1 -1.836970e-16 50 -14)" style="fill:#00A4FF;" width="6" height="2"/>
	
		<rect x="15" y="31" transform="matrix(-1 -1.224647e-16 1.224647e-16 -1 35.9999 63.9997)" style="fill:#00A4FF;" width="6" height="2"/>
	<rect x="15" y="23" transform="matrix(-1 -1.224647e-16 1.224647e-16 -1 48 48)" style="fill:#00A4FF;" width="18" height="2"/>
	<rect x="13" y="29" transform="matrix(6.123234e-17 -1 1 6.123234e-17 -14 46)" style="fill:#00A4FF;" width="6" height="2"/>
	
		<rect x="27" y="31" transform="matrix(-1 -1.224647e-16 1.224647e-16 -1 59.9999 63.9997)" style="fill:#00A4FF;" width="6" height="2"/>
	<rect x="29" y="29" transform="matrix(6.123234e-17 -1 1 6.123234e-17 2 62)" style="fill:#00A4FF;" width="6" height="2"/>
</g>
</svg>
