<svg id="图层_1" data-name="图层 1" xmlns="http://www.w3.org/2000/svg" width="48" height="48" viewBox="0 0 48 48">
  <defs>
    <style>
      .cls-1 {
        fill: #00a4ff;
      }

      .cls-2 {
        fill: none;
        stroke: #00a4ff;
        stroke-miterlimit: 10;
        stroke-width: 2px;
      }
    </style>
  </defs>
  <title>#</title>
  <path class="cls-1" d="M27.84,9.87,32,14.22V29.29H16V9.87H27.84m.86-2H14V31.29H34V13.42L28.7,7.87Z"/>
  <g>
    <line class="cls-2" x1="21.29" y1="19.52" x2="29.89" y2="19.52"/>
    <rect class="cls-1" x="18.11" y="18.52" width="2" height="2"/>
  </g>
  <g>
    <line class="cls-2" x1="21.29" y1="23.51" x2="29.89" y2="23.51"/>
    <rect class="cls-1" x="18.11" y="22.51" width="2" height="2"/>
  </g>
  <polyline class="cls-2" points="34 14.4 27.63 14.4 27.63 7.87"/>
  <path class="cls-1" d="M23.9,2.2a34,34,0,0,1,20,6.4v.7a41.88,41.88,0,0,1-20,35.5A41.59,41.59,0,0,1,3.9,9.4V8.7h0a34.13,34.13,0,0,1,20-6.5m0-1.9A36,36,0,0,0,2.2,7.5L2,7.7V9.4A43.55,43.55,0,0,0,23.7,47l.3.2.3-.2A43.55,43.55,0,0,0,46,9.4V7.6l-.2-.2A36.74,36.74,0,0,0,23.9.3Z"/>
</svg>
