<svg xmlns="http://www.w3.org/2000/svg" width="48" height="48" viewBox="0 0 48 48">
  <title>画板 3</title>
  <g>
    <path d="M5,38V32.557c2.388,2.019,6.738,3.551,12,4.156V34.725C10.056,33.971,5,31.7,5,29V23.557c2.388,2.019,6.738,3.551,12,4.156V25.725C10.056,24.971,5,22.7,5,20V13.557C8.112,16.188,14.545,18,22,18s13.888-1.812,17-4.443c0,0,.018,3.661.007,4.443L41,19.03V10c0-4.418-8.507-8-19-8S3,5.582,3,10V38c0,4.418,8.507,8,19,8,.724,0,1.426-.035,2.127-.07L20.71,43.977C11.926,43.744,5,41.16,5,38ZM22,4c9.389,0,17,2.686,17,6s-7.611,6-17,6S5,13.314,5,10,12.611,4,22,4Z" style="fill: #00a4ff"/>
    <path d="M33,19.3,21,25.9V39.1l12,6.6,12-6.6V25.9ZM43,36.973l-5.156-2.791a4.955,4.955,0,0,1-.86,1.809l4.808,2.6L33,43.362l-8.269-4.5,4.5-2.6a4.96,4.96,0,0,1-.977-1.746L23.04,37.524V28.442L28.317,31.3a4.978,4.978,0,0,1,1.044-1.709l-5.5-2.975L33,21.637l9.05,4.91-5.367,3.1A4.971,4.971,0,0,1,37.7,31.367L43,28.309Z" style="fill: #00a4ff"/>
    <circle cx="33" cy="33" r="2" style="fill: #00a4ff"/>
  </g>
</svg>
