<?xml version="1.0" encoding="UTF-8"?>
<svg width="48px" height="48px" viewBox="0 0 48 48" version="1.1" xmlns="http://www.w3.org/2000/svg" xmlns:xlink="http://www.w3.org/1999/xlink">
    <!-- Generator: Sketch 57.1 (83088) - https://sketch.com -->
    <title>分布式事务-48px</title>
    <desc>Created with Sketch.</desc>
    <g id="分布式事务-48px" stroke="none" stroke-width="1" fill="none" fill-rule="evenodd">
        <rect id="Rectangle-Copy" fill="#444444" opacity="0" x="0" y="0" width="48" height="48"></rect>
        <g id="5d2ee6ba30312f226797dce51206cc49" transform="translate(1.000000, 2.000000)" fill="#00A4FF">
            <path d="M45.07,0.023 L45.07,2.023 L8.147,2.023 L2.929,7.24 L2.929,35.741 L9.163,41.972 L9.161,41.977 L36.792,41.977 L36.789,41.972 L43.023,35.741 L43.023,5.981 L45.023,5.973 L45.023,36.51 L37.584,43.977 L8.399,43.977 L8.398,43.978 L0.929,36.51 L0.929,6.469 L7.26,0.141 L7.375,0.023 L45.07,0.023 Z M11.0694274,27.1772288 L14.1386047,28.9595394 L14.1386047,32.5241607 L11.0694274,34.3064714 L8.00025,32.5241607 L8.00025,28.9595394 L11.0694274,27.1772288 Z M30.646,19 L25.2805208,29.525 L30.4065208,29.525 L35.866,19 L38,19 L31.4685619,31.591 L31.3415208,31.525 L15.9105951,31.5241607 L15.9105951,29.5241607 L23.0385208,29.525 L28.403,19 L30.646,19 Z M14.5316881,11.7154714 L14.6587292,11.7814714 L30.0896549,11.7823106 L30.0896549,13.7823106 L22.9617292,13.7814714 L17.59725,24.3064714 L15.35425,24.3064714 L20.7197292,13.7814714 L15.5937292,13.7814714 L10.13425,24.3064714 L8.00025,24.3064714 L14.5316881,11.7154714 Z M34.9308226,9 L38,10.7823106 L38,14.3469319 L34.9308226,16.1292426 L31.8616453,14.3469319 L31.8616453,10.7823106 L34.9308226,9 Z" id="形状结合"></path>
        </g>
    </g>
</svg>