<?xml version="1.0" encoding="UTF-8"?>
<svg width="48px" height="48px" viewBox="0 0 48 48" version="1.1" xmlns="http://www.w3.org/2000/svg" xmlns:xlink="http://www.w3.org/1999/xlink">
    <title>线48蓝</title>
    <g id="线48蓝" stroke="none" stroke-width="1" fill="none" fill-rule="evenodd">
        <g id="编组" transform="translate(1.000000, 0.000000)" stroke="#00A4FF" stroke-width="2">
            <path d="M23,1 C14.7830881,1 7.18167723,3.60222091 1.01197392,8.01142785 C1.00359564,8.34233469 1,8.67334346 1,9.00509374 C1,16.9991408 3.18211021,24.4981145 6.99465711,30.9620236 C10.8518338,37.5015993 16.3770609,42.9819777 22.9990004,46.8458773 C29.6218288,42.9825278 35.147682,37.5016122 39.0052858,30.9613123 C42.817737,24.4975655 45,16.9988494 45,9.00509374 C45,8.67364544 44.9958309,8.34293759 44.9881386,8.01309385 C38.8189689,3.60287643 31.2175151,1 23,1 Z" id="Path"></path>
            <path d="M13,38.4 C25,34.6666667 31,29.2 31,22 C31,16 27,13 23,13 C19,13 15,16 15,22 C15,28 20,31 21,32" id="路径-10"></path>
            <path d="M26,34.2912717 L32,39.2912717 L26,34.2912717 Z" id="路径-11" transform="translate(29.000000, 36.791272) rotate(-15.000000) translate(-29.000000, -36.791272) "></path>
        </g>
    </g>
</svg>