<?xml version="1.0" encoding="UTF-8"?>
<svg width="48px" height="48px" viewBox="0 0 48 48" version="1.1" xmlns="http://www.w3.org/2000/svg" xmlns:xlink="http://www.w3.org/1999/xlink">
    <!-- Generator: Sketch 52.2 (67145) - http://www.bohemiancoding.com/sketch -->
    <title>卡证文字识别-48px copy 2</title>
    <desc>Created with Sketch.</desc>
    <g id="卡证文字识别-48px-copy-2" stroke="none" stroke-width="1" fill="none" fill-rule="evenodd">
        <rect id="Rectangle-Copy" fill="#444444" opacity="0" x="0" y="0" width="48" height="48"></rect>
        <g id="9dd4891742d89dbc24705e88f1b2d80c" transform="translate(0.000000, 3.000000)" fill="#00A4FF">
            <path d="M6.4,4 L44,4 L44,29 L46,29 L46,2 L6.2,2 C5.7,0.8 4.6,0 3.2,0 C1.5,0 0.1,1.5 0.1,3.2 C0.1,5 1.5,6.4 3.3,6.4 C4.8,6.4 6,5.4 6.4,4 Z" id="Path"></path>
            <path d="M44.8,35.7 C43.3,35.7 42.1,36.7 41.7,38 L4,38 L4,13 L2,13 L2,40 L41.8,40 C42.3,41.2 43.4,42.1 44.8,42.1 C46.6,42.1 48,40.7 48,38.9 C48,37.1 46.6,35.7 44.8,35.7 Z" id="Path"></path>
        </g>
        <rect id="矩形" stroke="#00A4FF" stroke-width="2" x="10" y="14" width="28" height="20"></rect>
        <rect id="矩形-copy" stroke="#00A4FF" x="29.5" y="29.5" width="5" height="1"></rect>
        <rect id="矩形-copy-2" stroke="#00A4FF" x="29.5" y="23.5" width="5" height="1"></rect>
        <rect id="矩形-copy-3" stroke="#00A4FF" x="26.5" y="17.5" width="8" height="1"></rect>
        <path d="M19,23 C17.3508417,23 16,21.6491583 16,20 C16,18.3508417 17.3508417,17 19,17 C20.6491583,17 22,18.3508417 22,20 C22,21.6644068 20.6620333,23 19,23 Z" id="Path" stroke="#00A4FF" stroke-width="2" fill-rule="nonzero"></path>
        <path d="M13,29.5384615 C13,27.5873391 14.8356749,26 17.0725869,26 L20.9274131,26 C23.1643251,26 25,27.5873391 25,29.5384615 L25,30 L13,30 L13,29.5384615 Z" id="Path" stroke="#00A4FF" stroke-width="2" fill-rule="nonzero"></path>
    </g>
</svg>