<?xml version="1.0" encoding="utf-8"?>
<!-- Generator: Adobe Illustrator 21.0.0, SVG Export Plug-In . SVG Version: 6.00 Build 0)  -->
<svg version="1.1" id="图层_1" xmlns="http://www.w3.org/2000/svg" xmlns:xlink="http://www.w3.org/1999/xlink" x="0px" y="0px"
	 width="48px" height="48px" viewBox="0 0 48 48" style="enable-background:new 0 0 48 48;" xml:space="preserve">
<style type="text/css">
	.st0{fill:#00A4FF;}
</style>
<title>icon</title>
<rect x="4" y="5" class="st0" width="42" height="2"/>
<rect x="7" y="24" class="st0" width="9" height="2"/>
<rect x="11" y="28" class="st0" width="6" height="2"/>
<rect x="28" y="20" class="st0" width="9" height="2"/>
<rect x="32.5" y="16.5" transform="matrix(-1.836970e-16 1 -1 -1.836970e-16 62.5 -27.5)" class="st0" width="25" height="2"/>
<circle class="st0" cx="3" cy="6" r="2"/>
<rect x="2" y="40" transform="matrix(-1 -1.224647e-16 1.224647e-16 -1 47 82)" class="st0" width="43" height="2"/>
<rect x="-9.5" y="28.5" transform="matrix(6.123234e-17 -1 1 6.123234e-17 -26.5 32.5)" class="st0" width="25" height="2"/>
<polygon class="st0" points="20,18 16,26 14,26 18,18 "/>
<polygon class="st0" points="30,20 26,29 24,29 28,20 "/>
<polygon class="st0" points="37,24 34,31 32,31 35,24 "/>
<polygon class="st0" points="20,18 26,29 24,29 18,18 "/>
<polygon class="st0" points="27,13 34,31 32,31 25,13 "/>
<rect x="35" y="24" class="st0" width="6" height="2"/>
<polygon class="st0" points="17,34 25,13 27,13 19,34 "/>
<polygon class="st0" points="17,34 15,28 17,28 19,34 "/>
<circle class="st0" cx="45" cy="41" r="2"/>
</svg>
