<?xml version="1.0" encoding="UTF-8"?>
<svg width="48px" height="48px" viewBox="0 0 48 48" version="1.1" xmlns="http://www.w3.org/2000/svg" xmlns:xlink="http://www.w3.org/1999/xlink">
    <!-- Generator: Sketch 52.6 (67491) - http://www.bohemiancoding.com/sketch -->
    <title>命令行工具 TCCLI</title>
    <desc>Created with Sketch.</desc>
    <g id="命令行工具-TCCLI" stroke="none" stroke-width="1" fill="none" fill-rule="evenodd">
        <rect id="Rectangle-Copy" fill="#444444" opacity="0" x="0" y="0" width="48" height="48"></rect>
        <g id="108cba4869ffbad331754939834bdd7e" transform="translate(2.000000, 5.000000)" fill="#00A4FF">
            <path d="M29,6.9 L28.1,8.4 C26.3,7.3 24.2,6.7 21.9,6.7 C19.6,6.7 17.5,7.3 15.7,8.4 L15,6.9 C17.1,5.7 19.5,5 22,5 C24.5,5 27,5.7 29,6.9 Z" id="Path"></path>
            <path d="M29,31.1 C27,32.3 24.6,33 22,33 C19.4,33 17,32.3 15,31.1 L15.9,29.6 C17.7,30.7 19.8,31.3 22.1,31.3 C24.4,31.3 26.5,30.7 28.3,29.6 L29,31.1 Z" id="Path"></path>
            <g id="Group" transform="translate(11.000000, 13.000000)">
                <rect id="Rectangle" x="0" y="2" width="2" height="8"></rect>
                <path d="M10,2 L0,2 L0,2 C-1.3527075e-16,0.8954305 0.8954305,2.02906125e-16 2,0 L8,0 C9.1045695,-2.02906125e-16 10,0.8954305 10,2 Z" id="Path"></path>
                <path d="M10,10 L10,10 C10,11.1045695 9.1045695,12 8,12 L2,12 C0.8954305,12 1.3527075e-16,11.1045695 0,10 L10,10 Z" id="Path"></path>
                <polygon id="Path" points="10 8 10 10 8 10 8 8"></polygon>
                <polygon id="Path" points="10 2 10 4 8 4 8 2"></polygon>
                <polygon id="Path" points="14 10 14 12 12 12 12 10"></polygon>
                <polygon id="Path" points="14 6 14 8 12 8 12 6"></polygon>
            </g>
            <g id="Group">
                <path d="M11.8,36.4 C5.8,32.9 1.8,26.4 1.8,19 C1.8,11.6 5.8,5.1 11.8,1.6 L10.9,0 C4.4,3.8 0,10.9 0,19 C0,27.1 4.4,34.2 10.9,38 L11.8,36.4 Z" id="Path"></path>
                <path d="M33.1,0 L32.2,1.6 C38.2,5.1 42.2,11.6 42.2,19 C42.2,26.4 38.2,32.9 32.2,36.4 L33.1,38 C39.6,34.2 44,27.1 44,19 C44,10.9 39.6,3.8 33.1,0 Z" id="Path"></path>
            </g>
        </g>
        <rect id="Rectangle" fill="#00A4FF" fill-rule="nonzero" transform="translate(31.504844, 23.389715) rotate(-20.000000) translate(-31.504844, -23.389715) " x="30.5048437" y="15.8897148" width="2" height="15"></rect>
    </g>
</svg>