<?xml version="1.0" encoding="UTF-8"?>
<svg width="48px" height="48px" viewBox="0 0 48 48" version="1.1" xmlns="http://www.w3.org/2000/svg" xmlns:xlink="http://www.w3.org/1999/xlink">
    <title>品牌经营管家BM-48px</title>
    <g id="品牌经营管家BM-48px" stroke="none" stroke-width="1" fill="none" fill-rule="evenodd">
        <rect id="Rectangle-Copy" fill="#444444" opacity="0" x="0" y="0" width="48" height="48"></rect>
        <path d="M14.7746408,17 C16.0025058,17 17,17.9109333 17,19.0298667 L17,28.9690667 C17,30.0901333 16.0025058,31 14.7746408,31 L9,31 L9,17 L14.7746408,17 Z M14.661,25 L11,25 L11,28.866 L14.6612095,28.8666667 L14.661,25 Z M14.6612095,19.1333333 L11,19.133 L11,23 L14.661,23 L14.6612095,19.1333333 Z" id="Path-2" fill="#00A4FF"></path>
        <polygon id="Rectangle-229" fill="#00A4FF" points="21 31 19 31 19 17 20.3904006 17 24 26.713928 27.6063558 17.0070917 29 17.0070917 29 31 27 31 27 23.001 24 31 21 23.001"></polygon>
        <path d="M40,31 L38,31 L38,26 L34,26 L34,31 L32,31 L32,17 L40,17 L40,31 Z M38,19 L34,19 L34,24 L38,24 L38,19 Z" id="矩形备份-3" fill="#00A4FF"></path>
        <path d="M45,39 C43.7,39 42.6,39.8 42.2,41 L4,41 L4,15 L2,15 L2,41 L2,43 L4,43 L42.2,43 C42.6,44.2 43.7,45 45,45 C46.7,45 48,43.7 48,42 C48,40.3 46.7,39 45,39 Z" id="Shape" fill="#00A4FF"></path>
        <path d="M5.8,7 L44,7 L44,33 L46,33 L46,7 L46,5 L44,5 L5.8,5 C5.4,3.8 4.3,3 3,3 C1.3,3 0,4.3 0,6 C0,7.7 1.3,9 3,9 C4.3,9 5.4,8.2 5.8,7 Z" id="Shape" fill="#00A4FF"></path>
    </g>
</svg>