<?xml version="1.0" encoding="utf-8"?>
<!-- Generator: Adobe Illustrator 22.1.0, SVG Export Plug-In . SVG Version: 6.00 Build 0)  -->
<svg version="1.1" id="图层_1" xmlns="http://www.w3.org/2000/svg" xmlns:xlink="http://www.w3.org/1999/xlink" x="0px" y="0px"
	 width="48px" height="48px" viewBox="0 0 48 48" style="enable-background:new 0 0 48 48;" xml:space="preserve">
<style type="text/css">
	.st0{fill:#00A4FF;}
</style>
<g>
	<path class="st0" d="M45,39.125c-1.3,0-2.4,0.8-2.8,2H4v-26H2v26v2h2h38.2c0.4,1.2,1.5,2,2.8,2c1.7,0,3-1.3,3-3
		S46.7,39.125,45,39.125z"/>
	<path class="st0" d="M5.8,7.125H44v26h2v-26v-2h-2H5.8c-0.4-1.2-1.5-2-2.8-2c-1.7,0-3,1.3-3,3s1.3,3,3,3
		C4.3,9.125,5.4,8.325,5.8,7.125z"/>
</g>
<path class="st0" d="M35.23,16.664c-0.866-1.705-2.338-2.973-4.146-3.569c-3.617-1.194-7.522,0.69-8.89,4.213
	c-0.362-0.059-0.752-0.087-1.18-0.087c-4.858,0-8.819,3.805-9.017,8.664c-0.095,2.407,0.755,4.708,2.392,6.479
	c1.637,1.77,3.864,2.796,6.272,2.891c0.12,0.005,0.239,0.007,0.359,0.007c4.694,0,8.622-3.633,8.989-8.315
	c2.617-0.433,4.809-2.298,5.641-4.833C36.247,20.307,36.098,18.372,35.23,16.664z M28.031,26.962
	c-0.372,3.577-3.378,6.322-7.016,6.322c-3.886,0-7.047-3.161-7.047-7.047c0-3.885,3.161-7.046,7.047-7.046
	c0.248,0,0.483,0.015,0.73,0.045c-0.021,0.217-0.035,0.434-0.035,0.651C21.711,23.529,24.454,26.558,28.031,26.962z M23.682,19.887
	c0-0.066,0.003-0.131,0.007-0.197c2.23,0.93,3.841,2.925,4.263,5.278C25.52,24.556,23.682,22.419,23.682,19.887z M34.039,19.887
	c0,2.458-1.733,4.553-4.097,5.038c-0.451-3.255-2.665-5.995-5.786-7.16c0.858-1.871,2.675-3.057,4.741-3.057
	C31.732,14.708,34.039,17.031,34.039,19.887z"/>
</svg>
