<?xml version="1.0" encoding="utf-8"?>
<!-- Generator: Adobe Illustrator 22.1.0, SVG Export Plug-In . SVG Version: 6.00 Build 0)  -->
<svg version="1.1" id="图层_1" xmlns="http://www.w3.org/2000/svg" xmlns:xlink="http://www.w3.org/1999/xlink" x="0px" y="0px"
	 viewBox="0 0 48 48" style="enable-background:new 0 0 48 48;" xml:space="preserve">
<style type="text/css">
	.st0{fill:#00A4FF;}
</style>
<g>
	<path class="st0" d="M6.4,7H44v25h2V5H6.2c-0.5-1.2-1.6-2-3-2C1.5,3,0.1,4.5,0.1,6.2c0,1.8,1.4,3.2,3.2,3.2C4.8,9.4,6,8.4,6.4,7z"
		/>
	<path class="st0" d="M44.8,38.7c-1.5,0-2.7,1-3.1,2.3H4V16H2v27h39.8c0.5,1.2,1.6,2.1,3,2.1c1.8,0,3.2-1.4,3.2-3.2
		C48,40.1,46.6,38.7,44.8,38.7z"/>
	<path class="st0" d="M38.9,36V12h-30v24H38.9z M20.3,34h-6.6l4.2-6.3l3.6,4.3L20.3,34z M22.7,34L29,23.8L36.6,34H22.7z M10.9,14h26
		v17l-7.2-9.6c-0.2-0.3-0.5-0.4-0.8-0.4c-0.3,0-0.6,0.2-0.8,0.5l-5.4,8.7l-4-4.8c-0.2-0.2-0.5-0.4-0.8-0.4c-0.3,0-0.6,0.2-0.8,0.4
		L11.3,34h-0.5V14z"/>
	<circle class="st0" cx="15.9" cy="20" r="2"/>
</g>
</svg>
