<?xml version="1.0" encoding="UTF-8"?>
<svg width="48px" height="48px" viewBox="0 0 48 48" version="1.1" xmlns="http://www.w3.org/2000/svg" xmlns:xlink="http://www.w3.org/1999/xlink">
    <title>48px图数据库蓝色</title>
    <g id="48px图数据库蓝色" stroke="none" stroke-width="1" fill="none" fill-rule="evenodd">
        <rect id="Rectangle-Copy" fill="#444444" opacity="0" x="0" y="0" width="48" height="48"></rect>
        <path d="M4.035,19.061 L2.035,19.061 C2.035,23.061 10.541,27.061 21.035,27.061 L21.035,25.061 C10.657,25.061 4.035,21.061 4.035,19.061 Z M4.035,37.061 L2.035,37.061 C2.035,41.061 10.541,45.061 21.035,45.061 L21.035,43.061 C10.657,43.061 4.035,39.061 4.035,37.061 Z M40,19.061 L40,10.061 L38,10.061 L38,19.082 L40.032,19.082 L40.032,19.061 L40,19.061 Z M4.035,28.061 L2.035,28.061 C2.035,32.061 10.541,36.061 21.035,36.061 L21.035,34.061 C10.657,34.061 4.035,30.061 4.035,28.061 Z" id="Shape" fill="#00A4FF"></path>
        <rect id="Rectangle" fill="#00A4FF" x="2" y="9.061" width="2" height="27"></rect>
        <path d="M21.035,4 C31.412,4 38.035,7.554 38.035,10 C38.035,12.446 31.412,16 21.035,16 C10.658,16 4.035,12.446 4.035,10 C4.035,7.554 10.657,4 21.035,4 L21.035,4 Z M21.035,2 C10.541,2 2.035,5.582 2.035,10 C2.035,14.418 10.541,18 21.035,18 C31.529,18 40.035,14.418 40.035,10 C40.035,5.582 31.528,2 21.035,2 Z" id="Shape" fill="#00A4FF" fill-rule="nonzero"></path>
        <rect id="Rectangle" fill="#00A4FF" x="2" y="10.061" width="2" height="27"></rect>
        <path d="M43,46 C44.6568542,46 46,44.6568542 46,43 C46,41.3431458 44.6568542,40 43,40 C41.3431458,40 40,41.3431458 40,43 C40,44.6568542 41.3431458,46 43,46 Z" id="椭圆形备份-3" fill="#00A4FF"></path>
        <path d="M26.5,33 C27.8807119,33 29,31.8807119 29,30.5 C29,29.1192881 27.8807119,28 26.5,28 C25.1192881,28 24,29.1192881 24,30.5 C24,31.8807119 25.1192881,33 26.5,33 Z" id="椭圆形备份-4" fill="#00A4FF"></path>
        <path d="M22,25 C23.1045695,25 24,24.1045695 24,23 C24,21.8954305 23.1045695,21 22,21 C20.8954305,21 20,21.8954305 20,23 C20,24.1045695 20.8954305,25 22,25 Z" id="椭圆形备份-7" fill="#00A4FF"></path>
        <path d="M33,22 C34.1045695,22 35,21.1045695 35,20 C35,18.8954305 34.1045695,18 33,18 C31.8954305,18 31,18.8954305 31,20 C31,21.1045695 31.8954305,22 33,22 Z" id="椭圆形备份-9" fill="#00A4FF"></path>
        <path d="M46,23 C47.1045695,23 48,22.1045695 48,21 C48,19.8954305 47.1045695,19 46,19 C44.8954305,19 44,19.8954305 44,21 C44,22.1045695 44.8954305,23 46,23 Z" id="椭圆形备份-10" fill="#00A4FF"></path>
        <path d="M35.5,38 C36.8807119,38 38,36.8807119 38,35.5 C38,34.1192881 36.8807119,33 35.5,33 C34.1192881,33 33,34.1192881 33,35.5 C33,36.8807119 34.1192881,38 35.5,38 Z" id="椭圆形备份-8" fill="#00A4FF"></path>
        <path d="M25,46 C26.6568542,46 28,44.6568542 28,43 C28,41.3431458 26.6568542,40 25,40 C23.3431458,40 22,41.3431458 22,43 C22,44.6568542 23.3431458,46 25,46 Z" id="椭圆形备份-6" fill="#00A4FF"></path>
        <path d="M40,29 C41.1045695,29 42,28.1045695 42,27 C42,25.8954305 41.1045695,25 40,25 C38.8954305,25 38,25.8954305 38,27 C38,28.1045695 38.8954305,29 40,29 Z" id="椭圆形备份-5" fill="#00A4FF"></path>
        <polygon id="路径-15" fill="#00A4FF" fill-rule="nonzero" points="44.4480918 21.2828586 45.8419473 22.7171414 40.6969277 27.7171414 39.3030723 26.2828586"></polygon>
        <polygon id="路径-13" fill="#00A4FF" fill-rule="nonzero" points="27.1 29.7 35.1 33.7 35.2149268 33.8008007 42.7149268 41.4695018 41.2850732 42.8679005 33.839 35.254 25.9 31.3"></polygon>
        <polygon id="路径-13备份" fill="#00A4FF" fill-rule="nonzero" points="22.7739573 21.9277622 27.2739573 29.4277622 25.7260427 30.6942378 21.2260427 23.1942378"></polygon>
        <polygon id="路径-13备份-2" fill="#00A4FF" fill-rule="nonzero" points="32.2215489 19.3722947 33.7784511 20.6277053 27.2784511 30.6887053 25.7215489 29.4332947"></polygon>
        <path d="M36.5202141,37.1450333 L41.9881905,25.7641669 L25.853365,29.9145211 L23.7547853,44.706799 L36.5202141,37.1450333 Z M38.581,28.236 L34.979,35.733 L26.245,40.906 L27.646,31.693 L38.581,28.236 Z" id="路径-10" fill="#00A4FF" fill-rule="nonzero"></path>
    </g>
</svg>