<?xml version="1.0" encoding="UTF-8"?>
<svg width="48px" height="48px" viewBox="0 0 48 48" version="1.1" xmlns="http://www.w3.org/2000/svg" xmlns:xlink="http://www.w3.org/1999/xlink">
    <!-- Generator: Sketch 57.1 (83088) - https://sketch.com -->
    <title>图片瘦身-48px蓝色</title>
    <desc>Created with Sketch.</desc>
    <g id="图片瘦身-48px蓝色" stroke="none" stroke-width="1" fill="none" fill-rule="evenodd">
        <path d="M4,16 L4,41 L42.2,41 C42.6,39.8 43.7,39 45,39 C46.7,39 48,40.3 48,42 C48,43.7 46.7,45 45,45 C43.7,45 42.6,44.2 42.2,43 L42.2,43 L2,43 L2,16 L4,16 Z M13,37.0087986 L13,38.0087986 L11,38.0087986 L11,37.0087986 L13,37.0087986 Z M13,31.0087986 L13,35.0087986 L11,35.0087986 L11,31.0087986 L13,31.0087986 Z M37.1516922,18 L37.1516922,32 L36.3036922,32.0007986 L36.3033844,32.0087986 L17,32.0087986 L17,30.0087986 L35.1516922,30.0087986 L35.1516922,18 L37.1516922,18 Z M3,3 C4.235,3 5.2895,3.722 5.7348125,4.82305 L5.8,5 L46,5 L46,32 L44,32 L44,7 L5.8,7 C5.4,8.2 4.3,9 3,9 C1.3,9 0,7.7 0,6 C0,4.3 1.3,3 3,3 Z M31.1516922,16 L31.1516922,18 L13,17.999 L13,29.0087986 L11,29.0087986 L11,16.0087986 L11.848,16.008 L11.8483078,16 L31.1516922,16 Z M31,23 L31,25 L17,25 L17,23 L31,23 Z M37.1516922,12 L37.1516922,16 L35.1516922,16 L35.1516922,12 L37.1516922,12 Z M37.1516922,9 L37.1516922,10 L35.1516922,10 L35.1516922,9 L37.1516922,9 Z" id="形状结合" fill="#00A4FF"></path>
    </g>
</svg>