<?xml version="1.0" encoding="utf-8"?>
<!-- Generator: Adobe Illustrator 23.0.3, SVG Export Plug-In . SVG Version: 6.00 Build 0)  -->
<svg version="1.1" id="图层_1" xmlns="http://www.w3.org/2000/svg" xmlns:xlink="http://www.w3.org/1999/xlink" x="0px" y="0px"
	 width="48px" height="48px" viewBox="0 0 48 48" style="enable-background:new 0 0 48 48;" xml:space="preserve">
<g id="智能鉴黄-48px">
	<g transform="translate(0.000000, 3.000000)">
		<path id="Path" style="fill-rule:evenodd;clip-rule:evenodd;fill:#00A4FF;" d="M7.025,4.732h36.15v23.923h1.913V2.818H6.834
			C6.356,1.766,5.304,1,4.06,1C2.339,1,1,2.34,1,4.062s1.339,3.062,3.06,3.062C5.495,7.124,6.642,6.072,7.025,4.732z"/>
		<path style="fill-rule:evenodd;clip-rule:evenodd;fill:#00A4FF;" d="M43.94,34.876c-1.435,0-2.678,1.053-2.965,2.392H4.825V13.344
			H2.913v25.837h38.254C41.644,40.234,42.696,41,43.94,41c1.721,0,3.06-1.34,3.06-3.062C47,36.215,45.661,34.876,43.94,34.876z"/>
	</g>
</g>
<g>
	<path id="XMLID_15_" style="fill-rule:evenodd;clip-rule:evenodd;fill:#00A4FF;" d="M9,16v2h13v-2H9z"/>
	<path id="XMLID_12_" style="fill-rule:evenodd;clip-rule:evenodd;fill:#00A4FF;" d="M9,23v2h13v-2H9z"/>
	<path id="XMLID_10_" style="fill-rule:evenodd;clip-rule:evenodd;fill:#00A4FF;" d="M9,30v2h7v-2H9z"/>
	<path style="fill:#00A4FF;" d="M32,15c2.757,0,5,2.243,5,5s-2.243,5-5,5s-5-2.243-5-5S29.243,15,32,15 M32,13c-3.866,0-7,3.134-7,7
		s3.134,7,7,7s7-3.134,7-7S35.866,13,32,13L32,13z"/>
	<polygon style="fill:#00A4FF;" points="35,25 35,32.046 32,30.846 29,32.046 29,25 27,24 27,35 32,33 37,35 37,24 	"/>
</g>
</svg>
