<svg id="图层_1" data-name="图层 1" xmlns="http://www.w3.org/2000/svg" width="48" height="48" viewBox="0 0 48 48"><defs><style>.cls-1{fill:#00a4ff;}</style></defs><title>48px，00A4FF，描边2px 副本 6</title><path class="cls-1" d="M12.78,29.79H35.09V9.4H12.78Zm20.31-2H21.61l6.94-6.94,4.54,4.54ZM14.78,11.4H33.09V22.56L28.55,18l-6,6-4.11-4.1-3.66,3.66Zm0,15,3.66-3.66,2.69,2.69-2.35,2.35h-4Z"/><path class="cls-1" d="M19.9,17.39A1.93,1.93,0,1,0,18,15.47,1.93,1.93,0,0,0,19.9,17.39Z"/><path class="cls-1" d="M46,8.12V7.86L45.8,7.7a36.36,36.36,0,0,0-43.6,0L2,7.86v.26c0,.49,0,1,0,1.49A43.71,43.71,0,0,0,23.71,47.29l.28.16.28-.16A43.73,43.73,0,0,0,46,9.59Q46,8.86,46,8.12Zm-22,37A41.86,41.86,0,0,1,4,9.61c0-.24,0-.48,0-.71v0A34.37,34.37,0,0,1,44,8.88c0,.24,0,.47,0,.71A41.84,41.84,0,0,1,24,45.13Z"/></svg>