<?xml version="1.0" encoding="utf-8"?>
<!-- Generator: Adobe Illustrator 23.0.3, SVG Export Plug-In . SVG Version: 6.00 Build 0)  -->
<svg version="1.1" id="图层_1" xmlns="http://www.w3.org/2000/svg" xmlns:xlink="http://www.w3.org/1999/xlink" x="0px" y="0px"
	 width="48px" height="48px" viewBox="0 0 48 48" style="enable-background:new 0 0 48 48;" xml:space="preserve">
<g>
	<path style="fill:#00A4FF;" d="M6.4,7H44v25h2V5H6.2c-0.5-1.2-1.6-2-3-2C1.5,3,0.1,4.5,0.1,6.2c0,1.8,1.4,3.2,3.2,3.2
		C4.8,9.4,6,8.4,6.4,7z"/>
	<path style="fill:#00A4FF;" d="M44.8,38.7c-1.5,0-2.7,1-3.1,2.3H4V16H2v27h39.8c0.5,1.2,1.6,2.1,3,2.1c1.8,0,3.2-1.4,3.2-3.2
		C48,40.1,46.6,38.7,44.8,38.7z"/>
	<path style="fill:#00A4FF;" d="M21.562,13.738C22.106,14.499,22.993,15,24,15c1.657,0,3-1.343,3-3s-1.343-3-3-3
		c-1.566,0-2.837,1.204-2.973,2.734L12,17v14l12,7l12-7V17.532l-1.471-0.858l-8.621,5.029C25.389,21.271,24.729,21,24,21
		c-1.657,0-3,1.343-3,3s1.343,3,3,3s3-1.343,3-3c0-0.2-0.022-0.395-0.059-0.584L34,19.298v10.553l-10,5.833l-10-5.833V18.149
		L21.562,13.738z"/>
</g>
</svg>
