<?xml version="1.0" encoding="utf-8"?>
<!-- Generator: Adobe Illustrator 22.0.1, SVG Export Plug-In . SVG Version: 6.00 Build 0)  -->
<svg version="1.1" id="图层_1" xmlns="http://www.w3.org/2000/svg" xmlns:xlink="http://www.w3.org/1999/xlink" x="0px" y="0px"
	 viewBox="0 0 59 59.8" style="enable-background:new 0 0 59 59.8;" xml:space="preserve">
<style type="text/css">
	.st0{fill:url(#SVGID_1_);}
	.st1{fill:url(#SVGID_2_);}
</style>
<g id="图层_2_1_">
	
		<linearGradient id="SVGID_1_" gradientUnits="userSpaceOnUse" x1="102.7162" y1="257.7401" x2="68.112" y2="317.6764" gradientTransform="matrix(1 0 0 -1 -55.85 317.9999)">
		<stop  offset="0" style="stop-color:#0063FF"/>
		<stop  offset="1" style="stop-color:#00C8DE"/>
	</linearGradient>
	<path class="st0" d="M58.6,47.7V7.1h-58v46.4h58v-1.3h-1.3h-0.9H1.9V17.3h55.3v30.3H58.6z M1.9,16V8.4h55.3V16H1.9z M11.3,43.7
		h11.6v-1.3H11.3V43.7z M29.1,25.4H11.3v1.3h17.9V25.4z M29.1,33.9H11.3v1.3h17.9V33.9z"/>
	
		<linearGradient id="SVGID_2_" gradientUnits="userSpaceOnUse" x1="49.2182" y1="542.8535" x2="37.4871" y2="522.5346" gradientTransform="matrix(1 0 0 1 0 -496)">
		<stop  offset="0" style="stop-color:#0063FF"/>
		<stop  offset="1" style="stop-color:#00C8DE"/>
	</linearGradient>
	<path class="st1" d="M53,43.7L47.9,39c1.2-1.4,2-3.3,2-5.4c0-4.6-3.7-8.3-8.3-8.3s-8.3,3.7-8.3,8.3s3.7,8.3,8.3,8.3
		c2,0,3.8-0.7,5.2-1.8l5.1,4.6c0.3,0.3,0.7,0.2,0.9,0l0.1-0.1C53.3,44.3,53.2,43.9,53,43.7z M34.7,33.7c0-3.8,3.1-6.9,6.9-6.9
		c3.8,0,6.9,3.1,6.9,6.9s-3.1,6.9-6.9,6.9C37.8,40.6,34.7,37.5,34.7,33.7z"/>
</g>
</svg>
