<?xml version="1.0" encoding="utf-8"?>
<!-- Generator: Adobe Illustrator 22.0.1, SVG Export Plug-In . SVG Version: 6.00 Build 0)  -->
<svg version="1.1" id="图层_1" xmlns="http://www.w3.org/2000/svg" xmlns:xlink="http://www.w3.org/1999/xlink" x="0px" y="0px"
	 viewBox="0 0 59.1 59.1" style="enable-background:new 0 0 59.1 59.1;" xml:space="preserve">
<style type="text/css">
	.st0{fill:#444444;fill-opacity:0;}
	.st1{fill:#00A4FF;}
</style>
<rect id="Rectangle-Copy" class="st0" width="59.1" height="59.1"/>
<path id="XMLID_93_" class="st1" d="M38.8,27.7c-2,0-3.7,1.7-3.7,3.7v7.4h3.7v-7.4h1.8v7.4h3.7v-7.4h1.8v-3.7H38.8z M57.2,40.7V7.4
	H1.8v44.3h55.4V48h-3.7v0h-48V20.3h48v20.3H57.2z M5.5,16.6v-5.5h48v5.5H5.5z M49.9,38.8v-7.4c0-2-1.7-3.7-3.7-3.7v3.7v7.4H49.9z
	 M33.2,35.1v-3.7c0-2-1.7-3.7-3.7-3.7v3.7v3.7v3.7C31.6,38.8,33.2,37.1,33.2,35.1z M27.7,31.4h1.8v-3.7h-1.8c-2,0-3.7,1.7-3.7,3.7
	v3.7c0,2,1.7,3.7,3.7,3.7h1.8v-3.7h-1.8V31.4z M12.9,38.8v-3.7H9.2v3.7H12.9z M22.2,31.4v-3.7h-3.7c-2,0-3.7,1.7-3.7,3.7v3.7
	c0,2,1.7,3.7,3.7,3.7h3.7v-3.7h-3.7v-3.7H22.2z"/>
</svg>
