<svg id="图层_1" data-name="图层 1" xmlns="http://www.w3.org/2000/svg" width="48" height="48" viewBox="0 0 48 48"><defs><style>.cls-1{fill:#00a4ff;}</style></defs><title>48px，00A4FF，描边2px_3</title><path class="cls-1" d="M24,2.5A34,34,0,0,1,44,8.92c0,.24,0,.47,0,.7A41.71,41.71,0,0,1,24,45.06,41.75,41.75,0,0,1,4,9.64c0-.23,0-.47,0-.7v0A34,34,0,0,1,24,2.5m0-2A36.18,36.18,0,0,0,2.26,7.74l-.21.16v.26c0,.49,0,1,0,1.48a43.6,43.6,0,0,0,21.7,37.59l.27.16.28-.16A43.61,43.61,0,0,0,46,9.63q0-.74,0-1.47V7.9l-.21-.16A36.18,36.18,0,0,0,24,.5Z"/><rect class="cls-1" x="20.87" y="23.29" width="2" height="7.22"/><rect class="cls-1" x="24.41" y="22.11" width="2" height="7.06"/><polygon class="cls-1" points="24.41 32.51 27.91 28.51 24.41 28.51 24.41 32.51"/><rect class="cls-1" x="17.45" y="9.43" width="2" height="5.99"/><rect class="cls-1" x="27.81" y="9.43" width="2" height="5.99"/><polygon class="cls-1" points="22.87 20.11 19.38 24.11 22.87 24.11 22.87 20.11"/><polygon class="cls-1" points="12.05 14.92 12.05 27.25 18.74 27.25 18.74 25.25 14.05 25.25 14.05 16.92 33.26 16.92 33.26 25.25 28.57 25.25 28.57 27.25 35.26 27.25 35.26 14.92 12.05 14.92"/></svg>