<?xml version="1.0" encoding="UTF-8"?>
<svg width="48px" height="48px" viewBox="0 0 48 48" version="1.1" xmlns="http://www.w3.org/2000/svg" xmlns:xlink="http://www.w3.org/1999/xlink">
    <!-- Generator: Sketch 56.3 (81716) - https://sketch.com -->
    <title>48x48-蓝</title>
    <desc>Created with Sketch.</desc>
    <g id="页面2" stroke="none" stroke-width="1" fill="none" fill-rule="evenodd">
        <g id="48x48蓝" transform="translate(0.000000, -0.000000)">
            <g id="编组-2" transform="translate(1.000000, 4.000000)">
                <g id="326f9575307fc0c9137c33173778261d">
                    <polyline id="Path" stroke="#00A4FF" stroke-width="2" points="42.2 36.1 4 36.1 4 11.3"></polyline>
                    <polyline id="Path" stroke="#00A4FF" stroke-width="2" points="4 3.9 42.2 3.9 42.2 28.7"></polyline>
                    <circle id="Oval" fill="#00A4FF" cx="3.8" cy="3.9" r="3.1"></circle>
                    <circle id="Oval" fill="#00A4FF" cx="42.2" cy="36.1" r="3.1"></circle>
                </g>
                <g id="编组" transform="translate(8.000000, 8.000000)">
                    <path d="M0,24 L0,1.42108547e-14 L30,1.42108547e-14 L30,24 L0,24 Z M28,22 L28,2 L2,2 L2,22 L28,22 Z" id="形状结合" fill="#00A4FF" fill-rule="nonzero"></path>
                    <polygon id="矩形备份" fill="#00A4FF" points="4 14 13 14 13 16 4 16"></polygon>
                    <polygon id="矩形备份-2" fill="#00A4FF" points="17 14 26 14 26 16 17 16"></polygon>
                    <polygon id="矩形备份-4" fill="#00A4FF" points="4 18 13 18 13 20 4 20"></polygon>
                    <polygon id="矩形备份-3" fill="#00A4FF" points="17 18 26 18 26 20 17 20"></polygon>
                    <rect id="矩形" fill="#00A4FF" x="7" y="7" width="16" height="2"></rect>
                    <ellipse id="椭圆形" stroke="#00A4FF" stroke-width="2" cx="15" cy="8" rx="4" ry="3"></ellipse>
                </g>
            </g>
        </g>
    </g>
</svg>