<svg   width="48px"   height="48px"  viewBox="0 0 48 48" version="1.1" xmlns="http://www.w3.org/2000/svg" xmlns:xlink="http://www.w3.org/1999/xlink">
    <title>声纹识别VPR-48px</title>
    <g id="声纹识别VPR-48px" stroke="none" stroke-width="1" fill="none" fill-rule="evenodd">
        <g id="编组">
            <path d="M4,16 L4,41 L42.1707057,41 C42.5825421,39.8348076 43.6937812,39 45,39 C46.6568542,39 48,40.3431458 48,42 C48,43.6568542 46.6568542,45 45,45 C43.6937812,45 42.5825421,44.1651924 42.1707057,43 L2,43 L2,16 L4,16 Z M24.8571429,27 C28.8014286,27 32,30.5808 32,35 L29.8708496,35 C29.8708496,31.5249023 27.22,29.125 24.8571429,29.125 L19.1428571,29.125 C16.78,29.125 14.0654297,31.494873 14.0654297,35 L12,35 C12,30.5824 15.1985714,27 19.1428571,27 L24.8571429,27 Z M3,3 C4.30621883,3 5.41745788,3.83480763 5.82929429,5 L46,5 L46,32 L44,32 L44,7 L5.82929429,7 C5.41745788,8.16519237 4.30621883,9 3,9 C1.34314575,9 0,7.65685425 0,6 C0,4.34314575 1.34314575,3 3,3 Z M28.4772708,18.9312993 C28.7660614,22.2321904 26.3239282,25.1426114 23.0230371,25.4314019 C19.722146,25.7201925 16.811725,23.2780593 16.5229345,19.9771682 C16.2341439,16.6762771 18.6762771,13.7658561 21.9771682,13.4770655 C25.2780593,13.188275 28.1884803,15.6304081 28.4772708,18.9312993 Z M35.5747025,14.456753 C36.0288046,15.4746124 36.3788357,16.6730046 36.5352548,18.4608826 C36.7882238,21.3523316 36.2737072,23.5301952 35.7530004,25.160265 L33.8683071,24.2558068 C34.3560573,22.6087602 34.7894341,21.4534875 34.5428654,18.6351941 C34.4203846,17.235232 34.1646968,16.2989839 33.842114,15.5306727 L35.5747025,14.456753 Z M22.1514797,15.4694549 C19.9498894,15.6620691 18.3227097,17.6012664 18.5153239,19.8028567 C18.707938,22.004447 20.6471353,23.6316267 22.8487256,23.4390125 C25.0503159,23.2463983 26.6774956,21.307201 26.4848814,19.1056108 C26.2922672,16.9040205 24.35307,15.2768407 22.1514797,15.4694549 Z M31.9439325,16.7081262 C32.227298,17.4393184 32.4312592,18.2085659 32.5137888,19.1518828 C32.6195152,20.3603412 32.4158802,21.7479618 31.9028837,23.3147446 L30.0811692,22.4417342 C30.3976794,21.4236362 30.6112432,20.3531143 30.5213994,19.3261943 C30.4763772,18.8115883 30.3490628,18.3103026 30.1716249,17.8059113 L31.9439325,16.7081262 Z" id="形状结合" fill="#00A4FF" fill-rule="nonzero"></path>
            <rect id="矩形" x="0" y="0" width="48" height="48"></rect>
        </g>
    </g>
</svg>