<?xml version="1.0" encoding="UTF-8"?>
<svg width="48px" height="48px" viewBox="0 0 48 48" version="1.1" xmlns="http://www.w3.org/2000/svg" xmlns:xlink="http://www.w3.org/1999/xlink">
    <title>48blue</title>
    <g id="48blue" stroke="none" stroke-width="1" fill="none" fill-rule="evenodd">
        <path d="M37,27 L35,27 L35,21 L37,21 L37,23 L44,23 L44,36 L23,48 L2,36 L2,33 L3.983,33 L3.98314888,35.0131784 L23,46.0014801 L42.0130828,35.0131784 L42.013,25 L37,25 L37,27 Z M24,15 L24,33 L22,33 L22,15 L24,15 Z M17,18 L17,30 L15,30 L15,18 L17,18 Z M30,18 L30,30 L28,30 L28,18 L30,18 Z M23,0 L44,12 L44,15 L42.013,15 L42.0130828,13.0100813 L23,2.00008987 L3.98314888,13.0648136 L3.983,23 L9,23 L9,21 L11,21 L11,27 L9,27 L9,25 L2,25 L2,12 L23,0 Z" id="形状结合" fill="#00A4FF" fill-rule="nonzero"></path>
    </g>
</svg>