<?xml version="1.0" encoding="UTF-8"?>
<svg width="48px" height="49px" viewBox="0 0 48 49" version="1.1" xmlns="http://www.w3.org/2000/svg" xmlns:xlink="http://www.w3.org/1999/xlink">
    <!-- Generator: Sketch 58 (84663) - https://sketch.com -->
    <title>产品-蓝</title>
    <desc>Created with Sketch.</desc>
    <g id="Raydata" stroke="none" stroke-width="1" fill="none" fill-rule="evenodd">
        <g id="产品图标" transform="translate(-114.000000, -257.000000)">
            <g id="编组备份-8" transform="translate(114.000000, 257.500000)">
                <rect id="矩形" x="0.941869717" y="0" width="47.0204082" height="48"></rect>
                <path d="M30.306516,9.40019738 C31.7283308,9.57616832 32.5768258,10.7924125 33.1769329,12.6258018 C33.2168718,12.7435871 33.2146515,12.8734373 33.1707102,12.989728 C31.2858558,17.7976418 29.872215,21.4035772 28.9297878,23.8075342 C27.7820839,26.7351141 26.0605279,31.1264839 23.76512,36.9816436 C23.6925521,37.1654546 23.6890098,37.3726215 23.7552495,37.5589059 C23.826729,37.7420983 23.9636442,37.8858519 24.1347123,37.9573212 L27.0788897,39.327848 C27.2478163,39.4075719 27.4391742,39.4109817 27.6107235,39.3373246 C27.7817245,39.2633379 27.917813,39.1171382 27.987733,38.9323039 C30.3380887,32.9389024 32.1008555,28.4438513 33.2760334,25.4471505 C34.2479247,22.96883 35.7057617,19.2513492 37.6495443,14.2947082 C37.7632563,14.0053767 37.9783385,13.7768525 38.2472653,13.6596312 C38.516192,13.5424099 38.8168256,13.546141 39.0827368,13.6700002 L41.5728082,14.8140133 C42.1249748,15.0697457 42.3811559,15.7628771 42.1453923,16.3632142 C42.1284498,16.4063918 42.1276188,16.4549905 42.1430748,16.4987454 C42.1590708,16.5414681 42.190128,16.5754588 42.2293552,16.593175 L44.3498895,17.5699249 C44.4632189,17.6221915 44.5909397,17.6244673 44.7059869,17.5762701 C44.8199003,17.5256263 44.9106336,17.4278636 44.958126,17.3045968 L46.8132152,12.5675106 C46.8616809,12.4445591 46.8630261,12.305814 46.8169531,12.1820024 C46.7708801,12.0581908 46.6811909,11.9595301 46.5677485,11.9078699 L44.4495265,10.9311613 C44.4097816,10.9128648 44.3650074,10.912067 44.3246611,10.9289364 C44.2831196,10.9450035 44.2502955,10.9803115 44.2351193,11.0252543 C44.1208569,11.3134306 43.9067239,11.5414155 43.6390728,11.6598579 C43.3700436,11.7768356 43.0691912,11.7714748 42.8043249,11.6449837 L40.5849187,10.6338343 C39.8935775,10.3153964 39.5626709,9.45688617 39.8385396,8.69741457 C37.7391015,7.04717471 35.2395792,6.10029004 32.6476615,5.9733212 C29.9833578,5.82040151 26.5029098,6.11114774 23.257061,9.26185868 L23.521713,9.88167164 C26.0863754,8.82772747 30.1796817,9.37785253 30.306516,9.40019738 Z M31.4107503,17.271463 L35.7499714,18.9817518" id="形状结合" stroke="#00A4FF" stroke-width="2"></path>
                <path d="M6.78679402,23.3421344 L5.90343575,23.513859 L6.74349132,33.1762281 L7.66032262,33.1762281 C11.4147011,33.1762281 13.4134329,31.2452092 13.2279202,27.7096456 C13.0394418,24.1175609 10.6946849,22.5824414 6.78679402,23.3421344 Z M11.2306677,27.8144425 C11.3386624,29.872641 10.5487628,30.9043164 8.57303039,31.1287991 L8.0550976,25.1715053 C10.2031941,24.9555952 11.1239901,25.7813464 11.2306677,27.8144425 Z" id="路径-4" fill="#00A4FF" fill-rule="nonzero"></path>
                <path d="M17.8609492,22.6364514 L22.0001403,31.8010069 L20.0176129,31.9947672 L18.9825115,29.729 L16.5115115,30.01 L16.0113646,32.3826542 L14.0300363,32.5663202 L15.977356,22.8551582 L17.8609492,22.6364514 Z M17.3186248,26.1862252 L16.9465115,27.948 L18.0855115,27.819 L17.3186248,26.1862252 Z" id="形状结合" fill="#00A4FF" fill-rule="nonzero"></path>
                <path d="M34.2960818,27.9054522 L35.4278993,30.6381995 L33.3485911,30.794493 L33.2528932,30.5655807 C33.3472453,30.3249831 33.4396699,30.0893005 33.5301671,29.8585331 C33.7692105,29.2489728 34.0245155,28.5979458 34.2960818,27.9054522 Z" id="形状结合" fill="#00A4FF" fill-rule="nonzero"></path>
                <path d="M27.0348716,21.55886 L27.1891636,23.0272494 C27.1163171,23.2130671 27.0444482,23.3963914 26.9735567,23.5772224 L25.21,23.76 L25.5141005,27.3000244 C25.00803,28.5909165 24.4432406,30.0315892 23.8197325,31.6220427 L23.221,23.969 L20.8631069,24.2179037 L20.6542509,22.2288388 L27.0348716,21.55886 Z" id="形状结合" fill="#00A4FF" fill-rule="nonzero"></path>
                <path d="M37.7116244,29.067972 L37.655866,39.2727867 C37.6562593,39.7449103 37.2259877,40.1279256 36.6948275,40.1282752 C33.2214961,40.125983 32.6601677,40.156323 30.923502,40.1552386 M17.7850113,40.761258 C15.3128444,40.7594996 10.0254619,40.7707983 4.05851979,40.7665542 C3.55306038,40.7661947 3.14339852,40.3737422 3.14302421,39.8895174 L3.12401794,15.3135935 C3.12365227,14.8288605 3.5335344,14.4356157 4.03952434,14.4352568 L28.8851977,14.4893144" id="形状" stroke="#00A4FF" stroke-width="2" transform="translate(20.417821, 27.601386) rotate(-365.000000) translate(-20.417821, -27.601386) "></path>
            </g>
        </g>
    </g>
</svg>