<?xml version="1.0" encoding="utf-8"?>
<!-- Generator: Adobe Illustrator 16.0.0, SVG Export Plug-In . SVG Version: 6.00 Build 0)  -->
<!DOCTYPE svg PUBLIC "-//W3C//DTD SVG 1.1//EN" "http://www.w3.org/Graphics/SVG/1.1/DTD/svg11.dtd">
<svg version="1.1" id="图层_1" xmlns="http://www.w3.org/2000/svg" xmlns:xlink="http://www.w3.org/1999/xlink" x="0px" y="0px"
	 width="48px" height="48px" viewBox="0 0 48 48" enable-background="new 0 0 48 48" xml:space="preserve">
<g>
	<polygon fill="#00A4FF" points="44,18.9 44,34.9 24,45.8 4,34.9 4,13.1 24,2.2 43.8,13 45.8,11.9 24,0 2,12 2,36 24,48 46,36 
		46,17.8 	"/>
</g>
<g>
	<path fill="#00A4FF" d="M33.149,23.506v5.561l-9.148,5.228l-9.149-5.229v-2.611l-2-1.007v4.779l11.149,6.371l11.148-6.371v-5.733
		L33.149,23.506z M24.001,13.082l9.148,5.228V21l2,0.991v-4.842l-11.148-6.371l0,0l-11.149,6.371v6.242l2,0.936V18.31L24.001,13.082
		"/>
</g>
<g>
	<path fill="#00A4FF" d="M26,19.763c0-0.004,0-0.008,0-0.013c0-1.312-1.001-2.375-2.313-2.375s-2.344,1.063-2.344,2.375
		s1.079,2.375,2.391,2.375c0.577,0,1.107-0.214,1.519-0.557l8.28,4.318l0.865-1.773L26,19.763z"/>
	<path fill="#00A4FF" d="M23.75,25.375c-0.585,0-1.113,0.22-1.527,0.57L14.4,21.863l-0.925,1.773l7.901,4.122
		c0.005,1.308,1.065,2.366,2.374,2.366c1.312,0,2.375-1.063,2.375-2.375S25.062,25.375,23.75,25.375z"/>
</g>
</svg>
