<?xml version="1.0" encoding="UTF-8"?>
<svg width="48px" height="48px" viewBox="0 0 48 48" version="1.1" xmlns="http://www.w3.org/2000/svg" xmlns:xlink="http://www.w3.org/1999/xlink">
    <title>存储一体机TStor-48px</title>
    <g id="存储一体机TStor-48px" stroke="none" stroke-width="1" fill="none" fill-rule="evenodd">
        <path d="M24.039,0.006 L45.033,12.003 L42.903,13.173 L42.903,13.203 L23.959,2.378 L5.014,13.203 L5.014,34.799 L23.959,45.622 L42.978,34.799 L42.977,34.799 L42.977,19.488 L45.033,18.001 L45.033,35.997 L24.038,47.994 L3.043,35.997 L3.043,12.003 L24.039,0.006 Z M24,10 L36.1243557,17 L36.124,18.055 L35.8166058,18.2271854 L28.9747631,22.1087433 L31.8994949,24 L24.1213203,29.0281746 L20.6897631,26.8097433 L14.603,30.264 L24,35.69 L34.124,29.844 L34.123,24.18 L36.124,23.055 L36.1243557,31 L24,38 L11.8756443,31 L11.875,29.503 L13.874,28.379 L18.7967631,25.5857433 L16.3431458,24 L24.1213203,18.9718254 L27.0807631,20.8847433 L33.017,17.515 L24,12.309 L13.875,18.155 L13.874,23.379 L11.875,24.503 L11.8756443,17 L24,10 Z M24.1203867,21.3535258 L20.0262385,23.9995194 L24.1210938,26.6462201 L28.2152421,24.0002265 L24.1203867,21.3535258 Z" id="形状结合" fill="#00A4FF" fill-rule="nonzero"></path>
    </g>
</svg>