<?xml version="1.0" encoding="UTF-8"?>
<svg width="48px" height="48px" viewBox="0 0 48 48" version="1.1" xmlns="http://www.w3.org/2000/svg" xmlns:xlink="http://www.w3.org/1999/xlink">
    <!-- Generator: Sketch 64 (93537) - https://sketch.com -->
    <title>安全托管服务-48</title>
    <desc>Created with Sketch.</desc>
    <g id="页面-1" stroke="none" stroke-width="1" fill="none" fill-rule="evenodd">
        <g id="设计资源" transform="translate(-178.000000, -66.000000)">
            <g id="安全托管服务-48" transform="translate(178.000000, 66.000000)">
                <rect id="矩形复制-3" x="0" y="0" width="48" height="48"></rect>
                <rect id="矩形复制-3" x="0" y="0" width="48" height="48"></rect>
                <path d="M23.978795,2 C31.2938858,1.98618479 38.4199013,4.29235594 44.3353227,8.57928423 L45,9.06845224 L45,10.7083041 C44.9595136,25.354927 37.2372477,38.8925038 24.6822341,46.3876293 L24.2473915,46.6436794 L23.9929317,46.785046 L23.7243352,46.6436794 C11.0695993,39.2944173 3.21356665,25.8486511 3.00418496,11.2407513 L3,10.7365775 L3,9.06845224 L3.21204981,8.91294905 C9.05857832,4.54792695 16.1319354,2.14702724 23.4179315,2.0457817 L23.978795,2.04253504 L23.978795,2 Z M23.9741608,4.04244216 C17.2947559,4.02705288 10.7813646,6.06480603 5.29883821,9.87445869 L4.999,10.086 L4.99999485,10.7320373 C5.0312389,24.4954196 12.1981398,37.231653 23.8182807,44.3733015 L23.983,44.473 L24.0863026,44.4104238 C35.6462014,37.3101944 42.7904182,24.7818124 42.9956096,11.199676 L43,10.7083041 L43,10.083 L42.6851508,9.85985428 C37.8163698,6.4629905 32.1170849,4.46499572 26.2073806,4.07185611 L25.782,4.047 L23.9741608,4.04244216 Z M14,11 C15.5976809,11 16.9036609,12.24892 16.9949073,13.8237272 L17,14 L17.0001297,19.9534164 C17.7100006,19.9513312 18.4224579,20.2227794 18.9688575,20.7692781 L22.1296414,24.0373595 L22.129,26.7329383 L22.1724854,26.7331543 L22.1724854,38.9335377 L14.6646729,32.1240916 L14.664,29.156 L11,25.4914841 L11,14 C11,12.3431458 12.3431458,11 14,11 Z M34,11 C35.6568542,11 37,12.3431458 37,14 L37,14 L37,25.4914841 L33.336,29.156 L33.3353271,32.1240916 L25.8275146,38.9335377 L25.8275146,26.7331543 L25.87,26.7329383 L25.8703586,24.0373595 L29.0311425,20.7692781 C29.5775421,20.2227794 30.2899994,19.9513312 30.9998703,19.9534164 L31,14 L31.0050927,13.8237272 C31.0963391,12.24892 32.4023191,11 34,11 Z M34,13 C33.4477153,13 33,13.4477153 33,14 L33,14 L33.0013785,20.8293504 C34.0053514,21.9077533 33.9822023,23.596196 32.9319313,24.646467 L32.9319313,24.646467 L30.6116524,26.8273843 L29.242102,25.3698755 L31.5400493,23.2106058 L31.6020401,23.1387753 C31.808577,22.8614784 31.7862032,22.4400787 31.5177177,22.1715933 L31.5177177,22.1715933 L31.4409138,22.1044719 C31.1469426,21.880734 30.725543,21.9031078 30.4570575,22.1715933 L30.4570575,22.1715933 L27.8705268,24.8452908 L27.8703586,28.5438248 L27.827,28.5429383 L27.828,34.419 L31.336,31.237 L31.3353271,28.3277298 L35,24.663 L35,14 L34.9932723,13.8833789 C34.9355072,13.3860402 34.5128358,13 34,13 Z M14,13 C13.4871642,13 13.0644928,13.3860402 13.0067277,13.8833789 L13,14 L13,24.663 L16.6646729,28.3277298 L16.664,31.237 L20.172,34.419 L20.172,28.5429383 L20.1296414,28.5438248 L20.1294732,24.8452908 L17.5429425,22.1715933 C17.274457,21.9031078 16.8530574,21.880734 16.5590862,22.1044719 L16.4822823,22.1715933 C16.2137968,22.4400787 16.191423,22.8614784 16.3979599,23.1387753 L16.4599507,23.2106058 L18.757898,25.3698755 L17.3883476,26.8273843 L15.0680687,24.646467 C14.0177977,23.596196 13.9946486,21.9077533 14.9986215,20.8293504 L15,14 C15,13.4477153 14.5522847,13 14,13 Z M27.1509688,9.2859701 L29.1671947,14.3628095 L24,19.7274575 L18.8328053,14.3628095 L20.8490312,9.2859701 L27.1509688,9.2859701 Z M25.793,11.2864276 L22.206,11.2864276 L21.167,13.9034276 L24,16.8444276 L26.832,13.9034276 L25.793,11.2864276 Z" id="形状结合" fill="#00A4FF" fill-rule="nonzero"></path>
            </g>
        </g>
    </g>
</svg>