<svg id="图层_1" data-name="图层 1" xmlns="http://www.w3.org/2000/svg" width="48" height="48" viewBox="0 0 48 48"><defs><style>.cls-1{fill:#00a4ff;}.cls-2{fill:none;stroke:#00a4ff;stroke-miterlimit:10;stroke-width:2px;}</style></defs><title>48px，00A4FF，描边2px 副本 15</title><path class="cls-1" d="M24,2.44A34.09,34.09,0,0,1,44,8.88v.71A41.81,41.81,0,0,1,24,45.12,41.84,41.84,0,0,1,4,9.61c0-.24,0-.47,0-.71v0A34,34,0,0,1,24,2.44m0-2A36.28,36.28,0,0,0,2.21,7.7L2,7.86v.27c0,.48,0,1,0,1.48A43.7,43.7,0,0,0,23.71,47.28l.28.16.28-.16A43.68,43.68,0,0,0,46,9.59c0-.49,0-1,0-1.46V7.86l-.22-.16A36.28,36.28,0,0,0,24,.44Z"/><polyline class="cls-1" points="20.3 21.26 23.79 25.36 27.54 20.95"/><ellipse class="cls-2" cx="23.93" cy="14.45" rx="5.79" ry="5.72"/><path class="cls-2" d="M23.91,20.17s-10.17-.31-10.17,9.32H34.26c0-9.63-10.17-9.32-10.17-9.32"/></svg>