<svg xmlns="http://www.w3.org/2000/svg" width="48" height="48" viewBox="0 0 48 48">
  <title>画板 22</title>
  <polygon points="44 19.091 44 34.909 24 45.818 4 34.909 4 13.091 24 2.182 44 13.091 44 13.094 46 12.007 46 12 24 0 2 12 2 36 24 48 46 36 46 18.004 44 19.091" style="fill: #00a4ff"/>
  <path d="M15,15V29.969l9,6,9-6V15ZM31,29l-7,4.787L17,29V17.06L24,17l7,.06Z" style="fill: #00a4ff"/>
  <polygon points="15 25 17 24 24 29 31 24 33 25 24 31 15 25" style="fill: #00a4ff"/>
  <polygon points="15 20 17 19 24 24 31 19 33 20 24 26 15 20" style="fill: #00a4ff"/>
</svg>
