<svg id="图层_1" data-name="图层 1" xmlns="http://www.w3.org/2000/svg" width="48" height="48" viewBox="0 0 48 48">
  <defs>
    <style>
      .cls-1 {
        fill: #00a4ff;
      }

      .cls-2 {
        fill: none;
        stroke: #00a4ff;
        stroke-miterlimit: 10;
        stroke-width: 2px;
      }
    </style>
  </defs>
  <title>#</title>
  <g>
    <path class="cls-1" d="M24.28,2a38.07,38.07,0,0,1,21,6.59,45,45,0,0,1-21,37.06A43.63,43.63,0,0,1,5.56,21.79,45.19,45.19,0,0,1,3.28,8.59,38.11,38.11,0,0,1,24.28,2m0-2a40.44,40.44,0,0,0-23,7.52A46.75,46.75,0,0,0,24.28,48h0a46.76,46.76,0,0,0,23-40.48A40.43,40.43,0,0,0,24.28,0Z"/>
    <g>
      <path class="cls-1" d="M21.56,29.35a4,4,0,0,0-1.09,1.71,20.84,20.84,0,0,1-6.66-11.84c-.14-.77-.23-1.47-.29-2.07l2-.19a18.21,18.21,0,0,0,.3,2.1A18.93,18.93,0,0,0,21.56,29.35Z"/>
      <path class="cls-1" d="M33,13.32l-1,1.73a16.23,16.23,0,0,0-1.76-.9,15.51,15.51,0,0,0-6.35-1.39,16.5,16.5,0,0,0-5.64,1.07A4,4,0,0,0,17,12.16a18.47,18.47,0,0,1,6.88-1.4,17.56,17.56,0,0,1,7.38,1.67A17.84,17.84,0,0,1,33,13.32Z"/>
      <path class="cls-1" d="M34.77,19.21A20.72,20.72,0,0,1,28,30.93a21,21,0,0,1-1.77,1.4L25.11,30.7a20.57,20.57,0,0,0,1.8-1.43,18.81,18.81,0,0,0,5.84-10.21,4,4,0,0,0,1.31.22A3.35,3.35,0,0,0,34.77,19.21Z"/>
    </g>
    <circle class="cls-2" cx="24.28" cy="20.75" r="3.51"/>
    <circle class="cls-2" cx="24.28" cy="32.28" r="2"/>
    <circle class="cls-2" cx="34.06" cy="15.28" r="2"/>
    <circle class="cls-2" cx="14.5" cy="15.28" r="2"/>
    <path class="cls-1" d="M26.91,29.27a20.57,20.57,0,0,1-1.8,1.43l1.16,1.63A21,21,0,0,0,28,30.93,3.91,3.91,0,0,0,26.91,29.27Z"/>
    <path class="cls-1" d="M31.25,12.43a4,4,0,0,0-1,1.72,16.23,16.23,0,0,1,1.76.9l1-1.73A17.84,17.84,0,0,0,31.25,12.43Z"/>
    <path class="cls-1" d="M15.51,17l-2,.19c.06.6.15,1.3.29,2.07a3.85,3.85,0,0,0,.69.06,4,4,0,0,0,1.31-.22A18.21,18.21,0,0,1,15.51,17Z"/>
  </g>
</svg>
