<svg id="图层_1" data-name="图层 1" xmlns="http://www.w3.org/2000/svg" width="48" height="48" viewBox="0 0 48 48"><defs><style>.cls-1{fill:#00a4ff;}</style></defs><title>48px，00A4FF，描边2px_7</title><path class="cls-1" d="M46,8.13V7.86L45.8,7.7a36.35,36.35,0,0,0-43.59,0L2,7.86v.27c0,.48,0,1,0,1.48A43.72,43.72,0,0,0,23.72,47.3l.28.16.28-.16A43.74,43.74,0,0,0,46.05,9.59C46.05,9.1,46,8.61,46,8.13Zm-22,37A41.84,41.84,0,0,1,4,9.61c0-.24,0-.47,0-.7v0A34.35,34.35,0,0,1,44,8.89c0,.23,0,.46,0,.7A41.86,41.86,0,0,1,24,45.13Z"/><path class="cls-1" d="M13.2,14.5V26.84L23.89,33l10.7-6.18V14.5L23.89,8.32Zm9.69,15.63-6.76-3.91,3-1.68-1-1.75-3,1.66V16.77l7.69,4.06Zm9.7-5.54-3.21-1.8-1,1.75,3.14,1.75-6.65,3.84V20.85l7.7-4.24Zm-7.7-13.38L31.41,15l-7.5,4.13-7.67-4.05,6.65-3.84v3.1h2Z"/></svg>