<?xml version="1.0" encoding="utf-8"?>
<!-- Generator: Adobe Illustrator 21.0.0, SVG Export Plug-In . SVG Version: 6.00 Build 0)  -->
<svg version="1.1" id="图层_1" xmlns="http://www.w3.org/2000/svg" xmlns:xlink="http://www.w3.org/1999/xlink" x="0px" y="0px"
	 width="48px" height="48px" viewBox="0 0 48 48" style="enable-background:new 0 0 48 48;" xml:space="preserve">
<style type="text/css">
	.st0{fill:#00A4FF;}
	.st1{fill:none;stroke:#00A4FF;stroke-width:2;stroke-miterlimit:10;}
</style>
<path class="st0" d="M15.7,28.1c2.5,0,4.5,1.7,5.1,4H7.2c0.6-2.3,2.6-4,5.1-4H15.7 M15.7,26.1h-3.4c-4,0-7.3,3.2-7.3,7.3v0.7h17.9
	v-0.7C22.9,29.4,19.7,26.1,15.7,26.1L15.7,26.1z"/>
<path class="st1" d="M23,29.1h4.4c2.1,0,3.8,1.7,3.8,3.8v0.6h-6.8"/>
<path class="st0" d="M33.8,11.7v6v2.8l2.7-0.9l8.5-2.9v14.5l-8.5-2.9l-2.7-0.9v2.8v6H3V11.7H33.8 M35.8,9.7H1v28.5h34.8v-8L47,34.1
	V13.9l-11.1,3.9V9.7L35.8,9.7z"/>
<path class="st0" d="M14,16.7c1.4,0,2.5,1.1,2.5,2.5s-1.1,2.5-2.5,2.5s-2.5-1.1-2.5-2.5S12.6,16.7,14,16.7 M14,14.7
	c-2.5,0-4.5,2-4.5,4.5s2,4.5,4.5,4.5s4.5-2,4.5-4.5S16.4,14.7,14,14.7L14,14.7z"/>
<path class="st0" d="M24.8,22.5c0.6,0,1.1,0.5,1.1,1.1s-0.5,1.1-1.1,1.1s-1.1-0.5-1.1-1.1S24.1,22.5,24.8,22.5 M24.8,20.5
	c-1.7,0-3.1,1.4-3.1,3.1s1.4,3.1,3.1,3.1s3.1-1.4,3.1-3.1S26.5,20.5,24.8,20.5L24.8,20.5z"/>
</svg>
