<?xml version="1.0" encoding="utf-8"?>
<!-- Generator: Adobe Illustrator 22.0.0, SVG Export Plug-In . SVG Version: 6.00 Build 0)  -->
<svg version="1.1" id="图层_1" xmlns="http://www.w3.org/2000/svg" xmlns:xlink="http://www.w3.org/1999/xlink" x="0px" y="0px"
	 width="48px" height="48px" viewBox="0 0 48 48" style="enable-background:new 0 0 48 48;" xml:space="preserve">
<style type="text/css">
	.st0{fill:#2277DA;}
	.st1{fill:#00A4FF;}
	.st2{fill:none;stroke:#2277DA;stroke-width:2;stroke-miterlimit:10;}
	.st3{fill-rule:evenodd;clip-rule:evenodd;fill:#2277DA;}
	.st4{fill:none;}
</style>
<g id="XMLID_556_">
	<g id="XMLID_580_">
		<g>
			<path class="st1" d="M44.8,27C43.3,37.2,34.6,45,24,45C12.4,45,3,35.6,3,24C3,12.4,12.4,3,24,3c10.6,0,19.3,7.8,20.8,18h2
				C45.3,9.7,35.7,1,24,1C11.3,1,1,11.3,1,24c0,12.7,10.3,23,23,23c11.7,0,21.3-8.7,22.8-20H44.8z"/>
		</g>
	</g>
</g>
<g>
	<path class="st1" d="M12.5,23h11V10.2l-11,6.7V23z M14.5,18l7-4.2V21h-7V18z"/>
	<path class="st1" d="M25.5,10.2V23h11v-6.1L25.5,10.2z M34.5,21h-7v-7.2l7,4.2V21z"/>
	<path class="st1" d="M12.5,31.1l11,6.7V25h-11V31.1z M14.5,27h7v7.2l-7-4.2V27z"/>
	<path class="st1" d="M25.5,37.8l11-6.7V25h-11V37.8z M27.5,27h7v3l-7,4.2V27z"/>
</g>
</svg>
