<svg id="图层_1" data-name="图层 1" xmlns="http://www.w3.org/2000/svg" width="48" height="48" viewBox="0 0 48 48">
  <defs>
    <style>
      .cls-1 {
        fill: #00a4ff;
      }

      .cls-2 {
        fill: none;
        stroke: #00a4ff;
        stroke-miterlimit: 10;
        stroke-width: 2px;
      }
    </style>
  </defs>
  <title>#</title>
  <path class="cls-1" d="M23.9,2.2a34,34,0,0,1,20,6.4v.7a41.88,41.88,0,0,1-20,35.5A41.59,41.59,0,0,1,3.9,9.4V8.7h0a34.13,34.13,0,0,1,20-6.5m0-1.9A36,36,0,0,0,2.2,7.5L2,7.7V9.4A43.55,43.55,0,0,0,23.7,47l.3.2.3-.2A43.55,43.55,0,0,0,46,9.4V7.6l-.2-.2A36.74,36.74,0,0,0,23.9.3Z"/>
  <g>
    <path class="cls-1" d="M30,11v9H18V11H30m2-2H16V22H32Z"/>
    <polyline class="cls-2" points="27 23.59 27 26.62 26 28.59 27 30.61 27 33.09 24 36.09 21 33.09 21 23.59"/>
    <path class="cls-1" d="M26,13H22a1,1,0,0,0,0,2h4a1,1,0,0,0,0-2Z"/>
  </g>
</svg>
