<?xml version="1.0" encoding="utf-8"?>
<!-- Generator: Adobe Illustrator 17.0.0, SVG Export Plug-In . SVG Version: 6.00 Build 0)  -->
<!DOCTYPE svg PUBLIC "-//W3C//DTD SVG 1.1//EN" "http://www.w3.org/Graphics/SVG/1.1/DTD/svg11.dtd">
<svg version="1.1" id="图层_1" xmlns="http://www.w3.org/2000/svg" xmlns:xlink="http://www.w3.org/1999/xlink" x="0px" y="0px"
	 width="48px" height="48px" viewBox="0 0 48 48" style="enable-background:new 0 0 48 48;" xml:space="preserve">
<style type="text/css">
	.st0{opacity:0.2;fill:#2277DA;}
	.st1{opacity:0.2;fill:#7F7F7F;}
	.st2{fill:#7C848E;}
	.st3{fill:#FFFFFF;}
	.st4{fill:#666666;}
	.st5{fill:#999999;}
	.st6{fill:#E5E5E5;}
	.st7{fill:none;stroke:#E5E5E5;stroke-width:2;stroke-miterlimit:10;stroke-dasharray:8,4;}
	.st8{fill:#00A4FF;}
	.st9{fill-rule:evenodd;clip-rule:evenodd;fill:url(#SVGID_1_);}
	.st10{fill:#7B818B;}
</style>
<path class="st8" d="M44.76,27C43.297,37.16,34.558,45,24,45C12.421,45,3,35.579,3,24S12.421,3,24,3c10.558,0,19.297,7.84,20.76,18
	h2.038C45.328,9.716,35.685,1,24,1C11.297,1,1,11.297,1,24s10.297,23,23,23c11.685,0,21.328-8.716,22.799-20H44.76z"/>
<circle class="st8" cx="14.5" cy="16.5" r="2.5"/>
<circle class="st8" cx="33.5" cy="32.5" r="2.5"/>
<g>
	<rect x="23" y="12" transform="matrix(0.7071 0.7071 -0.7071 0.7071 24.3536 -9.7947)" class="st8" width="2" height="25"/>
</g>
<g>
	<path class="st8" d="M29.506,34.031c-1.66,0.932-3.571,1.469-5.606,1.469c-6.341,0-11.5-5.159-11.5-11.5
		c0-1.319,0.234-2.581,0.645-3.762c-0.66-0.227-1.257-0.586-1.738-1.071c-0.577,1.502-0.906,3.127-0.906,4.833
		c0,7.456,6.044,13.5,13.5,13.5c2.527,0,4.884-0.707,6.906-1.916C30.26,35.174,29.818,34.644,29.506,34.031z"/>
	<path class="st8" d="M18.446,13.879C20.07,13,21.927,12.5,23.899,12.5c6.341,0,11.5,5.159,11.5,11.5
		c0,1.298-0.226,2.541-0.624,3.706c0.666,0.198,1.268,0.537,1.766,0.996c0.546-1.466,0.858-3.046,0.858-4.702
		c0-7.456-6.044-13.5-13.5-13.5c-2.479,0-4.794,0.679-6.79,1.845C17.667,12.745,18.118,13.271,18.446,13.879z"/>
</g>
<g>
	<path class="st8" d="M30.716,28.989c0.534-0.424,1.155-0.742,1.847-0.889c-1.648-6.466-6.999-11.446-13.669-12.552
		C18.961,15.856,19,16.173,19,16.5c0,0.369-0.057,0.722-0.141,1.065C24.734,18.663,29.403,23.195,30.716,28.989z"/>
</g>
<g>
	<path class="st8" d="M29,32.5c0-0.16,0.031-0.312,0.047-0.468c-6.168-0.893-11.131-5.545-12.477-11.559
		c-0.583,0.305-1.234,0.491-1.933,0.513c1.586,6.962,7.438,12.29,14.663,13.096C29.115,33.588,29,33.059,29,32.5z"/>
</g>
</svg>
