<?xml version="1.0" encoding="utf-8"?>
<!-- Generator: Adobe Illustrator 21.0.0, SVG Export Plug-In . SVG Version: 6.00 Build 0)  -->
<svg version="1.1" id="图层_1" xmlns="http://www.w3.org/2000/svg" xmlns:xlink="http://www.w3.org/1999/xlink" x="0px" y="0px"
	 width="48px" height="48px" viewBox="0 0 48 48" style="enable-background:new 0 0 48 48;" xml:space="preserve">
<style type="text/css">
	.st0{fill:#00A4FF;}
</style>
<g id="XMLID_403_">
	<g>
		<path class="st0" d="M24,12l-11,6v12l11,6l11-6V18L24,12z M33,28.9l-9,4.9l-9-4.9v-9.8l9-4.9l9,4.9V28.9z"/>
	</g>
</g>
<polygon id="XMLID_489_" class="st0" points="33,18.7 24,23.7 15,18.7 15,21 24,26 33,21 "/>
<g id="XMLID_488_">
	<rect id="XMLID_493_" x="23" y="24" class="st0" width="2" height="11"/>
</g>
<g id="XMLID_414_">
	<g>
		<polygon class="st0" points="44,19.1 44,34.9 24,45.8 4,34.9 4,13.1 24,2.2 44,13.1 44,13.1 46,12 46,12 24,0 2,12 2,36 24,48 
			46,36 46,18 		"/>
	</g>
</g>
</svg>
