<?xml version="1.0" encoding="UTF-8"?>
<svg width="48px" height="48px" viewBox="0 0 48 48" version="1.1" xmlns="http://www.w3.org/2000/svg" xmlns:xlink="http://www.w3.org/1999/xlink">
    <!-- Generator: Sketch 57.1 (83088) - https://sketch.com -->
    <title>对话机器人-48px</title>
    <desc>Created with Sketch.</desc>
    <g id="对话机器人-48px" stroke="none" stroke-width="1" fill="none" fill-rule="evenodd">
        <path d="M4.87173625,9.50004556 L6.43045416,11.0587635 C0.124289142,19.5980243 0.83820965,31.6937523 8.57221569,39.4277583 C15.7184941,46.5740368 26.5887654,47.7266393 34.9363078,42.8855659 C34.9180938,42.7746885 34.9090909,42.6611099 34.9090909,42.5454286 C34.9090909,41.3404437 35.8859242,40.3636104 37.0909091,40.3636104 C38.295894,40.3636104 39.2727273,41.3404437 39.2727273,42.5454286 C39.2727273,43.7504135 38.295894,44.7272467 37.0909091,44.7272467 C36.8255391,44.7272467 36.5712344,44.6798705 36.3359916,44.5931146 C27.1153525,50.1268146 14.9781739,48.9192735 7.02943725,40.9705368 C-1.55816823,32.3829313 -2.2774019,18.9065463 4.87173625,9.50004556 Z M40.9705628,7.02941127 C49.5581683,15.6170167 50.2774019,29.0934017 43.1282638,38.4999025 L41.5695458,36.9411845 C47.8757109,28.4019238 47.1617904,16.3061957 39.4277843,8.57218971 C32.2815059,1.42591126 21.4112346,0.273308747 13.0636922,5.11438217 C13.0819062,5.22525949 13.0909091,5.33883811 13.0909091,5.45451947 C13.0909091,6.65950438 12.1140758,7.63633766 10.9090909,7.63633766 C9.704106,7.63633766 8.72727273,6.65950438 8.72727273,5.45451947 C8.72727273,4.24953457 9.704106,3.27270129 10.9090909,3.27270129 C11.1744609,3.27270129 11.4287656,3.32007757 11.6640084,3.40683348 C20.8846475,-2.12686654 33.0218261,-0.919325403 40.9705628,7.02941127 Z" id="形状结合" fill="#00A4FF" fill-rule="nonzero" transform="translate(24.000000, 23.999974) scale(-1, 1) translate(-24.000000, -23.999974) "></path>
        <path d="M38,13 L11,13 L11,36 L12.4604229,36 L15.6324291,32.7029935 L38,32.7033341 L38,13 Z" id="形状结合" stroke="#00A4FF" stroke-width="2"></path>
        <rect id="矩形" fill="#00A4FF" fill-rule="nonzero" x="27.5" y="18.3" width="2.1" height="4.5" rx="1.05"></rect>
        <rect id="矩形备份-2" fill="#00A4FF" fill-rule="nonzero" x="19.5" y="18.3" width="2.1" height="4.5" rx="1.05"></rect>
        <path d="M27.3060416,25.2115728 C26.9026528,25.6332943 26.2313155,25.9027982 25.4833467,25.9027982 L23.66209,25.9000003 C22.9158925,25.9000003 22.2458824,25.6317794 21.8420775,25.2115728 L20.4,26.5973623 C21.1923868,27.4219342 22.3865858,27.9000003 23.66209,27.9000003 L25.4833467,27.9027982 C26.7620958,27.9027982 27.9590668,27.4222821 28.7513201,26.5940235 L27.3060416,25.2115728 Z" id="Rectangle-37" fill="#00A4FF" fill-rule="nonzero"></path>
        <rect id="矩形" x="0" y="0" width="48" height="48"></rect>
    </g>
</svg>