<?xml version="1.0" encoding="UTF-8"?>
<svg width="48px" height="48px" viewBox="0 0 48 48" version="1.1" xmlns="http://www.w3.org/2000/svg" xmlns:xlink="http://www.w3.org/1999/xlink">
    <!-- Generator: Sketch 62 (91390) - https://sketch.com -->
    <title>小程序安全-48px</title>
    <desc>Created with Sketch.</desc>
    <g id="小程序安全-48px" stroke="none" stroke-width="1" fill="none" fill-rule="evenodd">
        <g id="343256f064cb8d7278d88af3822f7b50">
            <rect id="矩形" x="0" y="0" width="48" height="48"></rect>
            <g id="编组-3" transform="translate(11.000000, 7.000000)" fill="#00A4FF" fill-rule="nonzero">
                <path d="M13,0 C20.1797017,0 26,5.8202983 26,13 C26,20.1797017 20.1797017,26 13,26 C5.8202983,26 0,20.1797017 0,13 C0,5.8202983 5.8202983,0 13,0 Z M13,2 C6.9248678,2 2,6.9248678 2,13 C2,19.0751322 6.9248678,24 13,24 C19.0751322,24 24,19.0751322 24,13 C24,6.9248678 19.0751322,2 13,2 Z M16,6 C18.209139,6 20,7.790861 20,10 C20,12.209139 18.209139,14 16,14 C15.4477153,14 15,13.5522847 15,13 C15,12.4871642 15.3860402,12.0644928 15.8833789,12.0067277 L16,12 C17.1045695,12 18,11.1045695 18,10 C18,8.8954305 17.1045695,8 16,8 C14.9456382,8 14.0818349,8.8158778 14.0054857,9.8507377 L14,10 L14,16 C14,18.209139 12.209139,20 10,20 C7.790861,20 6,18.209139 6,16 C6,13.790861 7.790861,12 10,12 C10.5522847,12 11,12.4477153 11,13 C11,13.5522847 10.5522847,14 10,14 C8.8954305,14 8,14.8954305 8,16 C8,17.1045695 8.8954305,18 10,18 C11.0543618,18 11.9181651,17.1841222 11.9945143,16.1492623 L12,16 L12,10 C12,7.790861 13.790861,6 16,6 Z" id="形状结合"></path>
            </g>
        </g>
        <path d="M23.95,2.49980038 C31.127177,2.47541295 38.1280509,4.72269347 43.95,8.92 C43.95,9.16 43.95,9.39 43.95,9.62 C43.889287,24.1046944 36.3181232,37.5207967 23.95,45.06 C11.5936748,37.5189605 4.02537936,24.1155092 3.95,9.64 C3.95,9.41 3.95,9.17 3.95,8.94 L3.95,8.94 C9.76952749,4.73558006 16.7706062,2.4812327 23.95,2.49980038 M23.95,0.499918944 C16.1103225,0.494224335 8.48087486,3.03503394 2.21,7.74 L2,7.9 L2,8.16 C2,8.65 2,9.16 2,9.64 C2.03940726,25.135918 10.3006514,39.4465248 23.7,47.23 L23.97,47.39 L24.25,47.23 C37.6509313,39.4432346 45.9121048,25.1289431 45.95,9.63 C45.95,9.13666667 45.95,8.64666667 45.95,8.16 L45.95,7.9 L45.74,7.74 C39.4554497,3.02474124 31.806778,0.483374402 23.95,0.499918944 Z" id="形状备份" fill="#00A4FF" fill-rule="nonzero"></path>
    </g>
</svg>