<svg id="图层_1" data-name="图层 1" xmlns="http://www.w3.org/2000/svg" width="48" height="48" viewBox="0 0 48 48"><defs><style>.cls-1{fill:#00a4ff;}</style></defs><title>48px，00A4FF，描边2px_2</title><path class="cls-1" d="M24,2.5A34,34,0,0,1,44,8.92c0,.24,0,.47,0,.7A41.71,41.71,0,0,1,24,45.06,41.75,41.75,0,0,1,4,9.64c0-.23,0-.47,0-.7v0A34,34,0,0,1,24,2.5m0-2A36.18,36.18,0,0,0,2.26,7.74l-.21.16v.26c0,.49,0,1,0,1.48a43.6,43.6,0,0,0,21.7,37.59l.27.16.28-.16A43.61,43.61,0,0,0,46,9.63q0-.74,0-1.47V7.9l-.21-.16A36.18,36.18,0,0,0,24,.5Z"/><path class="cls-1" d="M35.19,29H12.09V12.82h23.1Zm-21.4-1.7h19.7V14.52H13.79Z"/><rect class="cls-1" x="15.02" y="21" width="19.66" height="1.7"/><rect class="cls-1" x="28.82" y="24.17" width="3.72" height="1.7"/><rect class="cls-1" x="26.24" y="24.17" width="1.7" height="1.7"/><rect class="cls-1" x="18.87" y="7.89" width="1.7" height="8.51"/><rect class="cls-1" x="26.87" y="7.89" width="1.7" height="8.51"/></svg>