<?xml version="1.0" encoding="UTF-8"?>
<svg width="48px" height="48px" viewBox="0 0 48 48" version="1.1" xmlns="http://www.w3.org/2000/svg" xmlns:xlink="http://www.w3.org/1999/xlink">
    <!-- Generator: Sketch 61 (89581) - https://sketch.com -->
    <title>48x48</title>
    <desc>Created with Sketch.</desc>
    <g id="48x48" stroke="none" stroke-width="1" fill="none" fill-rule="evenodd">
        <g id="EMR产品Logo_48x48" transform="translate(0.000000, 3.000000)" fill="#00A4FF" fill-rule="nonzero">
            <path d="M4,12 L4,38 L42.2,38 C42.6,36.8 43.7,36 45,36 C46.7,36 48,37.3 48,39 C48,40.7 46.7,42 45,42 C43.7,42 42.6,41.2 42.2,40 L42.2,40 L2,40 L2,12 L4,12 Z M24,29 C25.6568542,29 27,30.3431458 27,32 C27,33.6568542 25.6568542,35 24,35 C22.3431458,35 21,33.6568542 21,32 C21,30.3431458 22.3431458,29 24,29 Z M24,7 C25.6568542,7 27,8.34314575 27,10 C27,11.3058822 26.1656226,12.4168852 25.0009007,12.8289758 L25.0008069,15.5830939 C27.8381232,16.0595044 30,18.5272855 30,21.5 C30,22.5626378 29.7237546,23.560755 29.2391596,24.4264559 L31.9503654,26.6848179 C32.4417004,26.3775781 33.0224274,26.2 33.6446301,26.2 C35.4119413,26.2 36.8446301,27.6326888 36.8446301,29.4 C36.8446301,31.1673112 35.4119413,32.6 33.6446301,32.6 C31.8773189,32.6 30.4446301,31.1673112 30.4446301,29.4 C30.4446301,28.9840062 30.5240079,28.5865521 30.6684435,28.221958 L27.9848388,25.9857367 C26.9251569,26.9277722 25.5294039,27.5 24,27.5 C22.491355,27.5 21.1127575,26.9432008 20.0584963,26.0238912 L17.4208166,28.221958 C17.5652522,28.5865521 17.6446301,28.9840062 17.6446301,29.4 C17.6446301,31.1673112 16.2119413,32.6 14.4446301,32.6 C12.6773189,32.6 11.2446301,31.1673112 11.2446301,29.4 C11.2446301,27.6326888 12.6773189,26.2 14.4446301,26.2 C15.0672589,26.2 15.6483552,26.3778215 16.1399042,26.6854494 L18.7893826,24.4768714 C18.2871073,23.599598 18,22.5833278 18,21.5 C18,18.5269368 20.1623839,16.0589255 23.0001915,15.5829263 L23.0000889,12.8293257 C21.8348501,12.4175144 21,11.3062521 21,10 C21,8.34314575 22.3431458,7 24,7 Z M3,0 C4.3,0 5.4,0.8 5.8,2 L5.8,2 L46,2 L46,30 L44,30 L44,4 L5.8,4 C5.4,5.2 4.3,6 3,6 C1.3,6 0,4.7 0,3 C0,1.3 1.3,0 3,0 Z M24.0578613,17.5 C21.8487223,17.5 20.0578613,19.290861 20.0578613,21.5 C20.0578613,23.709139 21.8487223,25.5 24.0578613,25.5 C24.9548152,25.5 25.7828151,25.2047731 26.4499898,24.7061904 L26.4355371,24.69472 C26.8791671,24.3676483 27.2551257,23.9543845 27.535008,23.4804062 C27.8673873,22.8964327 28.0578613,22.2204602 28.0578613,21.5 C28.0578613,19.290861 26.2670003,17.5 24.0578613,17.5 Z M34,14 C35.6568542,14 37,15.3431458 37,17 C37,18.6568542 35.6568542,20 34,20 C32.3431458,20 31,18.6568542 31,17 C31,15.3431458 32.3431458,14 34,14 Z M14,14 C15.6568542,14 17,15.3431458 17,17 C17,18.6568542 15.6568542,20 14,20 C12.3431458,20 11,18.6568542 11,17 C11,15.3431458 12.3431458,14 14,14 Z" id="形状结合"></path>
        </g>
    </g>
</svg>