<?xml version="1.0" encoding="utf-8"?>
<!-- Generator: Adobe Illustrator 22.1.0, SVG Export Plug-In . SVG Version: 6.00 Build 0)  -->
<svg version="1.1" id="图层_1" xmlns="http://www.w3.org/2000/svg" xmlns:xlink="http://www.w3.org/1999/xlink" x="0px" y="0px"
	 width="48px" height="48px" viewBox="0 0 48 48" style="enable-background:new 0 0 48 48;" xml:space="preserve">
<g>
	<g>
		<defs>
			<path id="SVGID_6_" d="M45,27c-1.5,10.2-10.2,18-20.9,18C12.5,45,3,35.6,3,24S12.5,3,24.1,3C34.7,3,43.5,10.8,45,21h2
				C45.5,9.7,35.8,1,24.1,1C11.3,1,1,11.3,1,24s10.3,23,23.1,23c11.7,0,21.4-8.7,22.9-20H45z"/>
		</defs>
		<use xlink:href="#SVGID_6_"  style="overflow:visible;fill:#00A4FF;"/>
		<clipPath id="SVGID_2_">
			<use xlink:href="#SVGID_6_"  style="overflow:visible;"/>
		</clipPath>
	</g>
</g>
<g>
	<g>
		<path style="fill:#00A4FF;stroke:#00A4FF;stroke-width:0.25;stroke-miterlimit:10;" d="M19.1,18.3h1.7v11.4h-1.7V18.3z"/>
		<path style="fill:#00A4FF;stroke:#00A4FF;stroke-width:0.25;stroke-miterlimit:10;" d="M23.2,18.3h4c0.4,0,0.8,0,1.3,0.1
			c0.5,0.1,0.9,0.4,1.2,0.7c0.4,0.3,0.7,0.7,0.8,1.1c0.2,0.5,0.4,1.1,0.3,1.6c0,0.8-0.3,1.7-0.9,2.3c-0.6,0.8-1.6,1.2-2.6,1.1h-2.5
			v4.5h-1.7V18.3z M24.9,23.6h2.5c0.5,0,1.1-0.2,1.4-0.6c0.3-0.4,0.4-0.8,0.4-1.3c0-0.3-0.1-0.7-0.2-1c-0.1-0.2-0.3-0.4-0.5-0.6
			c-0.4-0.2-0.8-0.3-1.2-0.3h-2.4V23.6z"/>
	</g>
</g>
<g>
	<g>
		<polygon style="fill:#00A4FF;" points="27.5,14.9 24,11.4 20.5,14.9 19.1,13.5 24,8.6 28.9,13.5 		"/>
	</g>
	<g>
		<polygon style="fill:#00A4FF;" points="34.5,28.9 33.1,27.5 36.6,24 33.1,20.5 34.5,19.1 39.4,24 		"/>
	</g>
	<g>
		<polygon style="fill:#00A4FF;" points="13.5,28.9 8.6,24 13.5,19.1 14.9,20.5 11.4,24 14.9,27.5 		"/>
	</g>
	<g>
		<polygon style="fill:#00A4FF;" points="24,39.4 19.1,34.5 20.5,33.1 24,36.6 27.5,33.1 28.9,34.5 		"/>
	</g>
</g>
</svg>
