<?xml version="1.0" encoding="utf-8"?>
<!-- Generator: Adobe Illustrator 23.0.3, SVG Export Plug-In . SVG Version: 6.00 Build 0)  -->
<svg version="1.1" id="图层_1" xmlns="http://www.w3.org/2000/svg" xmlns:xlink="http://www.w3.org/1999/xlink" x="0px" y="0px"
	 width="48px" height="48px" viewBox="0 0 48 48" style="enable-background:new 0 0 48 48;" xml:space="preserve">
<path style="fill:#00A6FF;" d="M44.669,27C43.206,37.109,34.508,44.909,24,44.909c-11.529,0-20.909-9.38-20.909-20.909
	c0-11.529,9.38-20.909,20.909-20.909c10.508,0,19.206,7.8,20.669,17.909h2.13C45.328,9.716,35.685,1,24,1C11.297,1,1,11.297,1,24
	c0,12.703,10.297,23,23,23c11.685,0,21.328-8.716,22.799-20H44.669z"/>
<g>
	<rect x="11" y="21" style="fill:#00A6FF;" width="4" height="2"/>
	<rect x="32" y="21" style="fill:#00A6FF;" width="5" height="2"/>
	<rect x="11" y="27" style="fill:#00A6FF;" width="4" height="2"/>
	<rect x="12" y="22" style="fill:#00A6FF;" width="2" height="6"/>
	<rect x="17" y="21" style="fill:#00A6FF;" width="2" height="8"/>
	<rect x="32" y="21" style="fill:#00A6FF;" width="2" height="8"/>
	<g>
		<polygon style="fill:#00A6FF;" points="22,26 18,26 18,24 20,24 20,23 18,23 18,21 22,21 		"/>
	</g>
	<g>
		<polygon style="fill:#00A6FF;" points="37,29 33,29 33,27 35,27 35,26 33,26 33,24 37,24 		"/>
	</g>
	<polygon style="fill:#00A6FF;" points="28,29 26,29 24,24 26,24 	"/>
	<polygon style="fill:#00A6FF;" points="26,29 28,29 30,24 28,24 	"/>
</g>
<g>
	<g>
		<defs>
			<rect id="SVGID_1_" x="11" y="15" width="26" height="2"/>
		</defs>
		<use xlink:href="#SVGID_1_"  style="overflow:visible;fill-rule:evenodd;clip-rule:evenodd;fill:#00A6FF;"/>
		<clipPath id="SVGID_2_">
			<use xlink:href="#SVGID_1_"  style="overflow:visible;"/>
		</clipPath>
	</g>
	<g>
		<defs>
			<rect id="SVGID_3_" x="11" y="33" width="26" height="2"/>
		</defs>
		<use xlink:href="#SVGID_3_"  style="overflow:visible;fill-rule:evenodd;clip-rule:evenodd;fill:#00A6FF;"/>
		<clipPath id="SVGID_4_">
			<use xlink:href="#SVGID_3_"  style="overflow:visible;"/>
		</clipPath>
	</g>
	<g>
		<defs>
			<rect id="SVGID_5_" x="11" y="16" width="2" height="3"/>
		</defs>
		<use xlink:href="#SVGID_5_"  style="overflow:visible;fill-rule:evenodd;clip-rule:evenodd;fill:#00A6FF;"/>
		<clipPath id="SVGID_6_">
			<use xlink:href="#SVGID_5_"  style="overflow:visible;"/>
		</clipPath>
	</g>
	<g>
		<defs>
			<rect id="SVGID_7_" x="11" y="31" width="2" height="3"/>
		</defs>
		<use xlink:href="#SVGID_7_"  style="overflow:visible;fill-rule:evenodd;clip-rule:evenodd;fill:#00A6FF;"/>
		<clipPath id="SVGID_8_">
			<use xlink:href="#SVGID_7_"  style="overflow:visible;"/>
		</clipPath>
	</g>
	<g>
		<defs>
			<rect id="SVGID_9_" x="35" y="31" width="2" height="3"/>
		</defs>
		<use xlink:href="#SVGID_9_"  style="overflow:visible;fill-rule:evenodd;clip-rule:evenodd;fill:#00A6FF;"/>
		<clipPath id="SVGID_10_">
			<use xlink:href="#SVGID_9_"  style="overflow:visible;"/>
		</clipPath>
	</g>
	<g>
		<defs>
			<rect id="SVGID_11_" x="35" y="16" width="2" height="3"/>
		</defs>
		<use xlink:href="#SVGID_11_"  style="overflow:visible;fill-rule:evenodd;clip-rule:evenodd;fill:#00A6FF;"/>
		<clipPath id="SVGID_12_">
			<use xlink:href="#SVGID_11_"  style="overflow:visible;"/>
		</clipPath>
	</g>
	<g>
		<defs>
			<rect id="SVGID_13_" x="19" y="9" width="2" height="6"/>
		</defs>
		<use xlink:href="#SVGID_13_"  style="overflow:visible;fill-rule:evenodd;clip-rule:evenodd;fill:#00A6FF;"/>
		<clipPath id="SVGID_14_">
			<use xlink:href="#SVGID_13_"  style="overflow:visible;"/>
		</clipPath>
	</g>
	<g>
		<defs>
			<rect id="SVGID_15_" x="27" y="9" width="2" height="6"/>
		</defs>
		<use xlink:href="#SVGID_15_"  style="overflow:visible;fill-rule:evenodd;clip-rule:evenodd;fill:#00A6FF;"/>
		<clipPath id="SVGID_16_">
			<use xlink:href="#SVGID_15_"  style="overflow:visible;"/>
		</clipPath>
	</g>
</g>
</svg>
