<?xml version="1.0" encoding="utf-8"?>
<!-- Generator: Adobe Illustrator 22.1.0, SVG Export Plug-In . SVG Version: 6.00 Build 0)  -->
<svg version="1.1" id="图层_1" xmlns="http://www.w3.org/2000/svg" xmlns:xlink="http://www.w3.org/1999/xlink" x="0px" y="0px"
	 width="48px" height="48px" viewBox="0 0 48 48" style="enable-background:new 0 0 48 48;" xml:space="preserve">
<style type="text/css">
	.st0{fill:#00A4FF;}
</style>
<title>资源 2</title>
<path class="st0" d="M24.2,34h9.5V16.1h1.5v-2H13.1v2h1.6V34H24.2z M16.7,16.1h15V32h-1.6v-3.1h-2V32h-1.9v-3.1h-2V32h-7.5V16.1z"/>
<path class="st0" d="M26.2,18.1h-7v7h7V18.1z M24.2,23.1h-3v-3h3V23.1z"/>
<path class="st0" d="M24.1,45c-11.6,0-21-9.4-21-21s9.4-21,21-21c10.4,0,19.3,7.7,20.8,18h2C45.2,8.4,33.7-0.5,21.1,1.2
	S-0.4,14.4,1.3,27s13.2,21.5,25.8,19.8c10.3-1.4,18.4-9.5,19.8-19.8h-2C43.4,37.3,34.5,45,24.1,45z"/>
</svg>
