<?xml version="1.0" encoding="utf-8"?>
<!-- Generator: Adobe Illustrator 23.0.3, SVG Export Plug-In . SVG Version: 6.00 Build 0)  -->
<svg version="1.1" id="图层_1" xmlns="http://www.w3.org/2000/svg" xmlns:xlink="http://www.w3.org/1999/xlink" x="0px" y="0px"
	 width="48px" height="48px" viewBox="0 0 48 48" style="enable-background:new 0 0 48 48;" xml:space="preserve">
<g>
	<path style="fill:#00A4FF;" d="M44.903,27c-1.657,11.479-12.306,19.441-23.785,17.785C9.639,43.128,1.677,32.479,3.334,21
		S15.639,1.559,27.118,3.215C36.334,4.546,43.573,11.785,44.903,21h2C45.246,8.406,33.694-0.46,21.1,1.196S-0.361,14.406,1.296,27
		S14.506,48.46,27.1,46.804C37.422,45.445,45.545,37.323,46.903,27H44.903z"/>
	<path style="fill:#00A4FF;" d="M21.053,22l-5.59-3.1l5.18-2.83l-2-1.07l-5.5,3v6.49l2,1.11V21l5.07,2.8
		C20.337,23.139,20.626,22.52,21.053,22z M25.143,28.37c-0.654,0.187-1.346,0.187-2,0v4.9l-5-2.73v2.19l6,3.27l6-3.27v-2.2l-5,2.73
		V28.37z M29.643,15l-2,1.1l5.19,2.84l-5.6,3.06c0.43,0.526,0.719,1.152,0.84,1.82l5.07-2.82v4.59l2-1.11V18L29.643,15z"/>
	<circle style="fill:#00A4FF;" cx="24.143" cy="24.5" r="2"/>
</g>
</svg>
