<?xml version="1.0" encoding="utf-8"?>
<!-- Generator: Adobe Illustrator 21.0.0, SVG Export Plug-In . SVG Version: 6.00 Build 0)  -->
<svg version="1.1" id="图层_1" xmlns="http://www.w3.org/2000/svg" xmlns:xlink="http://www.w3.org/1999/xlink" x="0px" y="0px"
	 width="48px" height="48px" viewBox="0 0 48 48" style="enable-background:new 0 0 48 48;" xml:space="preserve">
<style type="text/css">
	.st0{fill:#00A4FF;}
</style>
<g id="XMLID_1768_">
	<g id="XMLID_340_">
		<g>
			<path class="st0" d="M44.8,27C43.3,37.2,34.6,45,24,45C12.4,45,3,35.6,3,24C3,12.4,12.4,3,24,3c10.6,0,19.3,7.8,20.8,18h2
				C45.3,9.7,35.7,1,24,1C11.3,1,1,11.3,1,24c0,12.7,10.3,23,23,23c11.7,0,21.3-8.7,22.8-20H44.8z"/>
		</g>
	</g>
	<polygon id="XMLID_342_" class="st0" points="33,18.7 24,23.7 15,18.7 15,21 24,26 33,21 	"/>
	<rect id="XMLID_348_" x="23" y="25" class="st0" width="2" height="10"/>
	<polygon id="XMLID_349_" class="st0" points="33,25.6 35,24.5 35,18 29.5,14.9 27.5,16 33,19.1 	"/>
	<polygon id="XMLID_350_" class="st0" points="15,25.6 15,19.1 20.5,16 18.5,14.9 13,18 13,24.5 	"/>
	<polygon id="XMLID_351_" class="st0" points="24,33.8 18,30.5 18,32.7 24,36 30,32.7 30,30.5 	"/>
</g>
</svg>
