<?xml version="1.0" encoding="UTF-8"?>
<svg width="48px" height="48px" viewBox="0 0 48 48" version="1.1" xmlns="http://www.w3.org/2000/svg" xmlns:xlink="http://www.w3.org/1999/xlink">
    <!-- Generator: Sketch 55.2 (78181) - https://sketchapp.com -->
    <title>48</title>
    <desc>Created with Sketch.</desc>
    <g id="48" stroke="none" stroke-width="1" fill="none" fill-rule="evenodd">
        <g id="Group-6-Copy" transform="translate(12.000000, 11.000000)" fill="#00A4FF" fill-rule="nonzero">
            <path d="M16.5648153,5.19385481 C16.7295893,5.15666618 16.9010175,5.13703704 17.0770304,5.13703704 C18.3564901,5.13703704 19.3936971,6.17424403 19.3936971,7.4537037 C19.3936971,8.61285135 19.4339927,9.53248052 19.5424716,11.2881308 C19.5970597,12.171598 19.6107636,12.4009679 19.6321712,12.8151599 C19.724904,14.609347 19.7206938,15.984453 19.5824695,17.4842479 C19.4585946,18.828345 19.2313378,20.0014846 18.9106399,21.1299742 C18.8031222,21.5083138 18.2071081,23.295917 18.2071081,23.4238688 C18.2071081,24.0871236 18.2071081,24.0871236 18.2071081,24.2812277 L16.4071081,24.2812277 C16.4071081,24.0871236 16.4071081,24.0871236 16.4071081,23.4238688 C16.4071081,22.954097 17.1782989,20.6410924 17.1791983,20.6379275 C17.4705874,19.6125715 17.6767952,18.5480907 17.7900656,17.3190562 C17.9192592,15.9172477 17.9232211,14.6232716 17.8345706,12.9080692 C17.8136025,12.5023807 17.8000606,12.2757224 17.7458978,11.3991383 C17.6352687,9.60868902 17.5936971,8.6599378 17.5936971,7.4537037 C17.5936971,7.16835658 17.3623776,6.93703704 17.0770304,6.93703704 C16.8147772,6.93703704 16.5981602,7.13242918 16.5648153,7.38557774 L16.5648153,12.9442093 L14.7648153,12.9442093 L14.7648153,12.9266855 L14.7603638,12.9266855 L14.7603638,7.4537037 C14.7603638,7.4050736 14.7618622,7.35679346 14.7648153,7.30890694 L14.7648153,3.99074074 C14.7648153,3.70539362 14.5334957,3.47407407 14.2481486,3.47407407 C13.9628015,3.47407407 13.7314819,3.70539362 13.7314819,3.99074074 L13.7314819,12.4108842 L11.9314819,12.4108842 L11.9314819,3.99074074 L11.9314819,2.41666667 C11.9314819,2.13131955 11.7001624,1.9 11.4148153,1.9 C11.1294681,1.9 10.8981486,2.13131955 10.8981486,2.41666667 L10.8981486,12.42554 L9.0981486,12.42554 L9.0981486,4.93518519 C9.0981486,4.64983806 8.86682905,4.41851852 8.58148193,4.41851852 C8.29613481,4.41851852 8.06481527,4.64983806 8.06481527,4.93518519 L8.06481527,6.30016412 L8.06481527,17.302323 L6.92789134,16.9920865 C6.2445464,16.8056197 5.70604421,16.2574613 5.25426261,15.4110222 C5.21197872,15.3318009 4.88475422,14.705748 4.79635547,14.5446678 C4.41090574,13.8423017 4.15895113,13.5734185 3.80282792,13.471025 C3.58445062,13.4082365 3.36259662,13.3892763 3.13232244,13.4166592 C3.94975204,15.9168841 4.56500335,17.5274872 4.95010293,18.196833 C5.23261218,18.6878654 5.70186858,19.3223841 6.28574,20.0257993 C6.68092549,20.5018964 7.06777221,20.9378377 7.38091957,21.2756575 C7.8659991,21.7989558 8.5176146,22.6810534 8.65763088,23.1218554 C8.75654096,23.4332461 8.7991654,23.8139445 8.7991654,24.2812277 L6.9991654,24.2812277 C6.9991654,23.9827951 6.97558855,23.7722194 6.94209604,23.6667776 C6.90924763,23.5633636 6.36809136,22.8307956 6.0608348,22.4993307 C5.72707226,22.1392715 5.31939765,21.679859 4.90070941,21.1754472 C4.25677692,20.3996738 3.73457959,19.6935695 3.38989906,19.0944765 C2.87538599,18.2001958 2.13906032,16.2300973 1.14274419,13.1137091 L0.906538891,12.37488 L1.60241741,12.0322219 C2.500454,11.5900191 3.41326476,11.4860916 4.30021751,11.7411106 C5.17298063,11.9920498 5.71027409,12.5235245 6.26481527,13.4839467 L6.26481527,6.30016412 L6.26481527,4.93518519 C6.26481527,3.65572551 7.30202226,2.61851852 8.58148193,2.61851852 C8.75908046,2.61851852 8.93201137,2.63850291 9.0981486,2.67634561 L9.0981486,2.41666667 C9.0981486,1.137207 10.1353556,0.1 11.4148153,0.1 C12.4646682,0.1 13.3514143,0.798343653 13.6358681,1.75584565 C13.830905,1.70253579 14.036203,1.67407407 14.2481486,1.67407407 C15.5276083,1.67407407 16.5648153,2.71128107 16.5648153,3.99074074 L16.5648153,5.19385481 Z" id="Combined-Shape"></path>
        </g>
        <g id="XMLID_369_-Copy" transform="translate(0.000000, 3.000000)" fill="#00A4FF" fill-rule="nonzero">
            <g id="XMLID_370_">
                <circle id="XMLID_9_" cx="3.256" cy="3.228" r="3.2"></circle>
            </g>
        </g>
        <g id="XMLID_367_-Copy" transform="translate(41.000000, 38.000000)" fill="#00A4FF" fill-rule="nonzero">
            <g id="XMLID_368_">
                <circle id="XMLID_8_" cx="3.8" cy="3.885" r="3.2"></circle>
            </g>
        </g>
        <polygon id="XMLID_7_-Copy" fill="#00A4FF" fill-rule="nonzero" points="46 31.997 44 31.997 44 6.997 3 6.997 3 4.997 46 4.997"></polygon>
        <g id="XMLID_364_" transform="translate(2.000000, 15.000000)" fill="#00A4FF" fill-rule="nonzero">
            <polygon id="XMLID_1_" points="43 27.997 0 27.997 0 0.997 2 0.997 2 25.997 43 25.997"></polygon>
        </g>
    </g>
</svg>