<?xml version="1.0" encoding="utf-8"?>
<!-- Generator: Adobe Illustrator 21.0.0, SVG Export Plug-In . SVG Version: 6.00 Build 0)  -->
<svg version="1.1" id="图层_1" xmlns="http://www.w3.org/2000/svg" xmlns:xlink="http://www.w3.org/1999/xlink" x="0px" y="0px"
	 width="48px" height="48px" viewBox="0 0 48 48" style="enable-background:new 0 0 48 48;" xml:space="preserve">
<style type="text/css">
	.st0{fill:#00A4FF;}
	.st1{fill:none;stroke:#00A4FF;stroke-width:2;stroke-miterlimit:10;}
</style>
<path class="st1" d="M44.2,1.8H4.4v23.3c0,0,0.2,16.5,19.9,21.1C44,41.6,44.2,25.1,44.2,25.1V5.8"/>
<g>
	<path class="st0" d="M15.8,19c0.8-3.2,3.3-5.8,6.6-6.5v-2c-4.4,0.8-7.8,4.2-8.6,8.6H15.8z"/>
	<path class="st0" d="M26.4,12.5c3.2,0.8,5.7,3.3,6.5,6.5h2c-0.8-4.3-4.2-7.7-8.5-8.5V12.5z"/>
	<path class="st0" d="M32.8,23c-0.8,3.2-3.3,5.7-6.5,6.5v2.1c4.3-0.8,7.7-4.2,8.5-8.5H32.8z"/>
	<path class="st0" d="M22.4,29.5c-3.2-0.7-5.8-3.3-6.6-6.5h-2c0.8,4.3,4.3,7.8,8.6,8.6V29.5z"/>
</g>
<polygon class="st0" points="35.2,20 25.4,20 25.4,10.1 23.4,10.1 23.4,20 13.5,20 13.5,22 23.4,22 23.4,31.8 25.4,31.8 25.4,22 
	35.2,22 "/>
<circle class="st1" cx="24.4" cy="21" r="4.9"/>
</svg>
