<svg id="图层_1" data-name="图层 1" xmlns="http://www.w3.org/2000/svg" width="48" height="48" viewBox="0 0 48 48"><defs><style>.cls-1{fill:#00a4ff;}</style></defs><title>48px，00A4FF，描边2px</title><path class="cls-1" d="M24,2.5A34,34,0,0,1,44,8.92c0,.24,0,.47,0,.7A41.71,41.71,0,0,1,24,45.06,41.75,41.75,0,0,1,4,9.64c0-.23,0-.47,0-.7v0A34,34,0,0,1,24,2.5m0-2A36.18,36.18,0,0,0,2.26,7.74l-.21.16v.26c0,.49,0,1,0,1.48a43.6,43.6,0,0,0,21.7,37.59l.27.16.28-.16A43.61,43.61,0,0,0,46,9.63q0-.74,0-1.47V7.9l-.21-.16A36.18,36.18,0,0,0,24,.5Z"/><polygon class="cls-1" points="22.49 15.21 22.49 17.55 23.64 18.66 24.8 17.54 24.8 15.21 22.49 15.21"/><polygon class="cls-1" points="24.8 23.81 24.8 21.47 23.65 20.36 22.49 21.49 22.49 23.81 24.8 23.81"/><polygon class="cls-1" points="19.34 20.66 21.68 20.66 22.79 19.52 21.67 18.36 19.34 18.36 19.34 20.66"/><polygon class="cls-1" points="27.95 18.36 25.61 18.36 24.49 19.5 25.62 20.66 27.95 20.66 27.95 18.36"/><path class="cls-1" d="M29.67,11.18v20.3h-12V11.18H29.67m2-2H15.62v24.3H31.67V9.18Z"/><rect class="cls-1" x="16.95" y="27.11" width="13.47" height="2"/></svg>