<svg xmlns="http://www.w3.org/2000/svg" width="47.781" height="48" viewBox="0 0 47.781 48">
  <metadata><?xpacket begin="﻿" id="W5M0MpCehiHzreSzNTczkc9d"?>
<x:xmpmeta xmlns:x="adobe:ns:meta/" x:xmptk="Adobe XMP Core 5.6-c142 79.160924, 2017/07/13-01:06:39        ">
   <rdf:RDF xmlns:rdf="http://www.w3.org/1999/02/22-rdf-syntax-ns#">
      <rdf:Description rdf:about=""/>
   </rdf:RDF>
</x:xmpmeta>
                                                                                                    
                                                                                                    
                                                                                                    
                                                                                                    
                                                                                                    
                                                                                                    
                                                                                                    
                                                                                                    
                                                                                                    
                                                                                                    
                                                                                                    
                                                                                                    
                                                                                                    
                                                                                                    
                                                                                                    
                                                                                                    
                                                                                                    
                                                                                                    
                                                                                                    
                                                                                                    
                           
<?xpacket end="w"?></metadata>
<defs>
    <style>
      .cls-1 {
        fill: #03a5ff;
        fill-rule: evenodd;
      }
    </style>
  </defs>
  <path id="icon" class="cls-1" d="M386,601a2,2,0,1,1-2-2A2,2,0,0,1,386,601Zm-2-16a1.994,1.994,0,0,1,1.987,1.87l4.731,4.63-1.4,1.429-4.308-4.215a0.087,0.087,0,0,0-.011.009V596h-2v-7.277A1.994,1.994,0,0,1,384,585Zm10,22a2,2,0,1,1,2-2A2,2,0,0,1,394,607Zm0-12a2,2,0,1,1,2-2A2,2,0,0,1,394,595Zm1,5h-2v-5h2v5Zm-2-11v-4.277a2,2,0,1,1,2,0V589h-2Zm11,14a2,2,0,1,1,2-2A2,2,0,0,1,404,603Zm-1-8v-6.3c-0.063-.038-0.135-0.06-0.193-0.1l-4.432,4.395L397,591.569l5.051-5.01A2,2,0,1,1,405,588.723V595h-2Zm-9.094-23.094A22,22,0,1,0,415.664,597h2.129a24,24,0,1,1,0-6h-2.1A21.987,21.987,0,0,0,393.906,571.906Z" transform="translate(-370 -570)"/>
</svg>
