<?xml version="1.0" encoding="UTF-8"?>
<svg width="46px" height="39px" viewBox="0 0 46 39" version="1.1" xmlns="http://www.w3.org/2000/svg" xmlns:xlink="http://www.w3.org/1999/xlink">
    <!-- Generator: Sketch 58 (84663) - https://sketch.com -->
    <title>编组 2</title>
    <desc>Created with Sketch.</desc>
    <g id="页面-1" stroke="none" stroke-width="1" fill="none" fill-rule="evenodd">
        <g id="48" transform="translate(-1.000000, -4.000000)">
            <g id="编组-2">
                <g id="编组-24" transform="translate(1.000000, 4.000000)">
                    <g id="腾讯教育招生通logo" transform="translate(10.000000, 7.000000)" stroke="#00A4FF" stroke-width="1.84615385">
                        <g id="编组">
                            <path d="M0.938345865,17.3593985 C0.0541353383,18.6586466 -0.180451128,20.3007519 0.577443609,21.6902256 C1.62406015,23.6210526 3.32030075,24.2165414 5.26917293,23.0977444 C5.82857143,22.7729323 6.26165414,22.3578947 6.60451128,21.8526316 C6.60451128,21.8526316 8.48120301,19.037594 9.18496241,17.5759398 C10.4481203,15.0315789 10.9714286,12.9924812 9.16691729,9.85263158 C7.77744361,7.43458647 7.25413534,6.51428571 7.25413534,6.51428571 L0.938345865,17.3593985 Z" id="路径"></path>
                            <path d="M21.7263158,23.9278195 C23.2962406,24.0360902 24.8300752,23.4045113 25.6421053,22.0511278 C26.7789474,20.1744361 26.4360902,18.406015 24.4691729,17.287218 C23.9097744,16.962406 23.3142857,16.8 22.718797,16.7639098 C22.718797,16.7639098 19.3443609,16.5654135 17.7203008,16.6917293 C14.887218,16.8902256 12.8661654,17.4496241 11.0616541,20.6075188 C9.67218045,23.0255639 9.14887218,23.9458647 9.14887218,23.9458647 L21.7263158,23.9278195 Z" id="路径"></path>
                            <path d="M16.9984962,2.63458647 C16.312782,1.22706767 14.9954887,0.216541353 13.4075188,0.180451128 C11.206015,0.144360902 9.87067669,1.31729323 9.87067669,3.57293233 C9.87067669,4.20451128 10.0330827,4.81804511 10.2857143,5.34135338 C10.2857143,5.34135338 11.8195489,8.35488722 12.7398496,9.69022556 C14.3278195,12.0541353 15.843609,13.5157895 19.4706767,13.4977444 C22.2496241,13.4796992 23.3142857,13.4796992 23.3142857,13.4796992 L16.9984962,2.63458647 Z" id="路径"></path>
                        </g>
                    </g>
                    <g id="image" fill="#00A4FF">
                        <rect id="Rectangle" x="3" y="1" width="42" height="2"></rect>
                        <rect id="Rectangle" transform="translate(44.000000, 13.500000) rotate(90.000000) translate(-44.000000, -13.500000) " x="31.5" y="12.5" width="25" height="2"></rect>
                        <circle id="Oval" cx="2" cy="2" r="2"></circle>
                        <rect id="Rectangle" transform="translate(22.500000, 37.000000) rotate(-180.000000) translate(-22.500000, -37.000000) " x="1" y="36" width="43" height="2"></rect>
                        <rect id="Rectangle" transform="translate(2.000000, 25.500000) rotate(-90.000000) translate(-2.000000, -25.500000) " x="-10.5" y="24.5" width="25" height="2"></rect>
                        <circle id="Oval" cx="44" cy="37" r="2"></circle>
                    </g>
                </g>
                <rect id="矩形" x="0" y="0" width="48" height="48"></rect>
            </g>
        </g>
    </g>
</svg>