<?xml version="1.0" encoding="UTF-8"?>
<svg width="48px" height="48px" viewBox="0 0 48 48" version="1.1" xmlns="http://www.w3.org/2000/svg" xmlns:xlink="http://www.w3.org/1999/xlink">
    <!-- Generator: Sketch 56.3 (81716) - https://sketch.com -->
    <title>Group 4</title>
    <desc>Created with Sketch.</desc>
    <g id="产品icon-48px" stroke="none" stroke-width="1" fill="none" fill-rule="evenodd">
        <g id="Group-5" fill="#00A4FF">
            <g id="Group-4">
                <g id="84fe23792b5aeffd0f3738bbdd391f9d-copy">
                    <path d="M35.6172917,5.31164053 C27.128228,0.0242658287 15.8190324,1.06826926 8.44365081,8.44365081 C1.06826926,15.8190324 0.0242658287,27.128228 5.31164053,35.6172917 L3.86271372,37.0662185 C-2.18631251,27.7640207 -1.130738,15.1896125 7.02943725,7.02943725 C15.1896125,-1.130738 27.7640207,-2.18631251 37.0662185,3.86271372 L35.6172917,5.31164053 Z M12.3827083,42.6883595 C20.871772,47.9757342 32.1809676,46.9317307 39.5563492,39.5563492 C46.9317307,32.1809676 47.9757342,20.871772 42.6883595,12.3827083 L44.1372863,10.9337815 C50.1863125,20.2359793 49.130738,32.8103875 40.9705627,40.9705627 C32.8103875,49.130738 20.2359793,50.1863125 10.9337815,44.1372863 L12.3827083,42.6883595 Z" id="Oval-5" fill-rule="nonzero"></path>
                    <circle id="Oval-99" cx="4" cy="35" r="2"></circle>
                    <circle id="Oval-99-Copy" cx="43" cy="12" r="2"></circle>
                </g>
                <g id="分组-131-copy" transform="translate(13.000000, 11.000000)" fill-rule="nonzero">
                    <g id="Group-59">
                        <g id="Group-58" transform="translate(5.000000, 0.000000)">
                            <path d="M12.2,6.2 C12.2,3 9.6,0.4 6.4,0.4 C3.2,0.4 0.6,3 0.6,6.2 C0.6,9.4 3.1,12 6.3,12 C9.5,12 12.2,9.4 12.2,6.2 Z M2.5,6.2 C2.5,4.1 4.2,2.4 6.3,2.4 C8.4,2.4 10.1,4.1 10.1,6.2 C10.1,8.3 8.4,10 6.4,10 C4.4,10 2.5,8.3 2.5,6.2 Z" id="Shape"></path>
                        </g>
                        <path d="M0.6,21.3 L2.6,21.3 C2.6,18.3 5.1,15.8 8.1,15.8 L14.6,15.8 C17.6,15.8 20.1,18.3 20.1,21.3 L22.1,21.3 C22.1,17.2 18.8,13.8 14.6,13.8 L8.1,13.8 C4,13.8 0.6,17.2 0.6,21.3 Z" id="Shape"></path>
                    </g>
                </g>
            </g>
        </g>
    </g>
</svg>