<?xml version="1.0" encoding="UTF-8"?>
<svg width="48px" height="48px" viewBox="0 0 48 48" version="1.1" xmlns="http://www.w3.org/2000/svg" xmlns:xlink="http://www.w3.org/1999/xlink">
    <!-- Generator: Sketch 54.1 (76490) - https://sketchapp.com -->
    <title>智能联络-48px</title>
    <desc>Created with Sketch.</desc>
    <g id="智能联络-48px" stroke="none" stroke-width="1" fill="none" fill-rule="evenodd">
        <rect id="Rectangle-Copy" fill="#444444" opacity="0" x="0" y="0" width="48" height="48"></rect>
        <g id="分组-131" transform="translate(-1.000000, 3.000000)" fill-rule="nonzero">
            <path d="M7.2,4 L45,4 L45,29 L47,29 L47,2 L7,2 C6.5,0.9 5.4,0.1 4.1,0.1 C2.3,0.1 0.9,1.5 0.9,3.3 C0.9,5.1 2.3,6.5 4.1,6.5 C5.6,6.5 6.8,5.4 7.2,4 Z" id="Shape" fill="#00A4FF"></path>
            <path d="M45.8,35.5 C44.3,35.5 43,36.6 42.7,38 L4.9,38 L4.9,13 L2.9,13 L2.9,40 L42.9,40 C43.4,41.1 44.5,41.9 45.8,41.9 C47.6,41.9 49,40.5 49,38.7 C49,36.9 47.6,35.5 45.8,35.5 Z" id="Shape" fill="#00A4FF"></path>
            <g id="Group-59" transform="translate(31.840799, 13.906396) rotate(-45.000000) translate(-31.840799, -13.906396) translate(25.840799, 7.906396)" stroke="#00A4FF" stroke-width="2">
                <g id="Group-58">
                    <path d="M5,8 C5,5.790861 3.209139,4 1,4" id="Oval-104" transform="translate(3.000000, 6.000000) rotate(45.000000) translate(-3.000000, -6.000000) "></path>
                    <path d="M10,10 C10,5.581722 6.418278,2 2,2" id="Oval-105" transform="translate(6.000000, 6.000000) rotate(45.000000) translate(-6.000000, -6.000000) "></path>
                </g>
            </g>
        </g>
        <path d="M12.8204976,16.1787351 C10.5239402,18.4564788 13.2230299,23.8788107 18.7385066,29.347848 C24.2100439,34.7758431 29.6223213,37.4258617 31.929809,35.2248738 L33.9873487,33.1843624 C34.2988341,32.8754288 34.830211,32.2825398 35.5918922,31.3955268 L36,30.9202664 L35.5321149,30.5026719 C34.798562,29.8479651 34.2765306,29.3795934 33.9668169,29.0982846 L33.8382095,28.9686742 L33.7814558,28.918256 L30.8224776,26.5859073 C30.4875927,26.3086713 29.9311739,25.9131355 29.1572904,25.4016779 L28.7379366,25.124528 L28.3642604,25.4598325 C27.6738144,26.0793786 27.1971168,26.5194914 26.9289878,26.7854259 L26.0038379,27.7038507 C24.8085727,26.9454637 23.7933779,26.1530757 22.9130595,25.2809704 C22.0288798,24.4030423 21.2258671,23.3886834 20.4553672,22.1904444 L21.3471914,21.1959072 C21.5942979,20.9527336 22.0743334,20.497925 22.7581536,19.8619908 L23.1868988,19.4632694 L22.8276996,19.0019029 C22.2083266,18.2063614 21.7713165,17.6569412 21.5130126,17.3493547 L19.1706925,14.4271329 C18.9060946,14.0857957 18.3585099,13.4521036 17.5255417,12.5227757 L17.0569712,12 L16.5720263,12.5078805 C15.8728677,13.2401059 15.369947,13.722577 15.083318,13.9409627 L15.0163816,13.99968 C15.0327401,13.983198 14.3007788,14.7095497 12.8204976,16.1787351 Z" id="形状" stroke="#00A4FF" stroke-width="2" fill-rule="nonzero"></path>
    </g>
</svg>