<svg id="图层_1" data-name="图层 1" xmlns="http://www.w3.org/2000/svg" width="48" height="48" viewBox="0 0 48 48">
  <defs>
    <style>
      .cls-1 {
        fill: #00a4ff;
      }
    </style>
  </defs>
  <title>#</title>
  <path class="cls-1" d="M23.9,2.2a34,34,0,0,1,20,6.4v.7a41.88,41.88,0,0,1-20,35.5A41.59,41.59,0,0,1,3.9,9.4V8.7h0a34.13,34.13,0,0,1,20-6.5m0-1.9A36,36,0,0,0,2.2,7.5L2,7.7V9.4A43.55,43.55,0,0,0,23.7,47l.3.2.3-.2A43.55,43.55,0,0,0,46,9.4V7.6l-.2-.2A36.74,36.74,0,0,0,23.9.3Z"/>
  <path class="cls-1" d="M21.93,18.55l-1.41-1.41a.94.94,0,0,0-.1.1l1.41,1.41Z"/>
  <path class="cls-1" d="M27.58,24.19l-1.41-1.41-.1.1,1.41,1.41A.94.94,0,0,0,27.58,24.19Z"/>
  <path class="cls-1" d="M24.37,23.68c-.12,0-.24,0-.37,0a3,3,0,0,1-3-3,2.33,2.33,0,0,1,0-.37l-1.62-1.62a4.93,4.93,0,0,0-.42,2,5,5,0,0,0,5,5,5.06,5.06,0,0,0,2-.41Z"/>
  <path class="cls-1" d="M23.63,17.75c.12,0,.24,0,.37,0a3,3,0,0,1,3,3,2.45,2.45,0,0,1,0,.38l1.62,1.62a4.94,4.94,0,0,0,.42-2,5,5,0,0,0-5-5,5.06,5.06,0,0,0-2,.42Z"/>
  <path class="cls-1" d="M29.49,26.31,31,27.78l.13-.08-1.47-1.46Z"/>
  <path class="cls-1" d="M16.91,13.73l1.47,1.46.13-.07L17,13.65Z"/>
  <path class="cls-1" d="M36.75,19.75c-2.77-5-7.54-8-12.75-8a13.53,13.53,0,0,0-5.31,1.1l1.55,1.55A11.51,11.51,0,0,1,24,13.71c4.62,0,8.68,2.8,11,7a14.27,14.27,0,0,1-3.87,4.54l1.42,1.43a16.23,16.23,0,0,0,4.2-5l.53-1Z"/>
  <path class="cls-1" d="M27.76,27.07a11.51,11.51,0,0,1-3.76.64c-4.62,0-8.68-2.79-11-7a14.34,14.34,0,0,1,3.87-4.53l-1.42-1.43a16.23,16.23,0,0,0-4.2,5l-.53,1,.53,1c2.77,5,7.54,8,12.75,8a13.52,13.52,0,0,0,5.31-1.09Z"/>
  <rect class="cls-1" x="23" y="8.67" width="2" height="24.09" transform="translate(-7.62 23.04) rotate(-45)"/>
</svg>
