<?xml version="1.0" encoding="utf-8"?>
<!-- Generator: Adobe Illustrator 19.0.0, SVG Export Plug-In . SVG Version: 6.00 Build 0)  -->
<svg version="1.1" id="图层_1" xmlns="http://www.w3.org/2000/svg" xmlns:xlink="http://www.w3.org/1999/xlink" x="0px" y="0px"
	 width="48px" height="48px" viewBox="0 0 48 48" style="enable-background:new 0 0 48 48;" xml:space="preserve">
<style type="text/css">
	.st0{fill:#00A4FF;}
</style>
<g id="XMLID_19_">
	<path id="XMLID_20_" class="st0" d="M6.286,7H44v25h2V5H6.161C5.685,3.829,4.54,3.002,3.199,3.002c-1.767,0-3.2,1.433-3.2,3.2
		c0,1.767,1.433,3.2,3.2,3.2C4.689,9.402,5.93,8.379,6.286,7z"/>
	<path id="XMLID_22_" class="st0" d="M45,39c-1.304,0-2.403,0.837-2.816,2H4V16H2v27h40.184c0.413,1.163,1.512,2,2.816,2
		c1.657,0,3-1.343,3-3S46.657,39,45,39z"/>
	<polygon id="XMLID_23_" class="st0" points="21,16 17,16 17,12 15,12 15,16 11,16 11,18 15,18 15,22 17,22 17,18 21,18 	"/>
	<rect id="XMLID_24_" x="27" y="16" class="st0" width="9" height="2"/>
	<rect id="XMLID_25_" x="27" y="28" class="st0" width="9" height="2"/>
	<rect id="XMLID_26_" x="27" y="32" class="st0" width="9" height="2"/>
	<polygon id="XMLID_27_" class="st0" points="19.329,26.258 16,29.586 12.671,26.258 11.257,27.672 14.586,31 11.257,34.328 
		12.671,35.742 16,32.414 19.329,35.742 20.743,34.328 17.414,31 20.743,27.672 	"/>
</g>
</svg>
