<?xml version="1.0" encoding="UTF-8"?>
<svg width="48px" height="48px" viewBox="0 0 48 48" version="1.1" xmlns="http://www.w3.org/2000/svg" xmlns:xlink="http://www.w3.org/1999/xlink">
    <!-- Generator: Sketch 61.2 (89653) - https://sketch.com -->
    <title>48x48@1x</title>
    <desc>Created with Sketch.</desc>
    <g id="48x48" stroke="none" stroke-width="1" fill="none" fill-rule="evenodd">
        <g id="128备份">
            <g id="编组-6" transform="translate(3.000000, 3.000000)">
                <path d="M2,11 L2,40.002 L37.5,40.0029087 L37.5,38 L42,42 L0,42 L0,11 L2,11 Z M42,31 L40,31 L40,1.999 L4.5,2 L4.5,4 L0,-1.78860482e-09 L42,-1.78860482e-09 L42,31 Z" id="形状结合" fill="#00A4FF" fill-rule="nonzero"></path>
                <path d="M9.36288775,22.9997714 L14.7017347,32.248667 L24.642164,32.2479043 L19.3036037,22.9997714 L9.36288775,22.9997714 Z M28.3329633,11.3607858 L22.7676974,20.9997932 L28.4040825,30.7628323 L33.969643,21.1243087 L28.3329633,11.3607858 Z M24.4990466,9.99980407 L14.7017288,9.9999891 L9.50600099,18.9997714 L19.303611,18.9997714 L24.4990466,9.99980407 Z" id="形状结合" stroke="#00A4FF" stroke-width="2"></path>
            </g>
        </g>
    </g>
</svg>