<?xml version="1.0" encoding="UTF-8"?>
<svg width="48px" height="48px" viewBox="0 0 48 48" version="1.1" xmlns="http://www.w3.org/2000/svg" xmlns:xlink="http://www.w3.org/1999/xlink">
    <!-- Generator: Sketch 53 (72520) - https://sketchapp.com -->
    <title>48*48</title>
    <desc>Created with Sketch.</desc>
    <g id="48*48" stroke="none" stroke-width="1" fill="none" fill-rule="evenodd">
        <path d="M45.7971625,21 L43.7764992,21 C42.3290484,11.3774738 34.0260749,4 24,4 C12.954305,4 4,12.954305 4,24 C4,35.045695 12.954305,44 24,44 C34.0260749,44 42.3290484,36.6225262 43.7764992,27 L45.7971625,27 C44.3339825,37.7310542 35.1326491,46 24,46 C11.8497355,46 2,36.1502645 2,24 C2,11.8497355 11.8497355,2 24,2 C35.1326491,2 44.3339825,10.2689458 45.7971625,21 Z M30.2683025,37.6314793 C28.3609371,38.5100133 26.2376898,39 24,39 C15.7157288,39 9,32.2842712 9,24 C9,21.2282487 9.75178392,18.632086 11.0625683,16.4042953 C11.4987028,16.9199687 12.0487799,17.3361809 12.673946,17.6140783 C11.6082123,19.5002027 11,21.6790736 11,24 C11,31.1797017 16.8202983,37 24,37 C25.8583647,37 27.6256548,36.6100631 29.224514,35.9075456 C29.4395608,36.5611396 29.8002987,37.1485926 30.2683025,37.6314793 Z M36.9374317,31.5957047 C36.5012972,31.0800313 35.9512201,30.6638191 35.326054,30.3859217 C36.3917877,28.4997973 37,26.3209264 37,24 C37,16.8202983 31.1797017,11 24,11 C22.1416353,11 20.3743452,11.3899369 18.775486,12.0924544 C18.5604392,11.4388604 18.1997013,10.8514074 17.7316975,10.3685207 C19.6390629,9.4899867 21.7623102,9 24,9 C32.2842712,9 39,15.7157288 39,24 C39,26.7717513 38.2482161,29.367914 36.9374317,31.5957047 Z M14.5,16 C13.1192881,16 12,14.8807119 12,13.5 C12,12.1192881 13.1192881,11 14.5,11 C15.8807119,11 17,12.1192881 17,13.5 C17,14.8807119 15.8807119,16 14.5,16 Z M33.5,37 C32.1192881,37 31,35.8807119 31,34.5 C31,33.1192881 32.1192881,32 33.5,32 C34.8807119,32 36,33.1192881 36,34.5 C36,35.8807119 34.8807119,37 33.5,37 Z M20.2538911,19.7001649 L20.2538911,28.8074462 L28.2227622,24.2538055 L20.2538911,19.7001649 Z M31.4941784,24.6879271 L19.0019606,31.8263373 C18.7622019,31.9633423 18.4567745,31.8800439 18.3197695,31.6402852 C18.2765988,31.5647363 18.2538911,31.4792292 18.2538911,31.3922157 L18.2538911,17.1153954 C18.2538911,16.839253 18.4777487,16.6153954 18.7538911,16.6153954 C18.8409046,16.6153954 18.9264117,16.638103 19.0019606,16.6812738 L31.4941784,23.819684 C31.7339371,23.956689 31.8172354,24.2621163 31.6802305,24.501875 C31.6359358,24.5793907 31.571694,24.6436325 31.4941784,24.6879271 Z" id="Combined-Shape" fill="#00A4FF" fill-rule="nonzero"></path>
    </g>
</svg>