<?xml version="1.0" encoding="UTF-8"?>
<svg width="48px" height="48px" viewBox="0 0 48 48" version="1.1" xmlns="http://www.w3.org/2000/svg" xmlns:xlink="http://www.w3.org/1999/xlink">
    <!-- Generator: Sketch 62 (91390) - https://sketch.com -->
    <title>数据保险箱 CDCS-48px</title>
    <desc>Created with Sketch.</desc>
    <g id="数据保险箱-CDCS-48px" stroke="none" stroke-width="1" fill="none" fill-rule="evenodd">
        <g id="ed903df1c4d5444b9a58466efb5138cd">
            <rect id="Rectangle" x="0" y="0" width="48" height="48"></rect>
            <path d="M24,2.43994469 C31.1784336,2.42739152 38.1776587,4.681142 44,8.88 L44,9.59 C43.9511088,24.1016552 36.3809179,37.5500992 24,45.12 C11.6294437,37.5496664 4.06161884,24.1129933 4,9.61 C4,9.37 4,9.14 4,8.9 L4,8.9 C9.81710362,4.6884651 16.8183879,2.4270503 24,2.43994469 M24,0.439996171 C16.1421062,0.436391046 8.49544854,2.98410717 2.21,7.7 L2,7.86 L2,8.13 C2,8.61 2,9.13 2,9.61 C2.03345536,25.1310788 10.2971305,39.4697542 23.71,47.28 L23.99,47.4399962 L24.27,47.28 C37.699711,39.4741814 45.973576,25.1234234 46,9.59 C46,9.1 46,8.59 46,8.13 L46,7.86 L45.78,7.7 C39.4972877,2.98616157 31.8544729,0.438556649 24,0.439996171 L24,0.439996171 Z M32,13 L16,13 L16,30 L32,30 L32,13 Z M34,13 L34,30 L34,32 L14,32 L14,30 L14,13 L14,11 L34,11 L34,13 Z M23,22.8739825 C21.2747728,22.4299397 20,20.8638394 20,19 C20,16.790861 21.790861,15 24,15 C26.209139,15 28,16.790861 28,19 C28,20.8638394 26.7252272,22.4299397 25,22.8739825 L25,28 L23,28 L23,22.8739825 Z M24,21 C25.1045695,21 26,20.1045695 26,19 C26,17.8954305 25.1045695,17 24,17 C22.8954305,17 22,17.8954305 22,19 C22,20.1045695 22.8954305,21 24,21 Z" id="Combined-Shape" fill="#00A4FF" fill-rule="nonzero"></path>
        </g>
    </g>
</svg>