<?xml version="1.0" encoding="utf-8"?>
<!-- Generator: Adobe Illustrator 19.0.0, SVG Export Plug-In . SVG Version: 6.00 Build 0)  -->
<svg version="1.1" id="图层_1" xmlns="http://www.w3.org/2000/svg" xmlns:xlink="http://www.w3.org/1999/xlink" x="0px" y="0px"
	 width="48px" height="48px" viewBox="0 0 48 48" style="enable-background:new 0 0 48 48;" xml:space="preserve">
<style type="text/css">
	.st0{fill:#00A4FF;}
</style>
<g id="XMLID_11_">
	<path id="XMLID_18_" class="st0" d="M34,22c-6.6,0-12,5.4-12,12s5.4,12,12,12c6.6,0,12-5.4,12-12S40.6,22,34,22z M34,44
		c-5.5,0-10-4.5-10-10s4.5-10,10-10s10,4.5,10,10S39.5,44,34,44z"/>
	<path id="XMLID_14_" class="st0" d="M21.5,44c-0.2,0-0.3,0-0.5,0c-10.4,0-17-3.6-17-6v-5.4c2.7,2.3,8,4,14.3,4.4
		c-0.1-0.7-0.2-1.3-0.2-2C9.4,34.3,4,31.2,4,29v-5.4c2.9,2.4,8.5,4.1,15.2,4.4c0.3-0.7,0.6-1.3,1-2C10.3,25.8,4,22.4,4,20v-6.4
		c3.1,2.6,9.5,4.4,17,4.4s13.9-1.8,17-4.4v5c0.7,0.2,1.4,0.4,2,0.6V10c0-4.4-8.5-8-19-8S2,5.6,2,10v28c0,4.4,8.5,8,19,8
		c0.8,0,1.6,0,2.4-0.1C22.7,45.3,22.1,44.7,21.5,44z M21,4c10.4,0,17,3.6,17,6s-6.6,6-17,6S4,12.4,4,10S10.6,4,21,4z"/>
	<polygon id="XMLID_13_" class="st0" points="35,31 29,31 29,33 39,33 35,29 	"/>
	<polygon id="XMLID_12_" class="st0" points="33,39 33,37 39,37 39,35 29,35 	"/>
</g>
</svg>
