<?xml version="1.0" encoding="UTF-8"?>
<svg width="48px" height="48px" viewBox="0 0 48 48" version="1.1" xmlns="http://www.w3.org/2000/svg" xmlns:xlink="http://www.w3.org/1999/xlink">
    <!-- Generator: Sketch 53.1 (72631) - https://sketchapp.com -->
    <title>数据库专家48</title>
    <desc>Created with Sketch.</desc>
    <g id="数据库专家48" stroke="none" stroke-width="1" fill="none" fill-rule="evenodd">
        <g id="Group-11" transform="translate(2.000000, 2.000000)" fill="#00A4FF">
            <path d="M19,0 C8.507,0 0,3.582 0,8 C0,12.418 8.507,16 19,16 C29.493,16 38,12.418 38,8 C38,3.582 29.493,0 19,0 M19,2 C29.378,2 36,5.554 36,8 C36,10.446 29.378,14 19,14 C8.622,14 2,10.446 2,8 C2,5.554 8.622,2 19,2" id="Fill-1"></path>
            <path d="M22.5247814,24.8625817 C21.3825921,24.9528098 20.2043781,25 19,25 C11.5601034,25 5.11862782,23.1992226 2,20.5764864 L2,27.0000003 C2,29.446 8.622,33 19,33 C20.3288859,33 21.596187,32.9417273 22.7958861,32.8349698 C21.6216563,33.3463947 20.5690453,34.0847993 19.6934671,34.9947697 C19.4633306,34.9982466 19.2321514,35 19,35 C11.5601034,35 5.11862782,33.1992226 2,30.5764864 L2,36 C2,38.2849718 7.77880387,41.5368591 17,41.9551208 L17,43.956201 C7.44699363,43.5353602 0,40.1335956 0,36 L0,8 C0,3.582 8.507,9.9475983e-14 19,9.9475983e-14 C29.493,9.9475983e-14 38,3.582 38,8 L38,19.0987294 C37.3319499,18.5657596 36.5917316,18.1198139 35.7964113,17.7780008 C35.9311237,17.5104396 36,17.2494576 36,17 L36,8 C36,5.554 29.378,2 19,2 C8.622,2 2,5.554 2,8 L2,17.0000003 C2,19.446 8.622,23 19,23 C20.4637638,23 21.852807,22.9292979 23.159088,22.8009749 C22.8746621,23.4537607 22.6600712,24.1441261 22.5247814,24.8625817 Z" id="Combined-Shape"></path>
            <path d="M32,21 C28.6862915,21 26,23.6862915 26,27 C26,30.3137085 28.6862915,33 32,33 C35.3137085,33 38,30.3137085 38,27 C38,23.6862915 35.3137085,21 32,21 Z M32,31 C29.790861,31 28,29.209139 28,27 C28,24.790861 29.790861,23 32,23 C34.209139,23 36,24.790861 36,27 C36,28.060866 35.5785726,29.0782816 34.8284271,29.8284271 C34.0782816,30.5785726 33.060866,31 32,31 Z" id="Shape" fill-rule="nonzero"></path>
            <path d="M28,37 L36,37 C38.7600532,37.0033061 40.9966939,39.2399468 41,42 L43,42 C43,38.1340068 39.8659932,35 36,35 L28,35 C24.1340068,35 21,38.1340068 21,42 L23,42 C23.0033061,39.2399468 25.2399468,37.0033061 28,37 L28,37 Z" id="Shape" fill-rule="nonzero"></path>
            <rect id="Rectangle" x="21" y="42" width="22" height="2"></rect>
        </g>
    </g>
</svg>