<svg xmlns="http://www.w3.org/2000/svg" width="48" height="48" viewBox="0 0 48 48">
  <title>画板 3</title>
  <path d="M46,42V26H26V42h9v2H31v2H41V44H37V42ZM28,28H44v8H28Zm0,12V38H44v2Z" style="fill: #00a4ff"/>
  <path d="M22,43.979c-.333.007-.659.021-1,.021C10.622,44,4,40.446,4,38V32.557C7.112,35.188,13.545,37,21,37c.336,0,.668-.008,1-.015V34.979c-.333.007-.659.021-1,.021C10.622,35,4,31.446,4,29V22.557C7.112,25.188,13.545,27,21,27c.336,0,.668-.008,1-.015V24.979c-.333.007-.659.021-1,.021C10.622,25,4,21.446,4,19V13.557C7.112,16.188,13.545,18,21,18s13.888-1.812,17-4.443V19c0,.926-.952,2.01-2.693,3H40V10c0-4.418-8.507-8-19-8S2,5.582,2,10V38c0,4.418,8.507,8,19,8,.338,0,.667-.014,1-.021ZM21,4c10.378,0,17,3.554,17,6s-6.622,6-17,6S4,12.446,4,10,10.622,4,21,4Z" style="fill: #00a4ff"/>
</svg>
