<?xml version="1.0" encoding="UTF-8"?>
<svg width="48px" height="48px" viewBox="0 0 48 48" version="1.1" xmlns="http://www.w3.org/2000/svg" xmlns:xlink="http://www.w3.org/1999/xlink">
    <!-- Generator: Sketch 53.1 (72631) - https://sketchapp.com -->
    <title>DBbrain_48px</title>
    <desc>Created with Sketch.</desc>
    <g id="DBbrain_48px" stroke="none" stroke-width="1" fill="none" fill-rule="evenodd">
        <g id="头脑复制" transform="translate(1.000000, 2.000000)" fill="#00A4FF">
            <path d="M19.6775258,24.9950078 C19.4526555,24.9983267 19.2267916,25 19,25 C11.5601034,25 5.11862782,23.1992226 2,20.5764864 L2,27 C2,29.3428219 8.07511949,32.7021392 17.7069588,32.9813785 C17.2521857,33.6830224 16.9317201,34.3501841 17.0124778,34.9567489 C10.4248916,34.6683899 4.83727568,32.9626081 2,30.5764864 L2,36 C2,38.446 8.622,42 19,42 C19.2892139,42 19.5755108,41.9972399 19.8588286,41.9918205 C20.2830506,43.1165413 21.0152938,43.7206898 21.9166461,43.9063146 C20.9658445,43.9679986 19.9917937,44 19,44 C8.507,44 0,40.418 0,36 L0,8 C0,3.582 8.507,0 19,0 C29.493,0 38,3.582 38,8 L38,15.814567 C37.3426499,15.581518 36.6744763,15.3973929 36,15.2635934 L36,11.5764864 C32.8813722,14.1992226 26.4398966,16 19,16 C11.5601034,16 5.11862782,14.1992226 2,11.5764864 L2,17 C2,19.446 8.622,23 19,23 C19.4470509,23 19.887132,22.9934052 20.3200145,22.9805881 C19.9807386,23.7578497 19.7775493,24.4563993 19.6775258,24.9950078 Z M36,8 C36,5.554 29.378,2 19,2 C8.622,2 2,5.554 2,8 C2,10.446 8.622,14 19,14 C29.378,14 36,10.446 36,8 Z M30.9651063,19.4567977 C31.7093791,19.1993537 32.7355322,19 33.979759,19 C36.2142545,19 38.4349306,19.7023079 40.3984703,21.0238813 C44.8655865,24.0321711 46.1752157,30.5967946 44.0001929,34.7276508 C43.5641182,35.5536891 43.0599083,36.2409373 42.1821337,37.2922077 C42.0633453,37.4342254 42.0633453,37.4342254 41.9452072,37.574997 C40.4034992,39.4074215 39.4415985,41.2915893 39.2231293,42.9904657 C38.85934,42.9904657 37.90271,42.9904657 37.21315,42.9904657 C37.21315,40.7037453 38.5432611,38.511871 40.4139743,36.2884031 C40.5308771,36.1491013 40.5308771,36.1491013 40.6469242,36.0103608 C41.4409023,35.0594494 41.8778725,34.4638503 42.2310169,33.7949047 C43.9485675,30.5328899 42.8637849,25.0953283 39.2815277,22.6829289 C37.6426261,21.5798554 35.809141,21 33.979759,21 C32.955855,21 32.1317506,21.164492 31.5850204,21.3587963 L31.4862319,21.3882657 C27.4340505,22.3727557 25.1165974,25.4688588 24.9116341,27.9060649 C24.8992787,28.0522852 24.8934202,28.2657537 24.8866446,28.74717 C24.858646,30.770493 24.7830198,31.7025548 24.3981769,32.4193112 C24.2779592,32.6428089 24.1643053,32.8123919 23.8152695,33.3109312 C23.1110473,34.3117431 22.9468498,34.6853322 23.0030338,34.7924433 C23.0178158,34.8205745 23.0481604,34.8389333 23.2665801,34.8391362 L23.44558,34.8357333 C23.5351445,34.8357333 23.6273098,34.8410778 23.7266235,34.8566101 C23.9804871,34.8963136 24.1935058,34.9729408 24.4095258,35.1947691 C24.731993,35.5275436 24.8062952,35.8899551 24.8326178,36.481045 C24.8450635,36.7605198 24.8410682,37.0008121 24.8238764,37.4908609 L24.8222354,37.5379471 C24.8055172,38.0188364 24.8017769,38.2729382 24.8125372,38.5530752 C24.8182899,38.7028423 24.8284594,38.8411722 24.843612,38.9708764 C24.9222367,39.6500918 25.7605636,39.9029333 27.5445604,39.9029524 L28.5876204,39.8965333 C29.1280499,39.8965333 29.489402,39.9123349 29.7972951,39.968781 C30.4946607,40.0872054 30.9257249,40.6553803 31.0045733,41.6578893 C31.0100651,41.7270356 30.9263624,42.9015897 30.9263624,42.9904657 C30.5727063,42.9904657 29.7312892,42.9904657 29.0063898,42.9904657 C29.0068494,42.8845819 29.0068494,41.9136755 29.0063898,41.9029333 C28.8796398,41.8983747 28.7636813,41.8965221 28.5937926,41.8965143 L27.5507326,41.9029333 L27.5426823,41.9029333 C26.4499146,41.9029333 25.7978188,41.85403 25.0603351,41.631603 C23.837393,41.2627605 23.0033138,40.4658653 22.8570007,39.201906 C22.8356072,39.0187873 22.8216675,38.8291723 22.814011,38.6298404 C22.8008235,38.2865134 22.8050974,37.9961554 22.823443,37.4684585 L22.825099,37.4209397 C22.8348199,37.1438481 22.8397562,36.9586068 22.8396734,36.8070583 C22.0874441,36.6957176 21.5355253,36.2992898 21.2322411,35.7221166 C20.6501167,34.6123423 20.9764057,33.8699556 22.1782532,32.1619438 C22.4682094,31.7477858 22.5705551,31.5950757 22.6364601,31.4725518 C22.7895323,31.18746 22.8656695,30.2490999 22.8868394,28.7192606 C22.8944049,28.1817115 22.9007496,27.9505302 22.9187026,27.7380649 C23.1908672,24.5017717 26.0507909,20.671437 30.9651063,19.4567977 Z" id="形状结合"></path>
        </g>
        <g id="Group" transform="translate(30.000000, 22.000000)" fill="#00A4FF">
            <path d="M3.34795567,9.26296996 C3.80175387,7.53001802 5.41449924,6.26776695 7.30571214,6.26776695 C9.18963707,6.26776695 10.798009,7.52048288 11.258558,9.24441079 L13.3033009,9.23961359 C12.8126494,6.41646672 10.3141402,4.26776695 7.30571214,4.26776695 C4.28729164,4.26776695 1.78218298,6.43076417 1.30330086,9.26776695 L3.34795567,9.26296996 Z M7.30571214,6.26776695 C9.18963707,6.26776695 10.798009,7.52048288 11.258558,9.24441079 L13.3033009,9.23961359 C12.8126494,6.41646672 10.3141402,4.26776695 7.30571214,4.26776695 C4.28729164,4.26776695 1.78218298,6.43076417 1.30330086,9.26776695 L3.34795567,9.26296996 C3.80175387,7.53001802 5.41449924,6.26776695 7.30571214,6.26776695 Z" id="Shape" fill-rule="nonzero" transform="translate(7.303301, 6.767767) rotate(-315.000000) translate(-7.303301, -6.767767) "></path>
            <circle id="Oval" transform="translate(2.000000, 5.000000) rotate(-315.000000) translate(-2.000000, -5.000000) " cx="2" cy="5" r="1"></circle>
            <circle id="Oval-Copy" transform="translate(9.071068, 12.071068) rotate(-315.000000) translate(-9.071068, -12.071068) " cx="9.07106781" cy="12.0710678" r="1"></circle>
        </g>
    </g>
</svg>