<?xml version="1.0" encoding="utf-8"?>
<!-- Generator: Adobe Illustrator 19.0.0, SVG Export Plug-In . SVG Version: 6.00 Build 0)  -->
<svg version="1.1" id="图层_1" xmlns="http://www.w3.org/2000/svg" xmlns:xlink="http://www.w3.org/1999/xlink" x="0px" y="0px"
	 width="48px" height="48px" viewBox="0 0 48 48" style="enable-background:new 0 0 48 48;" xml:space="preserve">
<style type="text/css">
	.st0{fill:#00A4FF;}
</style>
<g>
	<polygon class="st0" points="44,18.9 44,34.9 24,45.8 4,34.9 4,13.1 24,2.2 43.8,13 45.8,11.9 24,0 2,12 2,36 24,48 46,36 46,17.8 
			"/>
	<path class="st0" d="M24,12l-11,6l11,6l11-6L24,12z M17.2,18l6.8-3.7l6.8,3.7L24,21.7L17.2,18z"/>
	<polygon class="st0" points="32.9,22.8 30.8,24 30.8,24 24,27.7 17.2,24 15.1,22.8 13,24 24,30 35,24 	"/>
	<polygon class="st0" points="17.2,30 15.1,28.8 13,30 24,36 35,30 32.9,28.8 30.8,30 30.8,30 24,33.7 	"/>
</g>
</svg>
