<?xml version="1.0" encoding="utf-8"?>
<!-- Generator: Adobe Illustrator 23.0.3, SVG Export Plug-In . SVG Version: 6.00 Build 0)  -->
<svg version="1.1" id="图层_1" xmlns="http://www.w3.org/2000/svg" xmlns:xlink="http://www.w3.org/1999/xlink" x="0px" y="0px"
	 width="48px" height="48px" viewBox="0 0 48 48" style="enable-background:new 0 0 48 48;" xml:space="preserve">
<g>
	<path style="fill:#00A4FF;" d="M7.025,7.732h36.15v23.923h1.913V5.818H6.834C6.356,4.766,5.304,4,4.06,4C2.339,4,1,5.34,1,7.062
		s1.339,3.062,3.06,3.062C5.495,10.124,6.642,9.072,7.025,7.732z"/>
	<path style="fill:#00A4FF;" d="M43.94,37.876c-1.435,0-2.678,1.053-2.965,2.392H4.825V16.344H2.913v25.837h38.254
		C41.645,43.234,42.696,44,43.94,44c1.721,0,3.06-1.34,3.06-3.062S45.661,37.876,43.94,37.876z"/>
	<path style="fill:#00A4FF;" d="M12,38h24V14.586L31.414,10H12V38z M30.586,12L34,15.414V16h-4v-4H30.586z M14,12h14v6h6v18H14V12z"
		/>
	<path style="fill:#00A4FF;" d="M24,19c-3.622,0-6.719,2.483-8,6c1.281,3.517,4.378,6,8,6c3.622,0,6.719-2.483,8-6
		C30.719,21.483,27.622,19,24,19z M24,29c-2.46,0-4.685-1.547-5.836-4c1.151-2.453,3.377-4,5.836-4c2.46,0,4.685,1.547,5.836,4
		C28.685,27.453,26.46,29,24,29z"/>
	<path style="fill:#00A4FF;" d="M24,22c-1.657,0-3,1.343-3,3s1.343,3,3,3s3-1.343,3-3S25.657,22,24,22z M24,26c-0.551,0-1-0.449-1-1
		s0.449-1,1-1s1,0.449,1,1S24.551,26,24,26z"/>
</g>
</svg>
