<svg id="图层_1" data-name="图层 1" xmlns="http://www.w3.org/2000/svg" width="48" height="48" viewBox="0 0 48 48"><defs><style>.cls-1{fill:#00a4ff;}</style></defs><title>48px，00A4FF，描边2px 副本 4</title><rect class="cls-1" x="12.23" y="10.81" width="14.87" height="2"/><rect class="cls-1" x="18.66" y="11.43" width="2" height="12.83"/><rect class="cls-1" x="29.85" y="10.81" width="5.78" height="2"/><rect class="cls-1" x="27.93" y="16.75" width="7.7" height="2"/><rect class="cls-1" x="26.08" y="22.69" width="9.55" height="2"/><rect class="cls-1" x="12.37" y="28.36" width="23.26" height="2"/><path class="cls-1" d="M24,2.5A34,34,0,0,1,44,8.93c0,.23,0,.46,0,.69A41.73,41.73,0,0,1,24,45.07,41.76,41.76,0,0,1,4,9.65c0-.24,0-.47,0-.71v0A34,34,0,0,1,24,2.5m0-2A36.24,36.24,0,0,0,2.26,7.74l-.21.16v.27c0,.48,0,1,0,1.48a43.59,43.59,0,0,0,21.7,37.58l.27.16.28-.16A43.6,43.6,0,0,0,46,9.63c0-.49,0-1,0-1.46V7.9l-.21-.16A36.24,36.24,0,0,0,24,.5Z"/></svg>