<?xml version="1.0" encoding="UTF-8"?>
<svg width="48px" height="48px" viewBox="0 0 48 48" version="1.1" xmlns="http://www.w3.org/2000/svg" xmlns:xlink="http://www.w3.org/1999/xlink">
    <!-- Generator: Sketch 62 (91390) - https://sketch.com -->
    <title>新能源监控与转发平台-48px</title>
    <desc>Created with Sketch.</desc>
    <g id="新能源监控与转发平台-48px" stroke="none" stroke-width="1" fill="none" fill-rule="evenodd">
        <rect id="Rectangle-Copy" fill="#444444" opacity="0" x="0" y="0" width="48" height="48"></rect>
        <g id="image" transform="translate(4.000000, 2.000000)" fill="#00A4FF">
            <path d="M40,0 L40,2 L2,2 L2.000732,23.146132 C2.0268,24.16004 2.85,37.784 20,41.9 C37.7,37.6 38,23.1 38,23 L38,23 L38,8 L40,8 L40,23.1 C40,23.1 39.8,39.4 20,44 C0.596,39.59 0.01584,23.75124 0.0003952,23.1194536 L0,0 L40,0 Z M12,24.3434677 C12.5474822,28.6326569 15.333256,29.9683914 20.9882032,28.9377074 L22.2732355,28.597277 L22.2732355,30.6128909 C13.8938433,32.3234258 10.8303584,30.0711571 10.0099637,24.6233601 L9.97105772,24.3434677 L12,24.3434677 Z M34.2575613,21.7647511 C31.2436547,26.0535257 28.4034011,29.0007061 24.0761675,30.1703488 L23.3285768,30.3423003 L23.3285768,28.2523138 C26.3220862,27.6359516 29.0743837,25.5818501 31.7530121,21.7647511 L34.2575613,21.7647511 Z M28.5359427,15.4699069 L30.2318216,16.5300931 L24.4217628,25.8238902 C24.2618566,26.0796768 23.9965322,26.2476093 23.7017438,26.2855958 L23.5738234,26.2937971 L22.3184124,26.2937971 C22.1419018,26.2937971 21.9693556,26.2470963 21.8178762,26.1595144 L21.708484,26.0862536 L18.455,23.582 L11.938816,23.5811805 L11.8955605,23.7143303 L9.97105772,23.7143303 L10.821385,21.212876 L12.7049729,21.2445326 L12.593816,21.5821805 L18.7954941,21.5823198 C18.9720047,21.5823198 19.1445509,21.6290206 19.2960302,21.7166026 L19.4054225,21.7898633 L22.658,24.293 L23.019,24.293 L28.5359427,15.4699069 Z M9.90285876,20.2466543 L8.59727631,24.2281603 L6.66297908,24.2281603 L7.86155465,20.2466543 L9.90285876,20.2466543 Z M7.25579994,20.2466543 L5.95021748,24.2281603 L3.91581595,24.2281603 L5.19290144,20.2466543 L7.25579994,20.2466543 Z M20.889192,14.212876 L26.7309071,14.2200617 L25.4791365,16.212876 L21.477,16.212 L21.149816,16.7991805 L25.1860404,16.8 L24.0790531,18.8 L20.038816,18.7991805 L19.81,19.212 L23.9529453,19.212 L23.0413792,21.212876 L18.1105411,21.212876 C17.3861249,21.212876 16.9149335,20.4735243 17.187208,19.8281201 L17.2364486,19.7271164 L20.0150995,14.7271164 C20.1718895,14.4449832 20.4536736,14.2581067 20.7693869,14.2200617 L20.889192,14.212876 Z M33.955191,12.140917 C36.0564416,14.1812697 36.3070989,16.9819273 34.8100923,20.3344617 L34.6691891,20.6407521 L32.3193052,20.6407521 C34.2575613,17.1958743 34.0401961,15.0112006 32.5619225,13.57577 C31.0654509,12.1226687 28.3472352,11.6476501 24.3591351,12.2611118 L23.6238311,12.4749004 L23.6238311,10.3538824 C28.3968544,9.54976773 31.8583465,10.1048428 33.955191,12.140917 Z M22.4020713,10.7220004 L22.4020713,12.7439301 C18.8900311,13.7146223 15.716418,16.2504011 13.4199152,20.0396818 L13.1844793,20.4367958 C11.669981,20.4822142 10.9259036,20.4822142 10.952247,20.4367958 C10.9917622,20.3686682 11.5336476,19.2974625 11.5735382,19.2300947 C14.0598977,15.0310959 17.2754742,12.3082903 21.2020588,11.1101502 L22.4020713,10.7220004 Z" id="Path-2"></path>
        </g>
    </g>
</svg>