<?xml version="1.0" encoding="utf-8"?>
<!-- Generator: Adobe Illustrator 16.0.0, SVG Export Plug-In . SVG Version: 6.00 Build 0)  -->
<!DOCTYPE svg PUBLIC "-//W3C//DTD SVG 1.1//EN" "http://www.w3.org/Graphics/SVG/1.1/DTD/svg11.dtd">
<svg version="1.1" id="图层_1" xmlns="http://www.w3.org/2000/svg" xmlns:xlink="http://www.w3.org/1999/xlink" x="0px" y="0px"
	 width="48px" height="48px" viewBox="0 0 48 48" enable-background="new 0 0 48 48" xml:space="preserve">
<path fill="#00A4FF" d="M42.978,34.799L23.959,45.622L5.014,34.799V13.203L23.959,2.378l18.944,10.825v-0.03l2.13-1.17L24.039,0.006
	L3.043,12.003v23.994l20.995,11.997l20.995-11.997V18.001l-2.056,1.487V34.799z M34.979,15.002H13.071v2.04h21.907V15.002z
	 M34.979,22.943H13.071v2.039h21.907V22.943z M13.071,32.998h6.025v-2.04h-6.025V32.998z M33.924,32.869l1.534-1.376l-4.429-4.247
	l-1.055,0.978l-0.006-0.006L25.42,32.4l-2.114-2.253l-1.639,1.638l3.598,3.576l2.229-2.006l-0.041-0.046l3.512-3.23L33.924,32.869z"
	/>
</svg>
