<svg xmlns="http://www.w3.org/2000/svg" width="48" height="48" viewBox="0 0 48 48">
  <title>画板 3</title>
  <path d="M34,22A12,12,0,1,0,46,34,12.035,12.035,0,0,0,34,22Zm0,22A10,10,0,1,1,44,34,10.029,10.029,0,0,1,34,44Z" style="fill: #00a4ff"/>
  <path d="M21.5,44H21C10.6,44,4,40.4,4,38V32.6c2.7,2.3,8,4,14.3,4.4a13.552,13.552,0,0,1-.2-2C9.4,34.3,4,31.2,4,29V23.6C6.9,26,12.5,27.7,19.2,28a18.646,18.646,0,0,1,1-2C10.3,25.8,4,22.4,4,20V13.6C7.1,16.2,13.5,18,21,18s13.9-1.8,17-4.4v5c.7.2,1.4.4,2,.6V10c0-4.4-8.5-8-19-8S2,5.6,2,10V38c0,4.4,8.5,8,19,8a19.269,19.269,0,0,0,2.4-.1A17.044,17.044,0,0,1,21.5,44ZM21,4c10.4,0,17,3.6,17,6s-6.6,6-17,6S4,12.4,4,10,10.6,4,21,4Z" style="fill: #00a4ff"/>
  <polygon points="38.666 38.799 33.085 35.708 33 35.708 33 27 35 27 35 34.587 39.732 37.076 38.666 38.799" style="fill: #00a4ff;fill-rule: evenodd"/>
</svg>
