<?xml version="1.0" encoding="UTF-8"?>
<svg width="48px" height="48px" viewBox="0 0 48 48" version="1.1" xmlns="http://www.w3.org/2000/svg" xmlns:xlink="http://www.w3.org/1999/xlink">
    <title>48</title>
    <g id="48" stroke="none" stroke-width="1" fill="none" fill-rule="evenodd">
        <polygon id="Path备份" fill="#00A4FF" points="44 19.1 44 34.9 24 45.8 4 34.9 4 13.1 24 2.2 44 13.1 44 13.1 46 12 46 12 24 0 2 12 2 36 24 48 46 36 46 18"></polygon>
        <g id="监控-(2)备份" transform="translate(11.000000, 14.000000)">
            <path d="M27.5,19 C25.8333333,16 23.6666667,14.5 21,14.5 C18.3333333,14.5 16.1666667,16 14.5,19 C16.1666667,22 18.3333333,23.5 21,23.5 C23.6666667,23.5 25.8333333,22 27.5,19 Z M21,21.5 C18.9998786,21.5 17,19.5 17,19 C17,18.5 19,16.5 21.0001214,16.5 C23.0002427,16.5 25,18.5 25,19 C25,19.5 23.0001214,21.5 21,21.5 Z" id="形状" fill="#00A4FF" fill-rule="nonzero"></path>
            <path d="M19.5,19 C19.5,19.8284271 20.1715729,20.5 21,20.5 C21.8284271,20.5 22.5,19.8284271 22.5,19 C22.5,18.1715729 21.8284271,17.5 21,17.5 C20.1715729,17.5 19.5,18.1715729 19.5,19 Z M2.03125,2.0952381 L23.96875,2.0952381 L24,12 L26.03125,12 L26,-1.42108547e-14 L0,-1.42108547e-14 L0,22 L12.2890625,22 L12.2890625,19.9047619 L2.03125,19.9047619 L2.03125,2.0952381 Z" id="形状" fill="#00A4FF" fill-rule="nonzero"></path>
            <polyline id="路径-3" stroke="#00A4FF" stroke-width="2" points="2 11 6.5 11 10 6.5 14 13.5 17.5 11 24 11"></polyline>
        </g>
    </g>
</svg>