<?xml version="1.0" encoding="UTF-8"?>
<svg width="49px" height="48px" viewBox="0 0 49 48" version="1.1" xmlns="http://www.w3.org/2000/svg" xmlns:xlink="http://www.w3.org/1999/xlink">
    <!-- Generator: Sketch 53.2 (72643) - https://sketchapp.com -->
    <title>conference-48px</title>
    <desc>Created with Sketch.</desc>
    <g id="conference-48px" stroke="none" stroke-width="1" fill="none" fill-rule="evenodd" transform="translate(1.000000, 0.000000)">
        <path d="M18.6560253,42.6741782 C17.9474629,43.1117888 17.0525371,43.1117888 16.3439747,42.6741782 L2.04397472,33.8424485 C1.39504596,33.4416678 1,32.7333711 1,31.9706564 L1,16.0293436 C1,15.2666289 1.39504596,14.5583322 2.04397472,14.1575515 L16.3439747,5.32582182 C17.0525371,4.88821125 17.9474629,4.88821125 18.6560253,5.32582182 L22.0886263,7.44580811 L20.1966827,8.62802565 L17.6050932,7.02745098 C17.5406784,6.9876682 17.4593216,6.9876682 17.3949068,7.02745098 L3.09490679,15.8591807 C3.03591327,15.8956153 3,15.9600059 3,16.0293436 L3,31.9706564 C3,32.0399941 3.03591327,32.1043847 3.09490679,32.1408193 L17.3949068,40.972549 C17.4593216,41.0123318 17.5406784,41.0123318 17.6050932,40.972549 L20.1924261,39.3746032 L22.0968257,40.5491279 L18.6560253,42.6741782 Z M15.0439747,33.8424485 C14.395046,33.4416678 14,32.7333711 14,31.9706564 L14,16.0293436 C14,15.2666289 14.395046,14.5583322 15.0439747,14.1575515 L29.3439747,5.32582182 C30.0525371,4.88821125 30.9474629,4.88821125 31.6560253,5.32582182 L45.9560253,14.1575515 C46.604954,14.5583322 47,15.2666289 47,16.0293436 L47,31.9706564 C47,32.7333711 46.604954,33.4416678 45.9560253,33.8424485 L31.6560253,42.6741782 C30.9474629,43.1117888 30.0525371,43.1117888 29.3439747,42.6741782 L15.0439747,33.8424485 Z M30.6050932,7.02745098 C30.5406784,6.9876682 30.4593216,6.9876682 30.3949068,7.02745098 L16.0949068,15.8591807 C16.0359133,15.8956153 16,15.9600059 16,16.0293436 L16,31.9706564 C16,32.0399941 16.0359133,32.1043847 16.0949068,32.1408193 L30.3949068,40.972549 C30.4593216,41.0123318 30.5406784,41.0123318 30.6050932,40.972549 L44.9050932,32.1408193 C44.9640867,32.1043847 45,32.0399941 45,31.9706564 L45,16.0293436 C45,15.9600059 44.9640867,15.8956153 44.9050932,15.8591807 L30.6050932,7.02745098 Z M30.5,12.0732688 L20.5,18.3305672 L20.5,29.6694328 L30.5,35.9267312 L40.5,29.6694328 L40.5,18.3305672 L30.5,12.0732688 Z M31.433581,10.2981691 L41.673581,16.7056426 C42.1877251,17.0273579 42.5,17.5911279 42.5,18.19763 L42.5,29.80237 C42.5,30.4088721 42.1877251,30.9726421 41.673581,31.2943574 L31.433581,37.7018309 C30.8624877,38.059181 30.1375123,38.059181 29.566419,37.7018309 L19.326419,31.2943574 C18.8122749,30.9726421 18.5,30.4088721 18.5,29.80237 L18.5,18.19763 C18.5,17.5911279 18.8122749,17.0273579 19.326419,16.7056426 L29.566419,10.2981691 C30.1375123,9.94081899 30.8624877,9.94081899 31.433581,10.2981691 Z" id="形状" fill="#03A4FF" fill-rule="nonzero"></path>
    </g>
</svg>