<?xml version="1.0" encoding="UTF-8"?>
<svg width="48px" height="48px" viewBox="0 0 48 48" version="1.1" xmlns="http://www.w3.org/2000/svg" xmlns:xlink="http://www.w3.org/1999/xlink">
    <!-- Generator: Sketch 63.1 (92452) - https://sketch.com -->
    <title>48备份</title>
    <desc>Created with Sketch.</desc>
    <g id="页面-1" stroke="none" stroke-width="1" fill="none" fill-rule="evenodd">
        <g id="编组-9备份-4" transform="translate(0.000000, 3.000000)" fill="#00A4FF" fill-rule="nonzero">
            <g id="b2d772970f9a5c11b1e47de44819ceea">
                <g id="XMLID_84_">
                    <g id="XMLID_11_">
                        <circle id="XMLID_16_" cx="3.256" cy="3.228" r="3.2"></circle>
                    </g>
                </g>
                <g id="XMLID_83_" transform="translate(41.000000, 35.000000)">
                    <g id="XMLID_2_">
                        <circle id="XMLID_15_" cx="3.8" cy="3.885" r="3.2"></circle>
                    </g>
                </g>
                <g id="XMLID_82_" transform="translate(3.000000, 2.000000)">
                    <g id="XMLID_13_">
                        <polygon id="XMLID_14_" points="43 26.997 41 26.997 41 1.997 0 1.997 0 -0.003 43 -0.003"></polygon>
                    </g>
                </g>
                <g id="XMLID_81_" transform="translate(2.000000, 13.000000)">
                    <g id="XMLID_12_">
                        <polygon id="XMLID_1_" points="43 26.997 0 26.997 0 -0.003 2 -0.003 2 24.997 43 24.997"></polygon>
                    </g>
                </g>
            </g>
        </g>
        <path d="M35.5,28 L35.5,36 L27.5,36 L27.5,28 L35.5,28 Z M19.5,28 L19.5,36 L11.5,36 L11.5,28 L19.5,28 Z M24.8333333,33.3333333 L24.8333333,36 L22.1666667,36 L22.1666667,33.3333333 L24.8333333,33.3333333 Z M32.8333333,30.6666667 L30.1666667,30.6666667 L30.1666667,33.3333333 L32.8333333,33.3333333 L32.8333333,30.6666667 Z M16.8333333,30.6666667 L14.1666667,30.6666667 L14.1666667,33.3333333 L16.8333333,33.3333333 L16.8333333,30.6666667 Z M24.8333333,28 L24.8333333,30.6666667 L22.1666667,30.6666667 L22.1666667,28 L24.8333333,28 Z M30.5,23 L30.5,26 L27.5,26 L27.5,23 L30.5,23 Z M35.5,23 L35.5,26 L32.5,26 L32.5,23 L35.5,23 Z M24.8333333,12 L24.8333333,25.3333333 L11.5,25.3333333 L11.5,12 L24.8333333,12 Z M22.1666667,14.6666667 L14.1666667,14.6666667 L14.1666667,22.6666667 L22.1666667,22.6666667 L22.1666667,14.6666667 Z M35.5,12 L35.5,20 L27.5,20 L27.5,12 L35.5,12 Z M19.5,17.3333333 L19.5,20 L16.8333333,20 L16.8333333,17.3333333 L19.5,17.3333333 Z M32.8333333,14.6666667 L30.1666667,14.6666667 L30.1666667,17.3333333 L32.8333333,17.3333333 L32.8333333,14.6666667 Z" id="形状结合" fill="#00A4FF"></path>
    </g>
</svg>