<?xml version="1.0" encoding="UTF-8"?>
<svg width="48px" height="48px" viewBox="0 0 48 48" version="1.1" xmlns="http://www.w3.org/2000/svg" xmlns:xlink="http://www.w3.org/1999/xlink">
    <!-- Generator: Sketch 52.2 (67145) - http://www.bohemiancoding.com/sketch -->
    <title>智能识别-48px</title>
    <desc>Created with Sketch.</desc>
    <g id="智能识别-48px" stroke="none" stroke-width="1" fill="none" fill-rule="evenodd">
        <rect id="Rectangle-Copy" fill="#444444" opacity="0" x="0" y="0" width="48" height="48"></rect>
        <g id="c8895019127a1384919d48c3b4d20bb5" transform="translate(1.000000, 9.000000)" fill="#00A4FF" fill-rule="nonzero">
            <path d="M32.8,2.7 L32.8,8.7 L32.8,11.5 L35.5,10.6 L44,7.7 L44,22.2 L35.5,19.3 L32.8,18.4 L32.8,21.2 L32.8,27.2 L2,27.2 L2,2.7 L32.8,2.7 Z M34.8,0.7 L0,0.7 L0,29.2 L34.8,29.2 L34.8,21.2 L46,25.1 L46,4.9 L34.9,8.8 L34.9,0.7 L34.8,0.7 Z" id="Shape"></path>
        </g>
        <g id="分组" transform="translate(8.000000, 15.000000)" fill="#00A4FF">
            <polygon id="Path" points="5 2.001 5 1.0125234e-13 2 1.0125234e-13 0 1.0125234e-13 0 2.001 0 5.001 2 5.001 2 2.001"></polygon>
            <polygon id="Path" points="20 2.001 20 1.0125234e-13 18 1.0125234e-13 15 1.0125234e-13 15 2.001 18 2.001 18 5.001 20 5.001"></polygon>
            <polygon id="Path" points="0 16 0 18 2 18 5 18 5 16 2 16 2 13 0 13"></polygon>
            <polygon id="Path" points="20 18 20 16 20 13 18 13 18 16 15 16 15 18 18 18"></polygon>
            <rect id="Rectangle" x="0" y="7.995" width="20" height="2"></rect>
        </g>
    </g>
</svg>