<?xml version="1.0" encoding="UTF-8"?>
<svg width="48px" height="48px" viewBox="0 0 48 48" version="1.1" xmlns="http://www.w3.org/2000/svg" xmlns:xlink="http://www.w3.org/1999/xlink">
    <!-- Generator: Sketch 57.1 (83088) - https://sketch.com -->
    <title>腾讯云小微-48px</title>
    <desc>Created with Sketch.</desc>
    <g id="腾讯云小微-48px" stroke="none" stroke-width="1" fill="none" fill-rule="evenodd">
        <path d="M30.2773607,27.3087747 C29.873972,27.7304961 29.2026347,28 28.4546659,28 L19.5410513,28 C18.7948538,28 18.1248436,27.7317791 17.7210387,27.3115725 L16.2789613,28.697362 C17.071348,29.5219339 18.265547,30 19.5410513,30 L28.4546659,30 C29.7334149,30 30.930386,29.519484 31.7226393,28.6912253 L30.2773607,27.3087747 Z" id="Rectangle-37" fill="#00A4FF" fill-rule="nonzero"></path>
        <path d="M28.05,19 C28.629899,19 29.1,19.470101 29.1,20.05 L29.1,23.95 C29.1,24.529899 28.629899,25 28.05,25 C27.470101,25 27,24.529899 27,23.95 L27,20.05 C27,19.470101 27.470101,19 28.05,19 Z M28.05,21 C28.5746705,21 29,20.5746705 29,20.05 L29,23.95 C29,23.4253295 28.5746705,23 28.05,23 C27.5253295,23 27.1,23.4253295 27.1,23.95 L27.1,20.05 C27.1,20.5746705 27.5253295,21 28.05,21 Z" id="Rectangle-36" fill="#00A4FF" fill-rule="nonzero"></path>
        <path d="M20.05,19 C20.629899,19 21.1,19.470101 21.1,20.05 L21.1,23.95 C21.1,24.529899 20.629899,25 20.05,25 C19.470101,25 19,24.529899 19,23.95 L19,20.05 C19,19.470101 19.470101,19 20.05,19 Z M20.05,21 C20.5746705,21 21,20.5746705 21,20.05 L21,23.95 C21,23.4253295 20.5746705,23 20.05,23 C19.5253295,23 19.1,23.4253295 19.1,23.95 L19.1,20.05 C19.1,20.5746705 19.5253295,21 20.05,21 Z" id="Rectangle-36-Copy" fill="#00A4FF" fill-rule="nonzero"></path>
        <path d="M4.87173625,9.50004556 L6.43045416,11.0587635 C0.124289142,19.5980243 0.83820965,31.6937523 8.57221569,39.4277583 C15.7184941,46.5740368 26.5887654,47.7266393 34.9363078,42.8855659 C34.9180938,42.7746885 34.9090909,42.6611099 34.9090909,42.5454286 C34.9090909,41.3404437 35.8859242,40.3636104 37.0909091,40.3636104 C38.295894,40.3636104 39.2727273,41.3404437 39.2727273,42.5454286 C39.2727273,43.7504135 38.295894,44.7272467 37.0909091,44.7272467 C36.8255391,44.7272467 36.5712344,44.6798705 36.3359916,44.5931146 C27.1153525,50.1268146 14.9781739,48.9192735 7.02943725,40.9705368 C-1.55816823,32.3829313 -2.2774019,18.9065463 4.87173625,9.50004556 Z M40.9705628,7.02941127 C49.5581683,15.6170167 50.2774019,29.0934017 43.1282638,38.4999025 L41.5695458,36.9411845 C47.8757109,28.4019238 47.1617904,16.3061957 39.4277843,8.57218971 C32.2815059,1.42591126 21.4112346,0.273308747 13.0636922,5.11438217 C13.0819062,5.22525949 13.0909091,5.33883811 13.0909091,5.45451947 C13.0909091,6.65950438 12.1140758,7.63633766 10.9090909,7.63633766 C9.704106,7.63633766 8.72727273,6.65950438 8.72727273,5.45451947 C8.72727273,4.24953457 9.704106,3.27270129 10.9090909,3.27270129 C11.1744609,3.27270129 11.4287656,3.32007757 11.6640084,3.40683348 C20.8846475,-2.12686654 33.0218261,-0.919325403 40.9705628,7.02941127 Z" id="形状结合" fill="#00A4FF" fill-rule="nonzero" transform="translate(24.000000, 23.999974) scale(-1, 1) translate(-24.000000, -23.999974) "></path>
        <path d="M35,13 C36.6568542,13 38,14.3431458 38,16 L38,19 L38,19 L39,19 C40.1045695,19 41,19.8954305 41,21 L41,27 C41,28.1045695 40.1045695,29 39,29 L38,29 L38,32 C38,33.6568542 36.6568542,35 35,35 L13,35 C11.3431458,35 10,33.6568542 10,32 L10,29 L9,29 C7.8954305,29 7,28.1045695 7,27 L7,21 C7,19.8954305 7.8954305,19 9,19 L10,19 L10,16 C10,14.3431458 11.3431458,13 13,13 L35,13 Z M35,15 L13,15 C12.4477153,15 12,15.4477153 12,16 L12,32 C12,32.5522847 12.4477153,33 13,33 L35,33 C35.5522847,33 36,32.5522847 36,32 L36,16 C36,15.4477153 35.5522847,15 35,15 Z M10,21 L9,21 L9,27 L10,27 L10,21 Z M39,21 L38,21 L38,27 L39,27 L39,21 Z" id="形状结合" fill="#00A4FF" fill-rule="nonzero"></path>
    </g>
</svg>