<?xml version="1.0" encoding="UTF-8"?>
<svg width="48px" height="48px" viewBox="0 0 48 48" version="1.1" xmlns="http://www.w3.org/2000/svg" xmlns:xlink="http://www.w3.org/1999/xlink">
    <!-- Generator: Sketch 64 (93537) - https://sketch.com -->
    <title>智能预问诊-48px-蓝</title>
    <desc>Created with Sketch.</desc>
    <g id="智能预问诊-48px-蓝" stroke="none" stroke-width="1" fill="none" fill-rule="evenodd">
        <path d="M45.7412127,14.3031137 C47.0923911,17.3281726 47.8,20.6152108 47.8,24 C47.8,37.144377 37.144377,47.8 24,47.8 C18.6009791,47.8 13.4875669,45.9926803 9.36016082,42.7669048 C9.01813054,42.9437506 8.62921937,43.0435156 8.21700684,43.0435156 C6.83629496,43.0435156 5.71700684,41.9242275 5.71700684,40.5435156 C5.71700684,39.1628038 6.83629496,38.0435156 8.21700684,38.0435156 C9.59771871,38.0435156 10.7170068,39.1628038 10.7170068,40.5435156 C10.7170068,40.7764993 10.6851365,41.0020393 10.6255176,41.2160138 C14.398773,44.1550968 19.0677833,45.8 24,45.8 C36.0398075,45.8 45.8,36.0398075 45.8,24 C45.8,21.0801598 45.2261618,18.2427678 44.1272773,15.6099889 L43.9150955,15.1187705 L45.7412127,14.3031137 Z M19.9293303,12.5427687 L19.9293303,14.5427687 L16.06,14.542 L16.0600921,20.0865636 C16.0600921,23.6599275 18.6943284,26.5244063 21.9000921,26.5244063 C25.0346167,26.5244063 27.6227327,23.7858231 27.7362122,20.323714 L27.7400921,20.0865636 L27.74,14.542 L23.8757106,14.5427687 L23.8757106,12.5427687 L29.7422723,12.5427687 L29.7422723,14.5427687 L29.74,14.542 L29.7400921,20.0865636 C29.7400921,24.4854204 26.6060039,28.1240726 22.5767615,28.4935301 L22.5769695,29.7107073 C22.5769695,33.2485946 24.9677968,35.885121 27.9802101,35.885121 C30.5230918,35.885121 32.6230543,34.0064303 33.2159012,31.2927488 C32.4230166,30.8744616 31.8834507,30.0418466 31.8834507,29.0832093 C31.8834507,27.7024974 33.0027389,26.5832093 34.3834507,26.5832093 C35.7641626,26.5832093 36.8834507,27.7024974 36.8834507,29.0832093 C36.8834507,30.1682422 36.1922223,31.09183 35.2260959,31.4376424 C34.5308536,35.1754845 31.6054007,37.885121 27.9802101,37.885121 C23.8972707,37.885121 20.7019355,34.4479967 20.580548,29.9750014 L20.5769695,29.7107073 L20.5762377,28.4049943 C16.9402316,27.7412421 14.1763381,24.3895355 14.0636665,20.3435766 L14.0600921,20.0865636 L14.0600921,13.7898258 L14.062,13.789 L14.0627687,12.5427687 L19.9293303,12.5427687 Z M24,0.2 C29.5164716,0.2 34.7337466,2.08706 38.904664,5.44300279 C39.1776954,5.33962044 39.4737888,5.28348633 39.7829932,5.28348633 C41.163705,5.28348633 42.2829932,6.40277445 42.2829932,7.78348633 C42.2829932,9.1641982 41.163705,10.2834863 39.7829932,10.2834863 C38.4022813,10.2834863 37.2829932,9.1641982 37.2829932,7.78348633 C37.2829932,7.453994 37.3467353,7.13938943 37.4625609,6.85133121 C33.6738123,3.87112883 28.9709844,2.2 24,2.2 C11.9601925,2.2 2.2,11.9601925 2.2,24 C2.2,26.6928856 2.68801577,29.3163375 3.62719179,31.7754375 L3.82103154,32.2650381 L1.97055264,33.0238054 C0.8064649,30.1848325 0.2,27.1337831 0.2,24 C0.2,10.855623 10.855623,0.2 24,0.2 Z" id="形状结合" fill="#00A4FF" fill-rule="nonzero"></path>
    </g>
</svg>