<?xml version="1.0" encoding="utf-8"?>
<!-- Generator: Adobe Illustrator 21.0.0, SVG Export Plug-In . SVG Version: 6.00 Build 0)  -->
<svg version="1.1" id="图层_1" xmlns="http://www.w3.org/2000/svg" xmlns:xlink="http://www.w3.org/1999/xlink" x="0px" y="0px"
	 width="48px" height="48px" viewBox="0 0 48 48" style="enable-background:new 0 0 48 48;" xml:space="preserve">
<style type="text/css">
	.st0{fill:#00A4FF;}
	.st1{fill:none;stroke:#00A4FF;stroke-miterlimit:10;}
	.st2{fill:url(#SVGID_1_);}
	.st3{fill:url(#SVGID_2_);}
	.st4{fill:url(#SVGID_3_);}
	.st5{fill:url(#SVGID_4_);}
	.st6{fill:url(#SVGID_5_);}
	.st7{fill:none;stroke:url(#SVGID_6_);stroke-width:3;stroke-miterlimit:10;}
	.st8{fill:none;stroke:url(#SVGID_7_);stroke-width:3;stroke-miterlimit:10;}
	.st9{fill:none;stroke:url(#SVGID_8_);stroke-width:3;stroke-miterlimit:10;}
	.st10{fill:none;stroke:url(#SVGID_9_);stroke-width:3;stroke-miterlimit:10;}
	.st11{fill:url(#SVGID_10_);}
	.st12{fill:none;stroke:#00A4FF;stroke-width:2;stroke-miterlimit:10;}
	.st13{fill:url(#SVGID_11_);}
	.st14{fill:url(#OCR文字识别_拷贝_1_);}
	.st15{fill:url(#SVGID_12_);}
	.st16{fill:url(#SVGID_13_);}
	.st17{fill:url(#SVGID_14_);}
	.st18{fill:url(#SVGID_15_);}
	.st19{fill:url(#SVGID_16_);}
	.st20{fill:none;stroke:url(#SVGID_17_);stroke-width:3;stroke-miterlimit:10;}
	.st21{fill:none;stroke:url(#SVGID_18_);stroke-width:3;stroke-miterlimit:10;}
	.st22{fill:none;stroke:url(#SVGID_19_);stroke-width:3;stroke-miterlimit:10;}
	.st23{fill:none;stroke:url(#SVGID_20_);stroke-width:3;stroke-miterlimit:10;}
	.st24{fill:none;stroke:url(#SVGID_21_);stroke-width:3;stroke-miterlimit:10;}
	.st25{fill:none;stroke:url(#SVGID_22_);stroke-width:3;stroke-miterlimit:10;}
	.st26{fill:none;stroke:url(#SVGID_23_);stroke-width:3;stroke-miterlimit:10;}
	.st27{fill:url(#SVGID_24_);}
	.st28{fill:url(#SVGID_25_);}
	.st29{fill:url(#SVGID_26_);}
	.st30{fill:url(#SVGID_27_);}
	.st31{fill:url(#SVGID_28_);}
	.st32{fill:url(#SVGID_29_);}
	.st33{fill:url(#SVGID_30_);}
	.st34{fill:url(#SVGID_31_);}
	.st35{fill:none;stroke:#000000;stroke-width:2;stroke-miterlimit:10;}
	.st36{fill:none;stroke:url(#SVGID_32_);stroke-width:3;stroke-miterlimit:10;}
	.st37{fill:none;stroke:url(#SVGID_33_);stroke-width:3;stroke-miterlimit:10;}
</style>
<g>
	<rect x="23" y="15.9" class="st0" width="2" height="7.3"/>
	<rect x="35" y="20" class="st0" width="2" height="3.2"/>
	<rect x="28.9" y="19.1" class="st0" width="2" height="4.1"/>
	<path class="st0" d="M6.3,6.9H44v16.3h2V4.9H6.2c-0.5-1.2-1.6-2-3-2C1.4,2.9,0,4.3,0,6.1c0,1.8,1.4,3.2,3.2,3.2
		C4.7,9.3,5.9,8.3,6.3,6.9z"/>
	<polygon class="st0" points="17.2,41 3.9,41 3.9,15.9 1.9,15.9 1.9,43 17.2,43 	"/>
	<polygon class="st0" points="19.1,23.2 19,19.1 17,19.1 17.1,23.2 	"/>
	<rect x="10.9" y="21" class="st0" width="2" height="6"/>
</g>
<path class="st0" d="M29.4,38.1c-1.1,2-2.3,2.8-4.1,2.8c-3.8,0-5.2-3.4-5.2-6.3s1.4-6.3,5.2-6.3c1.9,0,3,0.7,4.2,2.8h2.2
	c-1.1-2.4-2.8-4.8-6.4-4.8c-4.3,0-7.2,3.3-7.2,8.3c0,5,2.9,8.3,7.2,8.3c3.6,0,5.3-2.4,6.4-4.8H29.4z"/>
<polygon class="st0" points="44,26.2 44,39.4 35.1,26.2 35.1,26.2 35.1,26.2 33.1,26.2 33.1,42.9 35.1,42.9 35.1,29.7 44,42.9 
	44,42.9 46,42.9 46,26.2 "/>
</svg>
