<?xml version="1.0" encoding="UTF-8"?>
<svg width="48px" height="48px" viewBox="0 0 48 48" version="1.1" xmlns="http://www.w3.org/2000/svg" xmlns:xlink="http://www.w3.org/1999/xlink">
    <!-- Generator: Sketch 56.3 (81716) - https://sketch.com -->
    <title>微信识物-48</title>
    <desc>Created with Sketch.</desc>
    <g id="微信识物-48" stroke="none" stroke-width="1" fill="none" fill-rule="evenodd">
        <path d="M6.4,7 L44,7 L44,32 L46,32 L46,5 L6.2,5 C5.7,3.8 4.6,3 3.2,3 C1.5,3 0.1,4.5 0.1,6.2 C0.1,8 1.5,9.4 3.3,9.4 C4.8,9.4 6,8.4 6.4,7 Z" id="Path" fill="#00A4FF"></path>
        <path d="M44.8,38.7 C43.3,38.7 42.1,39.7 41.7,41 L4,41 L4,16 L2,16 L2,43 L41.8,43 C42.3,44.2 43.4,45.1 44.8,45.1 C46.6,45.1 48,43.7 48,41.9 C48,40.1 46.6,38.7 44.8,38.7 Z" id="Path" fill="#00A4FF"></path>
        <path d="M34.9861242,22.0167829 L32.9996265,21.4243484 C32.9982379,21.2837725 32.9929789,21.1436191 32.9838732,21.0039432 C32.6588342,16.0180634 27.4313566,12 21,12 C14.3311903,12 9,16.3059614 9,21.5 C9,24.4900269 10.7710314,27.2743782 13.7622578,29.0721144 L14.4322344,29.4747724 L13.6616921,31.9899089 L16.7089102,30.3782806 L17.0905656,30.4827044 C18.3369806,30.8237329 19.6527938,31 21,31 C22.1654414,31 23.307803,30.8681024 24.4028534,30.6113293 C24.4514543,30.5999331 24.4999113,30.5883061 24.5482229,30.5764502 L25.6934507,32.3395666 C25.4195125,32.4193281 25.1414194,32.4923941 24.8594394,32.5585142 C23.6145913,32.8504127 22.3190197,33 21,33 C19.6131599,33 18.2527249,32.8346167 16.9508278,32.5128277 L13.1062889,34.5461471 C12.8021568,34.7069981 12.4466639,34.7407292 12.1177068,34.6399492 C11.4312298,34.4296388 11.0452206,33.7026489 11.2555311,33.0161719 L12.0686228,30.3621493 C8.90185045,28.2095306 7,24.9968603 7,21.5 C7,15.0960588 13.3094062,10 21,10 C28.4106249,10 34.579888,14.7419602 34.9796367,20.8738355 C34.9931977,21.0818518 35,21.2906263 35,21.5 C35,21.6731123 34.9953442,21.8454018 34.9861242,22.0167829 Z" id="形状结合" fill="#00A4FF" fill-rule="nonzero"></path>
        <circle id="椭圆形备份-2" stroke="#00A4FF" stroke-width="2" cx="31.5" cy="28.5" r="7.5"></circle>
        <circle id="形状结合备份-8" fill="#00A4FF" cx="16.5" cy="18.5" r="1.5"></circle>
        <circle id="形状结合备份-9" fill="#00A4FF" cx="25.5" cy="18.5" r="1.5"></circle>
        <path d="M37,34 L40,37" id="路径-6" stroke="#00A4FF" stroke-width="2"></path>
        <path d="M35.5,28.5 C35.5,26.290861 33.709139,24.5 31.5,24.5" id="形状" stroke="#00A4FF" stroke-width="2" stroke-linecap="round" stroke-linejoin="round"></path>
        <rect id="矩形" x="0" y="0" width="48" height="48"></rect>
    </g>
</svg>