<?xml version="1.0" encoding="utf-8"?>
<!-- Generator: Adobe Illustrator 23.0.2, SVG Export Plug-In . SVG Version: 6.00 Build 0)  -->
<svg version="1.1" id="图层_1" xmlns="http://www.w3.org/2000/svg" xmlns:xlink="http://www.w3.org/1999/xlink" x="0px" y="0px"
	 width="48px" height="48px" viewBox="0 0 48 48" style="enable-background:new 0 0 48 48;" xml:space="preserve">
<path style="fill:#00A4FF;" d="M7.8,8H42v24h2V6H7.8C7.4,4.8,6.3,4,5,4C3.3,4,2,5.3,2,7s1.3,3,3,3C6.3,10,7.4,9.2,7.8,8z"/>
<path style="fill:#00A4FF;" d="M43,38c-1.3,0-2.4,0.8-2.8,2H6V16H4v26h36.2c0.4,1.2,1.5,2,2.8,2c1.7,0,3-1.3,3-3S44.7,38,43,38z"/>
<polygon style="fill:#00A4FF;" points="13,30 13,20 16,20 16,18 13,18 11,18 8,18 8,20 11,20 11,30 "/>
<rect x="18" y="18" style="fill:#00A4FF;" width="2" height="12"/>
<rect x="35" y="18" style="fill:#00A4FF;" width="2" height="12"/>
<rect x="35" y="28" style="fill:#00A4FF;" width="5" height="2"/>
<g>
	<rect x="23" y="18" style="fill:#00A4FF;" width="2" height="12"/>
	<rect x="31" y="18" style="fill:#00A4FF;" width="2" height="12"/>
	<polygon style="fill:#00A4FF;" points="24,18 26,18 29,30 27,30 	"/>
	<polygon style="fill:#00A4FF;" points="32,18 30,18 27,30 29,30 	"/>
</g>
</svg>
