<?xml version="1.0" encoding="UTF-8"?>
<svg width="48px" height="48px" viewBox="0 0 48 48" version="1.1" xmlns="http://www.w3.org/2000/svg" xmlns:xlink="http://www.w3.org/1999/xlink">
    <!-- Generator: Sketch 55.2 (78181) - https://sketchapp.com -->
    <title>48x48</title>
    <desc>Created with Sketch.</desc>
    <g id="48x48" stroke="none" stroke-width="1" fill="none" fill-rule="evenodd">
        <rect id="Rectangle-Copy" fill="#444444" opacity="0" x="0" y="0" width="48" height="48"></rect>
        <path d="M39.9831877,23 C39.9943372,23.1652618 40,23.3319857 40,23.5 C40,27.6421356 36.558189,31 32.3125,31 C29.7182739,31 26.6141073,28.848669 23,24.5460069 C19.3858927,28.848669 16.2817261,31 13.6875,31 C9.44181099,31 6,27.6421356 6,23.5 C6,19.3578644 9.44181099,16 13.6875,16 C16.2817261,16 19.3858927,18.0488867 23,22.1466601 C26.6141073,18.0488867 29.7182739,16 32.3125,16 C33.7951523,16 35.1797715,16.409492 36.3540171,17.1188753 L35.3537869,18.8513248 C34.4753731,18.3125304 33.432885,18 32.3125,18 C30.4479877,18 27.8174736,19.7367349 24.6069153,23.3489905 C27.8301185,27.164964 30.468841,29 32.3125,29 C35.4645214,29 38,26.5263624 38,23.5 C38,23.3315096 37.992141,23.1647324 37.9767541,23 L36,23 L39,19 L42,23 L39.9831877,23 Z M13.6875,29 C15.531159,29 18.1698815,27.164964 21.3930847,23.3489905 C18.1825264,19.7367349 15.5520123,18 13.6875,18 C10.5354786,18 8,20.4736376 8,23.5 C8,26.5263624 10.5354786,29 13.6875,29 Z M44,7 L5.82929429,7 C5.41745788,8.16519237 4.30621883,9 3,9 C1.34314575,9 0,7.65685425 0,6 C0,4.34314575 1.34314575,3 3,3 C4.30621883,3 5.41745788,3.83480763 5.82929429,5 L46,5 L46,7 L46,33 L44,33 L44,7 Z M4,40 L42.1707057,40 C42.5825421,38.8348076 43.6937812,38 45,38 C46.6568542,38 48,39.3431458 48,41 C48,42.6568542 46.6568542,44 45,44 C43.6937812,44 42.5825421,43.1651924 42.1707057,42 L2,42 L2,40 L2,14 L4,14 L4,40 Z" id="形状结合" fill="#00A4FF"></path>
    </g>
</svg>