<?xml version="1.0" encoding="utf-8"?>
<!-- Generator: Adobe Illustrator 23.0.2, SVG Export Plug-In . SVG Version: 6.00 Build 0)  -->
<svg version="1.1" id="图层_1" xmlns="http://www.w3.org/2000/svg" xmlns:xlink="http://www.w3.org/1999/xlink" x="0px" y="0px"
	 width="48px" height="48px" viewBox="0 0 48 48" style="enable-background:new 0 0 48 48;" xml:space="preserve">
<path style="fill:#00A4FF;" d="M7.8,8H42v24h2V6H7.8C7.4,4.8,6.3,4,5,4C3.3,4,2,5.3,2,7s1.3,3,3,3C6.3,10,7.4,9.2,7.8,8z"/>
<path style="fill:#00A4FF;" d="M43,38c-1.3,0-2.4,0.8-2.8,2H6V16H4v26h36.2c0.4,1.2,1.5,2,2.8,2c1.7,0,3-1.3,3-3S44.7,38,43,38z"/>
<polygon style="fill:#00A4FF;" points="12,30 12,20 14,20 14,18 12,18 10,18 8,18 8,20 10,20 10,30 "/>
<rect x="16" y="18" style="fill:#00A4FF;" width="2" height="12"/>
<rect x="20" y="18" style="fill:#00A4FF;" width="2" height="12"/>
<rect x="20" y="28" style="fill:#00A4FF;" width="4" height="2"/>
<rect x="20" y="23" style="fill:#00A4FF;" width="4" height="2"/>
<rect x="20" y="18" style="fill:#00A4FF;" width="4" height="2"/>
<rect x="36" y="18" style="fill:#00A4FF;" width="2" height="7"/>
<rect x="38" y="23" style="fill:#00A4FF;" width="2" height="7"/>
<rect x="36" y="28" style="fill:#00A4FF;" width="4" height="2"/>
<rect x="36" y="23" style="fill:#00A4FF;" width="4" height="2"/>
<rect x="36" y="18" style="fill:#00A4FF;" width="4" height="2"/>
<rect x="26" y="18" style="fill:#00A4FF;" width="2" height="12"/>
<rect x="32" y="18" style="fill:#00A4FF;" width="2" height="12"/>
<polygon style="fill:#00A4FF;" points="27,18 29,18 31,30 29,30 "/>
<polygon style="fill:#00A4FF;" points="33,18 31,18 29,30 31,30 "/>
</svg>
