<svg xmlns="http://www.w3.org/2000/svg" width="48" height="48" viewBox="0 0 48 48"><defs><style>.cls-1{fill:none;stroke:#00a4ff;stroke-miterlimit:10;stroke-width:2px;}.cls-2{fill:#04a4ff;}.cls-3{fill:#1ea7ee;}.cls-4{fill:#fff;}.cls-5{fill:#00a4ff;fill-rule:evenodd;}</style></defs><title>icon48-蓝</title><g id="图层_1" data-name="图层 1"><path class="cls-1" d="M16,24V14H34V26.41"/><circle class="cls-2" cx="20" cy="18" r="1.5"/><path id="Combined-Shape" class="cls-2" d="M22.58,24.08H19.76l6.43-6.47,6.74,7.47H30.28l-4.19-4.53Z"/><path class="cls-3" d="M10.52,31a8.55,8.55,0,0,1,.84-4.85,6.9,6.9,0,0,1,3.82-3.45,5.84,5.84,0,0,1,2-.36,8.39,8.39,0,0,1,4.4,1.5A13.61,13.61,0,0,0,26.78,26a3.36,3.36,0,0,1,2.32,1.31,8,8,0,0,0,3.21-1.4l.17-.13a5,5,0,0,1,3.06-1.34,3.66,3.66,0,0,1,.65.06,4.93,4.93,0,0,1,3,2.38L40,27.92l-.93.89c-.44.42-.9.89-1.38,1.37a23.2,23.2,0,0,1-5.79,4.76c-2.37,1.17-5,1.21-7.28,1.26l-13.9.25Zm6.67-5.66a3,3,0,0,0-1,.18,3.9,3.9,0,0,0-2.14,2,5.71,5.71,0,0,0-.53,3.37l.08,2.57,10.93-.2c2,0,4.25-.08,6-1a21.39,21.39,0,0,0,5-4.16l.47-.48a.81.81,0,0,0-.32-.18h-.1c-.3,0-.69.28-1.24.72l-.18.13a11.17,11.17,0,0,1-4.94,2.05,4,4,0,0,1-.83,1.08,4.75,4.75,0,0,1-3.3,1.36,6.79,6.79,0,0,1-2.7-.64,12.28,12.28,0,0,0-2.12-.63l-1-.25-.49-.12.77-2.91.48.13.94.23a14.1,14.1,0,0,1,2.68.81,3.79,3.79,0,0,0,1.47.39,1.74,1.74,0,0,0,1.26-.57,1.12,1.12,0,0,0,.19-.21l-.23,0A16.56,16.56,0,0,1,20,26.36,5.49,5.49,0,0,0,17.19,25.32Z"/><path class="cls-4" d="M17.19,22.82a8,8,0,0,1,4.14,1.42,14,14,0,0,0,5.37,2.23,2.68,2.68,0,0,1,2.15,1.38,8.75,8.75,0,0,0,3.77-1.56l.16-.13a4.56,4.56,0,0,1,2.76-1.24,3.64,3.64,0,0,1,.56,0,4.45,4.45,0,0,1,2.72,2.18l.49.7-.62.6c-.44.42-.91.89-1.39,1.38a22.83,22.83,0,0,1-5.65,4.66,16.35,16.35,0,0,1-7.07,1.21l-13.4.24L11,31a8.25,8.25,0,0,1,.78-4.62,6.46,6.46,0,0,1,3.55-3.2,5.39,5.39,0,0,1,1.84-.33M13.11,33.91l11.43-.21c2,0,4.36-.08,6.23-1a21.53,21.53,0,0,0,5.1-4.27l.81-.81a1.73,1.73,0,0,0-.93-.68l-.19,0c-.47,0-.91.33-1.55.82l-.17.13a10.71,10.71,0,0,1-5,2A3.51,3.51,0,0,1,28,31a4.22,4.22,0,0,1-3,1.23,6.19,6.19,0,0,1-2.5-.6A11.89,11.89,0,0,0,20.36,31l-1-.25.51-1.93,1,.23a13.3,13.3,0,0,1,2.58.77,4.1,4.1,0,0,0,1.67.44,2.22,2.22,0,0,0,1.6-.7,1.1,1.1,0,0,0,.41-.73c0-.07,0-.27-.71-.39a16.31,16.31,0,0,1-6.09-2.51,5.94,5.94,0,0,0-3.08-1.12A3.4,3.4,0,0,0,16,25a4.39,4.39,0,0,0-2.42,2.21A6.12,6.12,0,0,0,13,30.85l.09,3.06m4.08-12.09A6.44,6.44,0,0,0,15,22.2a7.43,7.43,0,0,0-4.11,3.71A9.1,9.1,0,0,0,10,31l.16,5,0,1,1,0,13.4-.24a17.39,17.39,0,0,0,7.5-1.31A23.71,23.71,0,0,0,38,30.54l1.37-1.37.62-.59.62-.6-.49-.7-.49-.7A5.33,5.33,0,0,0,36.28,24a3.64,3.64,0,0,0-.74-.07,5.42,5.42,0,0,0-3.36,1.44L32,25.5a7.43,7.43,0,0,1-2.71,1.24,4,4,0,0,0-2.43-1.25,13.09,13.09,0,0,1-5-2.1,8.91,8.91,0,0,0-4.67-1.57ZM14.08,32.89,14,30.82a5.26,5.26,0,0,1,.47-3.14A3.43,3.43,0,0,1,16.36,26a2.47,2.47,0,0,1,.83-.15,5.11,5.11,0,0,1,2.55,1,17.89,17.89,0,0,0,5.54,2.46l-.22,0a3.31,3.31,0,0,1-1.26-.35A15.39,15.39,0,0,0,21,28.08l-.93-.22-1-.26-.25,1-.51,1.94-.26,1,1,.26,1.06.25a11.62,11.62,0,0,1,2,.59l.38.16-8.47.16Zm15.44-2.11a12.09,12.09,0,0,0,4.21-1.61,14.72,14.72,0,0,1-3.4,2.63,8.46,8.46,0,0,1-2.61.72,6.23,6.23,0,0,0,1-.76,5,5,0,0,0,.81-1Z"/><g id="X-P2P-48px"><g id="编组"><path id="形状结合" class="cls-5" d="M24,0,45,12h0l-1.91,1.08L24,2.18,4.91,13.09V34.91L24,45.82,43.09,34.91V19.09L45,18V36L24,48,3,36V12Z"/></g></g></g></svg>