<?xml version="1.0" encoding="UTF-8"?>
<svg width="48px" height="48px" viewBox="0 0 48 48" version="1.1" xmlns="http://www.w3.org/2000/svg" xmlns:xlink="http://www.w3.org/1999/xlink">
    <title>CDC-48px</title>
    <g id="CDC-48px" stroke="none" stroke-width="1" fill="none" fill-rule="evenodd">
        <rect id="Rectangle-Copy" fill="#444444" opacity="0" x="0" y="0" width="48" height="48"></rect>
        <g id="Group" fill-rule="nonzero">
            <g id="分组">
                <rect id="矩形" fill="#D8D8D8" opacity="0" x="0" y="0" width="48" height="48"></rect>
                <path d="M24.2019411,45 C12.5721238,45 3.10977748,35.579 3.10977748,24 C3.10977748,12.421 12.5721238,3 24.2019411,3 C34.8062774,3 43.5836306,10.84 45.0530514,21 L47.0999956,21 C45.6235442,9.716 35.9382235,1 24.2019411,1 C11.4431909,1 1.101,11.297 1.101,24 C1.101,36.703 11.4431909,47 24.2019411,47 C35.9382235,47 45.6235442,38.284 47.101,27 L45.0540557,27 C43.5826262,37.16 34.8062774,45 24.2019411,45 Z" id="Shape" fill="#00A4FF"></path>
            </g>
        </g>
        <path d="M12.9999,35 L12.9999,13 L28.8489,13 L28.8489,19.285 C28.1849,19.285 27.3289,19.285 26.7659,19.915 L26.7659,15 L14.9999,15 L14.9999,32.958 L22.5089,32.958 L22.5099,32.988 L28.8489,32.986 L33.6039,32.988 C33.6669,32.977 33.7299,32.975 33.7959,32.98 C35.0379,32.836 35.9999,31.78 35.9999,30.5 C35.9999,29.174 34.9689,28.09 33.6639,28.005 L33.4999,28 L31.9999,28 L31.9999,26 C31.9999,24.343 30.6569,23 28.9999,23 C27.4019,23 26.0969,24.249 26.0049,25.824 L25.9999,26 L25.9999,27.146 L23.9999,27.146 L23.9999,26 C23.9999,23.239 26.2379,21 28.9999,21 C31.7619,21 33.9999,23.239 33.9999,26 L34.0009,26.027 C36.2499,26.277 37.9999,28.184 37.9999,30.5 C37.9999,32.95 36.0419,34.943 33.6039,34.999 L33.6039,35 L12.9999,35 Z M16.9999,20 L19.9999,20 L19.9999,17 L16.9999,17 L16.9999,20 Z" id="Fill-1" fill="#03A5FF"></path>
    </g>
</svg>