<svg id="图层_1" data-name="图层 1" xmlns="http://www.w3.org/2000/svg" width="48" height="48" viewBox="0 0 48 48">
  <defs>
    <style>
      .cls-1 {
        fill: #00a4ff;
      }
    </style>
  </defs>
  <title> </title>
  <g>
    <path class="cls-1" d="M24,47.51l-.5-.29A43.19,43.19,0,0,1,2,9.91V8l.39-.29a36,36,0,0,1,43.18,0L46,8v2A43.19,43.19,0,0,1,24.51,47.18ZM4,9v.89A41.22,41.22,0,0,0,24,45.16,41.22,41.22,0,0,0,44,9.91V9A34,34,0,0,0,4,9Z"/>
    <path class="cls-1" d="M23.64,10.81A10.12,10.12,0,1,1,13.52,20.93,10.13,10.13,0,0,1,23.64,10.81m0-2A12.12,12.12,0,1,0,35.76,20.93,12.12,12.12,0,0,0,23.64,8.81Z"/>
    <rect class="cls-1" x="31.75" y="27.63" width="2" height="5.22" transform="translate(-11.8 32.02) rotate(-45)"/>
    <polygon class="cls-1" points="18.92 24.34 17.51 22.92 22.37 18.06 25.23 20.92 28.82 17.34 30.23 18.75 25.23 23.75 22.37 20.89 18.92 24.34"/>
  </g>
</svg>
