<?xml version="1.0" encoding="utf-8"?>
<!-- Generator: Adobe Illustrator 23.0.3, SVG Export Plug-In . SVG Version: 6.00 Build 0)  -->
<svg version="1.1" id="图层_1" xmlns="http://www.w3.org/2000/svg" xmlns:xlink="http://www.w3.org/1999/xlink" x="0px" y="0px"
	 width="48px" height="48px" viewBox="0 0 48 48" style="enable-background:new 0 0 48 48;" xml:space="preserve">
<path style="fill:#00A4FF;" d="M31.848,8.5c0,0,1.091,3.095-2.543,3.133l2.878,5.207c0.036,0.059,0.069,0.119,0.1,0.182l0.004,0.007
	l-0.001,0c0.083,0.17,0.144,0.353,0.18,0.546c0.241,1.308-0.769,2.593-2.256,2.873c-0.194,0.036-0.386,0.054-0.575,0.054
	c-1.257,0-2.343-0.778-2.553-1.915c-0.242-1.307,0.769-2.593,2.255-2.873c0.194-0.036,0.386-0.054,0.575-0.054
	c0.308,0,0.607,0.047,0.884,0.134l-3.168-4.631c0,0-0.14-0.244,0-0.442c0,0,0.587-1.044,2.33-1.279
	C29.957,9.441,31.336,9.328,31.848,8.5 M31.848,7c-0.509,0-0.988,0.259-1.265,0.695c-0.117,0.111-0.544,0.234-0.748,0.251
	c-0.026,0.002-0.052,0.005-0.078,0.008c-2.173,0.293-3.14,1.564-3.382,1.94c-0.477,0.713-0.327,1.526-0.049,2.012
	c0.02,0.035,0.041,0.069,0.064,0.102l1.722,2.517c-1.755,0.748-2.838,2.524-2.504,4.332C25.941,20.678,27.635,22,29.634,22
	c0.284,0,0.571-0.027,0.852-0.08c2.294-0.431,3.844-2.503,3.454-4.619c-0.056-0.301-0.15-0.595-0.28-0.875
	c-0.015-0.035-0.032-0.07-0.05-0.104c-0.04-0.079-0.083-0.157-0.128-0.233l-1.897-3.433c0.63-0.308,1.037-0.719,1.298-1.09
	c1.058-1.512,0.453-3.359,0.381-3.565c-0.192-0.545-0.679-0.931-1.254-0.993C31.955,7.003,31.901,7,31.848,7L31.848,7z"/>
<g>
	<defs>
		<rect id="SVGID_13_" x="14" y="8" width="10" height="2"/>
	</defs>
	<use xlink:href="#SVGID_13_"  style="overflow:visible;fill:#00A4FF;"/>
	<clipPath id="SVGID_1_">
		<use xlink:href="#SVGID_13_"  style="overflow:visible;"/>
	</clipPath>
</g>
<g>
	<defs>
		<rect id="SVGID_15_" x="14" y="13.5" width="10" height="2"/>
	</defs>
	<use xlink:href="#SVGID_15_"  style="overflow:visible;fill:#00A4FF;"/>
	<clipPath id="SVGID_2_">
		<use xlink:href="#SVGID_15_"  style="overflow:visible;"/>
	</clipPath>
</g>
<g>
	<defs>
		<rect id="SVGID_17_" x="14" y="19" width="6" height="2"/>
	</defs>
	<use xlink:href="#SVGID_17_"  style="overflow:visible;fill:#00A4FF;"/>
	<clipPath id="SVGID_4_">
		<use xlink:href="#SVGID_17_"  style="overflow:visible;"/>
	</clipPath>
</g>
<g>
	<defs>
		<path id="SVGID_19_" d="M27,38v-2h-6v2H27z M40,38V2H8v44h32v-2h-2H10V4h28v34H40z"/>
	</defs>
	<use xlink:href="#SVGID_19_"  style="overflow:visible;fill:#00A4FF;"/>
	<clipPath id="SVGID_6_">
		<use xlink:href="#SVGID_19_"  style="overflow:visible;"/>
	</clipPath>
</g>
</svg>
