<?xml version="1.0" encoding="UTF-8"?>
<svg width="48px" height="48px" viewBox="0 0 48 48" version="1.1" xmlns="http://www.w3.org/2000/svg" xmlns:xlink="http://www.w3.org/1999/xlink">
    <!-- Generator: Sketch 61.1 (89650) - https://sketch.com -->
    <title>正版图库直通车-48px灰</title>
    <desc>Created with Sketch.</desc>
    <g id="正版图库直通车-48px灰" stroke="none" stroke-width="1" fill="none" fill-rule="evenodd">
        <rect id="Rectangle-Copy" fill="#444444" opacity="0" x="0" y="0" width="48" height="48"></rect>
        <polygon id="Path" fill="#00A4FF" fill-rule="nonzero" points="22 43 27 43 27 41 22 41"></polygon>
        <polygon id="Path" fill="#00A4FF" fill-rule="nonzero" points="40 43 40 1 8 1 8 47 40 47 40 45 10 45 10 3 37.9 3 37.9 43"></polygon>
        <path d="M35,7 L13,7 L13,21 L35,21 L35,7 Z M33,9 L33,19 L15,19 L15,9 L33,9 Z" id="矩形" fill="#00A4FF" fill-rule="nonzero"></path>
        <path d="M19,10 C17.8954305,10 17,10.8954305 17,12 C17,13.1045695 17.8954305,14 19,14 C20.1045695,14 21,13.1045695 21,12 C21,10.8954305 20.1045695,10 19,10 Z M19,11.6 C19.2209139,11.6 19.4,11.7790861 19.4,12 C19.4,12.2209139 19.2209139,12.4 19,12.4 C18.7790861,12.4 18.6,12.2209139 18.6,12 C18.6,11.7790861 18.7790861,11.6 19,11.6 Z" id="椭圆形" fill="#00A4FF" fill-rule="nonzero"></path>
        <path d="M28.5,11 L35,21 L22,21 L28.5,11 Z M28.5,14.668 L25.684,19 L31.315,19 L28.5,14.668 Z" id="三角形" fill="#00A4FF" fill-rule="nonzero"></path>
        <path d="M20.5,15 L27,21 L14,21 L20.5,15 Z M20.5,17.721 L19.114,19 L21.885,19 L20.5,17.721 Z" id="三角形备份" fill="#00A4FF" fill-rule="nonzero"></path>
    </g>
</svg>