<?xml version="1.0" encoding="UTF-8"?>
<svg width="48px" height="48px" viewBox="0 0 48 48" version="1.1" xmlns="http://www.w3.org/2000/svg" xmlns:xlink="http://www.w3.org/1999/xlink">
    <!-- Generator: Sketch 62 (91390) - https://sketch.com -->
    <title>汽车智能网联产品套件-48px-蓝</title>
    <desc>Created with Sketch.</desc>
    <g id="汽车智能网联产品套件-48px-蓝" stroke="none" stroke-width="1" fill="none" fill-rule="evenodd">
        <g id="分组" transform="translate(24.021739, 24.500000) rotate(-180.000000) translate(-24.021739, -24.500000) translate(1.521739, 1.000000)">
            <circle id="椭圆形-copy-3" fill="#00A4FF" cx="22.4347826" cy="2" r="2"></circle>
            <ellipse id="椭圆形-copy-4" fill="#00A4FF" cx="3.47826087" cy="35.9574468" rx="2" ry="1.95744681"></ellipse>
            <g id="分组-2-copy" transform="translate(0.000000, 2.000000)" stroke="#00A2FB" stroke-width="2">
                <path d="M28.4782609,1 C34.0479883,2.58425532 39.0055213,6.49026541 41.9324141,12.2634788 C45.6994862,19.6942575 45.1462753,28.3325247 41.1950835,35" id="Stroke-3"></path>
                <path d="M1.24739948,28 C-0.29639713,22.2797946 0.44521918,15.9618263 3.82224684,10.5281885 C8.16881037,3.53449472 15.7782955,-0.219447022 23.4782609,0.00992369279" id="Stroke-7"></path>
            </g>
            <path d="M37.4782609,40.4087668 C33.3133799,44.6643819 27.5123448,47.2097188 21.1785697,46.9864228 C13.0263397,46.6989144 6.06061772,41.897679 2.47826087,35" id="Stroke-1" stroke="#00A2FB" stroke-width="2"></path>
            <circle id="椭圆形-copy-5" fill="#00A4FF" cx="41.4782609" cy="36" r="2"></circle>
        </g>
        <path d="M29.6392455,12 C30.9502646,12 32.1094389,12.851299 32.5017662,14.1022387 L33.7649674,18.131 L31.2059674,16.654 L30.5934191,14.7007462 C30.4626433,14.2837663 30.0762519,14 29.6392455,14 L16.3608183,14 C15.923812,14 15.5374206,14.2837663 15.4066448,14.7007462 L13.9869674,19.225 L26.3399674,19.225 L22.8759674,21.225 L13.0619674,21.225 L11.0360326,23.4130133 L11.8128866,32 L13.5450006,32 C13.9769527,32 14.3600823,31.7226511 14.4949828,31.3123043 L15.371946,28.6447152 L21.0709674,28.644 L21.0709674,30.644 L16.8197537,30.6447152 L16.394947,31.9369128 C15.9902456,33.1679532 14.840857,34 13.5450006,34 L9.98565617,34 L8.96396738,22.7067217 L11.7391577,19.7112738 L13.4982976,14.1022387 C13.890625,12.851299 15.0497993,12 16.3608183,12 L29.6392455,12 Z" id="合并形状" fill="#00A2FB" fill-rule="nonzero"></path>
        <g id="分组-3" transform="translate(23.000000, 20.000000)" stroke="#00A2FB" stroke-width="2">
            <polygon id="多边形-copy" points="8 0 14.9282032 4 14.9282032 12 8 16 1.07179677 12 1.07179677 4"></polygon>
            <line x1="8" y1="16" x2="8" y2="8" id="直线-2"></line>
            <line x1="8" y1="8" x2="14.9282032" y2="4" id="直线-2"></line>
            <path d="M1.07179677,8 C1.07179677,8 3.38119785,6.66666667 8,4" id="直线-2" transform="translate(4.535898, 6.000000) scale(-1, 1) translate(-4.535898, -6.000000) "></path>
        </g>
    </g>
</svg>