<?xml version="1.0" encoding="UTF-8"?>
<svg width="48px" height="48px" viewBox="0 0 48 48" version="1.1" xmlns="http://www.w3.org/2000/svg" xmlns:xlink="http://www.w3.org/1999/xlink">
    <!-- Generator: Sketch 53.2 (72643) - https://sketchapp.com -->
    <title>汽车租赁系统icon-48px</title>
    <desc>Created with Sketch.</desc>
    <g id="汽车租赁系统icon-48px" stroke="none" stroke-width="1" fill="none" fill-rule="evenodd">
        <path d="M37.2826087,30.0000383 L41.0352939,30.0000116 C41.7889491,30.0000063 42.3999031,29.3890436 42.3998977,28.6353884 C42.3998971,28.5538179 42.3925827,28.4724118 42.3780423,28.3921477 L42.3780423,28.3921477 L41.7449854,23.7899908 C41.6548949,23.1349369 41.1167764,22.6281191 40.4478448,22.5683952 L34.1851464,22.0088518 C33.8516906,21.9798249 33.5390001,21.8373942 33.3005634,21.6061333 L28.9762231,17.4082854 C28.706679,17.1466455 28.3434085,17 27.9647863,17 L14.8401063,17 C14.3258233,17 13.850566,17.2699105 13.5932225,17.708018 L11.5904679,21.1176064 C11.4309715,21.3891074 11.1846166,21.6008846 10.8898633,21.7198551 L8.54961307,22.6641443 C8.00882813,22.882363 7.65565751,23.400553 7.65565751,23.9758425 L7.65565751,27.6014229 L7.65218317,28.5773633 C7.64935522,29.3622032 8.29501673,30 9.09241798,30 C10.2907149,30 11.6678403,30.0000128 13.2237943,30.0000383" id="Stroke-60-Copy" stroke="#00A4FF" stroke-width="2"></path>
        <path d="M18.8913043,30 L31.1521739,30" id="直线-5" stroke="#00A4FF" stroke-width="2"></path>
        <circle id="椭圆形-copy-3" fill="#00A4FF" cx="23.9565217" cy="2" r="2"></circle>
        <path d="M18.8913043,30.0000383 C18.8913043,31.6569107 17.5189567,33 15.826087,33 C14.1332172,33 12.7608696,31.6569107 12.7608696,30.0000383 C12.7608696,28.3430893 14.1332172,27 15.826087,27 C17.5189567,27 18.8913043,28.3430893 18.8913043,30.0000383 Z" id="Stroke-54-Copy-2" stroke="#00A4FF" stroke-width="2"></path>
        <path d="M37.2826087,30.0000383 C37.2826087,31.6569107 35.910261,33 34.2173913,33 C32.5245216,33 31.1521739,31.6569107 31.1521739,30.0000383 C31.1521739,28.3430893 32.5245216,27 34.2173913,27 C35.910261,27 37.2826087,28.3430893 37.2826087,30.0000383 Z" id="Stroke-54-Copy-3" stroke="#00A4FF" stroke-width="2"></path>
        <path d="M11.3657801,21.5 L24,21.5" id="直线-copy" stroke="#00A4FF" stroke-width="2" stroke-linecap="round"></path>
        <ellipse id="椭圆形-copy-4" fill="#00A4FF" cx="5" cy="35.9574468" rx="2" ry="1.95744681"></ellipse>
        <g id="分组-2-copy" transform="translate(1.521739, 2.000000)" stroke="#00A2FB" stroke-width="2">
            <path d="M37.4782609,38.4087668 C33.3133799,42.6643819 27.5123448,45.2097188 21.1785697,44.9864228 C13.0263397,44.6989144 6.06061772,39.897679 2.47826087,33" id="Stroke-1"></path>
            <path d="M28.4782609,1 C34.0479883,2.58425532 39.0055213,6.49026541 41.9324141,12.2634788 C45.6994862,19.6942575 45.1462753,28.3325247 41.1950835,35" id="Stroke-3"></path>
            <path d="M1.24739948,28 C-0.29639713,22.2797946 0.44521918,15.9618263 3.82224684,10.5281885 C8.16881037,3.53449472 15.7782955,-0.219447022 23.4782609,0.00992369279" id="Stroke-7"></path>
        </g>
        <circle id="椭圆形-copy-5" fill="#00A4FF" cx="43" cy="36" r="2"></circle>
    </g>
</svg>