<?xml version="1.0" encoding="UTF-8"?>
<svg width="48px" height="48px" viewBox="0 0 48 48" version="1.1" xmlns="http://www.w3.org/2000/svg" xmlns:xlink="http://www.w3.org/1999/xlink">
    <!-- Generator: Sketch 62 (91390) - https://sketch.com -->
    <title>汽车潜客数据洞察服务-48px</title>
    <desc>Created with Sketch.</desc>
    <g id="产品图标" stroke="none" stroke-width="1" fill="none" fill-rule="evenodd">
        <g id="汽车潜客数据洞察服务-48px" fill="#00A4FF">
            <g id="编组">
                <path d="M21.4,1.5 C34,-0.2 45.5,8.7 47.2,21.3 L47.2,21.3 L45.2,21.3 C43.7,11 34.8,3.3 24.4,3.3 C12.8,3.3 3.4,12.7 3.4,24.3 C3.4,35.9 12.8,45.3 24.4,45.3 C34.8,45.3 43.7,37.6 45.2,27.3 L45.2,27.3 L47.2,27.3 C45.8,37.6 37.7,45.7 27.4,47.1 C14.8,48.8 3.3,39.9 1.6,27.3 C-0.1,14.7 8.8,3.2 21.4,1.5 Z M38,22 L38.0000024,26.5522282 C37.9787173,27.5906362 37.7126254,28.0931214 37.3053628,28.6247195 C37.2778976,28.6605697 37.24935,28.6954854 37.2196923,28.729496 C37.2617987,28.7730363 37.2958012,28.8008211 37.3217,28.8128505 C39.6322203,29.8860356 40,31.2817681 40,32.0506194 L40,32.0506194 L40,33 C40,34.1795129 39.1362303,34.9877534 37.9719752,35 C37.1958051,35.0081644 34.6899431,35.0040822 30.4543893,34.9877534 C29.2399452,34.9877534 28.0014921,34.1933615 28.0014921,32.9828202 L28.0014921,32.9828202 L28.0014921,32 C28.0014921,30.6281333 29.3269093,29.3057161 30.7324913,28.6726639 L30.7324913,28.6726639 L30.8070769,28.6403551 L30.7496531,28.5666008 C30.4201332,28.1136409 30.0565871,27.3261575 30.0003599,26.565738 L30.0003599,26.565738 L30.0003599,25.1133991 C30.0003599,23.4102405 31.5763727,22.0541703 33.3425091,22.0014221 L33.3425091,22.0014221 L38,22 Z M36,24 L33.3937215,24.0015965 C32.7000134,24.0226093 32.0615124,24.5165534 32,25.1133991 L32,25.1133991 L32,26.565738 C32,27.131476 32.3671221,27.458704 32.6835606,27.729352 C33,28 33.3287797,28.8472773 33.1474106,29.2941278 C32.99751,29.6634396 32.6904558,29.9423568 32.3163123,30.0611302 L32.3163123,30.0611302 L31.7367368,30.245628 C30.9367415,30.5256304 30,31.5105511 30,32.0506194 L30,32.0506194 L30.0003599,32.6369632 C30.0096064,32.8269601 30.1994676,33 30.4543893,33 L30.4543893,33 L37.7448913,33 L37.8243107,32.9828202 C37.9600293,32.9463337 37.9927543,32.8935698 37.9988149,32.7490319 L37.9988149,32.7490319 L38,32.6812482 L38,32.0526987 C38,31.5741393 37.7558237,31.1931226 37.2869138,30.8555422 C37.1356588,30.7466498 36.9705425,30.6498872 36.789072,30.5593587 L36.789072,30.5593587 L36.3202886,30.3408705 C36.2775957,30.3211097 36.2422593,30.3059358 36.2000922,30.2894061 L36.2000922,30.2894061 L35.9094263,30.1812473 C35.8452945,30.1558673 35.7845799,30.1294592 35.7170498,30.0971943 C35.3118033,29.9035739 35.1187321,29.6951539 34.9520985,29.3268005 C34.7060655,28.78293 34.851557,28.1071026 35.4257785,27.729352 C36,27.3516013 36,27.131476 36,26.565738 L36,26.565738 L36,24 Z M32.4999986,14 L33.6996783,19.999 L33.6934342,20 L31.7218314,20.2835845 L31.7136783,20.285 L30.9999986,16 L15.9999986,16 L14.9999986,22 L28.4996783,22 L28,24 L14.4999986,24 L13.9999986,27 L13.9999986,28 L27.4976783,28 L26.3080634,30 L15.9999987,30 L14.9999987,32 L12.9999987,32 L12.9999987,30 L11.9999986,30 L11.9999986,27 L12.4106783,24.532 L10.3786783,22.5 L12.4999986,20.3786797 L13.1036783,20.982 L14.4999986,14 L32.4999986,14 Z" id="形状结合"></path>
            </g>
        </g>
    </g>
</svg>