<svg id="图层_1" data-name="图层 1" xmlns="http://www.w3.org/2000/svg" width="48" height="48" viewBox="0 0 48 48"><defs><style>.cls-1{fill:#00a4ff;}</style></defs><title>48px，00A4FF，描边2px_9</title><path class="cls-1" d="M24,2.49A34,34,0,0,1,44,8.92c0,.23,0,.47,0,.7A41.75,41.75,0,0,1,24,45.08,41.78,41.78,0,0,1,4,9.64c0-.24,0-.47,0-.7v0A34.06,34.06,0,0,1,24,2.49m0-2A36.29,36.29,0,0,0,2.25,7.73L2,7.89v.27c0,.49,0,1,0,1.48a43.62,43.62,0,0,0,21.7,37.6l.28.16.28-.16A43.64,43.64,0,0,0,46,9.62c0-.49,0-1,0-1.46V7.89l-.21-.16A36.29,36.29,0,0,0,24,.49Z"/><path class="cls-1" d="M25,20.58a7.15,7.15,0,1,1,7.15-7.15A7.16,7.16,0,0,1,25,20.58Zm0-12.3a5.15,5.15,0,1,0,5.15,5.15A5.16,5.16,0,0,0,25,8.28Z"/><path class="cls-1" d="M12.11,31.62v-1a11.36,11.36,0,0,1,3.23-8.5c3.78-3.66,9.43-3.53,9.67-3.53l-.06,2c-.05,0-5.07-.1-8.22,3a9.06,9.06,0,0,0-2.59,6.06H27.3v2Z"/><rect class="cls-1" x="29.07" y="25.28" width="8.67" height="2"/><rect class="cls-1" x="32.4" y="21.95" width="2" height="8.67"/></svg>