<svg id="图层_1" data-name="图层 1" xmlns="http://www.w3.org/2000/svg" width="48" height="48" viewBox="0 0 48 48"><defs><style>.cls-1{opacity:0;}.cls-2{fill:#00a4ff;}</style></defs><title>48px，00A4FF，描边2px 副本 10</title><g class="cls-1"><rect class="cls-2" width="48" height="48"/></g><path class="cls-2" d="M46,8.12V7.86L45.8,7.7a36.36,36.36,0,0,0-43.6,0L2,7.86v.26c0,.49,0,1,0,1.49A43.71,43.71,0,0,0,23.71,47.29l.28.16.28-.16A43.73,43.73,0,0,0,46,9.59Q46,8.86,46,8.12Zm-22,37A41.86,41.86,0,0,1,4,9.61c0-.24,0-.48,0-.71v0A34.37,34.37,0,0,1,44,8.88c0,.24,0,.47,0,.71A41.84,41.84,0,0,1,24,45.13Z"/><rect class="cls-2" x="13.02" y="12.9" width="2" height="15.01"/><rect class="cls-2" x="19.45" y="16.17" width="2" height="11.73"/><path class="cls-2" d="M30,29.88a6,6,0,1,1,4.29-1.8A6,6,0,0,1,30,29.88Zm0-10a4,4,0,1,0,4,4A4,4,0,0,0,30,19.88Z"/><line class="cls-2" x1="35.65" y1="29.71" x2="33.43" y2="27.49"/><rect class="cls-2" x="33.54" y="27.03" width="2" height="3.13" transform="translate(-10.11 32.79) rotate(-44.99)"/><rect class="cls-2" x="28.97" y="20.89" width="2" height="3.39"/><rect class="cls-2" x="28.94" y="25.19" width="2" height="1.66"/><path class="cls-2" d="M34.31,18.05V14.53h-2v2.31A6.06,6.06,0,0,1,34.31,18.05Z"/><path class="cls-2" d="M28.05,16.73V9.81h-2v7.94A5.93,5.93,0,0,1,28.05,16.73Z"/></svg>