<svg id="图层_1" data-name="图层 1" xmlns="http://www.w3.org/2000/svg" width="48" height="48" viewBox="0 0 48 48"><defs><style>.cls-1{fill:#00a4ff;}</style></defs><title>48px，00A4FF，描边2px 副本 17</title><path class="cls-1" d="M24,2.44A34.09,34.09,0,0,1,44,8.88v.71A41.81,41.81,0,0,1,24,45.12,41.84,41.84,0,0,1,4,9.61c0-.24,0-.47,0-.71v0A34,34,0,0,1,24,2.44m0-2A36.28,36.28,0,0,0,2.21,7.7L2,7.86v.27c0,.48,0,1,0,1.48A43.7,43.7,0,0,0,23.71,47.28l.28.16.28-.16A43.68,43.68,0,0,0,46,9.59c0-.49,0-1,0-1.46V7.86l-.22-.16A36.28,36.28,0,0,0,24,.44Z"/><polygon class="cls-1" points="26.63 32.29 21.11 15.76 16.89 27.8 14.2 21.46 8.99 21.46 8.99 19.46 15.52 19.46 16.71 22.26 21.15 9.57 26.58 25.82 30.56 13.22 33.84 19.65 38.85 19.65 38.85 21.65 32.62 21.65 31 18.47 26.63 32.29"/></svg>