<svg xmlns="http://www.w3.org/2000/svg" width="48" height="48" viewBox="0 0 48 48">
  <title>CMQ48</title>
  <g>
    <polygon points="10.019 27.556 10.019 25.556 8.009 25.556 8.009 35.931 30.033 35.931 36.03 42.607 36.03 39.987 31.014 33.931 10.009 33.931 10.009 27.556 10.019 27.556" style="fill: #00a4ff"/>
    <path d="M40.009,35.931V25.556H26.3l4.714-4.563,0-2.045H9.99V12.573h28v6.375h-.021v2H39.99V10.573h-32V20.948l13.12.025-4.078,3.841-.013,2.742h20.99v4.829h.022v3.546ZM23.871,20.979l4.232.008-4.409,4.569H19.1Z" style="fill: #00a4ff"/>
    <polygon points="43.37 4.01 46.047 4.01 46.047 2.01 8.352 2.01 8.237 2.128 1.906 8.456 1.906 8.471 1.906 38.497 9.375 45.965 9.376 45.963 9.376 45.964 37.989 45.964 38.561 45.964 46 38.497 46 7.976 46 7.961 44 7.969 44 37.728 37.766 43.959 37.768 43.964 10.138 43.964 10.14 43.959 3.906 37.728 3.906 9.228 9.124 4.01 41.605 4.01 43.37 4.01" style="fill: #00a4ff"/>
  </g>
</svg>
