<?xml version="1.0" encoding="utf-8"?>
<!-- Generator: Adobe Illustrator 23.0.3, SVG Export Plug-In . SVG Version: 6.00 Build 0)  -->
<svg version="1.1" id="图层_1" xmlns="http://www.w3.org/2000/svg" xmlns:xlink="http://www.w3.org/1999/xlink" x="0px" y="0px"
	 width="48px" height="48px" viewBox="0 0 48 48" style="enable-background:new 0 0 48 48;" xml:space="preserve">
<g>
	<polygon style="fill:#00A4FF;" points="43.328,4.002 46,4.002 46,2 8.42,2 8.31,2.12 2,8.456 2,8.466 2,38.523 9.446,46 
		9.446,45.99 9.446,45.99 37.966,45.99 38.534,45.99 45.95,38.523 45.95,7.965 45.95,7.955 43.957,7.965 43.957,37.753 
		37.746,43.988 37.746,43.988 10.204,43.988 10.204,43.988 3.994,37.753 3.994,9.227 9.197,4.002 41.564,4.002 	"/>
	<g>
		<circle style="fill:#00A4FF;" cx="11.201" cy="30.46" r="3"/>
		<path style="fill:#00A4FF;" d="M16.138,31.048c-0.07,0.686-0.284,1.349-0.628,1.947l8.435,4.87l12.687-7.374l0.002-6.003
			l-10.167-5.87l-9.883,5.737l-3.421-1.975l0.004-3.727l10.718-6.225l7.794,4.5c0.062-0.688,0.273-1.354,0.619-1.952l-8.426-4.865
			l-12.688,7.397l0.003,5.995l3.464,2l0,0l1.983,1.145l0,0l4.746,2.74l9.872-5.778l3.464,2l0.002,3.696l-10.778,6.248L16.138,31.048
			z M21.329,27.117l-2.754-1.59l7.932-4.658l2.754,1.59L21.329,27.117z"/>
		<circle style="fill:#00A4FF;" cx="36.637" cy="17.503" r="3"/>
	</g>
</g>
</svg>
