<svg xmlns="http://www.w3.org/2000/svg" width="50.5" height="50.5" viewBox="0 0 50.5 50.5">
  <title>48</title>
  <g>
    <polygon points="47.25 3.25 9.25 3.25 3.25 9.25 3.25 41.25 9.25 47.25 41.25 47.25 47.25 41.25 47.25 11.25 45.25 11.25 45.25 40.25 40.25 45.25 10.25 45.25 5.25 40.25 5.25 10.25 10.25 5.25 47.25 5.25 47.25 3.25" style="fill: #00a4ff"/>
    <path d="M32.95,30.45l-2.4,4.1H19.85l-5.3-9.3,5.3-9.2h10.7l2.6,4.5a6.391,6.391,0,0,1,1.9-.8l-3.3-5.7h-13l-6.5,11.3,6.5,11.3h13l3-5.2A7.677,7.677,0,0,1,32.95,30.45Z" style="fill: #00a4ff"/>
    <g>
      <path d="M21.65,26.25v-2h14.5v2Z" style="fill: #00a4ff"/>
      <circle cx="36.15" cy="25.25" r="3" style="fill: #00a4ff"/>
    </g>
    <polygon points="25.95 36.35 27.15 34.35 21.95 25.35 27.25 15.95 25.95 14.35 19.55 25.35 25.95 36.35" style="fill: #00a4ff"/>
  </g>
</svg>
