<?xml version="1.0" encoding="utf-8"?>
<!-- Generator: Adobe Illustrator 21.0.0, SVG Export Plug-In . SVG Version: 6.00 Build 0)  -->
<svg version="1.1" id="图层_1" xmlns="http://www.w3.org/2000/svg" xmlns:xlink="http://www.w3.org/1999/xlink" x="0px" y="0px"
	 width="48px" height="48px" viewBox="0 0 48 48" style="enable-background:new 0 0 48 48;" xml:space="preserve">
<style type="text/css">
	.st0{fill:#00A4FF;}
</style>
<g>
	
		<rect x="27.6" y="32.9" transform="matrix(-1.836970e-16 1 -1 -1.836970e-16 64.7396 7.6042)" class="st0" width="2" height="6.6"/>
	<rect x="27.6" y="32.9" class="st0" width="2" height="6.6"/>
</g>
<g>
	<g>
		<rect x="34.8" y="35.2" class="st0" width="2" height="2"/>
		<rect x="39.4" y="35.2" class="st0" width="2" height="2"/>
	</g>
	<g>
		<rect x="37.1" y="37.5" class="st0" width="2" height="2"/>
		<rect x="37.1" y="32.9" class="st0" width="2" height="2"/>
	</g>
</g>
<path class="st0" d="M17.8,43.8c-8-0.8-13-3.7-13-5.8v-5.4c2.5,2.1,7.3,3.7,13,4.3v-2c-8-0.8-13-3.7-13-5.8v-6.4
	c0.8,0.6,1.7,1.2,2.9,1.8c0,0,0.1,0,0.1,0.1c0.3,0.1,0.5,0.2,0.8,0.3C9,24.9,9.3,25,9.7,25.2c0,0,0.1,0,0.1,0c2.3,0.8,5,1.4,8,1.6
	v-2c-3.4-0.3-6.3-1-8.5-1.9c-2.5-1-4.1-2.3-4.4-3.4c0-0.1,0-0.1,0-0.2c0-0.1,0-0.2,0-0.3v-5.4c3.1,2.6,9.5,4.4,17,4.4
	s13.9-1.8,17-4.4V19c0,0,0,0,0,0.1h0c0,0.1,0,0.2-0.1,0.4c0,0.1-0.1,0.2-0.1,0.3c0,0,0,0,0,0c-0.4,0.7-1.2,1.5-2.5,2.3h0
	c-1.5,0.9-3.7,1.6-6.3,2.2h6.4c1-0.5,1.9-1,2.6-1.6v1.6h2V22v-0.2V10c0-4.4-8.5-8-19-8s-19,3.6-19,8v28c0,3.8,6.4,7,15,7.8V43.8z
	 M21.8,4c10.4,0,17,3.6,17,6c0,2.4-6.6,6-17,6s-17-3.6-17-6C4.8,7.6,11.5,4,21.8,4z"/>
<g>
	<polygon class="st0" points="22.8,29.3 22.8,29.3 43.8,29.3 43.8,39.9 45.8,39.9 45.8,27.3 20.8,27.3 20.8,29.3 	"/>
	<polygon class="st0" points="43.8,43.3 43.8,43.3 22.8,43.3 22.8,32.8 20.8,32.8 20.8,45.3 45.8,45.3 45.8,43.3 	"/>
</g>
</svg>
