<?xml version="1.0" encoding="UTF-8"?>
<svg width="48px" height="48px" viewBox="0 0 48 48" version="1.1" xmlns="http://www.w3.org/2000/svg" xmlns:xlink="http://www.w3.org/1999/xlink">
    <title>游戏玩家匹配 GPM-48px-蓝色</title>
    <g id="游戏玩家匹配-GPM-48px-蓝色" stroke="none" stroke-width="1" fill="none" fill-rule="evenodd">
        <g id="编组">
            <rect id="矩形" x="0" y="0" width="48" height="48"></rect>
            <path d="M4,15 L4,41 L42.2,41 C42.6,39.8 43.7,39 45,39 C46.7,39 48,40.3 48,42 C48,43.7 46.7,45 45,45 C43.7,45 42.6,44.2 42.2,43 L42.2,43 L2,43 L2,15 L4,15 Z M35.0681937,17.1756568 C38.1641413,22.1873516 37.5388728,28.8459035 33.1923882,33.1923882 C28.8459035,37.5388728 22.1873516,38.1641413 17.1756568,35.0681937 L18.6369631,33.6072821 C22.8249172,35.9479448 28.2181069,35.3382423 31.7781746,31.7781746 C35.3382423,28.2181069 35.9479448,22.8249172 33.6072821,18.6369631 L35.0681937,17.1756568 Z M14.8076118,31.7781746 L19.7573593,32.4852814 L15.5147186,36.7279221 L14.8076118,31.7781746 Z M3,3 C4.3,3 5.4,3.8 5.8,5 L5.8,5 L46,5 L46,33 L44,33 L44,7 L5.8,7 C5.4,8.2 4.3,9 3,9 C1.3,9 0,7.7 0,6 C0,4.3 1.3,3 3,3 Z M24,18 C27.3137085,18 30,20.6862915 30,24 C30,27.3137085 27.3137085,30 24,30 C20.6862915,30 18,27.3137085 18,24 C18,20.6862915 20.6862915,18 24,18 Z M24,20 C21.790861,20 20,21.790861 20,24 C20,26.209139 21.790861,28 24,28 C26.209139,28 28,26.209139 28,24 C28,21.790861 26.209139,20 24,20 Z M16.2218254,16.2218254 C12.6615013,19.7821495 12.0519674,25.1758595 14.3932236,29.3639416 L12.9323482,30.8252204 C9.83578573,25.8134254 10.4608736,19.1543501 14.8076118,14.8076118 C19.1543501,10.4608736 25.8134254,9.83578573 30.8252204,12.9323482 L32.4852814,11.2720779 L33.1923882,16.2218254 L28.2426407,15.5147186 L29.3639416,14.3932236 C25.1758595,12.0519674 19.7821495,12.6615013 16.2218254,16.2218254 Z" id="形状结合" fill="#00A4FF"></path>
        </g>
    </g>
</svg>