<svg id="图层_1" data-name="图层 1" xmlns="http://www.w3.org/2000/svg" width="48" height="48" viewBox="0 0 48 48"><defs><style>.cls-1{fill:#00a4ff;}</style></defs><title>48px，00A4FF，描边2px 副本</title><path class="cls-1" d="M24,2.5A34,34,0,0,1,44,8.92c0,.24,0,.47,0,.7A41.71,41.71,0,0,1,24,45.06,41.75,41.75,0,0,1,4,9.64c0-.23,0-.47,0-.7v0A34,34,0,0,1,24,2.5m0-2A36.18,36.18,0,0,0,2.26,7.74l-.21.16v.26c0,.49,0,1,0,1.48a43.6,43.6,0,0,0,21.7,37.59l.27.16.28-.16A43.61,43.61,0,0,0,46,9.63q0-.74,0-1.47V7.9l-.21-.16A36.18,36.18,0,0,0,24,.5Z"/><path class="cls-1" d="M24,33.48a11.91,11.91,0,0,1-3.86-23.17,12,12,0,0,1,7.57-.05A11.87,11.87,0,0,1,35.9,21.49h0a11.92,11.92,0,0,1-11.82,12Zm0-21.81h-.07a9.45,9.45,0,0,0-3.14.53A9.9,9.9,0,0,0,17,28.62a9.75,9.75,0,0,0,7,2.86,9.92,9.92,0,0,0,9.83-10h0a9.88,9.88,0,0,0-6.82-9.34A9.64,9.64,0,0,0,24,11.67Z"/><rect class="cls-1" x="13.94" y="11.34" width="2" height="2.96" transform="translate(-4.67 14.46) rotate(-45.4)"/><rect class="cls-1" x="32.06" y="29.2" width="2" height="2.96" transform="translate(-12 32.67) rotate(-45.4)"/><rect class="cls-1" x="13.65" y="10.99" width="2" height="3.05" transform="translate(-4.55 14.16) rotate(-45.4)"/><rect class="cls-1" x="32.35" y="29.44" width="2" height="3.05" transform="translate(-12.12 32.97) rotate(-45.39)"/><rect class="cls-1" x="9.34" y="20.84" width="3.05" height="2" transform="translate(-0.15 0.07) rotate(-0.39)"/><rect class="cls-1" x="35.61" y="20.65" width="3.05" height="2" transform="translate(-0.15 0.25) rotate(-0.39)"/><rect class="cls-1" x="13.25" y="30.1" width="3.05" height="2" transform="translate(-17.74 19.78) rotate(-45.4)"/><rect class="cls-1" x="31.7" y="11.39" width="3.05" height="2" transform="translate(1.07 27.34) rotate(-45.4)"/><rect class="cls-1" x="23" y="10.66" width="2" height="21.31" transform="translate(-0.15 0.17) rotate(-0.4)"/><path class="cls-1" d="M19.58,12.62l-.11-1.28a1.34,1.34,0,0,1,0-.2,4.47,4.47,0,0,1,4.44-4.5,4.6,4.6,0,0,1,3.16,1.28,4.41,4.41,0,0,1,1.33,3.15v.2l-.09,1.3-1.22-.41a9.27,9.27,0,0,0-3.15-.49,9.45,9.45,0,0,0-3.14.53Zm4.35-4h0a2.42,2.42,0,0,0-1.74.73,2.28,2.28,0,0,0-.38.5,11.48,11.48,0,0,1,2.13-.2,11.63,11.63,0,0,1,2.13.17,2.63,2.63,0,0,0-.39-.49A2.45,2.45,0,0,0,23.93,8.64Z"/></svg>