<?xml version="1.0" encoding="utf-8"?>
<!-- Generator: Adobe Illustrator 23.0.1, SVG Export Plug-In . SVG Version: 6.00 Build 0)  -->
<svg version="1.1" id="图层_1" xmlns="http://www.w3.org/2000/svg" xmlns:xlink="http://www.w3.org/1999/xlink" x="0px" y="0px"
	 width="48px" height="48px" viewBox="0 0 48 48" style="enable-background:new 0 0 48 48;" xml:space="preserve">
<style type="text/css">
	.st0{fill:#00A4FF;}
</style>
<path class="st0" d="M24.1,45c-11.6,0-21-9.4-21-21s9.4-21,21-21c10.58,0,19.3,7.83,20.76,18h2.04C45.43,9.72,35.79,1,24.1,1
	c-12.7,0-23,10.3-23,23s10.3,23,23,23c11.69,0,21.33-8.72,22.8-20h-2.04C43.4,37.17,34.68,45,24.1,45z"/>
<g>
	<polygon class="st0" points="25,19.5 21,28.5 23,28.5 27,19.5 	"/>
	<polygon class="st0" points="34.94,17.97 24,12 13,17.97 13,17.97 13,20.16 13,20.16 13,20.16 14.55,21 17,22.34 17,22.34 
		17.18,22.43 19.19,21.35 19,21.25 19,21.25 17,20.16 15,19.07 24,14.18 33,19.09 33,19.1 33,19.89 33,20.18 33,21 33,23.52 
		35,24.63 35,21 35,20.19 35,19.9 35,19.09 35,19.03 35,18 35,17.97 	"/>
	<polygon class="st0" points="33.45,27 31,25.66 31,25.66 30.82,25.57 28.81,26.65 29,26.75 29,26.75 31,27.84 33,28.93 24,33.82 
		15,28.91 15,28.9 15,28.11 15,27.82 15,27 15,24.48 13,23.37 13,27 13,27.81 13,28.1 13,28.91 13,28.97 13,30 13,30.03 
		13.06,30.03 24,36 35,30.03 35,30.03 35,27.84 35,27.84 35,27.84 	"/>
</g>
</svg>
