<?xml version="1.0" encoding="utf-8"?>
<!-- Generator: Adobe Illustrator 19.0.0, SVG Export Plug-In . SVG Version: 6.00 Build 0)  -->
<svg version="1.1" id="图层_1" xmlns="http://www.w3.org/2000/svg" xmlns:xlink="http://www.w3.org/1999/xlink" x="0px" y="0px"
	 width="48px" height="48px" viewBox="0 0 48 48" style="enable-background:new 0 0 48 48;" xml:space="preserve">
<style type="text/css">
	.st0{fill:#00A4FF;}
</style>
<g id="XMLID_327_">
	<g id="icon_1_">
		<path id="XMLID_7_" class="st0" d="M24.02,1.906C11.87,1.893,2.01,11.732,1.997,23.883c-0.013,12.15,9.826,22.01,21.977,22.023
			C34.937,45.918,44.236,37.855,45.778,27h2.129C46.25,40.151,34.246,49.469,21.095,47.812S-1.373,34.151,0.284,21
			C1.94,7.849,13.945-1.469,27.095,0.188C37.971,1.558,46.537,10.124,47.907,21h-2.1C44.357,10.074,35.042,1.91,24.02,1.906z"/>
	</g>
</g>
<g>
	<g>
		<path class="st0" d="M38,34H10V13h21.414L38,19.586V34z M12,32h24V20.414L30.586,15H12V32z"/>
	</g>
	<g>
		<polygon class="st0" points="27,33 25,33 25,20 17,20 17,29 15,29 15,18 27,18 		"/>
	</g>
	<g>
		<rect x="20" y="24" class="st0" width="2" height="8"/>
	</g>
</g>
<circle class="st0" cx="21" cy="24" r="2"/>
<circle class="st0" cx="16" cy="28" r="2"/>
</svg>
