<?xml version="1.0" encoding="utf-8"?>
<!-- Generator: Adobe Illustrator 19.0.0, SVG Export Plug-In . SVG Version: 6.00 Build 0)  -->
<svg version="1.1" id="图层_1" xmlns="http://www.w3.org/2000/svg" xmlns:xlink="http://www.w3.org/1999/xlink" x="0px" y="0px"
	 width="48px" height="48px" viewBox="0 0 48 48" style="enable-background:new 0 0 48 48;" xml:space="preserve">
<style type="text/css">
	.st0{fill:#00A4FF;}
</style>
<g id="XMLID_2_">
	<g id="XMLID_327_">
		<g id="icon_1_">
			<path id="XMLID_7_" class="st0" d="M24.02,1.906C11.87,1.893,2.01,11.732,1.997,23.883c-0.013,12.15,9.826,22.01,21.977,22.023
				C34.937,45.918,44.236,37.855,45.778,27h2.129C46.25,40.151,34.246,49.469,21.095,47.812S-1.373,34.151,0.284,21
				C1.94,7.849,13.945-1.469,27.095,0.188C37.971,1.558,46.537,10.124,47.907,21h-2.1C44.357,10.074,35.042,1.91,24.02,1.906z"/>
		</g>
	</g>
	<g id="XMLID_34_">
		<g id="XMLID_35_">
			<circle id="XMLID_6_" class="st0" cx="29.05" cy="24" r="2"/>
		</g>
		<g id="XMLID_36_">
			<circle id="XMLID_3_" class="st0" cx="19.05" cy="24" r="2"/>
		</g>
		<g id="XMLID_33_">
			<polygon id="XMLID_5_" class="st0" points="19.05,35.313 7.737,24 19.05,12.687 29.657,23.293 28.243,24.707 19.05,15.515 
				10.565,24 19.05,32.485 23.243,28.293 24.657,29.707 			"/>
		</g>
		<g id="XMLID_1_">
			<polygon id="XMLID_4_" class="st0" points="28.95,35.313 18.343,24.707 19.757,23.293 28.95,32.485 37.436,24 28.95,15.515 
				24.757,19.707 23.343,18.293 28.95,12.687 40.264,24 			"/>
		</g>
	</g>
</g>
</svg>
