<?xml version="1.0" encoding="UTF-8"?>
<svg width="48px" height="48px" viewBox="0 0 48 48" version="1.1" xmlns="http://www.w3.org/2000/svg" xmlns:xlink="http://www.w3.org/1999/xlink">
    <!-- Generator: Sketch 52.2 (67145) - http://www.bohemiancoding.com/sketch -->
    <title>物联网边缘智能数据处理-48px</title>
    <desc>Created with Sketch.</desc>
    <g id="物联网边缘智能数据处理-48px" stroke="none" stroke-width="1" fill="none" fill-rule="evenodd">
        <rect id="Rectangle-Copy" fill="#444444" opacity="0" x="0" y="0" width="48" height="48"></rect>
        <g id="137181528fd7f16db8726788caa3233e" transform="translate(1.000000, 0.000000)" fill="#00A4FF">
            <g id="XMLID_327_">
                <g id="icon_1_">
                    <path d="M23.0592,2.78976 C11.3952,2.77728 1.9296,12.22272 1.91712,23.88768 C1.90464,35.55168 11.35008,45.01728 23.01504,45.02976 C33.53952,45.04128 42.46656,37.3008 43.94688,26.88 L45.99072,26.88 C44.4,39.50496 32.87616,48.45024 20.2512,46.85952 C7.62624,45.2688 -1.31808,33.74496 0.27264,21.12 C1.8624,8.49504 13.3872,-0.45024 26.0112,1.14048 C36.45216,2.45568 44.67552,10.67904 45.99072,21.12 L43.97472,21.12 C42.58272,10.63104 33.64032,2.7936 23.0592,2.78976 Z" id="XMLID_7_"></path>
                </g>
            </g>
            <g id="XMLID_34_" transform="translate(8.500000, 3.000000)">
                <g id="XMLID_36_" transform="translate(0.600000, 0.600000)">
                    <g id="分组">
                        <circle id="XMLID_3_" cx="13.9" cy="16" r="2"></circle>
                        <circle id="XMLID_3_-Copy" cx="3" cy="13" r="2"></circle>
                        <circle id="XMLID_3_-Copy-3" cx="3" cy="28" r="2"></circle>
                        <circle id="XMLID_3_-Copy-4" cx="25" cy="28" r="2"></circle>
                        <circle id="XMLID_3_-Copy-5" cx="13.9" cy="25" r="2"></circle>
                        <circle id="XMLID_3_-Copy-2" cx="25" cy="13" r="2"></circle>
                        <path d="M22.966356,35.1376522 L20.966356,37.1376522 L20.966356,35.1376522 L22.966356,35.1376522 Z M22.966356,35.1376522 L20.966356,37.1376522 L20.966356,35.1376522 L22.966356,35.1376522 Z M20.7992319,20.92 L22.7992319,18.92 L22.966356,37.1376522 L4.66001047,37.0592214 L6.66001047,35.0592214 L20.966356,35.1376522 L20.7992319,20.92 Z" id="Rectangle-Copy-5" fill-rule="nonzero" transform="translate(13.813183, 28.028826) scale(1, -1) rotate(45.000000) translate(-13.813183, -28.028826) "></path>
                        <path d="M22.966356,20.1376522 L20.966356,22.1376522 L20.966356,20.1376522 L22.966356,20.1376522 Z M22.966356,20.1376522 L20.966356,22.1376522 L20.966356,20.1376522 L22.966356,20.1376522 Z M20.7992319,5.92 L22.7992319,3.92 L22.966356,22.1376522 L4.66001047,22.0592214 L6.66001047,20.0592214 L20.966356,20.1376522 L20.7992319,5.92 Z" id="Rectangle-Copy-5" fill-rule="nonzero" transform="translate(13.813183, 13.028826) rotate(45.000000) translate(-13.813183, -13.028826) "></path>
                    </g>
                </g>
            </g>
        </g>
    </g>
</svg>