<?xml version="1.0" encoding="utf-8"?>
<!-- Generator: Adobe Illustrator 23.0.2, SVG Export Plug-In . SVG Version: 6.00 Build 0)  -->
<svg version="1.1" id="图层_1" xmlns="http://www.w3.org/2000/svg" xmlns:xlink="http://www.w3.org/1999/xlink" x="0px" y="0px"
	 width="48px" height="48px" viewBox="0 0 48 48" style="enable-background:new 0 0 48 48;" xml:space="preserve">
<path style="fill:#00A4FF;" d="M42,10v15c0,0.1-0.3,14.6-18,18.9C6.5,39.7,6,25.6,6,25.1V4h38V2H4v23.1c0,0,0.2,16.4,20,20.9
	c19.8-4.6,20-20.9,20-20.9V10H42z"/>
<rect x="11" y="12" style="fill:#00A4FF;" width="8" height="2"/>
<rect x="21" y="12" style="fill:#00A4FF;" width="6" height="2"/>
<rect x="21" y="24" style="fill:#00A4FF;" width="6" height="2"/>
<rect x="8" y="18" transform="matrix(-1.836970e-16 1 -1 -1.836970e-16 34 4)" style="fill:#00A4FF;" width="14" height="2"/>
<rect x="17" y="18" transform="matrix(-1.836970e-16 1 -1 -1.836970e-16 43 -5)" style="fill:#00A4FF;" width="14" height="2"/>
<rect x="23" y="18" transform="matrix(-1.836970e-16 1 -1 -1.836970e-16 49 -11)" style="fill:#00A4FF;" width="14" height="2"/>
<path style="fill:#00A4FF;" d="M35,26V12h0c1.105,0,2,0.895,2,2v10C37,25.105,36.105,26,35,26L35,26z"/>
<rect x="31" y="12" transform="matrix(-1 -1.224647e-16 1.224647e-16 -1 65.9997 26.0002)" style="fill:#00A4FF;" width="4" height="2"/>
<rect x="31" y="24" transform="matrix(-1 -1.224647e-16 1.224647e-16 -1 65.9997 50.0002)" style="fill:#00A4FF;" width="4" height="2"/>
</svg>
