<?xml version="1.0" encoding="UTF-8"?>
<svg width="46px" height="46px" viewBox="0 0 46 46" version="1.1" xmlns="http://www.w3.org/2000/svg" xmlns:xlink="http://www.w3.org/1999/xlink">
    <title>行业版-48-蓝</title>
    <g id="Welcome" stroke="none" stroke-width="1" fill="none" fill-rule="evenodd">
        <g id="行业版-48-蓝" transform="translate(0.000000, -1.000000)" fill-rule="nonzero">
            <path d="M23.1,45 C11.5,45 2.1,35.6 2.1,24 C2.1,12.4 11.5,3 23.1,3 C33.5,3 42.4,10.7 43.9,21 L45.9,21 C44.2,8.4 32.7,-0.5 20.1,1.2 C7.5,2.9 -1.4,14.4 0.3,27 C2,39.6 13.5,48.5 26.1,46.8 C36.4,45.4 44.5,37.3 45.9,27 L43.9,27 C42.4,37.3 33.5,45 23.1,45 Z" id="Shape" fill="#00A4FF"></path>
            <rect id="Rectangle-237" stroke="#00A4FF" stroke-width="2" x="11" y="16" width="17" height="16"></rect>
            <path d="M35,17.6091142 L28,21.0659044 L28,26.9340956 L35,30.3908858 L35,17.6091142 Z" id="Rectangle-237-Copy" stroke="#00A4FF" stroke-width="2"></path>
        </g>
    </g>
</svg>