<?xml version="1.0" encoding="UTF-8"?>
<svg width="48px" height="48px" viewBox="0 0 48 48" version="1.1" xmlns="http://www.w3.org/2000/svg" xmlns:xlink="http://www.w3.org/1999/xlink">
    <!-- Generator: Sketch 55.2 (78181) - https://sketchapp.com -->
    <title>48x48</title>
    <desc>Created with Sketch.</desc>
    <g id="48x48" stroke="none" stroke-width="1" fill="none" fill-rule="evenodd">
        <path d="M44.76,27 C43.297,37.16 34.558,45 24,45 C12.421,45 3,35.579 3,24 C3,12.421 12.421,3 24,3 C34.558,3 43.297,10.84 44.76,21 L46.798,21 C45.328,9.716 35.685,1 24,1 C11.297,1 1,11.297 1,24 C1,36.703 11.297,47 24,47 C35.685,47 45.328,38.284 46.799,27 L44.76,27 Z" id="Shape" fill="#00A4FF" fill-rule="nonzero"></path>
        <g id="编组-2" transform="translate(12.000000, 11.800000)" fill="#00A4FF" fill-rule="nonzero">
            <path d="M17.8950245,7.20205865 C18.6486255,5.87846332 20.0721926,4.98591549 21.7042254,4.98591549 C24.1233881,4.98591549 26.084507,6.94703441 26.084507,9.36619718 C26.084507,11.78536 24.1233881,13.7464789 21.7042254,13.7464789 C21.0407445,13.7464789 20.4117172,13.5989658 19.8481512,13.3349474 L13.6987029,19.4843957 C14.0520888,20.1161371 14.2535211,20.8444042 14.2535211,21.6197183 C14.2535211,24.0388811 12.2924022,26 9.87323944,26 C7.45407666,26 5.49295775,24.0388811 5.49295775,21.6197183 C5.49295775,20.0546389 6.31377502,18.6812717 7.54840947,17.9066167 L4.66925669,9.08921129 C4.57373434,9.0954324 4.47737694,9.09859155 4.38028169,9.09859155 C1.96111891,9.09859155 -1.24344979e-14,7.13747264 -1.24344979e-14,4.71830986 C-1.24344979e-14,2.29914708 1.96111891,0.338028169 4.38028169,0.338028169 C6.79151697,0.338028169 8.74770545,2.28631513 8.76050026,4.69454219 L17.8950245,7.20205865 Z M17.3306836,9.12112865 L8.31461852,6.64613039 C7.93295676,7.423565 7.3276483,8.07132788 6.58258744,8.50552471 L9.44134182,17.26046 C9.58342627,17.246554 9.72750168,17.2394366 9.87323944,17.2394366 C10.7919982,17.2394366 11.6446906,17.5223 12.3489808,18.0056907 L18.2696429,12.0850285 C17.6775347,11.3380529 17.3239437,10.3934179 17.3239437,9.36619718 C17.3239437,9.28395866 17.32621,9.20224946 17.3306836,9.12112865 Z M4.38028169,2.33802817 C3.06568841,2.33802817 2,3.40371658 2,4.71830986 C2,6.03290314 3.06568841,7.09859155 4.38028169,7.09859155 C5.69487497,7.09859155 6.76056338,6.03290314 6.76056338,4.71830986 C6.76056338,3.40371658 5.69487497,2.33802817 4.38028169,2.33802817 Z M9.87323944,19.2394366 C8.55864616,19.2394366 7.49295775,20.305125 7.49295775,21.6197183 C7.49295775,22.9343116 8.55864616,24 9.87323944,24 C11.1878327,24 12.2535211,22.9343116 12.2535211,21.6197183 C12.2535211,20.305125 11.1878327,19.2394366 9.87323944,19.2394366 Z M21.7042254,6.98591549 C20.3896321,6.98591549 19.3239437,8.05160391 19.3239437,9.36619718 C19.3239437,10.6807905 20.3896321,11.7464789 21.7042254,11.7464789 C23.0188186,11.7464789 24.084507,10.6807905 24.084507,9.36619718 C24.084507,8.05160391 23.0188186,6.98591549 21.7042254,6.98591549 Z" id="形状结合"></path>
        </g>
    </g>
</svg>