<svg id="图层_1" data-name="图层 1" xmlns="http://www.w3.org/2000/svg" width="48" height="48" viewBox="0 0 48 48"><defs><style>.cls-1{fill:#00a4ff;}.cls-2{fill:none;stroke:#00a4ff;stroke-miterlimit:10;stroke-width:2px;}</style></defs><title>48px，00A4FF，描边2px_8</title><path class="cls-1" d="M24,2.45a34,34,0,0,1,20,6.43c0,.23,0,.47,0,.7A41.77,41.77,0,0,1,24,45,41.77,41.77,0,0,1,4,9.6c0-.24,0-.47,0-.7v0A34,34,0,0,1,24,2.45m0-2A36.22,36.22,0,0,0,2.21,7.7L2,7.86v.26c0,.49,0,1,0,1.48a43.62,43.62,0,0,0,21.7,37.6l.28.16.28-.16A43.62,43.62,0,0,0,46,9.58c0-.48,0-1,0-1.46V7.86l-.21-.16A36.24,36.24,0,0,0,24,.45Z"/><circle class="cls-2" cx="23.96" cy="13.39" r="6.15"/><path class="cls-2" d="M23.94,19.54s-11.88-.36-11.88,11h14.2"/><path class="cls-2" d="M24,19.54s5.47-.16,9,3.29"/><line class="cls-2" x1="26.73" y1="26.18" x2="31.53" y2="30.98"/><line class="cls-2" x1="30.82" y1="30.27" x2="37.92" y2="23.17"/></svg>