<?xml version="1.0" encoding="UTF-8"?>
<svg width="48px" height="48px" viewBox="0 0 48 48" version="1.1" xmlns="http://www.w3.org/2000/svg" xmlns:xlink="http://www.w3.org/1999/xlink">
    <title>神笔48px</title>
    <g id="神笔48px" stroke="none" stroke-width="1" fill="none" fill-rule="evenodd">
        <g id="编组">
            <path d="M24,0 C36.2388596,0 46.3380354,9.16107518 47.8143211,21.0000192 L45.7972599,21.0007145 C44.3343909,10.2693129 35.1328962,2 24,2 C11.8497355,2 2,11.8497355 2,24 C2,36.1502645 11.8497355,46 24,46 C35.13255,46 44.3338187,37.7312014 45.7971234,27.0002866 L47.8141965,27.0009799 C46.3374672,38.8394402 36.2385153,48 24,48 C10.745166,48 2.58637556e-12,37.254834 2.58637556e-12,24 C2.58637556e-12,10.745166 10.745166,0 24,0 Z M23.6101707,11 C23.7888949,11.7552184 23.8128701,12.5703747 23.9589007,13.2405902 C24.082046,13.9282421 24.3316059,14.5646743 24.6214877,15.148797 C24.9484221,15.7176628 25.2851645,16.2636432 25.7483215,16.7006455 C25.9662777,16.92732 26.20385,17.1332886 26.4490508,17.3250901 L26.4490508,17.3250901 L26.8598983,17.6258697 C27.0386224,17.7533741 27.2118976,17.8906866 27.3775444,18.0345377 C28.7070774,19.1918853 29.5178747,20.9028418 29.59089,22.6116187 C29.6442893,23.5030598 29.4590265,24.234303 29.3522279,24.9808031 C29.2040177,25.7305726 29.0601666,26.4814318 28.8193249,27.2312013 C28.5806628,26.4814318 28.4368117,25.7305726 28.2875117,24.9808031 C28.1491095,24.2277643 28.0826328,23.4496605 27.9148065,22.8513706 C27.5715254,21.5850448 26.8675268,20.4919943 25.9368536,19.6692095 C25.820247,19.5667701 25.7025507,19.4643306 25.5772258,19.372789 L25.5772258,19.372789 L25.0900936,18.9935451 C24.7664286,18.6982144 24.4460329,18.3974348 24.1833957,18.0465253 C23.6581211,17.3523346 23.2363758,16.5753206 23.0282276,15.7438176 C22.9519429,15.4670132 22.9050823,15.1847598 22.8702093,14.9025065 C22.6282779,15.9214519 22.413591,16.8434068 22.4397457,17.77408 C22.4615414,18.8246291 22.6598815,19.8577416 23.0750882,20.7960433 C23.2821466,21.2635594 23.5175393,21.7179982 23.8085109,22.1364741 C23.9490927,22.3522508 24.107111,22.5375136 24.2738475,22.7489312 L24.2738475,22.7489312 L24.8416235,23.4213262 L25.9379434,24.7966301 C26.323726,25.2913907 26.7236757,25.8548076 27.005929,26.4465588 C27.5628072,27.6420488 27.9039087,28.9465169 27.8614072,30.2498952 C27.8635868,31.5467348 27.5083181,32.826138 26.9296443,33.9279068 C26.3564194,34.9719172 25.6491514,35.9963115 24.9920133,37 C24.8121994,36.2447816 24.7882242,35.4285355 24.6421936,34.7594098 C24.5201381,34.0706681 24.2694884,33.4353257 23.9806964,32.851203 C23.6526722,32.2823372 23.3159298,31.735267 22.8538626,31.2993545 C22.6348166,31.0715902 22.398334,30.8667114 22.1520435,30.6749099 L22.1520435,30.6749099 L21.741196,30.3730405 C21.5613821,30.2466259 21.3902864,30.1093134 21.2246397,29.9643725 C19.8951066,28.8081147 19.0843094,27.0960684 19.0091145,25.3883813 C18.956805,24.49803 19.1420678,23.765697 19.2488664,23.0191969 C19.3981664,22.2694274 19.5420175,21.5185682 19.7806796,20.7677089 C20.0215212,21.5185682 20.1653724,22.2694274 20.3135826,23.0191969 C20.4530746,23.7722357 20.5184615,24.5503395 20.6862878,25.1475396 C21.0295689,26.4138654 21.7335675,27.5069159 22.6642407,28.3297007 C22.7808473,28.4332299 22.8996334,28.5345796 23.0249582,28.627211 L23.0249582,28.627211 L23.5110007,29.0053651 C23.8346657,29.3017856 24.1561511,29.6014754 24.4176986,29.9534747 C24.9440629,30.6465756 25.3636287,31.4246794 25.5739565,32.2561824 C25.7374237,32.861011 25.8039003,33.4865454 25.7766558,34.0979126 C25.8311448,33.9093805 25.8867237,33.7219381 25.9346741,33.5344958 C26.2278252,32.4632408 26.2964814,31.3789085 26.1635281,30.3348981 C26.0153179,29.2941571 25.7069098,28.2904686 25.1805455,27.4088356 C24.9179082,26.9598458 24.6389242,26.5620756 24.2901942,26.1457792 L24.2901942,26.1457792 L23.1568218,24.8009892 L22.6097516,24.1133372 C22.4179501,23.8615978 22.2065326,23.591332 22.0354369,23.3112583 C21.6801682,22.7522005 21.3641317,22.1637187 21.1538039,21.5360047 C20.7429564,20.2838461 20.5533345,18.9488641 20.7484053,17.6596529 C20.8399469,17.0177718 20.9827083,16.3846089 21.218101,15.7895884 C21.4687507,15.1825803 21.7095923,14.6943583 21.9613318,14.1483779 C22.483337,13.0902004 23.0009831,12.0298432 23.6101707,11 Z M20.000321,11.6268951 L19.9986213,12.1560537 C19.7422571,12.7530451 19.5436515,13.3770687 19.3834971,14.0121927 C15.6148977,15.7572257 13,19.5732418 13,24 C13,29.0096464 16.3488619,33.2371242 20.9300515,34.565899 L20.7584219,34.3666266 C21.3976775,35.0620907 21.8343302,35.9029112 22.2550974,36.7743186 L22.3004539,36.8899081 C15.9238282,36.0573142 11,30.603668 11,24 C11,18.2157999 14.7776267,13.3139119 20.000321,11.6268951 Z M25.4735754,11.0843222 C31.9588043,11.8136162 37,17.3180909 37,24 C37,29.7838324 33.2228534,34.685465 28.0006748,36.3727832 L28.0013938,35.6602028 C28.1550941,35.1532622 28.2731723,34.6339007 28.3506638,34.1069408 C32.26088,32.4216166 35,28.5306862 35,24 C35,18.9196262 31.5559105,14.6436627 26.8751826,13.3795604 L26.970251,13.4920142 C26.3294956,12.7948201 25.8927041,11.9555863 25.4735754,11.0843222 Z" id="形状结合" fill="#00A4FF"></path>
            <rect id="矩形" opacity="0" x="0" y="0" width="48" height="48"></rect>
        </g>
    </g>
</svg>