<?xml version="1.0" encoding="UTF-8"?>
<svg width="48px" height="48px" viewBox="0 0 48 48" version="1.1" xmlns="http://www.w3.org/2000/svg" xmlns:xlink="http://www.w3.org/1999/xlink">
    <title>Private DNS-48px</title>
    <g id="Private-DNS-48px" stroke="none" stroke-width="1" fill="none" fill-rule="evenodd">
        <g id="分组-68" transform="translate(2.000000, 7.000000)" fill="#00A4FF" fill-rule="nonzero">
            <path d="M44,0 L44,28 L42,28 L42,7 L2,7 L2,32 L44,32 L44,34 L0,34 L0,0 L44,0 Z M32,15 L32,30 L12,30 L12,15 L32,15 Z M30,17 L14,17 L14,28 L30,28 L30,17 Z M27,23 L27,25 L20,25 L20,27 L19,27 L17,25 L17,23 L27,23 Z M25,18 L27,20 L27,22 L17,22 L17,20 L24,20 L24,18 L25,18 Z M22,9 C25.5264691,9 28.4438768,11.6077016 28.92911,14.9999918 L26.8999437,14.999812 C26.4366008,12.7176654 24.4188915,11 22,11 C19.5811072,11 17.5633971,12.7176672 17.1000555,14.9998157 L15.07089,14.9999918 C15.5561232,11.6077016 18.4735309,9 22,9 Z M42,2 L2,2 L2,5 L42,5 L42,2 Z" id="形状结合"></path>
        </g>
    </g>
</svg>