<?xml version="1.0" encoding="utf-8"?>
<!-- Generator: Adobe Illustrator 17.0.0, SVG Export Plug-In . SVG Version: 6.00 Build 0)  -->
<!DOCTYPE svg PUBLIC "-//W3C//DTD SVG 1.1//EN" "http://www.w3.org/Graphics/SVG/1.1/DTD/svg11.dtd">
<svg version="1.1" id="图层_1" xmlns="http://www.w3.org/2000/svg" xmlns:xlink="http://www.w3.org/1999/xlink" x="0px" y="0px"
	 width="48px" height="48px" viewBox="0 0 48 48" style="enable-background:new 0 0 48 48;" xml:space="preserve">
<style type="text/css">
	.st0{opacity:0.5;fill-rule:evenodd;clip-rule:evenodd;fill:#E2E2E2;}
	.st1{opacity:0.5;fill:#E2E2E2;}
	.st2{fill:#FFFFFF;}
	.st3{fill:#7C848E;}
	.st4{fill:#CEE3FF;}
	.st5{fill:#2277DA;}
	.st6{fill-rule:evenodd;clip-rule:evenodd;fill:#2277D9;}
	.st7{opacity:0.6;}
	.st8{fill:#BBBBBB;}
	.st9{fill:#E5E5E5;}
	.st10{fill:#444444;}
	.st11{fill:#EAEBEC;}
	.st12{fill-rule:evenodd;clip-rule:evenodd;fill:#878787;}
	.st13{opacity:0;fill:#CB3333;}
	.st14{fill:#00A4FF;}
	.st15{fill-rule:evenodd;clip-rule:evenodd;fill:none;stroke:#878787;stroke-miterlimit:10;}
	.st16{fill-rule:evenodd;clip-rule:evenodd;fill:#00A4FF;}
	.st17{fill:#878787;}
	.st18{fill:#BABABA;}
	.st19{fill:#F1F1F1;}
	.st20{fill:#999999;}
	.st21{fill:#666666;}
	.st22{fill:url(#SVGID_1_);}
</style>
<g id="XMLID_35_">
	<g id="XMLID_44_">
		<g>
			<path class="st14" d="M44.761,27C43.302,38,34.577,45.24,24,45.24c-11.598,0-21-9.282-21-20.88S12.402,3.18,24,3.18
				C34.577,3.18,43.302,11,44.761,21h2.037C45.328,10,35.685,1.24,24,1.24c-12.703,0-23,10.417-23,23.12s10.297,22.82,23,22.82
				C35.685,47.18,45.328,39,46.799,27H44.761z"/>
		</g>
	</g>
	<rect id="XMLID_43_" x="14" y="23" class="st14" width="2" height="13"/>
	<rect id="XMLID_42_" x="32" y="23" class="st14" width="2" height="13"/>
	<rect id="XMLID_41_" x="16" y="23" class="st14" width="16" height="2"/>
	<rect id="XMLID_40_" x="16" y="34" class="st14" width="16" height="2"/>
	<path id="XMLID_39_" class="st14" d="M18.003,21c0-1-0.003-0.295-0.003-0.318c0-3.314,2.686-6.125,6-6.125s6,2.874,6,6.188
		C30,20.768,29.997,20,29.997,21h2c0-1,0.003-0.295,0.003-0.318c0-4.418-3.582-8.125-8-8.125s-8,3.769-8,8.188
		C16,20.768,16.003,20,16.003,21H18.003z"/>
	<rect id="XMLID_38_" x="16" y="21" class="st14" width="2" height="2"/>
	<rect id="XMLID_37_" x="30" y="21" class="st14" width="2" height="2"/>
</g>
</svg>
