<?xml version="1.0" encoding="utf-8"?>
<!-- Generator: Adobe Illustrator 22.1.0, SVG Export Plug-In . SVG Version: 6.00 Build 0)  -->
<svg version="1.1" id="图层_1" xmlns="http://www.w3.org/2000/svg" xmlns:xlink="http://www.w3.org/1999/xlink" x="0px" y="0px"
	 width="48px" height="48px" viewBox="0 0 48 48" style="enable-background:new 0 0 48 48;" xml:space="preserve">
<style type="text/css">
	.st0{fill:#00A4FF;}
</style>
<g>
	<g>
		<path class="st0" d="M21.5,8.6L21.5,8.6l5,0.1L24,12.9c-0.6,1-1.7,1.6-2.9,1.7l-5,0.1l2.4-4.3C19.2,9.3,20.3,8.6,21.5,8.6 M21.5,7
			c-1.8,0-3.5,1-4.4,2.5l-3.8,6.7l7.8-0.1c1.7,0,3.3-0.9,4.2-2.4l4-6.7L21.5,7C21.6,7,21.5,7,21.5,7L21.5,7z"/>
	</g>
	<g>
		<path class="st0" d="M20.9,18.8c1.2,0,2.3,0.7,3,1.7l2.7,4.6l-5.3,0c-1.2,0-2.3-0.7-2.9-1.7L15.7,19l5.1-0.1L20.9,18.8 M20.9,17.2
			c0,0-0.1,0-0.1,0L13,17.5l3.9,6.8c0.9,1.5,2.5,2.5,4.3,2.5l8.1,0l-4.1-7.1C24.3,18.2,22.7,17.2,20.9,17.2L20.9,17.2z"/>
	</g>
	<g>
		<path class="st0" d="M30.4,10.7l2.6,4.5c0.6,1,0.6,2.3,0,3.4l-2.6,4.6l-2.7-4.6c-0.6-1.1-0.6-2.4,0.1-3.5L30.4,10.7 M30.4,7.6
			l-4.1,6.6c-1,1.6-1,3.5-0.1,5.1l4.1,7.1l4-7c0.9-1.5,0.9-3.4,0-5L30.4,7.6L30.4,7.6z"/>
	</g>
</g>
<g>
	<g>
		<path class="st0" d="M39.9,40.3V0.4H8.1v45.8h31.9v-1.8h-1.8v0H9.9V2.3h28.2v38H39.9z M26.9,40.1v-1.8h-6v1.8H26.9z"/>
	</g>
</g>
</svg>
