<?xml version="1.0" encoding="UTF-8"?>
<svg width="48px" height="48px" viewBox="0 0 48 48" version="1.1" xmlns="http://www.w3.org/2000/svg" xmlns:xlink="http://www.w3.org/1999/xlink">
    <title>tpns-48px</title>
    <g id="tpns-48px" stroke="none" stroke-width="1" fill="none" fill-rule="evenodd">
        <g id="2_48-48">
            <rect id="矩形" x="0" y="0" width="48" height="48"></rect>
            <path d="M39.998,0.999 L39.998,38.999 L37.998,38.999 L37.997,2.998 L9.997,2.998 L9.997,44.998 L39.998,44.999 L39.998,46.999 L7.998,46.999 L7.998,0.999 L39.998,0.999 Z M26.998,36.999 L26.998,38.999 L20.998,38.999 L20.998,36.999 L26.998,36.999 Z M30.8812213,8.84201015 L35.7272213,11.6790101 L35.4859516,13.5065359 L32.628,14.288 L33.5374106,17.705997 L33.532,17.709 L33.5384713,17.7102253 L36.2744713,28.0082253 L34.7637632,29.1039317 L27.864,24.628 L15.6016471,29.6601314 L14.519392,28.0234229 L21.885,20.75 L12.2797235,14.5179059 L12.8304481,12.6790208 L25.903,12.763 L29.6688062,8.9979803 L30.8812213,8.84201015 Z M32.102,20.095 L29.457,23.277 L33.675,26.014 L32.102,20.095 Z M29.726,19.825 L23.994,21.478 L19.53,25.885 L27.359,22.672 L29.726,19.825 Z M16.235,14.7 L23.634,19.5 L30.231,17.598 L26.007,14.763 L16.235,14.7 Z M30.537,10.958 L27.883,13.613 L30.921,15.651 L30.4405894,13.843003 L31.1430484,12.6214641 L32.666,12.204 L30.537,10.958 Z" id="形状结合" fill="#00A4FF" fill-rule="nonzero"></path>
        </g>
    </g>
</svg>