<svg id="图层_1" data-name="图层 1" xmlns="http://www.w3.org/2000/svg" xmlns:xlink="http://www.w3.org/1999/xlink" width="48" height="48" viewBox="0 0 48 48">
  <defs>
    <style>
      .cls-1 {
        fill: #00a4ff;
      }

      .cls-2 {
        clip-path: url(#clip-path);
      }

      .cls-3 {
        clip-path: url(#clip-path-2);
      }

      .cls-4 {
        clip-path: url(#clip-path-3);
      }

      .cls-5 {
        clip-path: url(#clip-path-4);
      }
    </style>
    <clipPath id="clip-path">
      <rect class="cls-1" x="20.76" y="22.41" width="6.49" height="1.64"/>
    </clipPath>
    <clipPath id="clip-path-2">
      <rect class="cls-1" x="23.36" y="14.45" width="1.7" height="1.7"/>
    </clipPath>
    <clipPath id="clip-path-3">
      <rect class="cls-1" x="20.5" y="14.45" width="1.7" height="1.7"/>
    </clipPath>
    <clipPath id="clip-path-4">
      <rect class="cls-1" x="17.64" y="14.45" width="1.7" height="1.7"/>
    </clipPath>
  </defs>
  <title> </title>
  <path class="cls-1" d="M24,2.39A38,38,0,0,1,44.94,9a45.32,45.32,0,0,1-2.27,13.2A43.67,43.67,0,0,1,24,46,43.67,43.67,0,0,1,5.33,22.18,45.42,45.42,0,0,1,3.06,9,38,38,0,0,1,24,2.39m0-2A40.24,40.24,0,0,0,1.08,7.91,46.79,46.79,0,0,0,24,48.39h0A46.79,46.79,0,0,0,46.92,7.91,40.24,40.24,0,0,0,24,.39Z"/>
  <g>
    <path class="cls-1" d="M34.16,28.58H13.58V11H34.16Zm-18.58-2H32.16V13H15.58Z"/>
    <path class="cls-1" d="M34.16,19.57H13.58V11H34.16Zm-18.58-2H32.16V13H15.58Z"/>
    <g>
      <rect class="cls-1" x="20.76" y="22.41" width="6.49" height="1.64"/>
      <g class="cls-2">
        <rect class="cls-1" x="20.76" y="22.41" width="0.07" height="1.64"/>
        <rect class="cls-1" x="20.83" y="22.41" width="0.07" height="1.64"/>
        <rect class="cls-1" x="20.9" y="22.41" width="0.07" height="1.64"/>
        <rect class="cls-1" x="20.98" y="22.41" width="0.07" height="1.64"/>
        <rect class="cls-1" x="21.05" y="22.41" width="0.07" height="1.64"/>
        <rect class="cls-1" x="21.12" y="22.41" width="0.07" height="1.64"/>
        <rect class="cls-1" x="21.19" y="22.41" width="0.07" height="1.64"/>
        <rect class="cls-1" x="21.26" y="22.41" width="0.07" height="1.64"/>
        <rect class="cls-1" x="21.34" y="22.41" width="0.07" height="1.64"/>
        <rect class="cls-1" x="21.41" y="22.41" width="0.07" height="1.64"/>
        <rect class="cls-1" x="21.48" y="22.41" width="0.07" height="1.64"/>
        <rect class="cls-1" x="21.55" y="22.41" width="0.07" height="1.64"/>
        <rect class="cls-1" x="21.63" y="22.41" width="0.07" height="1.64"/>
        <rect class="cls-1" x="21.7" y="22.41" width="0.07" height="1.64"/>
        <rect class="cls-1" x="21.77" y="22.41" width="0.07" height="1.64"/>
        <rect class="cls-1" x="21.84" y="22.41" width="0.07" height="1.64"/>
        <rect class="cls-1" x="21.91" y="22.41" width="0.07" height="1.64"/>
        <rect class="cls-1" x="21.99" y="22.41" width="0.07" height="1.64"/>
        <rect class="cls-1" x="22.06" y="22.41" width="0.07" height="1.64"/>
        <rect class="cls-1" x="22.13" y="22.41" width="0.07" height="1.64"/>
        <rect class="cls-1" x="22.2" y="22.41" width="0.07" height="1.64"/>
        <rect class="cls-1" x="22.27" y="22.41" width="0.07" height="1.64"/>
        <rect class="cls-1" x="22.35" y="22.41" width="0.07" height="1.64"/>
        <rect class="cls-1" x="22.42" y="22.41" width="0.07" height="1.64"/>
        <rect class="cls-1" x="22.49" y="22.41" width="0.07" height="1.64"/>
        <rect class="cls-1" x="22.56" y="22.41" width="0.07" height="1.64"/>
        <rect class="cls-1" x="22.64" y="22.41" width="0.07" height="1.64"/>
        <rect class="cls-1" x="22.71" y="22.41" width="0.07" height="1.64"/>
        <rect class="cls-1" x="22.78" y="22.41" width="0.07" height="1.64"/>
        <rect class="cls-1" x="22.85" y="22.41" width="0.07" height="1.64"/>
        <rect class="cls-1" x="22.92" y="22.41" width="0.07" height="1.64"/>
        <rect class="cls-1" x="23" y="22.41" width="0.07" height="1.64"/>
        <rect class="cls-1" x="23.07" y="22.41" width="0.07" height="1.64"/>
        <rect class="cls-1" x="23.14" y="22.41" width="0.07" height="1.64"/>
        <rect class="cls-1" x="23.21" y="22.41" width="0.07" height="1.64"/>
        <rect class="cls-1" x="23.28" y="22.41" width="0.07" height="1.64"/>
        <rect class="cls-1" x="23.36" y="22.41" width="0.07" height="1.64"/>
        <rect class="cls-1" x="23.43" y="22.41" width="0.07" height="1.64"/>
        <rect class="cls-1" x="23.5" y="22.41" width="0.07" height="1.64"/>
        <rect class="cls-1" x="23.57" y="22.41" width="0.07" height="1.64"/>
        <rect class="cls-1" x="23.65" y="22.41" width="0.07" height="1.64"/>
        <rect class="cls-1" x="23.72" y="22.41" width="0.07" height="1.64"/>
        <rect class="cls-1" x="23.79" y="22.41" width="0.07" height="1.64"/>
        <rect class="cls-1" x="23.86" y="22.41" width="0.07" height="1.64"/>
        <rect class="cls-1" x="23.93" y="22.41" width="0.07" height="1.64"/>
        <rect class="cls-1" x="24.01" y="22.41" width="0.07" height="1.64"/>
        <rect class="cls-1" x="24.08" y="22.41" width="0.07" height="1.64"/>
        <rect class="cls-1" x="24.15" y="22.41" width="0.07" height="1.64"/>
        <rect class="cls-1" x="24.22" y="22.41" width="0.07" height="1.64"/>
        <rect class="cls-1" x="24.29" y="22.41" width="0.07" height="1.64"/>
        <rect class="cls-1" x="24.37" y="22.41" width="0.07" height="1.64"/>
        <rect class="cls-1" x="24.44" y="22.41" width="0.07" height="1.64"/>
        <rect class="cls-1" x="24.51" y="22.41" width="0.07" height="1.64"/>
        <rect class="cls-1" x="24.58" y="22.41" width="0.07" height="1.64"/>
        <rect class="cls-1" x="24.66" y="22.41" width="0.07" height="1.64"/>
        <rect class="cls-1" x="24.73" y="22.41" width="0.07" height="1.64"/>
        <rect class="cls-1" x="24.8" y="22.41" width="0.07" height="1.64"/>
        <rect class="cls-1" x="24.87" y="22.41" width="0.07" height="1.64"/>
        <rect class="cls-1" x="24.94" y="22.41" width="0.07" height="1.64"/>
        <rect class="cls-1" x="25.02" y="22.41" width="0.07" height="1.64"/>
        <rect class="cls-1" x="25.09" y="22.41" width="0.07" height="1.64"/>
        <rect class="cls-1" x="25.16" y="22.41" width="0.07" height="1.64"/>
        <rect class="cls-1" x="25.23" y="22.41" width="0.07" height="1.64"/>
        <rect class="cls-1" x="25.3" y="22.41" width="0.07" height="1.64"/>
        <rect class="cls-1" x="25.38" y="22.41" width="0.07" height="1.64"/>
        <rect class="cls-1" x="25.45" y="22.41" width="0.07" height="1.64"/>
        <rect class="cls-1" x="25.52" y="22.41" width="0.07" height="1.64"/>
        <rect class="cls-1" x="25.59" y="22.41" width="0.07" height="1.64"/>
        <rect class="cls-1" x="25.67" y="22.41" width="0.07" height="1.64"/>
        <rect class="cls-1" x="25.74" y="22.41" width="0.07" height="1.64"/>
        <rect class="cls-1" x="25.81" y="22.41" width="0.07" height="1.64"/>
        <rect class="cls-1" x="25.88" y="22.41" width="0.07" height="1.64"/>
        <rect class="cls-1" x="25.95" y="22.41" width="0.07" height="1.64"/>
        <rect class="cls-1" x="26.03" y="22.41" width="0.07" height="1.64"/>
        <rect class="cls-1" x="26.1" y="22.41" width="0.07" height="1.64"/>
        <rect class="cls-1" x="26.17" y="22.41" width="0.07" height="1.64"/>
        <rect class="cls-1" x="26.24" y="22.41" width="0.07" height="1.64"/>
        <rect class="cls-1" x="26.31" y="22.41" width="0.07" height="1.64"/>
        <rect class="cls-1" x="26.39" y="22.41" width="0.07" height="1.64"/>
        <rect class="cls-1" x="26.46" y="22.41" width="0.07" height="1.64"/>
        <rect class="cls-1" x="26.53" y="22.41" width="0.07" height="1.64"/>
        <rect class="cls-1" x="26.6" y="22.41" width="0.07" height="1.64"/>
        <rect class="cls-1" x="26.68" y="22.41" width="0.07" height="1.64"/>
        <rect class="cls-1" x="26.75" y="22.41" width="0.07" height="1.64"/>
        <rect class="cls-1" x="26.82" y="22.41" width="0.07" height="1.64"/>
        <rect class="cls-1" x="26.89" y="22.41" width="0.07" height="1.64"/>
        <rect class="cls-1" x="26.96" y="22.41" width="0.07" height="1.64"/>
        <rect class="cls-1" x="27.04" y="22.41" width="0.07" height="1.64"/>
        <rect class="cls-1" x="27.11" y="22.41" width="0.07" height="1.64"/>
        <rect class="cls-1" x="27.18" y="22.41" width="0.07" height="1.64"/>
      </g>
    </g>
    <g>
      <g>
        <rect class="cls-1" x="23.36" y="14.45" width="1.7" height="1.7"/>
        <g class="cls-3">
          <rect class="cls-1" x="23.36" y="14.45" width="0.02" height="1.7"/>
          <rect class="cls-1" x="23.38" y="14.45" width="0.02" height="1.7"/>
          <rect class="cls-1" x="23.4" y="14.45" width="0.02" height="1.7"/>
          <rect class="cls-1" x="23.42" y="14.45" width="0.02" height="1.7"/>
          <rect class="cls-1" x="23.44" y="14.45" width="0.02" height="1.7"/>
          <rect class="cls-1" x="23.46" y="14.45" width="0.02" height="1.7"/>
          <rect class="cls-1" x="23.48" y="14.45" width="0.02" height="1.7"/>
          <rect class="cls-1" x="23.5" y="14.45" width="0.02" height="1.7"/>
          <rect class="cls-1" x="23.52" y="14.45" width="0.02" height="1.7"/>
          <rect class="cls-1" x="23.53" y="14.45" width="0.02" height="1.7"/>
          <rect class="cls-1" x="23.55" y="14.45" width="0.02" height="1.7"/>
          <rect class="cls-1" x="23.57" y="14.45" width="0.02" height="1.7"/>
          <rect class="cls-1" x="23.59" y="14.45" width="0.02" height="1.7"/>
          <rect class="cls-1" x="23.61" y="14.45" width="0.02" height="1.7"/>
          <rect class="cls-1" x="23.63" y="14.45" width="0.02" height="1.7"/>
          <rect class="cls-1" x="23.65" y="14.45" width="0.02" height="1.7"/>
          <rect class="cls-1" x="23.67" y="14.45" width="0.02" height="1.7"/>
          <rect class="cls-1" x="23.69" y="14.45" width="0.02" height="1.7"/>
          <rect class="cls-1" x="23.7" y="14.45" width="0.02" height="1.7"/>
          <rect class="cls-1" x="23.72" y="14.45" width="0.02" height="1.7"/>
          <rect class="cls-1" x="23.74" y="14.45" width="0.02" height="1.7"/>
          <rect class="cls-1" x="23.76" y="14.45" width="0.02" height="1.7"/>
          <rect class="cls-1" x="23.78" y="14.45" width="0.02" height="1.7"/>
          <rect class="cls-1" x="23.8" y="14.45" width="0.02" height="1.7"/>
          <rect class="cls-1" x="23.82" y="14.45" width="0.02" height="1.7"/>
          <rect class="cls-1" x="23.84" y="14.45" width="0.02" height="1.7"/>
          <rect class="cls-1" x="23.86" y="14.45" width="0.02" height="1.7"/>
          <rect class="cls-1" x="23.87" y="14.45" width="0.02" height="1.7"/>
          <rect class="cls-1" x="23.89" y="14.45" width="0.02" height="1.7"/>
          <rect class="cls-1" x="23.91" y="14.45" width="0.02" height="1.7"/>
          <rect class="cls-1" x="23.93" y="14.45" width="0.02" height="1.7"/>
          <rect class="cls-1" x="23.95" y="14.45" width="0.02" height="1.7"/>
          <rect class="cls-1" x="23.97" y="14.45" width="0.02" height="1.7"/>
          <rect class="cls-1" x="23.99" y="14.45" width="0.02" height="1.7"/>
          <rect class="cls-1" x="24.01" y="14.45" width="0.02" height="1.7"/>
          <rect class="cls-1" x="24.03" y="14.45" width="0.02" height="1.7"/>
          <rect class="cls-1" x="24.04" y="14.45" width="0.02" height="1.7"/>
          <rect class="cls-1" x="24.06" y="14.45" width="0.02" height="1.7"/>
          <rect class="cls-1" x="24.08" y="14.45" width="0.02" height="1.7"/>
          <rect class="cls-1" x="24.1" y="14.45" width="0.02" height="1.7"/>
          <rect class="cls-1" x="24.12" y="14.45" width="0.02" height="1.7"/>
          <rect class="cls-1" x="24.14" y="14.45" width="0.02" height="1.7"/>
          <rect class="cls-1" x="24.16" y="14.45" width="0.02" height="1.7"/>
          <rect class="cls-1" x="24.18" y="14.45" width="0.02" height="1.7"/>
          <rect class="cls-1" x="24.2" y="14.45" width="0.02" height="1.7"/>
          <rect class="cls-1" x="24.21" y="14.45" width="0.02" height="1.7"/>
          <rect class="cls-1" x="24.23" y="14.45" width="0.02" height="1.7"/>
          <rect class="cls-1" x="24.25" y="14.45" width="0.02" height="1.7"/>
          <rect class="cls-1" x="24.27" y="14.45" width="0.02" height="1.7"/>
          <rect class="cls-1" x="24.29" y="14.45" width="0.02" height="1.7"/>
          <rect class="cls-1" x="24.31" y="14.45" width="0.02" height="1.7"/>
          <rect class="cls-1" x="24.33" y="14.45" width="0.02" height="1.7"/>
          <rect class="cls-1" x="24.35" y="14.45" width="0.02" height="1.7"/>
          <rect class="cls-1" x="24.37" y="14.45" width="0.02" height="1.7"/>
          <rect class="cls-1" x="24.38" y="14.45" width="0.02" height="1.7"/>
          <rect class="cls-1" x="24.4" y="14.45" width="0.02" height="1.7"/>
          <rect class="cls-1" x="24.42" y="14.45" width="0.02" height="1.7"/>
          <rect class="cls-1" x="24.44" y="14.45" width="0.02" height="1.7"/>
          <rect class="cls-1" x="24.46" y="14.45" width="0.02" height="1.7"/>
          <rect class="cls-1" x="24.48" y="14.45" width="0.02" height="1.7"/>
          <rect class="cls-1" x="24.5" y="14.45" width="0.02" height="1.7"/>
          <rect class="cls-1" x="24.52" y="14.45" width="0.02" height="1.7"/>
          <rect class="cls-1" x="24.54" y="14.45" width="0.02" height="1.7"/>
          <rect class="cls-1" x="24.55" y="14.45" width="0.02" height="1.7"/>
          <rect class="cls-1" x="24.57" y="14.45" width="0.02" height="1.7"/>
          <rect class="cls-1" x="24.59" y="14.45" width="0.02" height="1.7"/>
          <rect class="cls-1" x="24.61" y="14.45" width="0.02" height="1.7"/>
          <rect class="cls-1" x="24.63" y="14.45" width="0.02" height="1.7"/>
          <rect class="cls-1" x="24.65" y="14.45" width="0.02" height="1.7"/>
          <rect class="cls-1" x="24.67" y="14.45" width="0.02" height="1.7"/>
          <rect class="cls-1" x="24.69" y="14.45" width="0.02" height="1.7"/>
          <rect class="cls-1" x="24.71" y="14.45" width="0.02" height="1.7"/>
          <rect class="cls-1" x="24.72" y="14.45" width="0.02" height="1.7"/>
          <rect class="cls-1" x="24.74" y="14.45" width="0.02" height="1.7"/>
          <rect class="cls-1" x="24.76" y="14.45" width="0.02" height="1.7"/>
          <rect class="cls-1" x="24.78" y="14.45" width="0.02" height="1.7"/>
          <rect class="cls-1" x="24.8" y="14.45" width="0.02" height="1.7"/>
          <rect class="cls-1" x="24.82" y="14.45" width="0.02" height="1.7"/>
          <rect class="cls-1" x="24.84" y="14.45" width="0.02" height="1.7"/>
          <rect class="cls-1" x="24.86" y="14.45" width="0.02" height="1.7"/>
          <rect class="cls-1" x="24.88" y="14.45" width="0.02" height="1.7"/>
          <rect class="cls-1" x="24.89" y="14.45" width="0.02" height="1.7"/>
          <rect class="cls-1" x="24.91" y="14.45" width="0.02" height="1.7"/>
          <rect class="cls-1" x="24.93" y="14.45" width="0.02" height="1.7"/>
          <rect class="cls-1" x="24.95" y="14.45" width="0.02" height="1.7"/>
          <rect class="cls-1" x="24.97" y="14.45" width="0.02" height="1.7"/>
          <rect class="cls-1" x="24.99" y="14.45" width="0.02" height="1.7"/>
          <rect class="cls-1" x="25.01" y="14.45" width="0.02" height="1.7"/>
          <rect class="cls-1" x="25.03" y="14.45" width="0.02" height="1.7"/>
          <rect class="cls-1" x="25.05" y="14.45" width="0.02" height="1.7"/>
        </g>
      </g>
      <g>
        <rect class="cls-1" x="20.5" y="14.45" width="1.7" height="1.7"/>
        <g class="cls-4">
          <rect class="cls-1" x="20.5" y="14.45" width="0.02" height="1.7"/>
          <rect class="cls-1" x="20.52" y="14.45" width="0.02" height="1.7"/>
          <rect class="cls-1" x="20.54" y="14.45" width="0.02" height="1.7"/>
          <rect class="cls-1" x="20.56" y="14.45" width="0.02" height="1.7"/>
          <rect class="cls-1" x="20.58" y="14.45" width="0.02" height="1.7"/>
          <rect class="cls-1" x="20.6" y="14.45" width="0.02" height="1.7"/>
          <rect class="cls-1" x="20.62" y="14.45" width="0.02" height="1.7"/>
          <rect class="cls-1" x="20.64" y="14.45" width="0.02" height="1.7"/>
          <rect class="cls-1" x="20.65" y="14.45" width="0.02" height="1.7"/>
          <rect class="cls-1" x="20.67" y="14.45" width="0.02" height="1.7"/>
          <rect class="cls-1" x="20.69" y="14.45" width="0.02" height="1.7"/>
          <rect class="cls-1" x="20.71" y="14.45" width="0.02" height="1.7"/>
          <rect class="cls-1" x="20.73" y="14.45" width="0.02" height="1.7"/>
          <rect class="cls-1" x="20.75" y="14.45" width="0.02" height="1.7"/>
          <rect class="cls-1" x="20.77" y="14.45" width="0.02" height="1.7"/>
          <rect class="cls-1" x="20.79" y="14.45" width="0.02" height="1.7"/>
          <rect class="cls-1" x="20.81" y="14.45" width="0.02" height="1.7"/>
          <rect class="cls-1" x="20.82" y="14.45" width="0.02" height="1.7"/>
          <rect class="cls-1" x="20.84" y="14.45" width="0.02" height="1.7"/>
          <rect class="cls-1" x="20.86" y="14.45" width="0.02" height="1.7"/>
          <rect class="cls-1" x="20.88" y="14.45" width="0.02" height="1.7"/>
          <rect class="cls-1" x="20.9" y="14.45" width="0.02" height="1.7"/>
          <rect class="cls-1" x="20.92" y="14.45" width="0.02" height="1.7"/>
          <rect class="cls-1" x="20.94" y="14.45" width="0.02" height="1.7"/>
          <rect class="cls-1" x="20.96" y="14.45" width="0.02" height="1.7"/>
          <rect class="cls-1" x="20.98" y="14.45" width="0.02" height="1.7"/>
          <rect class="cls-1" x="20.99" y="14.45" width="0.02" height="1.7"/>
          <rect class="cls-1" x="21.01" y="14.45" width="0.02" height="1.7"/>
          <rect class="cls-1" x="21.03" y="14.45" width="0.02" height="1.7"/>
          <rect class="cls-1" x="21.05" y="14.45" width="0.02" height="1.7"/>
          <rect class="cls-1" x="21.07" y="14.45" width="0.02" height="1.7"/>
          <rect class="cls-1" x="21.09" y="14.45" width="0.02" height="1.7"/>
          <rect class="cls-1" x="21.11" y="14.45" width="0.02" height="1.7"/>
          <rect class="cls-1" x="21.13" y="14.45" width="0.02" height="1.7"/>
          <rect class="cls-1" x="21.15" y="14.45" width="0.02" height="1.7"/>
          <rect class="cls-1" x="21.16" y="14.45" width="0.02" height="1.7"/>
          <rect class="cls-1" x="21.18" y="14.45" width="0.02" height="1.7"/>
          <rect class="cls-1" x="21.2" y="14.45" width="0.02" height="1.7"/>
          <rect class="cls-1" x="21.22" y="14.45" width="0.02" height="1.7"/>
          <rect class="cls-1" x="21.24" y="14.45" width="0.02" height="1.7"/>
          <rect class="cls-1" x="21.26" y="14.45" width="0.02" height="1.7"/>
          <rect class="cls-1" x="21.28" y="14.45" width="0.02" height="1.7"/>
          <rect class="cls-1" x="21.3" y="14.45" width="0.02" height="1.7"/>
          <rect class="cls-1" x="21.32" y="14.45" width="0.02" height="1.7"/>
          <rect class="cls-1" x="21.33" y="14.45" width="0.02" height="1.7"/>
          <rect class="cls-1" x="21.35" y="14.45" width="0.02" height="1.7"/>
          <rect class="cls-1" x="21.37" y="14.45" width="0.02" height="1.7"/>
          <rect class="cls-1" x="21.39" y="14.45" width="0.02" height="1.7"/>
          <rect class="cls-1" x="21.41" y="14.45" width="0.02" height="1.7"/>
          <rect class="cls-1" x="21.43" y="14.45" width="0.02" height="1.7"/>
          <rect class="cls-1" x="21.45" y="14.45" width="0.02" height="1.7"/>
          <rect class="cls-1" x="21.47" y="14.45" width="0.02" height="1.7"/>
          <rect class="cls-1" x="21.49" y="14.45" width="0.02" height="1.7"/>
          <rect class="cls-1" x="21.5" y="14.45" width="0.02" height="1.7"/>
          <rect class="cls-1" x="21.52" y="14.45" width="0.02" height="1.7"/>
          <rect class="cls-1" x="21.54" y="14.45" width="0.02" height="1.7"/>
          <rect class="cls-1" x="21.56" y="14.45" width="0.02" height="1.7"/>
          <rect class="cls-1" x="21.58" y="14.45" width="0.02" height="1.7"/>
          <rect class="cls-1" x="21.6" y="14.45" width="0.02" height="1.7"/>
          <rect class="cls-1" x="21.62" y="14.45" width="0.02" height="1.7"/>
          <rect class="cls-1" x="21.64" y="14.45" width="0.02" height="1.7"/>
          <rect class="cls-1" x="21.66" y="14.45" width="0.02" height="1.7"/>
          <rect class="cls-1" x="21.67" y="14.45" width="0.02" height="1.7"/>
          <rect class="cls-1" x="21.69" y="14.45" width="0.02" height="1.7"/>
          <rect class="cls-1" x="21.71" y="14.45" width="0.02" height="1.7"/>
          <rect class="cls-1" x="21.73" y="14.45" width="0.02" height="1.7"/>
          <rect class="cls-1" x="21.75" y="14.45" width="0.02" height="1.7"/>
          <rect class="cls-1" x="21.77" y="14.45" width="0.02" height="1.7"/>
          <rect class="cls-1" x="21.79" y="14.45" width="0.02" height="1.7"/>
          <rect class="cls-1" x="21.81" y="14.45" width="0.02" height="1.7"/>
          <rect class="cls-1" x="21.83" y="14.45" width="0.02" height="1.7"/>
          <rect class="cls-1" x="21.84" y="14.45" width="0.02" height="1.7"/>
          <rect class="cls-1" x="21.86" y="14.45" width="0.02" height="1.7"/>
          <rect class="cls-1" x="21.88" y="14.45" width="0.02" height="1.7"/>
          <rect class="cls-1" x="21.9" y="14.45" width="0.02" height="1.7"/>
          <rect class="cls-1" x="21.92" y="14.45" width="0.02" height="1.7"/>
          <rect class="cls-1" x="21.94" y="14.45" width="0.02" height="1.7"/>
          <rect class="cls-1" x="21.96" y="14.45" width="0.02" height="1.7"/>
          <rect class="cls-1" x="21.98" y="14.45" width="0.02" height="1.7"/>
          <rect class="cls-1" x="22" y="14.45" width="0.02" height="1.7"/>
          <rect class="cls-1" x="22.01" y="14.45" width="0.02" height="1.7"/>
          <rect class="cls-1" x="22.03" y="14.45" width="0.02" height="1.7"/>
          <rect class="cls-1" x="22.05" y="14.45" width="0.02" height="1.7"/>
          <rect class="cls-1" x="22.07" y="14.45" width="0.02" height="1.7"/>
          <rect class="cls-1" x="22.09" y="14.45" width="0.02" height="1.7"/>
          <rect class="cls-1" x="22.11" y="14.45" width="0.02" height="1.7"/>
          <rect class="cls-1" x="22.13" y="14.45" width="0.02" height="1.7"/>
          <rect class="cls-1" x="22.15" y="14.45" width="0.02" height="1.7"/>
          <rect class="cls-1" x="22.17" y="14.45" width="0.02" height="1.7"/>
          <rect class="cls-1" x="22.18" y="14.45" width="0.02" height="1.7"/>
        </g>
      </g>
      <g>
        <rect class="cls-1" x="17.64" y="14.45" width="1.7" height="1.7"/>
        <g class="cls-5">
          <rect class="cls-1" x="17.64" y="14.45" width="0.02" height="1.7"/>
          <rect class="cls-1" x="17.66" y="14.45" width="0.02" height="1.7"/>
          <rect class="cls-1" x="17.68" y="14.45" width="0.02" height="1.7"/>
          <rect class="cls-1" x="17.7" y="14.45" width="0.02" height="1.7"/>
          <rect class="cls-1" x="17.72" y="14.45" width="0.02" height="1.7"/>
          <rect class="cls-1" x="17.74" y="14.45" width="0.02" height="1.7"/>
          <rect class="cls-1" x="17.76" y="14.45" width="0.02" height="1.7"/>
          <rect class="cls-1" x="17.78" y="14.45" width="0.02" height="1.7"/>
          <rect class="cls-1" x="17.79" y="14.45" width="0.02" height="1.7"/>
          <rect class="cls-1" x="17.81" y="14.45" width="0.02" height="1.7"/>
          <rect class="cls-1" x="17.83" y="14.45" width="0.02" height="1.7"/>
          <rect class="cls-1" x="17.85" y="14.45" width="0.02" height="1.7"/>
          <rect class="cls-1" x="17.87" y="14.45" width="0.02" height="1.7"/>
          <rect class="cls-1" x="17.89" y="14.45" width="0.02" height="1.7"/>
          <rect class="cls-1" x="17.91" y="14.45" width="0.02" height="1.7"/>
          <rect class="cls-1" x="17.93" y="14.45" width="0.02" height="1.7"/>
          <rect class="cls-1" x="17.95" y="14.45" width="0.02" height="1.7"/>
          <rect class="cls-1" x="17.96" y="14.45" width="0.02" height="1.7"/>
          <rect class="cls-1" x="17.98" y="14.45" width="0.02" height="1.7"/>
          <rect class="cls-1" x="18" y="14.45" width="0.02" height="1.7"/>
          <rect class="cls-1" x="18.02" y="14.45" width="0.02" height="1.7"/>
          <rect class="cls-1" x="18.04" y="14.45" width="0.02" height="1.7"/>
          <rect class="cls-1" x="18.06" y="14.45" width="0.02" height="1.7"/>
          <rect class="cls-1" x="18.08" y="14.45" width="0.02" height="1.7"/>
          <rect class="cls-1" x="18.1" y="14.45" width="0.02" height="1.7"/>
          <rect class="cls-1" x="18.12" y="14.45" width="0.02" height="1.7"/>
          <rect class="cls-1" x="18.13" y="14.45" width="0.02" height="1.7"/>
          <rect class="cls-1" x="18.15" y="14.45" width="0.02" height="1.7"/>
          <rect class="cls-1" x="18.17" y="14.45" width="0.02" height="1.7"/>
          <rect class="cls-1" x="18.19" y="14.45" width="0.02" height="1.7"/>
          <rect class="cls-1" x="18.21" y="14.45" width="0.02" height="1.7"/>
          <rect class="cls-1" x="18.23" y="14.45" width="0.02" height="1.7"/>
          <rect class="cls-1" x="18.25" y="14.45" width="0.02" height="1.7"/>
          <rect class="cls-1" x="18.27" y="14.45" width="0.02" height="1.7"/>
          <rect class="cls-1" x="18.29" y="14.45" width="0.02" height="1.7"/>
          <rect class="cls-1" x="18.3" y="14.45" width="0.02" height="1.7"/>
          <rect class="cls-1" x="18.32" y="14.45" width="0.02" height="1.7"/>
          <rect class="cls-1" x="18.34" y="14.45" width="0.02" height="1.7"/>
          <rect class="cls-1" x="18.36" y="14.45" width="0.02" height="1.7"/>
          <rect class="cls-1" x="18.38" y="14.45" width="0.02" height="1.7"/>
          <rect class="cls-1" x="18.4" y="14.45" width="0.02" height="1.7"/>
          <rect class="cls-1" x="18.42" y="14.45" width="0.02" height="1.7"/>
          <rect class="cls-1" x="18.44" y="14.45" width="0.02" height="1.7"/>
          <rect class="cls-1" x="18.46" y="14.45" width="0.02" height="1.7"/>
          <rect class="cls-1" x="18.47" y="14.45" width="0.02" height="1.7"/>
          <rect class="cls-1" x="18.49" y="14.45" width="0.02" height="1.7"/>
          <rect class="cls-1" x="18.51" y="14.45" width="0.02" height="1.7"/>
          <rect class="cls-1" x="18.53" y="14.45" width="0.02" height="1.7"/>
          <rect class="cls-1" x="18.55" y="14.45" width="0.02" height="1.7"/>
          <rect class="cls-1" x="18.57" y="14.45" width="0.02" height="1.7"/>
          <rect class="cls-1" x="18.59" y="14.45" width="0.02" height="1.7"/>
          <rect class="cls-1" x="18.61" y="14.45" width="0.02" height="1.7"/>
          <rect class="cls-1" x="18.63" y="14.45" width="0.02" height="1.7"/>
          <rect class="cls-1" x="18.64" y="14.45" width="0.02" height="1.7"/>
          <rect class="cls-1" x="18.66" y="14.45" width="0.02" height="1.7"/>
          <rect class="cls-1" x="18.68" y="14.45" width="0.02" height="1.7"/>
          <rect class="cls-1" x="18.7" y="14.45" width="0.02" height="1.7"/>
          <rect class="cls-1" x="18.72" y="14.45" width="0.02" height="1.7"/>
          <rect class="cls-1" x="18.74" y="14.45" width="0.02" height="1.7"/>
          <rect class="cls-1" x="18.76" y="14.45" width="0.02" height="1.7"/>
          <rect class="cls-1" x="18.78" y="14.45" width="0.02" height="1.7"/>
          <rect class="cls-1" x="18.8" y="14.45" width="0.02" height="1.7"/>
          <rect class="cls-1" x="18.81" y="14.45" width="0.02" height="1.7"/>
          <rect class="cls-1" x="18.83" y="14.45" width="0.02" height="1.7"/>
          <rect class="cls-1" x="18.85" y="14.45" width="0.02" height="1.7"/>
          <rect class="cls-1" x="18.87" y="14.45" width="0.02" height="1.7"/>
          <rect class="cls-1" x="18.89" y="14.45" width="0.02" height="1.7"/>
          <rect class="cls-1" x="18.91" y="14.45" width="0.02" height="1.7"/>
          <rect class="cls-1" x="18.93" y="14.45" width="0.02" height="1.7"/>
          <rect class="cls-1" x="18.95" y="14.45" width="0.02" height="1.7"/>
          <rect class="cls-1" x="18.97" y="14.45" width="0.02" height="1.7"/>
          <rect class="cls-1" x="18.98" y="14.45" width="0.02" height="1.7"/>
          <rect class="cls-1" x="19" y="14.45" width="0.02" height="1.7"/>
          <rect class="cls-1" x="19.02" y="14.45" width="0.02" height="1.7"/>
          <rect class="cls-1" x="19.04" y="14.45" width="0.02" height="1.7"/>
          <rect class="cls-1" x="19.06" y="14.45" width="0.02" height="1.7"/>
          <rect class="cls-1" x="19.08" y="14.45" width="0.02" height="1.7"/>
          <rect class="cls-1" x="19.1" y="14.45" width="0.02" height="1.7"/>
          <rect class="cls-1" x="19.12" y="14.45" width="0.02" height="1.7"/>
          <rect class="cls-1" x="19.14" y="14.45" width="0.02" height="1.7"/>
          <rect class="cls-1" x="19.15" y="14.45" width="0.02" height="1.7"/>
          <rect class="cls-1" x="19.17" y="14.45" width="0.02" height="1.7"/>
          <rect class="cls-1" x="19.19" y="14.45" width="0.02" height="1.7"/>
          <rect class="cls-1" x="19.21" y="14.45" width="0.02" height="1.7"/>
          <rect class="cls-1" x="19.23" y="14.45" width="0.02" height="1.7"/>
          <rect class="cls-1" x="19.25" y="14.45" width="0.02" height="1.7"/>
          <rect class="cls-1" x="19.27" y="14.45" width="0.02" height="1.7"/>
          <rect class="cls-1" x="19.29" y="14.45" width="0.02" height="1.7"/>
          <rect class="cls-1" x="19.31" y="14.45" width="0.02" height="1.7"/>
          <rect class="cls-1" x="19.32" y="14.45" width="0.02" height="1.7"/>
        </g>
      </g>
    </g>
  </g>
</svg>
