<?xml version="1.0" encoding="utf-8"?>
<!-- Generator: Adobe Illustrator 21.0.0, SVG Export Plug-In . SVG Version: 6.00 Build 0)  -->
<svg version="1.1" id="图层_1" xmlns="http://www.w3.org/2000/svg" xmlns:xlink="http://www.w3.org/1999/xlink" x="0px" y="0px"
	 viewBox="0 0 48 48" style="enable-background:new 0 0 48 48;" xml:space="preserve">
<style type="text/css">
	.st0{fill:#00A4FF;}
	.st1{fill:#7C848E;}
</style>
<g>
	<g>
		<path class="st0" d="M29.2,34.2c-0.2,0-0.3,0-0.5-0.1c-0.4-0.2-0.6-0.6-0.5-1l1.3-11.8c0-0.4,0.3-0.7,0.7-0.9
			c0.4-0.1,0.8,0,1.1,0.3l7.4,9.1c0.3,0.3,0.3,0.8,0.1,1.1s-0.6,0.6-1,0.5l-4.4-0.6L29.8,34C29.7,34.1,29.4,34.2,29.2,34.2z
			 M31.2,23.9l-0.7,6.8l1.8-1.6c0.2-0.2,0.5-0.3,0.8-0.2l2.4,0.3L31.2,23.9z"/>
	</g>
	<g>
		<polygon class="st0" points="44.7,41.8 2.3,41.8 2.3,6.2 45.7,6.2 45.7,33.7 43.7,33.7 43.7,8.2 4.3,8.2 4.3,39.8 44.7,39.8 		"/>
	</g>
	<g>
		<rect x="3.3" y="14.1" class="st0" width="41.3" height="2"/>
	</g>
	<g>
		<rect x="10.1" y="20.9" class="st0" width="11.9" height="2"/>
	</g>
	<g>
		<rect x="10.1" y="25.9" class="st0" width="11.9" height="2"/>
	</g>
	<g>
		<rect x="10.1" y="30.9" class="st0" width="5.9" height="2"/>
	</g>
</g>
</svg>
