<?xml version="1.0" encoding="UTF-8"?>
<svg width="48px" height="48px" viewBox="0 0 48 48" version="1.1" xmlns="http://www.w3.org/2000/svg" xmlns:xlink="http://www.w3.org/1999/xlink">
    <!-- Generator: Sketch 59.1 (86144) - https://sketch.com -->
    <title>简介区_网约车系统icon_blue_48*48</title>
    <desc>Created with Sketch.</desc>
    <g id="简介区_网约车系统icon_blue_48*48" stroke="none" stroke-width="1" fill="none" fill-rule="evenodd">
        <g id="icon" fill="#00A4FF">
            <path d="M45.9040907,27.1311755 C44.2551414,38.506632 34.0597936,46.6805893 22.5467839,45.8575232 C11.0337742,45.0344572 2.11571441,35.4940808 2.11571441,24.0007407 C2.11571441,12.5074007 11.0337742,2.96702431 22.5467839,2.14395826 C34.0597936,1.32089221 44.2551414,9.49484946 45.9040907,20.870306 L48,20.870306 C46.3434585,8.33243943 35.2006545,-0.774445593 22.527657,0.052054244 C9.85465952,0.878554081 0,11.3548389 0,24.0007407 C0,36.6466426 9.85465952,47.1229274 22.527657,47.9494272 C35.2006545,48.7759271 46.3434585,39.669042 48,27.1311755 L45.9040907,27.1311755 Z" id="路径" fill-rule="nonzero"></path>
            <g id="编组" transform="translate(10.000000, 13.000000)">
                <path d="M24,0 L26.769,9 L28,9 L28,11 L27.385,11 L27.951,12.842 L28,12.999527 L28,23 L26,23 L26,21 L2,21 L2,23 L0,23 L0,12.9917197 L0.232,12.244 L0.615,11 L0,11 L0,9 L1.231,9 L4,0 L24,0 Z M26,13 L2,13 L2,19 L26,19 L26,13 Z M22.5297677,2 L5.47403909,2 L2.70804968,11.0007407 L25.3076488,11.0007407 L22.5297677,2 Z" id="形状结合"></path>
                <rect id="矩形备份-4" x="4" y="15" width="2" height="2"></rect>
                <rect id="矩形备份-5" x="22" y="15" width="2" height="2"></rect>
            </g>
        </g>
    </g>
</svg>