<svg id="图层_1" data-name="图层 1" xmlns="http://www.w3.org/2000/svg" xmlns:xlink="http://www.w3.org/1999/xlink" width="48" height="48" viewBox="0 0 48 48">
  <defs>
    <style>
      .cls-1, .cls-2 {
        fill: none;
      }

      .cls-1 {
        clip-rule: evenodd;
      }

      .cls-3 {
        clip-path: url(#clip-path);
      }

      .cls-4 {
        clip-path: url(#clip-path-2);
      }

      .cls-5 {
        fill: #00a4ff;
      }
    </style>
    <clipPath id="clip-path">
      <path class="cls-1" d="M24,2A38,38,0,0,1,44.94,8.58a45.42,45.42,0,0,1-2.27,13.21A43.71,43.71,0,0,1,24,45.65,43.71,43.71,0,0,1,5.33,21.79,45.42,45.42,0,0,1,3.06,8.58,38,38,0,0,1,24,2m0-2A40.24,40.24,0,0,0,1.08,7.52,46.79,46.79,0,0,0,24,48,46.79,46.79,0,0,0,46.92,7.52,40.24,40.24,0,0,0,24,0"/>
    </clipPath>
    <clipPath id="clip-path-2">
      <rect class="cls-2" x="0.06" width="48" height="48"/>
    </clipPath>
  </defs>
  <title> </title>
  <g>
    <g class="cls-3">
      <g class="cls-4">
        <rect class="cls-5" x="-3.94" y="-5" width="55.88" height="58"/>
      </g>
    </g>
    <path class="cls-5" d="M35.45,20.6a11.44,11.44,0,0,0-1.2-5.08c.87-2.22.83-4-.18-5-.71-.71-2.16-1.3-5-.19a11.36,11.36,0,0,0-10.34.09l0,0c-3-1.22-4.45-.61-5.18.12s-1.33,2.33,0,5.43a11.33,11.33,0,0,0,.09,9.46c-1.47,3.24-.89,4.86-.11,5.65a3,3,0,0,0,2.2.81A8.7,8.7,0,0,0,19.19,31,11.4,11.4,0,0,0,24,32.05a11.28,11.28,0,0,0,4.62-1,8.33,8.33,0,0,0,3.24.82,3,3,0,0,0,2.21-.81c.74-.75,1.3-2.26.08-5.2A11.3,11.3,0,0,0,35.45,20.6Zm-2,0A9.48,9.48,0,0,1,33,23.54c-.19-.31-.38-.62-.59-.93a3.06,3.06,0,0,0,.6-1.8A3,3,0,0,0,32.38,19c.24-.37.47-.73.68-1.08A9.49,9.49,0,0,1,33.45,20.6Zm-18.9,0a9.43,9.43,0,0,1,4.3-7.91,30.76,30.76,0,0,1,7.43,5.64c.34.34.66.69,1,1.05a2.88,2.88,0,0,0,0,2.86q-.48.53-1,1.05a31.34,31.34,0,0,1-7.06,5.45A9.44,9.44,0,0,1,14.55,20.6Zm14.34.21a1,1,0,1,1,1.05,1.05A1,1,0,0,1,28.89,20.81ZM32.65,12a1.63,1.63,0,0,1,.17,1.36,11.06,11.06,0,0,0-1.53-1.53A1.66,1.66,0,0,1,32.65,12ZM24,11.15a9.44,9.44,0,0,1,8,4.48,19.19,19.19,0,0,1-1.28,2.25,3,3,0,0,0-.8-.12,3,3,0,0,0-1.21.25c-.35-.37-.68-.74-1-1.1a34.62,34.62,0,0,0-6.64-5.28A9.31,9.31,0,0,1,24,11.15Zm-9.06.8c.21-.21.77-.31,1.69-.1a11.33,11.33,0,0,0-1.77,1.89C14.61,12.77,14.71,12.18,14.94,12Zm0,17.71c-.27-.26-.32-1,0-2.08a11.65,11.65,0,0,0,2.11,2.1C16,30,15.27,30,14.94,29.66Zm6.58.05a36.27,36.27,0,0,0,6.17-5c.36-.36.7-.73,1-1.1a2.92,2.92,0,0,0,1.21.26,3,3,0,0,0,.79-.12,22.23,22.23,0,0,1,1.18,2A9.45,9.45,0,0,1,24,30.05,9.22,9.22,0,0,1,21.52,29.71Zm11.13-.05c-.22.23-.81.33-1.79.09A11.89,11.89,0,0,0,32.76,28C33,28.85,32.89,29.43,32.65,29.66Z"/>
  </g>
</svg>
