<svg id="图层_1" data-name="图层 1" xmlns="http://www.w3.org/2000/svg" width="48" height="48" viewBox="0 0 48 48">
  <defs>
    <style>
      .cls-1 {
        fill: #00a4ff;
      }

      .cls-2 {
        fill: none;
        stroke: #00a4ff;
        stroke-miterlimit: 10;
        stroke-width: 2px;
      }
    </style>
  </defs>
  <title>#</title>
  <path class="cls-1" d="M23.9,2.2a34,34,0,0,1,20,6.4v.7a41.88,41.88,0,0,1-20,35.5A41.59,41.59,0,0,1,3.9,9.4V8.7h0a34.13,34.13,0,0,1,20-6.5m0-1.9A36,36,0,0,0,2.2,7.5L2,7.7V9.4A43.55,43.55,0,0,0,23.7,47l.3.2.3-.2A43.55,43.55,0,0,0,46,9.4V7.6l-.2-.2A36.74,36.74,0,0,0,23.9.3Z"/>
  <path class="cls-2" d="M32,10.8H25.54A1.51,1.51,0,0,0,24,12.3a1.5,1.5,0,0,0-1.5-1.5H16a1.46,1.46,0,0,0-1.46,1.46V24.65h8a1.52,1.52,0,0,1,1.21.61.37.37,0,0,0,.59,0,1.49,1.49,0,0,1,1.21-.61h8V12.3A1.5,1.5,0,0,0,32,10.8Z"/>
  <path class="cls-2" d="M14.55,26.26v2.2h8a1.52,1.52,0,0,1,1.21.61.36.36,0,0,0,.59,0,1.49,1.49,0,0,1,1.21-.61h8V26.31"/>
  <line class="cls-2" x1="24.03" y1="20.95" x2="24.03" y2="12.3"/>
  <line class="cls-2" x1="17.06" y1="14.14" x2="21.52" y2="14.14"/>
  <line class="cls-2" x1="17.06" y1="17.32" x2="21.52" y2="17.32"/>
</svg>
