<?xml version="1.0" encoding="utf-8"?>
<!-- Generator: Adobe Illustrator 21.0.0, SVG Export Plug-In . SVG Version: 6.00 Build 0)  -->
<svg version="1.1" id="图层_1" xmlns="http://www.w3.org/2000/svg" xmlns:xlink="http://www.w3.org/1999/xlink" x="0px" y="0px"
	 width="48px" height="48px" viewBox="0 0 48 48" style="enable-background:new 0 0 48 48;" xml:space="preserve">
<style type="text/css">
	.st0{fill:#00A4FF;}
	.st1{fill:url(#SVGID_1_);}
	.st2{fill:none;stroke:#00A4FF;stroke-width:2;stroke-miterlimit:10;}
	.st3{fill:none;stroke:#00A4FF;stroke-miterlimit:10;}
	.st4{fill:url(#SVGID_2_);}
</style>
<path id="XMLID_5_" class="st0" d="M6.3,7H44v25h2V5H6.2c-0.5-1.2-1.6-2-3-2C1.4,3,0,4.4,0,6.2s1.4,3.2,3.2,3.2
	C4.7,9.4,5.9,8.4,6.3,7z"/>
<path id="XMLID_4_" class="st0" d="M45,39c-1.3,0-2.4,0.8-2.8,2H4V16H2v27h40.2c0.4,1.2,1.5,2,2.8,2c1.7,0,3-1.3,3-3S46.7,39,45,39z
	"/>
<g>
	<path class="st0" d="M17.1,37.5c-1.6,0-3-1.3-3-3s1.3-3,3-3s3,1.3,3,3S18.7,37.5,17.1,37.5z M17.1,33.5c-0.5,0-1,0.4-1,1s0.4,1,1,1
		s1-0.4,1-1S17.6,33.5,17.1,33.5z"/>
</g>
<g>
	<rect x="19.4" y="14.4" transform="matrix(0.8348 -0.5506 0.5506 0.8348 -6.7434 14.2645)" class="st0" width="2" height="8"/>
</g>
<g>
	<rect x="16.3" y="28.7" transform="matrix(0.5588 -0.8293 0.8293 0.5588 -15.6238 29.9667)" class="st0" width="8.1" height="2"/>
</g>
<g>
	<rect x="29.7" y="21.5" transform="matrix(0.1299 -0.9915 0.9915 0.1299 1.5968 52.5276)" class="st0" width="2" height="7.6"/>
</g>
<g>
	<path class="st0" d="M24.2,27.8c-2.1,0-3.8-1.7-3.8-3.8s1.7-3.8,3.8-3.8c2.1,0,3.8,1.7,3.8,3.8S26.2,27.8,24.2,27.8z M24.2,22.3
		c-1,0-1.8,0.8-1.8,1.8s0.8,1.8,1.8,1.8S26,25,26,24S25.1,22.3,24.2,22.3z"/>
</g>
<g>
	<path class="st0" d="M17.2,16.3c-1.6,0-3-1.3-3-3c0-1.6,1.3-3,3-3c1.6,0,3,1.3,3,3C20.2,15,18.8,16.3,17.2,16.3z M17.2,12.3
		c-0.5,0-1,0.4-1,1s0.4,1,1,1s1-0.4,1-1S17.7,12.3,17.2,12.3z"/>
</g>
<g>
	<path class="st0" d="M36.5,28.8c-1.6,0-3-1.3-3-3s1.3-3,3-3c1.6,0,3,1.3,3,3S38.1,28.8,36.5,28.8z M36.5,24.9c-0.5,0-1,0.4-1,1
		s0.4,1,1,1s1-0.4,1-1S37,24.9,36.5,24.9z"/>
</g>
<path class="st0" d="M35.4,21c0.4-0.1,0.7-0.1,1.1-0.1c0.3,0,0.6,0,0.9,0.1c-1.4-6.2-6.9-10.5-13.3-10.5c-0.9,0-1.8,0.1-2.7,0.3
	c0.4,0.6,0.6,1.2,0.7,1.9c0.7-0.1,1.4-0.2,2.1-0.2C29.5,12.4,34,16,35.4,21z"/>
<path class="st0" d="M14.4,30.3c-1.2-1.9-1.9-4-1.9-6.3c0-2.3,0.7-4.6,2-6.5c-0.6-0.4-1.1-0.8-1.5-1.4c-1.7,2.3-2.6,5.1-2.6,7.9
	c0,2.8,0.9,5.5,2.4,7.7C13.3,31.2,13.8,30.7,14.4,30.3z"/>
<path class="st0" d="M34,30.2c-2.1,3.4-5.8,5.5-9.9,5.5c-0.7,0-1.5-0.1-2.2-0.2c-0.1,0.7-0.4,1.3-0.8,1.9c1,0.2,2,0.3,3,0.3
	c4.9,0,9.4-2.7,11.8-6.9C35.3,30.7,34.6,30.5,34,30.2z"/>
</svg>
