<?xml version="1.0" encoding="utf-8"?>
<!-- Generator: Adobe Illustrator 22.0.0, SVG Export Plug-In . SVG Version: 6.00 Build 0)  -->
<svg version="1.1" id="图层_1" xmlns="http://www.w3.org/2000/svg" xmlns:xlink="http://www.w3.org/1999/xlink" x="0px" y="0px"
	 width="48px" height="48px" viewBox="0 0 48 48" style="enable-background:new 0 0 48 48;" xml:space="preserve">
<polygon style="fill:#00A4FF;" points="43.393,4.023 46.07,4.023 46.07,2.023 8.375,2.023 8.26,2.141 1.929,8.469 1.929,8.483 
	1.929,38.51 9.398,45.978 9.399,45.976 9.399,45.977 38.012,45.977 38.584,45.977 46.023,38.51 46.023,7.988 46.023,7.973 
	44.023,7.981 44.023,37.741 37.789,43.972 37.792,43.977 10.161,43.977 10.163,43.972 3.929,37.741 3.929,9.24 9.147,4.023 
	41.628,4.023 "/>
<g>
	<path style="fill:#00A4FF;" d="M27.998,12.995c-0.003,0.717-0.211,1.381-0.549,1.961l8.37,4.473L24,25.746l-11.819-6.317
		l8.37-4.473c-0.338-0.58-0.546-1.244-0.549-1.961L10,18.339v2.179L24,28l14-7.482v-2.179L27.998,12.995z"/>
	<ellipse style="fill:#00A4FF;" cx="24" cy="12.978" rx="3" ry="2.978"/>
	<path style="fill:#00A4FF;" d="M27.998,35.005c-0.003-0.717-0.211-1.381-0.549-1.961l8.37-4.473L24,22.254l-11.819,6.317
		l8.37,4.473c-0.338,0.58-0.546,1.244-0.549,1.961L10,29.661v-2.179L24,20l14,7.482v2.179L27.998,35.005z"/>
	<ellipse style="fill:#00A4FF;" cx="24" cy="35.022" rx="3" ry="2.978"/>
</g>
</svg>
