<?xml version="1.0" encoding="UTF-8"?>
<svg width="48px" height="48px" viewBox="0 0 48 48" version="1.1" xmlns="http://www.w3.org/2000/svg" xmlns:xlink="http://www.w3.org/1999/xlink">
    <!-- Generator: Sketch 57.1 (83088) - https://sketch.com -->
    <title>灯塔增长平台-48px</title>
    <desc>Created with Sketch.</desc>
    <g id="灯塔增长平台-48px" stroke="none" stroke-width="1" fill="none" fill-rule="evenodd">
        <g id="编组" transform="translate(0.000000, -0.000017)">
            <rect id="Rectangle-Copy" fill="#444444" opacity="0" x="0" y="1.66331636e-05" width="48" height="48"></rect>
            <path d="M4.87173625,9.50006219 L6.43045416,11.0587801 C0.124289142,19.5980409 0.83820965,31.6937689 8.57221569,39.4277749 C15.7184941,46.5740535 26.5887654,47.7266559 34.9363078,42.8855825 C34.9180938,42.7747052 34.9090909,42.6611266 34.9090909,42.5454452 C34.9090909,41.3404603 35.8859242,40.363627 37.0909091,40.363627 C38.295894,40.363627 39.2727273,41.3404603 39.2727273,42.5454452 C39.2727273,43.7504301 38.295894,44.7272634 37.0909091,44.7272634 C36.8255391,44.7272634 36.5712344,44.6798871 36.3359916,44.5931312 C27.1153525,50.1268312 14.9781739,48.9192901 7.02943725,40.9705534 C-1.55816823,32.3829479 -2.2774019,18.9065629 4.87173625,9.50006219 Z M40.9705628,7.0294279 C49.5581683,15.6170334 50.2774019,29.0934184 43.1282638,38.4999191 L41.5695458,36.9412012 C47.8757109,28.4019404 47.1617904,16.3062124 39.4277843,8.57220634 C32.2815059,1.42592789 21.4112346,0.27332538 13.0636922,5.1143988 C13.0819062,5.22527613 13.0909091,5.33885474 13.0909091,5.45453611 C13.0909091,6.65952102 12.1140758,7.63635429 10.9090909,7.63635429 C9.704106,7.63635429 8.72727273,6.65952102 8.72727273,5.45453611 C8.72727273,4.2495512 9.704106,3.27271793 10.9090909,3.27271793 C11.1744609,3.27271793 11.4287656,3.3200942 11.6640084,3.40685012 C20.8846475,-2.12684991 33.0218261,-0.91930877 40.9705628,7.0294279 Z" id="形状结合" fill="#00A4FF" fill-rule="nonzero" transform="translate(24.000000, 23.999991) scale(-1, 1) translate(-24.000000, -23.999991) "></path>
            <polyline id="路径-2" stroke="#00A4FF" stroke-width="2" points="11.5 32.5000166 18.5 20.5000166 25.5 34.5000166 31.4251851 22.4517034"></polyline>
            <circle id="椭圆形" fill="#00A4FF" cx="18.5" cy="20.5000166" r="2.5"></circle>
            <circle id="椭圆形备份-4" fill="#00A4FF" cx="33" cy="18.0000166" r="2"></circle>
            <circle id="椭圆形备份-2" fill="#00A4FF" cx="25.5" cy="34.5000166" r="2.5"></circle>
            <circle id="椭圆形备份-3" stroke="#00A4FF" stroke-width="2" cx="33" cy="18.0000166" r="5"></circle>
            <circle id="椭圆形备份" fill="#00A4FF" cx="11.5" cy="32.5000166" r="2.5"></circle>
        </g>
    </g>
</svg>