<?xml version="1.0" encoding="UTF-8"?>
<svg width="48px" height="48px" viewBox="0 0 48 48" version="1.1" xmlns="http://www.w3.org/2000/svg" xmlns:xlink="http://www.w3.org/1999/xlink">
    <!-- Generator: Sketch 53.1 (72631) - https://sketchapp.com -->
    <title>ES-48px</title>
    <desc>Created with Sketch.</desc>
    <g id="ES-48px" stroke="none" stroke-width="1" fill="none" fill-rule="evenodd">
        <rect id="Rectanglehui" fill="#444444" opacity="0" x="0" y="0" width="48" height="48"></rect>
        <g id="9e11e4be3a1c85536dd28be118b97eaa" transform="translate(0.000000, 3.000000)" fill="#00A4FF">
            <g id="Group">
                <path d="M45,36.1 C43.7,36.1 42.6,36.9 42.2,38.1 L4,38.1 L4,12.1 L2,12.1 L2,38.1 L2,40.1 L4,40.1 L42.2,40.1 C42.6,41.3 43.7,42.1 45,42.1 C46.7,42.1 48,40.8 48,39.1 C48,37.4 46.7,36.1 45,36.1 Z" id="Path"></path>
                <path d="M5.8,4.1 C5.4,5.3 4.3,6.1 3,6.1 C1.3,6.1 0,4.8 0,3.1 C0,1.4 1.3,0.1 3,0.1 C4.3,0.1 5.4,0.9 5.8,2.1 L44,2.1 L46,2.1 L46,4.1 L46,30.1 L44,30.1 L44,4.1 L5.8,4.1 Z M33.8005808,26 L36.0036733,26 C34.0445541,30.6979037 29.4079,34 24,34 C18.5921,34 13.9554459,30.6979037 11.9963267,26 L14.1994148,26 C16.020131,29.5616764 19.725315,32 24,32 C28.2746855,32 31.9798698,29.5616759 33.8005808,26 Z M33.8005808,16 C31.9798698,12.4383241 28.2746855,10 24,10 C19.725315,10 16.020131,12.4383236 14.1994198,15.9999989 L11.9963267,16 C13.9554459,11.3020963 18.5921,8 24,8 C29.4079,8 34.0445541,11.3020963 36.0036733,16 L33.8005808,16 Z M11,20 L31,20 L31,22 L11,22 L11,20 Z" id="Combined-Shape"></path>
            </g>
        </g>
        <rect id="Rectangle" fill="#FFFFFF" x="33" y="22" width="5" height="4"></rect>
    </g>
</svg>