<?xml version="1.0" encoding="utf-8"?>
<!-- Generator: Adobe Illustrator 17.0.0, SVG Export Plug-In . SVG Version: 6.00 Build 0)  -->
<!DOCTYPE svg PUBLIC "-//W3C//DTD SVG 1.1//EN" "http://www.w3.org/Graphics/SVG/1.1/DTD/svg11.dtd">
<svg version="1.1" id="图层_1" xmlns="http://www.w3.org/2000/svg" xmlns:xlink="http://www.w3.org/1999/xlink" x="0px" y="0px"
	 width="48px" height="48px" viewBox="0 0 48 48" enable-background="new 0 0 48 48" xml:space="preserve">
<line fill="none" stroke="#00A4FF" stroke-width="2" stroke-linecap="square" stroke-miterlimit="10" x1="22" y1="38" x2="26" y2="38"/>
<g>
	<g>
		<g>
			<g>
				<defs>
					<polygon id="SVGID_1_" points="35,11 35,15 33,15 33,11 29,11 29,9 35,9 					"/>
				</defs>
				<clipPath id="SVGID_2_">
					<use xlink:href="#SVGID_1_"  overflow="visible"/>
				</clipPath>
				<rect x="24" y="4" clip-path="url(#SVGID_2_)" fill="#00A4FF" width="16" height="16"/>
			</g>
		</g>
	</g>
</g>
<g>
	<g>
		<g>
			<g>
				<defs>
					<polygon id="SVGID_3_" points="38,3 10,3 10,45 40,45 40,47 8,47 8,45 8,3 8,1 40,1 40,3 40,39 38,39 					"/>
				</defs>
				<clipPath id="SVGID_4_">
					<use xlink:href="#SVGID_3_"  overflow="visible"/>
				</clipPath>
				<rect x="3" y="-4" clip-path="url(#SVGID_4_)" fill="#00A4FF" width="42" height="56"/>
			</g>
		</g>
	</g>
</g>
<g>
	<g>
		<g>
			<g>
				<defs>
					<polygon id="SVGID_5_" points="33,23 33,18 35,18 35,23 35,25 15,25 13,25 13,11 13,9 25,9 25,11 15,11 15,23 					"/>
				</defs>
				<clipPath id="SVGID_6_">
					<use xlink:href="#SVGID_5_"  overflow="visible"/>
				</clipPath>
				<rect x="8" y="4" clip-path="url(#SVGID_6_)" fill="#00A4FF" width="32" height="26"/>
			</g>
		</g>
	</g>
</g>
<g>
	
		<rect x="28.659" y="9.172" transform="matrix(0.7069 0.7073 -0.7073 0.7069 18.7156 -16.8239)" fill="#00A4FF" width="2" height="10"/>
	
		<rect x="22.416" y="14.586" transform="matrix(0.7069 0.7073 -0.7073 0.7069 18.4717 -13.4082)" fill="#00A4FF" width="6" height="2"/>
	
		<rect x="18.758" y="11.414" transform="matrix(0.7069 0.7073 -0.7073 0.7069 18.8141 -8.5782)" fill="#00A4FF" width="2" height="14"/>
</g>
</svg>
