<?xml version="1.0" encoding="UTF-8"?>
<svg width="48px" height="48px" viewBox="0 0 48 48" version="1.1" xmlns="http://www.w3.org/2000/svg" xmlns:xlink="http://www.w3.org/1999/xlink">
    <!-- Generator: Sketch 50.2 (55047) - http://www.bohemiancoding.com/sketch -->
    <title>Artboard 1 Copy 5</title>
    <desc>Created with Sketch.</desc>
    <defs></defs>
    <g id="Artboard-1-Copy-5" stroke="none" stroke-width="1" fill="none" fill-rule="evenodd">
        <path d="M25,16.8862858 L25,23.4059972 L30.851658,26.5883016 C30.4480841,27.1047543 30.1677041,27.7230199 30.0551001,28.3985114 L24.001,25.1061847 L17.9432272,28.3885538 C17.8289962,27.7137529 17.5472714,27.0963755 17.1426098,26.5809835 L23,23.4072574 L23,16.8862858 C23.3196546,16.9690263 23.6547416,17.0130387 24,17.0130387 C24.3452584,17.0130387 24.6803454,16.9690263 25,16.8862858 Z M15,25.1756165 C14.6803454,25.0929513 14.3452584,25.0489879 14,25.0489879 C13.6547416,25.0489879 13.3196546,25.0929513 13,25.1756165 L13,18.0175324 L20.1529001,14.0984181 C20.3413368,14.7619099 20.6954209,15.355474 21.1672949,15.8310381 L15,19.2101337 L15,25.1756165 Z M17.7746385,30.3990949 L24,33.8100055 L30.2253615,30.3990949 C30.4532235,31.0499692 30.843305,31.6243091 31.3467845,32.0730735 L24,36.0984181 L16.6532155,32.0730735 C17.156695,31.6243091 17.5467765,31.0499692 17.7746385,30.3990949 Z M33,25.1756165 L33,19.2101337 L26.8327051,15.8310381 C27.3045791,15.355474 27.6586632,14.7619099 27.8470999,14.0984181 L35,18.0175324 L35,25.1756165 C34.6803454,25.0929513 34.3452584,25.0489879 34,25.0489879 C33.6547416,25.0489879 33.3196546,25.0929513 33,25.1756165 Z M44.762,27 L46.799,27 C45.328,38.284 35.686,47 24,47 C11.298,47 1,36.703 1,24 C1,11.297 11.298,1 24,1 C35.686,1 45.328,9.716 46.799,21 L44.762,21 C43.303,10.827 34.576,3 24,3 C12.403,3 3,12.402 3,24 C3,35.598 12.403,45 24,45 C34.576,45 43.303,37.173 44.762,27 Z M16,29 C16,30.104 15.104,31 14,31 C12.896,31 12,30.104 12,29 C12,27.895 12.896,27 14,27 C15.104,27 16,27.895 16,29 Z M36,29 C36,30.104 35.104,31 34,31 C32.896,31 32,30.104 32,29 C32,27.895 32.896,27 34,27 C35.104,27 36,27.895 36,29 Z M26,13 C26,14.104 25.104,15 24,15 C22.896,15 22,14.104 22,13 C22,11.895 22.896,11 24,11 C25.104,11 26,11.895 26,13 Z" id="Combined-Shape" fill="#00A4FF"></path>
    </g>
</svg>