<?xml version="1.0" encoding="UTF-8"?>
<svg width="48px" height="48px" viewBox="0 0 48 48" version="1.1" xmlns="http://www.w3.org/2000/svg" xmlns:xlink="http://www.w3.org/1999/xlink">
    <!-- Generator: Sketch 50.2 (55047) - http://www.bohemiancoding.com/sketch -->
    <title>ic1_企点logo48*48</title>
    <desc>Created with Sketch.</desc>
    <defs></defs>
    <g id="ic1_企点logo48*48" stroke="none" stroke-width="1" fill="none" fill-rule="evenodd">
        <path d="M24.5823422,33.0213193 L10.5045342,40.8610304 C10.3408822,40.9521656 10.1566683,41 9.96935142,41 L1.16844468,41 C0.98441231,41 0.803320938,40.9538276 0.641755356,40.8657113 C0.108407719,40.5748288 -0.0881491253,39.9066583 0.202733355,39.3733107 L18.0915262,6.57331068 C18.2842745,6.21989699 18.6546792,6 19.0572375,6 L27.8190604,6 C27.9959088,6 28.1701501,6.04263944 28.327014,6.12430376 C28.8658762,6.40483878 29.0752917,7.06909144 28.7947567,7.60795359 L18.190394,27.9772097 L24.5781312,23.9632859 L30.9347268,27.9270304 L26.1305664,19.0986944 C25.9578578,18.7813175 25.9520275,18.3993613 26.1149687,18.0768609 L29.4327729,11.5101187 C29.5324197,11.3128934 29.6891555,11.1502508 29.8825613,11.0433794 C30.4142946,10.7495564 31.0835403,10.9424208 31.3773633,11.4741542 L46.7908226,39.3679863 C46.8808245,39.5308632 46.9280343,39.7139108 46.9280343,39.9 C46.9280343,40.5075132 46.4355475,41 45.8280343,41 L39.3219344,41 C39.136032,41 38.953162,40.9528849 38.7904035,40.863055 L24.5823422,33.0213193 Z M26.3358547,8 L19.5915375,8 L2.68444677,39 L9.7356506,39 L24.5780019,30.7345268 L39.5538127,39 L44.3024526,39 L30.4501825,13.9314617 L28.1129577,18.5573986 L36.3225106,33.6436331 L24.582213,26.3228056 L13.0117419,33.5934538 L26.3358547,8 Z" id="Path-2" fill="#00A4FF" fill-rule="nonzero"></path>
    </g>
</svg>