<?xml version="1.0" encoding="UTF-8"?>
<svg width="48px" height="48px" viewBox="0 0 48 48" version="1.1" xmlns="http://www.w3.org/2000/svg" xmlns:xlink="http://www.w3.org/1999/xlink">
    <!-- Generator: Sketch 52.2 (67145) - http://www.bohemiancoding.com/sketch -->
    <title>TBDS产品Logo_48x48</title>
    <desc>Created with Sketch.</desc>
    <g id="TBDS产品Logo_48x48" stroke="none" stroke-width="1" fill="none" fill-rule="evenodd">
        <g id="大数据处理套件" transform="translate(2.000000, 2.000000)" fill="#00A4FF" fill-rule="nonzero">
            <g id="Group-85" transform="translate(22.000000, 22.000000) scale(-1, 1) translate(-22.000000, -22.000000) ">
                <path d="M4.46575823,8.70839891 L5.89458298,10.1372237 C0.113931712,17.9648794 0.768358844,29.0526301 7.85786438,36.1421356 C14.9473699,43.2316412 26.0351206,43.8860683 33.8627763,38.105417 L35.2916011,39.5342418 C26.6689754,46.0876184 14.3156225,45.4283209 6.44365081,37.5563492 C-1.42832088,29.6843775 -2.08761841,17.3310246 4.46575823,8.70839891 Z M8.70839891,4.46575823 C17.3310246,-2.08761841 29.6843775,-1.42832088 37.5563492,6.44365081 C45.4283209,14.3156225 46.0876184,26.6689754 39.5342418,35.2916011 L38.105417,33.8627763 C43.8860683,26.0351206 43.2316412,14.9473699 36.1421356,7.85786438 C29.0526301,0.768358844 17.9648794,0.113931712 10.1372237,5.89458298 L8.70839891,4.46575823 Z" id="Combined-Shape"></path>
                <circle id="Oval-13" cx="10" cy="5" r="2"></circle>
                <circle id="Oval-13-Copy" cx="34" cy="39" r="2"></circle>
            </g>
            <path d="M15.8055465,28.529096 C17.4191103,30.0604591 19.5998344,31 22,31 C26.9705627,31 31,26.9705627 31,22 C31,17.0294373 26.9705627,13 22,13 L22,11 C28.0751322,11 33,15.9248678 33,22 C33,28.0751322 28.0751322,33 22,33 C19.0502341,33 16.3716505,31.8389305 14.3963317,29.9488741 L15.8055465,28.529096 Z M20.6571098,30.9004912 C19.4878152,30.7255588 18.3920598,30.325693 17.4152866,29.746337 C18.4043626,30.3341195 19.5021372,30.7279002 20.6571013,30.9005271 Z M18.0865316,20.6656273 L18.0865316,13.8913199 C15.053887,15.3563893 13,18.4642117 13,22 C13,23.1125768 13.2016248,24.1929783 13.5850843,25.2008174 L18.0865316,20.6656273 Z M11,22 C11,16.5775263 14.9235393,12.0714444 20.0865316,11.1658403 L20.0865316,21.4896832 L13.1264107,28.501977 C11.7895729,26.6806047 11,24.4325097 11,22 Z" id="Combined-Shape"></path>
        </g>
    </g>
</svg>