<?xml version="1.0" encoding="UTF-8"?>
<svg width="48px" height="48px" viewBox="0 0 48 48" version="1.1" xmlns="http://www.w3.org/2000/svg" xmlns:xlink="http://www.w3.org/1999/xlink">
    <!-- Generator: Sketch 53.2 (72643) - https://sketchapp.com -->
    <title>智能对话品台简介</title>
    <desc>Created with Sketch.</desc>
    <g id="智能对话品台简介" stroke="none" stroke-width="1" fill="none" fill-rule="evenodd">
        <g id="Group-11-Copy-5" transform="translate(0.000000, 3.000000)" fill="#00A4FF" fill-rule="nonzero">
            <g id="Group-7">
                <path d="M5.82929429,2 L44,2 L46,2 L46,29 L44,29 L44,4 L5.82929429,4 C5.41745788,5.16519237 4.30621883,6 3,6 C1.34314575,6 0,4.65685425 0,3 C0,1.34314575 1.34314575,0 3,0 C4.30621883,0 5.41745788,0.834807627 5.82929429,2 Z M42.1707057,40 L4,40 L2,40 L2,13 L4,13 L4,38 L42.1707057,38 C42.5825421,36.8348076 43.6937812,36 45,36 C46.6568542,36 48,37.3431458 48,39 C48,40.6568542 46.6568542,42 45,42 C43.6937812,42 42.5825421,41.1651924 42.1707057,40 Z" id="Combined-Shape"></path>
            </g>
            <path d="M21.3333333,29 L36,29 L36,18 L31,18 L31,16 L38,16 L38,31 L22,31 L20,32.5 L20,30 L21.3333333,29 Z M20,25 L18,25 L18,31.5 L20,30 L20,25 Z M18,33 L18.8,33.4 L18,34 L18,33 Z M21.3333333,29 L36,29 L36,18 L31,18 L31,16 L38,16 L38,31 L22,31 L20,32.5 L20,30 L21.3333333,29 Z M20,25 L18,25 L18,34 L20,32.4992981 L20,25 Z M18.8,33.4 L18,34 L18,33 L18.8,33.4 Z" id="Path"></path>
            <path d="M13,25 L14.3333333,24 L15,24 L30,24 L30,12 L13,12 L13,25 Z M11,10 L32,10 L32,26 L15,26 L11,29 L11,10 Z" id="Rectangle-Copy-27" transform="translate(21.500000, 19.500000) scale(-1, 1) translate(-21.500000, -19.500000) "></path>
            <circle id="Oval" cx="16.5" cy="17.5" r="1.5"></circle>
            <circle id="Oval-Copy-4" cx="21.5" cy="17.5" r="1.5"></circle>
            <circle id="Oval-Copy-5" cx="26.5" cy="17.5" r="1.5"></circle>
        </g>
    </g>
</svg>