<?xml version="1.0" encoding="UTF-8"?>
<svg width="48px" height="48px" viewBox="0 0 48 48" version="1.1" xmlns="http://www.w3.org/2000/svg" xmlns:xlink="http://www.w3.org/1999/xlink">
    <title>即视可视化-48px-#00A4FF</title>
    <g id="即视可视化-48px-#00A4FF" stroke="none" stroke-width="1" fill="none" fill-rule="evenodd">
        <rect fill="#FFFFFF" opacity="0" x="0" y="0" width="48" height="48"></rect>
        <g id="编组">
            <g id="编组-8" transform="translate(0.000000, 2.000000)" fill="#00A4FF">
                <g id="Group">
                    <path d="M45,36.125 C43.7,36.125 42.6,36.925 42.2,38.125 L4,38.125 L4,12.125 L2,12.125 L2,38.125 L2,40.125 L4,40.125 L42.2,40.125 C42.6,41.325 43.7,42.125 45,42.125 C46.7,42.125 48,40.825 48,39.125 C48,37.425 46.7,36.125 45,36.125 Z" id="Path"></path>
                    <path d="M5.8,4.125 L44,4.125 L44,30.125 L46,30.125 L46,4.125 L46,2.125 L44,2.125 L5.8,2.125 C5.4,0.925 4.3,0.125 3,0.125 C1.3,0.125 0,1.425 0,3.125 C0,4.825 1.3,6.125 3,6.125 C4.3,6.125 5.4,5.325 5.8,4.125 Z" id="Path"></path>
                </g>
                <g id="编组-6" transform="translate(11.000000, 10.000000)" fill-rule="nonzero">
                    <path d="M9.78347245,-1.13686838e-13 L11.952352,0.0131027331 L2.50351034,16.8521027 L13.0015103,16.8521027 L11.952352,18.8529736 L0.869342223,18.8529736 L-3.00204306e-13,17.358763 L9.78347245,-1.13686838e-13 Z M15.7195482,22.8660763 L13.5506687,22.8529736 L22.9995103,6.01397361 L12.5015103,6.01397361 L13.5506687,4.01310273 L24.6336785,4.01310273 L25.5030207,5.50731332 L15.7195482,22.8660763 Z" id="路径-2"></path>
                    <polygon id="路径-3" points="17.1556914 10.3877762 15.8545437 12.2917111 8.64521367 12.2917111 9.94636143 10.3877762"></polygon>
                </g>
            </g>
            <rect id="矩形" x="0" y="0" width="48" height="48"></rect>
        </g>
    </g>
</svg>