<?xml version="1.0" encoding="utf-8"?>
<!-- Generator: Adobe Illustrator 19.0.0, SVG Export Plug-In . SVG Version: 6.00 Build 0)  -->
<svg version="1.1" id="图层_1_x5F_复制_x5F_2" xmlns="http://www.w3.org/2000/svg" xmlns:xlink="http://www.w3.org/1999/xlink"
	 x="0px" y="0px" viewBox="16 -16 48 48" style="enable-background:new 16 -16 48 48;" xml:space="preserve">
<style type="text/css">
	.st0{fill:#00A4FF;}
</style>
<g id="图层_1_5_">
	<g id="XMLID_20_">
		<g id="XMLID_21_">
			<circle class="st0" cx="19.2" cy="-9.6" r="3.2"/>
		</g>
	</g>
	<g id="XMLID_18_">
		<g id="XMLID_19_">
			<polygon class="st0" points="62,16.2 60,16.2 60,-8.8 19,-8.8 19,-10.8 62,-10.8 			"/>
		</g>
	</g>
	<g id="XMLID_16_">
		<g id="XMLID_17_">
			<polygon class="st0" points="61,27.2 18,27.2 18,0.2 20,0.2 20,25.2 61,25.2 			"/>
		</g>
	</g>
	<g id="XMLID_15_">
		<circle class="st0" cx="61" cy="26.2" r="3"/>
	</g>
</g>
<g>
	<path class="st0" d="M37.9,20.9h-5.7L23.3,5.6l8.1,0l3.8,4.9l7-10.9L55.8-1L37.9,20.9z M33.4,19H37L51.8,0.8l-8.4,0.4l-8.1,12.2
		l-5.1-6.3h-4.1L33.4,19z"/>
</g>
</svg>
