<?xml version="1.0" encoding="utf-8"?>
<!-- Generator: Adobe Illustrator 22.0.0, SVG Export Plug-In . SVG Version: 6.00 Build 0)  -->
<svg version="1.1" id="图层_1_x5F_复制_x5F_2" xmlns="http://www.w3.org/2000/svg" xmlns:xlink="http://www.w3.org/1999/xlink"
	 x="0px" y="0px" viewBox="0 0 48 48" style="enable-background:new 0 0 48 48;" xml:space="preserve">
<style type="text/css">
	.st0{fill:#00A4FF;}
	.st1{fill:none;stroke:#00A4FF;stroke-width:2;stroke-linecap:square;}
</style>
<g id="图层_1_5_">
	<g id="XMLID_20_">
		<circle id="XMLID_21_" class="st0" cx="3.2" cy="6.2" r="3.2"/>
	</g>
	<g id="XMLID_18_">
		<polygon id="XMLID_19_" class="st0" points="46,32 44,32 44,7 3,7 3,5 46,5 		"/>
	</g>
	<g id="XMLID_16_">
		<polygon id="XMLID_17_" class="st0" points="45,43 2,43 2,16 4,16 4,41 45,41 		"/>
	</g>
	<circle id="XMLID_15_" class="st0" cx="45" cy="42" r="3"/>
</g>
<line class="st1" x1="38" y1="27" x2="38" y2="21"/>
<polyline class="st1" points="24.3,15 19,24 27,24 21.7,33 "/>
<path class="st1" d="M12,16h6 M12,32h4 M12,32V16"/>
<path class="st1" d="M34,32h-6 M34,16h-4 M34,16v16"/>
</svg>
