<svg id="图层_1" data-name="图层 1" xmlns="http://www.w3.org/2000/svg" width="48" height="48" viewBox="0 0 48 48">
  <defs>
    <style>
      .cls-1 {
        fill: #00a4ff;
      }

      .cls-2 {
        fill: none;
      }
    </style>
  </defs>
  <title>威胁情报云查杀</title>
  <path class="cls-1" d="M23.9,2.2a34,34,0,0,1,20,6.4v.7a41.88,41.88,0,0,1-20,35.5A41.59,41.59,0,0,1,3.9,9.4V8.7h0a34.13,34.13,0,0,1,20-6.5Zm0-1.9A36,36,0,0,0,2.2,7.5L2,7.7V9.4A43.55,43.55,0,0,0,23.7,47l.3.2.3-.2A43.55,43.55,0,0,0,46,9.4V7.6l-.2-.2A36.74,36.74,0,0,0,23.9.3Z"/>
  <g>
    <path class="cls-1" d="M24,32.8a12.74,12.74,0,0,1-2.69-.29l-1.17-.26L24,23.11l3.65,9.2-1.16.24A12.3,12.3,0,0,1,24,32.8Zm-1.05-2a9.67,9.67,0,0,0,1.94,0L24,28.39Zm-.81-11.9-8.94-4.1.65-1a12.37,12.37,0,0,1,3.71-3.6l1-.65Zm-5.91-4.91L18.53,15l-.92-2.41A10.43,10.43,0,0,0,16.23,13.94Zm9.65,4.8,3.55-9.32,1,.65a12.37,12.37,0,0,1,3.71,3.6l.65,1Zm4.52-6.26-.91,2.41,2.3-1.06A10.44,10.44,0,0,0,30.4,12.48Z"/>
    <g>
      <g>
        <line class="cls-2" x1="14.51" y1="16.46" x2="12.7" y2="15.63"/>
        <polygon class="cls-1" points="23.95 20.78 23.91 20.77 23.93 20.73 23.95 20.78"/>
      </g>
      <polygon class="cls-1" points="24.11 20.66 24.07 20.67 24.09 20.62 24.11 20.66"/>
      <g>
        <polygon class="cls-1" points="23.95 20.78 23.91 20.77 23.93 20.73 23.95 20.78"/>
        <polygon class="cls-1" points="24.09 20.62 24.11 20.66 24.07 20.67 24.09 20.62"/>
      </g>
    </g>
    <g>
      <path class="cls-1" d="M14.51,16.46A10.33,10.33,0,0,0,20,30l-.78,1.84a12.34,12.34,0,0,1-7.53-11.34,12.09,12.09,0,0,1,1-4.9Z"/>
      <path class="cls-1" d="M22.27,24.59l-.63,1.5a6.07,6.07,0,0,1-3.26-8l1.49.69a4.16,4.16,0,0,0-.34,1.67A4.46,4.46,0,0,0,22.27,24.59Z"/>
      <path class="cls-1" d="M28.5,9.06l-.72,1.86a10.36,10.36,0,0,0-7.59,0l-.71-1.87A12.32,12.32,0,0,1,28.5,9.06Z"/>
      <path class="cls-1" d="M26.27,14.81l-.59,1.52a4.4,4.4,0,0,0-3.38,0l-.57-1.53A6.09,6.09,0,0,1,26.27,14.81Z"/>
      <path class="cls-1" d="M36.33,20.53A12.33,12.33,0,0,1,28.59,32l-.74-1.86a10.33,10.33,0,0,0,6.48-9.57,10.21,10.21,0,0,0-.87-4.16l1.81-.83A12.06,12.06,0,0,1,36.33,20.53Z"/>
      <path class="cls-1" d="M30.12,20.48a6.07,6.07,0,0,1-3.83,5.65l-.6-1.5a4.51,4.51,0,0,0,2.8-4.15,4.35,4.35,0,0,0-.36-1.75l1.47-.68s0,0,0,0A5.89,5.89,0,0,1,30.12,20.48Z"/>
    </g>
    <circle class="cls-1" cx="24.04" cy="20.54" r="0.89"/>
  </g>
</svg>
