<?xml version="1.0" encoding="utf-8"?>
<!-- Generator: Adobe Illustrator 22.1.0, SVG Export Plug-In . SVG Version: 6.00 Build 0)  -->
<svg version="1.1" id="圖層_1" xmlns="http://www.w3.org/2000/svg" xmlns:xlink="http://www.w3.org/1999/xlink" x="0px" y="0px"
	 width="48px" height="48px" viewBox="0 0 48 48" style="enable-background:new 0 0 48 48;" xml:space="preserve">
<style type="text/css">
	.st0{fill:none;}
	.st1{fill:#00A4FF;}
</style>
<rect x="12.5" y="26.7" class="st0" width="23" height="17"/>
<polygon class="st1" points="0,2.2 0,37.2 10,37.2 10,35.2 2,35.2 2,4.2 46,4.2 46,35.2 37,35.2 37,37.2 48,37.2 48,2.2 "/>
<path class="st1" d="M37.4,14.8C34,11.4,29.2,9.2,24,9.2s-10,2.1-13.4,5.6l1.4,1.4c3.1-3.1,7.3-5,12-5s8.9,1.9,12,5L37.4,14.8z"/>
<path class="st1" d="M15.5,19.7l1.4,1.4c1.8-1.8,4.3-2.9,7.1-2.9s5.3,1.1,7.1,2.9l1.4-1.4c-2.2-2.2-5.2-3.5-8.5-3.5
	S17.7,17.6,15.5,19.7z"/>
<path class="st1" d="M24,27.4l12.9,16.3H11.1L24,27.4 M24,24.2L7,45.7h34.1L24,24.2L24,24.2z"/>
</svg>
