<?xml version="1.0" encoding="utf-8"?>
<!-- Generator: Adobe Illustrator 21.0.0, SVG Export Plug-In . SVG Version: 6.00 Build 0)  -->
<svg version="1.1" id="Layer_1" xmlns="http://www.w3.org/2000/svg" xmlns:xlink="http://www.w3.org/1999/xlink" x="0px" y="0px"
	 width="48px" height="48px" viewBox="0 0 48 48" style="enable-background:new 0 0 48 48;" xml:space="preserve">
<style type="text/css">
	.st0{fill:url(#SVGID_1_);}
	.st1{fill:url(#SVGID_2_);}
	.st2{fill:#00A4FF;}
</style>
<path class="st2" d="M46.516,24.508L32.234,10.227L24,18.46l-8.235-8.234L1.484,24.508c-1.976,1.976-1.976,5.19,0,7.166l6.065,6.065
	l8.216-8.217l8.252,8.251l8.217-8.217l8.199,8.199l6.082-6.082C47.473,30.717,48,29.444,48,28.091S47.473,25.465,46.516,24.508z
	 M7.55,34.911L2.898,30.26C2.319,29.68,2,28.91,2,28.091s0.319-1.589,0.898-2.169l12.867-12.867l6.82,6.819l-3.761,3.761
	l-4.473,4.473l0,0L7.55,34.911z M45.102,30.26l-4.668,4.668l-8.199-8.199l-8.217,8.217l-6.838-6.837l3.766-3.766l11.289-11.288
	l12.867,12.867C46.298,27.118,46.298,29.063,45.102,30.26z"/>
</svg>
