<?xml version="1.0" encoding="UTF-8"?>
<svg width="48px" height="48px" viewBox="0 0 48 48" version="1.1" xmlns="http://www.w3.org/2000/svg" xmlns:xlink="http://www.w3.org/1999/xlink">
    <title>腾讯云释义-48</title>
    <g id="页面-1" stroke="none" stroke-width="1" fill="none" fill-rule="evenodd">
        <g id="画板" transform="translate(-306.000000, -245.000000)">
            <g id="腾讯云释义-48" transform="translate(306.000000, 245.000000)">
                <g id="机器翻译-48px备份-2" fill-rule="nonzero">
                    <rect id="Rectangle-Copy" fill="#444444" opacity="0" x="0" y="0" width="48" height="48"></rect>
                    <g id="806540701f0c6d97e488781e3abf9588" transform="translate(0.000000, 3.000000)" fill="#00A4FF">
                        <g id="Group-4-Copy">
                            <path d="M5.8,4 L44,4 L44,29 L46,29 L46,2 L5.8,2 C5.4,0.8 4.3,0 3,0 C1.3,0 0,1.3 0,3 C0,4.7 1.3,6 3,6 C4.3,6 5.4,5.2 5.8,4 Z" id="Shape"></path>
                            <path d="M45,36 C43.7,36 42.6,36.8 42.2,38 L4,38 L4,13 L2,13 L2,40 L42.2,40 C42.6,41.2 43.7,42 45,42 C46.7,42 48,40.7 48,39 C48,37.3 46.7,36 45,36 Z" id="Shape"></path>
                        </g>
                    </g>
                </g>
                <rect id="矩形" fill="#00A4FF" x="9" y="16" width="13" height="2"></rect>
                <rect id="矩形备份-7" fill="#00A4FF" x="9" y="22" width="12" height="2"></rect>
                <rect id="矩形备份-9" fill="#00A4FF" x="9" y="28" width="14" height="2"></rect>
                <g id="编组" transform="translate(25.000000, 15.000000)">
                    <path d="M7,1 C5.34314575,1 3.84314575,1.67157288 2.75735931,2.75735931 C1.67157288,3.84314575 1,5.34314575 1,7 C1,8.17704233 1.3386484,9.27505351 1.92442126,10.201464 C2.63879972,11.3312667 3.71971411,12.2063531 5.00033368,12.6590274 L5.00009988,15 L9.00027524,15 L9.00091978,12.6585843 C10.281143,12.2057281 11.3616899,11.3306904 12.0758331,10.2010618 C12.6614498,9.27473571 13,8.17687197 13,7 C13,5.34314575 12.3284271,3.84314575 11.2426407,2.75735931 C10.1568542,1.67157288 8.65685425,1 7,1 Z" id="形状结合" stroke="#00A4FF" stroke-width="2"></path>
                    <rect id="矩形" fill="#00A4FF" x="5" y="8" width="4" height="2"></rect>
                    <rect id="矩形" fill="#00A4FF" x="6" y="10" width="2" height="2"></rect>
                </g>
            </g>
        </g>
    </g>
</svg>