<?xml version="1.0" encoding="UTF-8"?>
<svg width="51px" height="48px" viewBox="0 0 51 48" version="1.1" xmlns="http://www.w3.org/2000/svg" xmlns:xlink="http://www.w3.org/1999/xlink">
    <title>ic/energy_blue/48*48</title>
    <g id="页面-1" stroke="none" stroke-width="1" fill="none" fill-rule="evenodd">
        <g id="腾讯能源" transform="translate(-135.000000, -534.000000)" fill="#00A4FF">
            <g id="ic/energy_blue/48*48" transform="translate(137.000000, 534.000000)">
                <g id="ic/energy">
                    <circle id="椭圆形备份-7" transform="translate(42.883178, 25.758178) rotate(-720.000000) translate(-42.883178, -25.758178) " cx="42.8831776" cy="25.7581776" r="2.38317757"></circle>
                    <path d="M24.8310825,0.204914228 C29.2596276,0.204914228 32.5228401,5.54618305 34.0428278,14.1442501 C34.5870192,17.2225613 34.8684656,20.58589 34.8684656,24.0366899 C34.8684656,27.6505673 34.5597384,31.1675015 33.9647035,34.3593822 C32.4068278,42.7161244 29.1843966,47.8684656 24.8310825,47.8684656 C21.7323994,47.8684656 19.168892,45.1273608 17.4082554,40.6397085 L19.2082195,39.7669753 C20.678955,43.6134097 22.684423,45.8684656 24.8310825,45.8684656 C27.8047398,45.8684656 30.5606413,41.7062099 31.9985761,33.992854 C32.571038,30.922059 32.8684656,27.5271532 32.8684656,24.0366899 C32.8684656,20.7032637 32.5972525,17.4558698 32.0733659,14.4924165 C30.6675247,6.54003847 27.8626079,2.20491423 24.8310825,2.20491423 C22.8624402,2.20491423 21.0125431,4.1014656 19.5849247,7.3814167 L17.7383724,6.63440972 C19.4827171,2.62271045 21.9208735,0.204914228 24.8310825,0.204914228 Z" id="形状结合" fill-rule="nonzero" transform="translate(25.881456, 24.036690) rotate(-360.000000) translate(-25.881456, -24.036690) "></path>
                    <circle id="椭圆形备份-4" transform="translate(18.081192, 7.149533) rotate(-720.000000) translate(-18.081192, -7.149533) " cx="18.0811916" cy="7.14953271" r="2.38317757"></circle>
                    <polygon id="路径备份" transform="translate(24.942340, 22.719271) rotate(-735.000000) translate(-24.942340, -22.719271) " points="29.7086948 22.5978582 25.9061637 21.3522707 28.0760834 16.9996448 20.1759845 22.8406837 23.9785157 24.0862712 21.808596 28.4388971"></polygon>
                    <circle id="椭圆形备份-6" transform="translate(14.258178, 37.445678) rotate(-720.000000) translate(-14.258178, -37.445678) " cx="14.2581776" cy="37.4456776" r="2.38317757"></circle>
                    <path d="M22.9366368,2.7711154e-13 C27.3651819,2.7792505e-13 30.6283944,5.34126882 32.1483821,13.9393359 C32.6925735,17.017647 32.9740199,20.3809758 32.9740199,23.8317757 C32.9740199,27.4456531 32.6652927,30.9625873 32.0702578,34.154468 C30.5123821,42.5112102 27.2899509,47.6635514 22.9366368,47.6635514 C19.8379537,47.6635514 17.2744463,44.9224466 15.5138097,40.4347942 L17.3137738,39.5620611 C18.7845093,43.4084955 20.7899773,45.6635514 22.9366368,45.6635514 C25.9102941,45.6635514 28.6661956,41.5012957 30.1041304,33.7879397 C30.6765923,30.7171447 30.9740199,27.322239 30.9740199,23.8317757 C30.9740199,20.4983494 30.7028068,17.2509556 30.1789202,14.2875023 C28.773079,6.33512424 25.9681622,2 22.9366368,2 C20.9679945,2 19.1180974,3.89655137 17.690479,7.17650247 L15.8439267,6.42949549 C17.5882714,2.41779622 20.0264278,2.76576943e-13 22.9366368,2.7711154e-13 Z" id="形状结合" fill-rule="nonzero" transform="translate(23.987010, 23.831776) rotate(-600.000000) translate(-23.987010, -23.831776) "></path>
                    <path d="M21.9366368,-1 C26.3651819,-1 29.6283944,4.34126882 31.1483821,12.9393359 C31.6925735,16.017647 31.9740199,19.3809758 31.9740199,22.8317757 C31.9740199,26.4456531 31.6652927,29.9625873 31.0702578,33.154468 C29.5123821,41.5112102 26.2899509,46.6635514 21.9366368,46.6635514 C18.8379537,46.6635514 16.2744463,43.9224466 14.5138097,39.4347942 L16.3137738,38.5620611 C17.7845093,42.4084955 19.7899773,44.6635514 21.9366368,44.6635514 C24.9102941,44.6635514 27.6661956,40.5012957 29.1041304,32.7879397 C29.6765923,29.7171447 29.9740199,26.322239 29.9740199,22.8317757 C29.9740199,19.4983494 29.7028068,16.2509556 29.1789202,13.2875023 C27.773079,5.33512424 24.9681622,1 21.9366368,1 C19.9679945,1 18.1180974,2.89655137 16.690479,6.17650247 L14.8439267,5.42949549 C16.5882714,1.41779622 19.0264278,-1 21.9366368,-1 Z" id="形状结合" fill-rule="nonzero" transform="translate(22.987010, 22.831776) rotate(-483.000000) translate(-22.987010, -22.831776) "></path>
                </g>
            </g>
        </g>
    </g>
</svg>