<?xml version="1.0" encoding="UTF-8"?>
<svg width="48px" height="48px" viewBox="0 0 48 48" version="1.1" xmlns="http://www.w3.org/2000/svg" xmlns:xlink="http://www.w3.org/1999/xlink">
    <title>TWS-48px</title>
    <g id="TWS-48px" stroke="none" stroke-width="1" fill="none" fill-rule="evenodd">
        <rect id="Rectangle-Copy" fill="#444444" opacity="0" x="0" y="0" width="48" height="48"></rect>
        <path d="M46.07,2.023 L46.07,4.023 L9.147,4.023 L3.929,9.24 L3.929,37.741 L10.163,43.972 L10.161,43.977 L37.792,43.977 L37.789,43.972 L44.023,37.741 L44.023,7.981 L46.023,7.973 L46.023,38.51 L38.584,45.977 L9.399,45.977 L9.398,45.978 L1.929,38.51 L1.929,8.469 L8.26,2.141 L8.375,2.023 L46.07,2.023 Z M22.3068068,13 L29.2930097,25.9078016 C30.634362,25.9526226 31.7079971,27.0541225 31.7079971,28.4063833 C31.7079971,29.7870952 30.588709,30.9063833 29.2079971,30.9063833 C27.8272853,30.9063833 26.7079971,29.7870952 26.7079971,28.4063833 C26.7079971,27.8880184 26.8657608,27.4065012 27.1358922,27.0072275 L20.7041996,15 L13,15 L13,32.9992922 L20.6774623,33 L21.7041996,35 L11,35 L11,13 L22.3068068,13 Z M36.6263136,13 L36.6263136,35 L24.4360394,35 L17.868,22.805 L17.7669671,22.8092786 C16.4414837,22.8092786 15.3569284,21.7777426 15.2722848,20.4736543 L15.2669671,20.3092786 C15.2669671,18.9285667 16.3862552,17.8092786 17.7669671,17.8092786 C19.147679,17.8092786 20.2669671,18.9285667 20.2669671,20.3092786 C20.2669671,20.8930573 20.066874,21.4301017 19.7315293,21.8555702 L25.6755713,33 L34.6263136,33 L34.6263136,15 L26.1931548,14.9992922 L25.0386466,13 L36.6263136,13 Z" id="形状结合" fill="#00A4FF"></path>
    </g>
</svg>