<?xml version="1.0" encoding="utf-8"?>
<!-- Generator: Adobe Illustrator 22.0.1, SVG Export Plug-In . SVG Version: 6.00 Build 0)  -->
<svg version="1.1" id="图层_1" xmlns="http://www.w3.org/2000/svg" xmlns:xlink="http://www.w3.org/1999/xlink" x="0px" y="0px"
	 viewBox="0 0 47.7 47.3" style="enable-background:new 0 0 47.7 47.3;" xml:space="preserve">
<style type="text/css">
	.st0{fill:#00A4FF;}
</style>
<title>乐享</title>
<path class="st0" d="M24,3.3l4.9,2.8l-11.1,6.4V6.9L24,3.3 M24,1.3c-0.4,0-0.7,0.1-1,0.3l-7.1,4.1V16L33,6.2l-8-4.6
	C24.7,1.4,24.4,1.3,24,1.3z"/>
<path class="st0" d="M35.2,9.8l6.1,3.5V19l-11.1-6.4L35.2,9.8 M35.2,7.5l-8.9,5.2l17.1,9.9v-9.3c0-0.7-0.4-1.3-1-1.7
	C42.3,11.6,35.2,7.4,35.2,7.5z"/>
<path class="st0" d="M11.6,10.5v20l1,0.6l10.4,6l1,0.6l1-0.6l10.4-6l1-0.6v-7.1l4.9,2.9v7L24,43.3l-17.3-10v-20L11.6,10.5 M13.6,7
	l-8,4.6c-0.6,0.3-1,1-1,1.7v20c0,0.7,0.4,1.3,1,1.7L23,45c0.6,0.3,1.3,0.3,2,0l17.4-10c0.6-0.3,1-1,1-1.7V25l-8.9-5.2v9.5l-10.5,6
	l-10.4-6V7z"/>
</svg>
