<?xml version="1.0" encoding="utf-8"?>
<!-- Generator: Adobe Illustrator 23.0.3, SVG Export Plug-In . SVG Version: 6.00 Build 0)  -->
<svg version="1.1" id="图层_1" xmlns="http://www.w3.org/2000/svg" xmlns:xlink="http://www.w3.org/1999/xlink" x="0px" y="0px"
	 width="48px" height="48px" viewBox="0 0 48 48" style="enable-background:new 0 0 48 48;" xml:space="preserve">
<g>
	<polyline style="fill:#00A4FF;" points="24,12.3 34,18.7 34,25 36,24 36,17.5 24,10 12,17.5 12,19.8 	"/>
	<polygon style="fill:#00A4FF;" points="34,29.3 34,29.3 24,35.8 14,29.3 14,23 12,24.1 12,30.5 24,38 36,30.5 36,28.2 	"/>
</g>
<g>
	<path style="fill:#00A4FF;" d="M13,21c-1.1,0-2,0.9-2,2s0.9,2,2,2c1.1,0,2-0.9,2-2S14.1,21,13,21L13,21z"/>
</g>
<g>
	<path style="fill:#00A4FF;" d="M35,23c-1.1,0-2,0.9-2,2s0.9,2,2,2c1.1,0,2-0.9,2-2S36.1,23,35,23L35,23z"/>
</g>
<g>
	<rect x="20.2" y="19" style="fill-rule:evenodd;clip-rule:evenodd;fill:#00A4FF;" width="2" height="10"/>
	<g>
		<polygon style="fill:#00A4FF;" points="23.8,24 27.8,29 25.2,29 21.2,24 25.2,19 27.8,19 		"/>
	</g>
</g>
<polygon style="fill:#00A4FF;" points="43.3,4 46,4 46,2 8.4,2 8.3,2.1 2,8.5 2,8.5 2,38.5 9.4,46 9.4,46 9.4,46 38,46 38.5,46 
	46,38.5 46,8 46,8 44,8 44,37.8 37.7,44 37.7,44 10.2,44 10.2,44 4,37.8 4,9.2 9.2,4 41.6,4 "/>
</svg>
