<?xml version="1.0" encoding="utf-8"?>
<!-- Generator: Adobe Illustrator 16.0.0, SVG Export Plug-In . SVG Version: 6.00 Build 0)  -->
<!DOCTYPE svg PUBLIC "-//W3C//DTD SVG 1.1//EN" "http://www.w3.org/Graphics/SVG/1.1/DTD/svg11.dtd">
<svg version="1.1" id="图层_1" xmlns="http://www.w3.org/2000/svg" xmlns:xlink="http://www.w3.org/1999/xlink" x="0px" y="0px"
	 width="48px" height="48px" viewBox="0 0 48 48" enable-background="new 0 0 48 48" xml:space="preserve">
<g>
	<g>
		<path fill="#00A4FF" d="M21.96,41.996h5.034v-1.941H21.96V41.996z M39.999,42.002V0H8.001v47.047h31.998V45H10.04V2.05h27.912
			v39.952H39.999z M23.921,14.511l-0.034-0.034l-0.034,0.034l-3.125-1.529l1.494,3.193l-1.494,3.193l3.125-1.529v0.034l0.034-0.034
			l3.125,1.529l-1.461-3.193l1.495-3.193L23.921,14.511z"/>
	</g>
</g>
<path fill="#00A4FF" d="M30.491,7.393l1.792,1.812l-2.776,6l-0.387,0.837l0.385,0.838l2.774,6.031l-1.803,1.862l-5.802-2.833
	l-0.877-0.428l-0.878,0.428l-5.809,2.837l-1.791-1.831l2.77-6.024l0.384-0.835l-0.384-0.835l-2.77-6.024l1.791-1.831l5.809,2.836
	l0.877,0.428l0.877-0.428L30.491,7.393 M30.904,4.966l-7.107,3.47l-7.106-3.47l-3.763,3.847l3.345,7.274l-3.345,7.274l3.763,3.846
	l7.106-3.47l7.107,3.47l3.764-3.889l-3.346-7.274l3.346-7.231l-0.033-0.074L30.904,4.966L30.904,4.966z"/>
</svg>
