<svg id="图层_1" data-name="图层 1" xmlns="http://www.w3.org/2000/svg" width="48" height="48" viewBox="0 0 48 48">
  <defs>
    <style>
      .cls-1 {
        fill: #00a4ff;
      }
    </style>
  </defs>
  <title> </title>
  <g>
    <path class="cls-1" d="M46.92,7.52A40.24,40.24,0,0,0,24,0,40.24,40.24,0,0,0,1.08,7.52,46.79,46.79,0,0,0,24,48,46.79,46.79,0,0,0,46.92,7.52ZM42.67,21.79A43.71,43.71,0,0,1,24,45.65,43.71,43.71,0,0,1,5.33,21.79,45.42,45.42,0,0,1,3.06,8.58,38,38,0,0,1,24,2,38,38,0,0,1,44.94,8.58,45.37,45.37,0,0,1,42.67,21.79Z"/>
    <path class="cls-1" d="M15.3,15.82l-.46.17-.35.13q-.4.18-.78.39l-.24.14a7.51,7.51,0,0,0-.78.58l-.13.11a6,6,0,0,0-.74.77l-.06.06a8.31,8.31,0,0,0-.63.92l0,.05a7.4,7.4,0,0,0-.46,1,.36.36,0,0,1,0,.09,8.17,8.17,0,0,0-.27,1c0,.06,0,.1,0,.15a7,7,0,0,0,6.92,8.24H30.78a7,7,0,0,0,6.92-8.24c0-.05,0-.09,0-.15a5.68,5.68,0,0,0-.27-1l0-.09a7.4,7.4,0,0,0-.46-1l0-.05a8.31,8.31,0,0,0-.63-.92l-.06-.06a6.73,6.73,0,0,0-.74-.77l-.13-.11a7.51,7.51,0,0,0-.78-.58l-.24-.14q-.37-.21-.78-.39L33.16,16l-.46-.17a9,9,0,0,0-17.4,0ZM23,11.27v4.42H17.45A7,7,0,0,1,23,11.27Zm5.15,6.42v3.89h-8.3V17.69ZM12.47,21a3.71,3.71,0,0,1,.19-.46c.05-.1.09-.21.14-.31s.17-.28.26-.41a1.77,1.77,0,0,1,.16-.22,4.16,4.16,0,0,1,.32-.39l.18-.18a3.17,3.17,0,0,1,.39-.34l.19-.14a5.18,5.18,0,0,1,1.47-.73l.36-.09h1.72v3.89H12.3A4.37,4.37,0,0,1,12.47,21ZM23,27.61H17.22a5,5,0,0,1-4.93-4H23Zm7.78,0H25v-4H35.71A5,5,0,0,1,30.78,27.61Zm1.09-9.92c.12,0,.24.06.36.09a5.18,5.18,0,0,1,1.47.73l.19.14a3.17,3.17,0,0,1,.39.34l.17.18a3.09,3.09,0,0,1,.33.39c.06.07.1.14.15.21a4.94,4.94,0,0,1,.27.42l.14.3c.07.16.14.32.2.49a5.25,5.25,0,0,1,.16.6H30.15V17.69ZM25,11.27a7,7,0,0,1,5.55,4.42H25Z"/>
  </g>
</svg>
