<?xml version="1.0" encoding="utf-8"?>
<!-- Generator: Adobe Illustrator 21.1.0, SVG Export Plug-In . SVG Version: 6.00 Build 0)  -->
<svg version="1.1" id="图层_1" xmlns="http://www.w3.org/2000/svg" xmlns:xlink="http://www.w3.org/1999/xlink" x="0px" y="0px"
	 viewBox="0 0 48 48" style="enable-background:new 0 0 48 48;" xml:space="preserve">
<style type="text/css">
	.st0{fill:#00A4FF;}
</style>
<g>
	<g id="XMLID_2_">
		<g id="XMLID_4_">
			<g>
				<polygon class="st0" points="10,44 10,4 38,4 38,38 40,38 40,2 8,2 8,46 40,46 40,44 				"/>
			</g>
		</g>
		<rect id="XMLID_3_" x="21" y="36" class="st0" width="6" height="2"/>
	</g>
	<rect id="XMLID_1_" x="21" y="36" class="st0" width="6" height="2"/>
	<path class="st0" d="M20.7,23.5c-2.6,0-4.7-2-4.7-4.5c0-2.1,1.5-3.9,3.7-4.4c0.5-0.1,1,0.2,1.2,0.7c0.1,0.5-0.2,1-0.7,1.1
		C18.9,16.7,18,17.7,18,19c0,1.4,1.3,2.6,2.8,2.6s2.8-1.2,2.8-2.6v-5.9c-0.1-2.6,2.1-4.6,4.7-4.6s4.7,2,4.7,4.5
		c0,2.1-1.4,3.8-3.5,4.4c-0.5,0.1-1-0.2-1.2-0.7c-0.1-0.5,0.2-1,0.7-1.1c1.2-0.3,2-1.3,2-2.5c0-1.4-1.3-2.6-2.8-2.6
		c-1.6,0-2.8,1.2-2.8,2.6V19C25.5,21.5,23.3,23.5,20.7,23.5L20.7,23.5z"/>
</g>
</svg>
