<?xml version="1.0" encoding="UTF-8"?>
<svg width="48px" height="48px" viewBox="0 0 48 48" version="1.1" xmlns="http://www.w3.org/2000/svg" xmlns:xlink="http://www.w3.org/1999/xlink">
    <!-- Generator: Sketch 52.4 (67378) - http://www.bohemiancoding.com/sketch -->
    <title>Artboard</title>
    <desc>Created with Sketch.</desc>
    <g id="Artboard" stroke="none" stroke-width="1" fill="none" fill-rule="evenodd">
        <g id="云搜" transform="translate(2.000000, 2.000000)">
            <path d="M36.2241717,37.4913238 C36.3398536,37.3807836 36.4486621,37.2031247 36.561887,37.0900355 C36.7046283,36.9474654 36.8453993,36.8028877 36.9841551,36.6563478 C37.187157,36.4419577 37.3858453,36.2233678 37.5800795,36.0007202 C37.8605845,35.6791817 38.1317998,35.3491805 38.3933015,35.0111446 C38.4977143,34.8761732 38.6005785,34.7399208 38.7018671,34.6024148 C41.3602528,30.9934789 42.9333333,26.520959 42.9333333,21.6774194 C42.9333333,9.70531123 33.3223793,0 21.4666667,0 C9.61095404,0 0,9.70531123 0,21.6774194" id="Oval-77" stroke="#00A4FF" stroke-width="2"></path>
            <path d="M-6.03961325e-14,20.7748945 C6.02390678e-14,21.313356 6.48962365e-14,21.5042915 6.48962365e-14,22.2265074 C6.48962365e-14,32.060739 7.89471225,40.032959 17.6333333,40.032959 C27.3719544,40.032959 35.2666667,32.060739 35.2666667,22.2265074" id="Oval-78" stroke="#00A4FF" stroke-width="2"></path>
            <path d="M35.2666667,22.4516129 C35.2666667,21.6927139 35.1945792,20.9508171 35.0569417,20.2325242 C34.0313737,14.8803603 29.3664204,10.8387097 23.7666667,10.8387097 C21.1836937,10.8387097 18.7996143,11.6986348 16.8798605,13.1504471" id="Oval-79" stroke="#00A4FF" stroke-width="2"></path>
            <path d="M16.760555,22.5883356 C16.760555,19.5953086 14.3578165,17.1689808 11.3938883,17.1689808 C8.42996019,17.1689808 6.02722168,19.5953086 6.02722168,22.5883356 C6.02722168,25.5813626 8.42996019,28.0076904 11.3938883,28.0076904" id="Oval-80" stroke="#00A4FF" stroke-width="2"></path>
            <rect id="Rectangle-161" fill="#00A4FF" x="11" y="27" width="12.2666667" height="2"></rect>
            <path d="M15.2369303,24 C16.083767,24 16.7702637,23.3067635 16.7702637,22.4516129" id="Oval-81" stroke="#00A4FF" stroke-width="2"></path>
            <path d="M23,30.0392707 C24.1045695,30.0392707 25,29.1350491 25,28.0196353 C25,26.9042215 24.1045695,26 23,26 C21.8954305,26 21,26.9042215 21,28.0196353 C21,29.1350491 21.8954305,30.0392707 23,30.0392707 Z" id="Oval-82" fill="#00A4FF"></path>
            <path d="M41.99646,45.1227668 C43.1010295,45.1227668 43.99646,44.2185452 43.99646,43.1031314 C43.99646,41.9877176 43.1010295,41.0834961 41.99646,41.0834961 C40.8918905,41.0834961 39.99646,41.9877176 39.99646,43.1031314 C39.99646,44.2185452 40.8918905,45.1227668 41.99646,45.1227668 Z" id="Oval-82-Copy" fill="#00A4FF"></path>
            <polygon id="Rectangle-162" fill="#00A4FF" transform="translate(39.332515, 40.239232) rotate(-45.000000) translate(-39.332515, -40.239232) " points="38.3708449 35.0808783 40.332515 35.068264 40.2941851 45.3975852 38.332515 45.4101995"></polygon>
        </g>
    </g>
</svg>