<?xml version="1.0" encoding="UTF-8"?>
<svg width="48px" height="48px" viewBox="0 0 48 48" version="1.1" xmlns="http://www.w3.org/2000/svg" xmlns:xlink="http://www.w3.org/1999/xlink">
    <!-- Generator: Sketch 52.6 (67491) - http://www.bohemiancoding.com/sketch -->
    <title>企业邮箱-48px</title>
    <desc>Created with Sketch.</desc>
    <g id="企业邮箱-48px" stroke="none" stroke-width="1" fill="none" fill-rule="evenodd">
        <rect id="Rectangle-Copy" fill="#444444" opacity="0" x="0" y="0" width="48" height="48"></rect>
        <g id="分组-70" transform="translate(2.000000, 7.000000)" fill="#00A4FF" fill-rule="nonzero">
            <path d="M44,28 L44,0 L0,0 L0,34 L44,34 L44,32 L42,32 L2,32 L2,7 L42,7 L42,28 L44,28 Z M2,5 L2,2 L42,2 L42,5 L2,5 Z" id="XMLID_98_"></path>
            <path d="M11,13 L12.9147345,13 L22,17.7449219 L31.0852655,13 L33,13 L33,26 L11,26 L11,13 Z M31,24 L31,15.3008658 L22,20.0012564 L13,15.3008658 L13,24 L31,24 Z" id="Combined-Shape"></path>
        </g>
    </g>
</svg>