<?xml version="1.0" encoding="utf-8"?>
<!-- Generator: Adobe Illustrator 16.0.0, SVG Export Plug-In . SVG Version: 6.00 Build 0)  -->
<!DOCTYPE svg PUBLIC "-//W3C//DTD SVG 1.1//EN" "http://www.w3.org/Graphics/SVG/1.1/DTD/svg11.dtd">
<svg version="1.1" id="图层_1" xmlns="http://www.w3.org/2000/svg" xmlns:xlink="http://www.w3.org/1999/xlink" x="0px" y="0px"
	 width="48px" height="48px" viewBox="0 0 48 48" enable-background="new 0 0 48 48" xml:space="preserve">
<g>
	<g>
		<path fill-rule="evenodd" clip-rule="evenodd" fill="#00A4FF" d="M41.07,40.989V1.085H9.219v45.83H41.07v-1.85h-1.829v0.021
			H11.048V3.029h28.193v37.96H41.07z M28.074,40.868v-1.797h-5.995v1.797H28.074z"/>
	</g>
</g>
<path fill="#00A4FF" d="M23.95,8.665L23.95,8.665c0.303,0,0.591,0.078,0.857,0.231l8.762,5.059
	c-0.207-0.037-0.416-0.055-0.626-0.056c-1.64,0-2.775,1.073-3.478,1.965c-0.296-0.156-0.591-0.314-0.75-0.419
	c-0.714-0.471-1.689-0.752-2.61-0.752c-1.623,0-3.052,0.834-3.922,2.288c-0.526,0.878-1.804,2.994-2.958,4.9l-1.436-0.829
	c-0.822-0.475-1.105-1.53-0.63-2.352l5.295-9.173C22.762,8.995,23.335,8.665,23.95,8.665 M27.957,21.488
	c0.063,0.022,0.185,0.078,0.366,0.209c0.397,0.287,0.639,0.453,0.833,0.587c0.103,0.07,0.189,0.13,0.288,0.201
	c0.437,0.311,0.925,0.496,1.423,0.541l-1.554,2.691c-0.307,0.531-0.879,0.861-1.494,0.861c-0.303,0-0.591-0.078-0.857-0.232
	l-1.502-0.866c1.281-2.242,2.012-3.409,2.281-3.76C27.84,21.592,27.913,21.522,27.957,21.488 M23.95,6.665
	c-1.287,0-2.538,0.668-3.227,1.862l-5.295,9.173c-1.028,1.779-0.418,4.056,1.362,5.084l3.133,1.809
	c1.301-2.148,3.287-5.431,3.977-6.584c0.601-1.004,1.447-1.315,2.206-1.315c0.626,0,1.192,0.212,1.509,0.421
	c0.395,0.26,1.066,0.59,1.635,0.896c0.235,0.127,0.463,0.187,0.658,0.187c0.233,0,0.423-0.084,0.528-0.238
	c0.363-0.525,1.25-2.061,2.508-2.061c0.205,0,0.419,0.041,0.643,0.133c0.934,0.385,1.826,1.356,2.415,2.104l0.342-0.592
	c1.027-1.78,0.417-4.057-1.363-5.084l-9.172-5.296C25.222,6.826,24.582,6.665,23.95,6.665L23.95,6.665z M33.805,18.267
	c-0.23,0-0.436,0.033-0.597,0.113c-0.593,0.294-1.156,1.665-1.492,2.254c-0.161,0.28-0.379,0.403-0.608,0.403
	c-0.167,0-0.341-0.064-0.503-0.18c-0.275-0.197-0.5-0.34-1.109-0.78c-0.555-0.4-1.082-0.604-1.578-0.604
	c-0.641,0-1.23,0.338-1.761,1.027c-0.683,0.888-2.479,4.053-3.413,5.721l3.219,1.857c0.586,0.339,1.227,0.5,1.857,0.5
	c1.286,0,2.537-0.668,3.227-1.861l4.643-8.04C35.106,18.472,34.378,18.267,33.805,18.267L33.805,18.267z"/>
</svg>
