<?xml version="1.0" encoding="utf-8"?>
<!-- Generator: Adobe Illustrator 21.1.0, SVG Export Plug-In . SVG Version: 6.00 Build 0)  -->
<svg version="1.1" id="图层_1" xmlns="http://www.w3.org/2000/svg" xmlns:xlink="http://www.w3.org/1999/xlink" x="0px" y="0px"
	 viewBox="0 0 48 48" style="enable-background:new 0 0 48 48;" xml:space="preserve">
<style type="text/css">
	.st0{fill:#00A4FF;}
	.st1{fill:none;stroke:#00A4FF;stroke-width:2;stroke-linecap:round;stroke-miterlimit:10;}
	.st2{fill:none;stroke:#00A4FF;stroke-width:2;stroke-linecap:round;stroke-linejoin:round;}
</style>
<title>物联卡-48px</title>
<desc>Created with Sketch.</desc>
<g>
	<path class="st0" d="M21.6,16c0.1,0,0.1,0,0.2,0C21.7,16.1,21.6,16,21.6,16z"/>
	<path class="st0" d="M24.1,44.3C12.9,44.3,3.8,35.2,3.8,24S12.9,3.8,24.1,3.8c10.3,0,18.9,7.8,20.1,17.8h2
		C45,10.4,35.5,1.8,24.1,1.8C11.8,1.8,1.8,11.7,1.8,24s10,22.3,22.3,22.3c11.5,0,20.9-8.7,22.1-19.9h-2C43,36.4,34.4,44.3,24.1,44.3
		z"/>
</g>
<g>
	<line class="st1" x1="19.9" y1="29.3" x2="32.5" y2="16.4"/>
	<line class="st1" x1="8.7" y1="29.3" x2="21.3" y2="16.5"/>
	<line class="st1" x1="33.9" y1="29.6" x2="21.3" y2="16.5"/>
	<path id="椭圆_2_2_" class="st2" d="M32.7,16.4c1.1,0,2.4,0.5,3.4,1.1c3.2,1.9,4.3,6.1,2.2,9.1c-1.1,1.6-2.6,2.7-4.3,3"/>
</g>
</svg>
