<?xml version="1.0" encoding="UTF-8"?>
<svg width="48px" height="48px" viewBox="0 0 48 48" version="1.1" xmlns="http://www.w3.org/2000/svg" xmlns:xlink="http://www.w3.org/1999/xlink">
    <!-- Generator: Sketch 52.2 (67145) - http://www.bohemiancoding.com/sketch -->
    <title>云端剪辑-48px  </title>
    <desc>Created with Sketch.</desc>
    <g id="云端剪辑-48px--" stroke="none" stroke-width="1" fill="none" fill-rule="evenodd">
        <g id="分组-2-copy-4" transform="translate(3.000000, 6.000000)" fill="#00A4FF" fill-rule="nonzero">
            <g id="分组-2-copy-3">
                <g id="路径-3" transform="translate(19.507335, 18.585239) rotate(-353.000000) translate(-19.507335, -18.585239) translate(2.007335, 2.085239)">
                    <path d="M29.3142494,2.95625996 L30.1774255,0.98486855 L32.090179,1.0509041 C32.6904248,1.07162688 33.2349284,1.29847174 33.6579543,1.66103769 C34.2249755,2.14701883 34.5737432,2.876844 34.5459514,3.68097175 C34.5339543,4.0280954 34.4509579,4.36908619 34.3020773,4.68292895 L33.8937955,5.54359338 L31.5432578,5.83220312 L32.4950881,3.82572986 C32.5268728,3.75872723 32.544585,3.68595683 32.5471448,3.61189013 C32.5529732,3.44325083 32.4832967,3.28833558 32.3564288,3.17959995 C32.2628397,3.09938683 32.1485794,3.05411184 32.0211725,3.04971327 L29.3142494,2.95625996 Z M19.4087722,2.61428508 L2.68281901,2.03684134 C2.57738393,2.03320132 2.47317115,2.06015466 2.38281049,2.11440992 C2.27989102,2.17620587 2.20518626,2.26369452 2.16093266,2.37025627 C2.0941818,2.53099099 2.10572583,2.70903785 2.19640513,2.85989739 L18.8623602,30.5863842 C18.9176107,30.6783022 18.9988794,30.7519146 19.0959873,30.7979305 C19.2290132,30.8609666 19.3734757,30.8676322 19.5097571,30.8200984 C19.6484691,30.7717168 19.7587021,30.6742316 19.8226897,30.5393447 L26.8277477,15.7725725 L29.1782853,15.4839628 L21.6296788,31.3965438 C21.3258596,32.0369996 20.7889768,32.4920821 20.1684246,32.7085255 C19.5589952,32.9210894 18.8688689,32.9034921 18.23955,32.6052808 C17.7862352,32.3904715 17.4065489,32.0465554 17.1481949,31.616742 L0.482239799,3.89025521 C0.0497366751,3.17071696 0.014865876,2.32320614 0.313874645,1.60319912 C0.515310482,1.11814572 0.868275219,0.690959028 1.35327681,0.399749489 C1.77471937,0.146702705 2.2604721,0.0210687726 2.75182553,0.0380321686 L20.2473719,0.6420452 L19.4087722,2.61428508 Z" id="合并形状"></path>
                </g>
                <path d="M26.6999446,4.72579523 L20.4973733,15.2752675 C20.5252655,15.2283187 20.5246252,15.2371101 20.5038475,15.3668338 C20.4909715,15.448024 20.4909715,15.448024 20.4749078,15.5479119 C20.436473,15.7833383 20.6075992,15.9815828 21.4104664,16.0646205 L23.8753621,16.0517392 L23.8743646,16.0646847 L32.58365,16.0628403 L32.6950176,16.0628403 L35.5734095,12.5655123 L26.2551794,12.5331624 L27.8657414,9.58579628 L30.6672242,4.46018181 L26.6999446,4.72579523 Z M20.8023633,17.9927766 C19.0624898,17.6539115 18.2997204,16.4588152 18.501039,15.2256664 C18.5601947,14.8633165 18.5922818,14.5694555 18.7602935,14.2836974 L25.5116278,2.80087684 L33.5035359,2.26581042 C33.7051582,2.25038097 33.879281,2.40296797 33.8924499,2.60662304 C33.8972697,2.6811601 33.8796135,2.75565869 33.841809,2.82029714 L30.7116236,8.54860963 L30.1918811,9.49975066 L29.6208042,10.5448347 L30.8117334,10.5489692 L31.8956095,10.5527321 L38.1644368,10.5744955 L38.4119155,10.8584695 C38.7691757,11.2684142 38.7624116,11.8810492 38.3961873,12.283006 L33.6392334,18.0628403 L32.58365,18.0628403 L21.7144571,18.0651422 L20.8023633,17.9927766 Z" id="合并形状"></path>
            </g>
        </g>
    </g>
</svg>