<svg xmlns="http://www.w3.org/2000/svg" width="48" height="48" viewBox="0 0 48 48">
  <title>存储_归档存储_icon_48x48</title>
  <polygon points="34.408 21.057 34.408 17.992 24.016 11.985 13.624 17.992 13.624 24.896 23.889 18.985 28.016 21.202 17.854 27.077 17.72 27.155 23.971 30.774 24.016 30.8 33.262 25.476 33.262 29.421 24.144 34.777 14.738 29.356 14.738 26.551 13.592 27.201 13.592 30.008 23.971 35.989 24.016 36.015 34.33 30.033 34.376 30.007 34.376 23.425 24.016 29.465 20.011 27.155 30.178 21.277 30.316 21.197 23.931 17.676 23.886 17.651 14.738 22.911 14.738 18.644 23.984 13.319 33.229 18.644 33.229 21.704 34.408 21.057" style="fill: #00a4ff"/>
  <path d="M24.015,36.45l-.189-.111L13.217,30.225V26.982l1.9-1.074V29.14l9.03,5.2,8.744-5.137V26.124l-8.868,5.107-.186-.1-6.861-3.973,10.274-5.94-3.351-1.8L13.25,25.545V17.776l10.766-6.225,10.767,6.225v3.5l-1.929,1.058V18.86l-8.87-5.108L15.113,18.86v3.4l8.771-5.043.185.1,7.012,3.867-10.32,5.963,3.254,1.877,10.736-6.259v7.457l-.193.107ZM13.967,29.791l10.049,5.791L34,29.791V24.078L24.017,29.9l-4.756-2.744,10.293-5.949L23.89,18.082l-9.527,5.477V18.427l9.621-5.54,9.62,5.54V21.07l.429-.235V18.208L24.016,12.417,14,18.208v6.04l9.882-5.693,4.9,2.634L18.468,27.154l5.548,3.213,9.621-5.54v4.809L24.146,35.21l-9.783-5.637V27.2l-.4.225Z" style="fill: #00a4ff"/>
  <polygon points="44 19.1 44 34.9 24 45.8 4 34.9 4 13.1 24 2.2 44 13.1 44 13.1 46 12 46 12 24 0 2 12 2 36 24 48 46 36 46 18 44 19.1" style="fill: #00a4ff"/>
</svg>
