<?xml version="1.0" encoding="utf-8"?>
<!-- Generator: Adobe Illustrator 19.0.0, SVG Export Plug-In . SVG Version: 6.00 Build 0)  -->
<svg version="1.1" id="图层_1" xmlns="http://www.w3.org/2000/svg" xmlns:xlink="http://www.w3.org/1999/xlink" x="0px" y="0px"
	 width="48px" height="48px" viewBox="-39 41 48 48" style="enable-background:new -39 41 48 48;" xml:space="preserve">
<style type="text/css">
	.st0{fill:#00A4FF;}
</style>
<title>icon</title>
<g>
	<path class="st0" d="M-14.896,86c-11.6,0-21-9.4-21-21s9.4-21,21-21c10.4,0,19.3,7.7,20.8,18h2c-1.7-12.6-13.2-21.5-25.8-19.8
		c-12.6,1.7-21.5,13.2-19.8,25.8s13.2,21.5,25.8,19.8c10.3-1.4,18.4-9.5,19.8-19.8h-2C4.404,78.3-4.496,86-14.896,86z"/>
</g>
<g>
	<g>
		<path class="st0" d="M-14.996,55.3l9,4.9v9.6l-8.9,4.9l-9.1-5.3v-9.2L-14.996,55.3 M-14.996,53l-11,6v11.6l11.1,6.4l10.9-6V59
			L-14.996,53L-14.996,53z"/>
	</g>
</g>
<g>
	<rect x="-15.996" y="54" class="st0" width="2" height="22"/>
</g>
<g>
	
		<rect x="-26.182" y="63.997" transform="matrix(-0.8944 -0.4472 0.4472 -0.8944 -57.4502 116.4324)" class="st0" width="22.399" height="2"/>
</g>
<g>
	
		<rect x="-16.565" y="54.265" transform="matrix(-0.4659 -0.8849 0.8849 -0.4659 -80.3456 81.5326)" class="st0" width="2" height="21.501"/>
</g>
<g>
	<circle class="st0" cx="-14.996" cy="75" r="2.5"/>
</g>
<g>
	<circle class="st0" cx="-4.996" cy="70" r="2.5"/>
</g>
<g>
	<circle class="st0" cx="-24.996" cy="70" r="2.5"/>
</g>
<g>
	<circle class="st0" cx="-24.996" cy="60" r="2.5"/>
</g>
<g>
	<circle class="st0" cx="-4.996" cy="60" r="2.5"/>
</g>
<g>
	<circle class="st0" cx="-14.996" cy="55" r="2.5"/>
</g>
</svg>
