<?xml version="1.0" encoding="utf-8"?>
<!-- Generator: Adobe Illustrator 22.0.0, SVG Export Plug-In . SVG Version: 6.00 Build 0)  -->
<svg version="1.1" xmlns="http://www.w3.org/2000/svg" xmlns:xlink="http://www.w3.org/1999/xlink" x="0px" y="0px"
	 viewBox="0 0 48 48" style="enable-background:new 0 0 48 48;" xml:space="preserve">
<style type="text/css">
	.st0{fill:#00A4FF;}
</style>
<g id="图层_1">
	<g id="XMLID_215_">
		<circle id="XMLID_216_" class="st0" cx="3.2" cy="6.2" r="3.2"/>
	</g>
	<g id="XMLID_213_">
		<polygon id="XMLID_214_" class="st0" points="46,32 44,32 44,7 3,7 3,5 46,5 		"/>
	</g>
	<g id="XMLID_211_">
		<polygon id="XMLID_212_" class="st0" points="45,43 2,43 2,16 4,16 4,41 45,41 		"/>
	</g>
	<circle id="XMLID_210_" class="st0" cx="45" cy="42" r="3"/>
</g>
<g id="图层_2_x5F_复制_2">
	<polygon class="st0" points="34.8,13.7 31.5,32.3 28.5,32.3 25.2,13.7 24.8,13.7 23.2,13.7 22.8,13.7 19.5,32.3 16.5,32.3 
		13.2,13.7 11.2,13.7 14.8,34.3 15,34.3 16.8,34.3 19.2,34.3 21,34.3 21.2,34.3 24,18.3 26.8,34.3 27,34.3 28.8,34.3 31.2,34.3 
		33,34.3 33.2,34.3 36.8,13.7 	"/>
</g>
</svg>
