<?xml version="1.0" encoding="utf-8"?>
<!-- Generator: Adobe Illustrator 21.0.2, SVG Export Plug-In . SVG Version: 6.00 Build 0)  -->
<svg version="1.1" id="图层_1" xmlns="http://www.w3.org/2000/svg" xmlns:xlink="http://www.w3.org/1999/xlink" x="0px" y="0px"
	 width="48px" height="48px" viewBox="0 0 48 48" style="enable-background:new 0 0 48 48;" xml:space="preserve">
<style type="text/css">
	.st0{fill:#03A4FF;}
</style>
<path class="st0" d="M32.9,27.8c0.2,0.4,0.3,0.8,0.5,1.1c0.8,2.1,0.8,3.9,0.1,4.6c-0.3,0.3-0.9,0.5-1.7,0.5c-1.5,0-3.6-0.7-6-2.1
	c1.1-0.8,2.2-1.8,3.2-2.8c0.5-0.5,0.9-0.9,1.3-1.4c1-1.2,2-2.6,2.8-3.7c2.9-4.5,3.7-8.8,1.7-10.8c-0.7-0.7-1.8-1.1-3.1-1.1l0,0
	c-2.2,0-5,1-7.8,2.9c-2.9-1.9-5.6-2.9-7.8-2.9c-1.3,0-2.3,0.4-3.1,1.1c-1.7,1.7-1.3,5.2,0.7,9l0.1-0.1c0.4-0.6,0.8-1.1,1.3-1.7
	c-0.2-0.4-0.3-0.8-0.5-1.1c-0.8-2.1-0.8-3.9-0.1-4.6c0.3-0.3,0.9-0.5,1.7-0.5c1.5,0,3.6,0.7,6,2.1c-1.1,0.8-2.2,1.8-3.2,2.8
	c-1.1,1.1-2,2.1-2.8,3.2l0,0c-0.2,0.3-0.4,0.6-0.7,0.9c0,0.1-0.6,0.9-0.6,0.9c-3,4.5-3.8,8.9-1.8,10.9c0.7,0.7,1.8,1.1,3.1,1.1
	c2.2,0,5-1,7.8-2.9c2.9,1.9,5.6,2.9,7.8,2.9c1.3,0,2.3-0.4,3.1-1.1c1.7-1.7,1.3-5.2-0.7-9C33.8,26.6,33.4,27.2,32.9,27.8z
	 M31.8,14.1c0.8,0,1.3,0.2,1.7,0.5c0.7,0.7,0.7,2.5-0.1,4.6c-0.4,1-0.9,2-1.5,3.1c-0.8-1.1-1.8-2.2-2.8-3.2c-1.1-1.1-2.1-2-3.2-2.8
	C28.2,14.8,30.3,14.1,31.8,14.1z M16.2,34.1c-0.8,0-1.3-0.2-1.7-0.5c-0.7-0.7-0.7-2.5,0.1-4.6c0.4-1,0.9-2,1.5-3.1
	c0.8,1.1,1.8,2.2,2.8,3.2c1.1,1.1,2.1,2,3.2,2.8C19.8,33.4,17.6,34.1,16.2,34.1z M20.4,27.7c-1.1-1.1-2.2-2.4-3.1-3.6
	c0.9-1.2,1.9-2.5,3.1-3.6c1.2-1.2,2.4-2.2,3.6-3.1c1.2,0.9,2.4,1.9,3.6,3.1c1.1,1.1,2.2,2.4,3.1,3.6c-0.9,1.2-1.9,2.5-3.1,3.6
	c-1.2,1.2-2.4,2.2-3.6,3.1C22.8,30,21.6,28.9,20.4,27.7z"/>
<g>
	<path class="st0" d="M24.1,45c-11.6,0-21-9.4-21-21s9.4-21,21-21c10.6,0,19.3,7.8,20.8,18h2C45.4,9.7,35.8,1,24.1,1
		c-12.7,0-23,10.3-23,23s10.3,23,23,23c11.7,0,21.3-8.7,22.8-20h-2C43.4,37.2,34.7,45,24.1,45z"/>
</g>
<g>
	<ellipse transform="matrix(0.7071 -0.7071 0.7071 0.7071 -10.2675 16.0435)" class="st0" cx="14.2" cy="20.4" rx="2" ry="2"/>
</g>
<g>
	<ellipse transform="matrix(0.7071 -0.7071 0.7071 0.7071 -10.0665 32.5287)" class="st0" cx="34.2" cy="28.4" rx="2.5" ry="2.5"/>
</g>
</svg>
