<?xml version="1.0" encoding="UTF-8"?>
<svg width="48px" height="48px" viewBox="0 0 48 48" version="1.1" xmlns="http://www.w3.org/2000/svg" xmlns:xlink="http://www.w3.org/1999/xlink">
    <!-- Generator: Sketch 55.2 (78181) - https://sketchapp.com -->
    <title>腾讯文档企业版TDE-48px</title>
    <desc>Created with Sketch.</desc>
    <g id="腾讯文档企业版TDE-48px" stroke="none" stroke-width="1" fill="none" fill-rule="evenodd">
        <rect id="Rectangle-Copy" fill="#444444" opacity="0" x="0" y="0" width="48" height="48"></rect>
        <g id="编组-3" transform="translate(2.000000, 5.000000)" fill="#00A4FF">
            <path d="M40.2629436,17.3483931 L41.7221968,9.00003697 L35.1146227,9.00003697 C33.9682266,9.00003697 33.1101501,7.95587762 33.3054225,6.82728397 L34.1390375,2 L8.34425702,2 L6.94584357,10 L21.3294468,10 L22.9018146,2 L40.2629436,17.3483931 Z M40.1490458,18 L29.4830392,18 L25.8974323,37 L36.8279354,37 L40.1490458,18 Z M23.8621301,37 L27.8251693,16 L35.7181441,16 L24.191331,5.80953034 L22.9746191,12 L10.2674238,12 L13.597514,16 L22.4647446,16 L18.5026301,37 L23.8621301,37 Z M16.4673442,37 L20.0521144,18 L12.6601804,18 L6.78171067,10.9389664 L2.2261982,37 L16.4673442,37 Z M35.9855945,3.05997456 L35.3051922,7.00003697 L40.3619874,7.00003697 L35.9855945,3.05997456 Z M41.5403165,8.0608856 L41.8373761,8.34109921 L41.8393049,8.33006452 L41.5403165,8.0608856 Z M35.5758978,0 L44,7.58421135 L38.625631,38.3308592 C38.5578306,38.7177409 38.2245094,39 37.8349323,39 L0.803112572,39 C0.30395538,39 -0.0742606413,38.5454649 0.0124138637,38.0495244 L6.54653542,0.669325598 C6.61415253,0.282074251 6.94765697,0 7.33723413,0 L35.5758978,0 Z" id="形状结合"></path>
        </g>
    </g>
</svg>