<?xml version="1.0" encoding="utf-8"?>
<!-- Generator: Adobe Illustrator 19.0.0, SVG Export Plug-In . SVG Version: 6.00 Build 0)  -->
<svg version="1.1" id="图层_1_x5F_复制_x5F_2" xmlns="http://www.w3.org/2000/svg" xmlns:xlink="http://www.w3.org/1999/xlink"
	 x="0px" y="0px" viewBox="8 -8 48 48" style="enable-background:new 8 -8 48 48;" xml:space="preserve">
<style type="text/css">
	.st0{fill:#00A4FF;}
</style>
<g id="logo_9_">
	<g>
		<path class="st0" d="M15.3,31.9H9L25.7,2.6c1.7-2.7,4.5-4.4,7.6-4.4h6.2l-0.9,1.5c-2.6,4.6-15.8,27.7-16,28
			C21.2,30.3,18.4,31.9,15.3,31.9z M12.4,29.9h2.8c2.4,0,4.6-1.2,5.7-3.2C21.1,26.3,30.4,10,36,0.3h-2.7c-2.5,0-4.6,1.2-5.9,3.4
			L12.4,29.9z"/>
	</g>
	<g>
		<path class="st0" d="M54.6,31.8h-9.8V15.6l9.8-17.1V31.8z M46.8,29.8h5.8V6l-5.8,10.1V29.8z"/>
	</g>
	<g>
		<path class="st0" d="M28.6,31.4h-6.3l16.8-29C40,1,41.3-0.2,42.8-1.1C44-1.7,45.3-2,46.6-2h6.3L52-0.5c-5.3,9.2-15.4,26.6-16,27.7
			v0.1C34.5,29.8,31.7,31.4,28.6,31.4z M25.8,29.4h2.8c2.4,0,4.6-1.2,5.7-3.2l0,0c0.3-0.6,2.4-4.2,15.2-26.3h-2.8
			c-1,0-2,0.2-2.9,0.7c-1.2,0.7-2.3,1.7-3,2.7L25.8,29.4z"/>
	</g>
</g>
</svg>
