<?xml version="1.0" encoding="UTF-8"?>
<svg width="48px" height="48px" viewBox="0 0 48 48" version="1.1" xmlns="http://www.w3.org/2000/svg" xmlns:xlink="http://www.w3.org/1999/xlink">
    <!-- Generator: Sketch 53.2 (72643) - https://sketchapp.com -->
    <title>48-蓝</title>
    <desc>Created with Sketch.</desc>
    <g id="48-蓝" stroke="none" stroke-width="1" fill="none" fill-rule="evenodd" transform="translate(0.000000, 0.000000)">
        <path d="M6.4,7 L44,7 L44,32 L46,32 L46,5 L6.2,5 C5.7,3.8 4.6,3 3.2,3 C1.5,3 0.1,4.5 0.1,6.2 C0.1,8 1.5,9.4 3.3,9.4 C4.8,9.4 6,8.4 6.4,7 Z" id="Path" fill="#00A4FF" fill-rule="nonzero"></path>
        <path d="M44.8,38.7 C43.3,38.7 42.1,39.7 41.7,41 L4,41 L4,16 L2,16 L2,43 L41.8,43 C42.3,44.2 43.4,45.1 44.8,45.1 C46.6,45.1 48,43.7 48,41.9 C48,40.1 46.6,38.7 44.8,38.7 Z" id="Path" fill="#00A4FF" fill-rule="nonzero"></path>
        <path d="M11,15 L11,33 L37,33 L37,15 L11,15 Z M9,13 L39,13 L39,35 L9,35 L9,13 Z" id="矩形" fill="#00A4FF" fill-rule="nonzero"></path>
        <rect id="矩形" fill="#00A4FF" fill-rule="nonzero" x="21" y="20" width="13" height="2"></rect>
        <rect id="矩形备份-2" fill="#00A4FF" fill-rule="nonzero" x="14" y="20" width="5" height="2"></rect>
        <rect id="矩形备份-3" fill="#00A4FF" fill-rule="nonzero" x="14" y="26" width="5" height="2"></rect>
        <rect id="矩形备份" fill="#00A4FF" fill-rule="nonzero" x="21" y="26" width="13" height="2"></rect>
    </g>
</svg>