<?xml version="1.0" encoding="UTF-8"?>
<svg width="48px" height="48px" viewBox="0 0 48 48" version="1.1" xmlns="http://www.w3.org/2000/svg" xmlns:xlink="http://www.w3.org/1999/xlink">
    <!-- Generator: Sketch 55.2 (78181) - https://sketchapp.com -->
    <title>iPhone 8</title>
    <desc>Created with Sketch.</desc>
    <g id="iPhone-8" stroke="none" stroke-width="1" fill="none" fill-rule="evenodd">
        <g id="XMLID_369_-Copy" transform="translate(0.000000, 2.000000)" fill="#00A4FF" fill-rule="nonzero">
            <g id="XMLID_370_">
                <circle id="XMLID_9_" cx="3.256" cy="3.228" r="3.2"></circle>
            </g>
        </g>
        <g id="XMLID_367_-Copy" transform="translate(41.000000, 37.000000)" fill="#00A4FF" fill-rule="nonzero">
            <g id="XMLID_368_">
                <circle id="XMLID_8_" cx="3.8" cy="3.885" r="3.2"></circle>
            </g>
        </g>
        <polygon id="XMLID_7_-Copy" fill="#00A4FF" fill-rule="nonzero" points="46 31 44 31 44 6 3 6 3 4 46 4"></polygon>
        <g id="XMLID_363_-Copy" transform="translate(2.000000, 14.000000)" fill="#00A4FF" fill-rule="nonzero">
            <g id="XMLID_364_">
                <polygon id="XMLID_1_" points="43 27.997 0 27.997 0 0.997 2 0.997 2 25.997 43 25.997"></polygon>
            </g>
        </g>
        <g id="Group-9-Copy" transform="translate(14.000000, 11.000000)" stroke="#1DA6FC" stroke-width="2">
            <polyline id="Path-Copy-14" points="4.96103882 19.3375125 0 21.6526846 0 4.88687605 10.5127936 0 10.5127936 0 19.9821728 4.88687605 19.9821728 21.6526846 10.5127936 16.7466705"></polyline>
            <polyline id="Shape-Copy-26" points="10.3864304 0.116925336 4.98623637 4.8423081 4.98623637 21.6526846 10.5127936 16.7466705 10.5127936 4.48828949 10.5127936 0"></polyline>
        </g>
    </g>
</svg>