<?xml version="1.0" encoding="utf-8"?>
<!-- Generator: Adobe Illustrator 19.0.0, SVG Export Plug-In . SVG Version: 6.00 Build 0)  -->
<svg version="1.1" id="图层_1" xmlns="http://www.w3.org/2000/svg" xmlns:xlink="http://www.w3.org/1999/xlink" x="0px" y="0px"
	 width="48px" height="48px" viewBox="0 0 48 48" style="enable-background:new 0 0 48 48;" xml:space="preserve">
<style type="text/css">
	.st0{fill:#00A4FF;}
</style>
<g id="XMLID_215_">
	<circle id="XMLID_216_" class="st0" cx="3.199" cy="6.202" r="3.2"/>
</g>
<g id="XMLID_213_">
	<polygon id="XMLID_214_" class="st0" points="46,32 44,32 44,7 3,7 3,5 46,5 	"/>
</g>
<g id="XMLID_211_">
	<polygon id="XMLID_212_" class="st0" points="45,43 2,43 2,16 4,16 4,41 45,41 	"/>
</g>
<circle id="XMLID_210_" class="st0" cx="45" cy="42" r="3"/>
<rect id="XMLID_150_" x="13" y="16" class="st0" width="10" height="2"/>
<rect id="XMLID_184_" x="13" y="23" class="st0" width="10" height="2"/>
<rect id="XMLID_186_" x="13" y="30" class="st0" width="10" height="2"/>
<path id="XMLID_190_" class="st0" d="M35,24h-9v0c0-1.105,0.895-2,2-2h5C34.105,22,35,22.895,35,24L35,24z"/>
<rect id="XMLID_157_" x="13" y="18" class="st0" width="2" height="12"/>
<rect id="XMLID_187_" x="26" y="24" class="st0" width="2" height="8"/>
<rect id="XMLID_188_" x="33" y="24" class="st0" width="2" height="8"/>
</svg>
