<svg xmlns="http://www.w3.org/2000/svg" viewBox="0 0 43.96 46.89"><defs><style>.cls-1{fill:#00a4ff;}</style></defs><title>48-48</title><g id="图层_2" data-name="图层 2"><g id="图层_1-2" data-name="图层 1"><path class="cls-1" d="M22,2A34,34,0,0,1,42,8.42q0,.35,0,.7A41.74,41.74,0,0,1,22,44.57,41.75,41.75,0,0,1,2,9.15c0-.24,0-.47,0-.7v0A34,34,0,0,1,22,2m0-2A36.21,36.21,0,0,0,.24,7.24L0,7.4v.27c0,.48,0,1,0,1.48A43.6,43.6,0,0,0,21.7,46.73l.28.16.28-.16A43.6,43.6,0,0,0,44,9.13c0-.49,0-1,0-1.46V7.4l-.21-.16A36.21,36.21,0,0,0,22,0Z"/><path class="cls-1" d="M15.77,11.31,17,15.9l-1.94,2.84A15.28,15.28,0,0,0,22.15,26l2.79-1.57,4.73,1.43v4l-.84,0A17.58,17.58,0,0,1,11.25,12.3c0-.33,0-.66,0-1h4.49m1.53-2H9.39l-.1,1.89c0,.36,0,.73,0,1.09A19.6,19.6,0,0,0,28.84,31.87l.93,0,1.91-.09V24.35l-1.42-.43L25.52,22.5l-.81-.25-.74.42-1.83,1a13.32,13.32,0,0,1-4.74-4.82L18.66,17l.52-.76-.24-.89L17.7,10.79l-.4-1.48Z"/><path class="cls-1" d="M26,19.31H24a2.16,2.16,0,0,0-2.15-2.15v-2A4.16,4.16,0,0,1,26,19.31Z"/><path class="cls-1" d="M28.61,19.31h-2a4.8,4.8,0,0,0-4.79-4.79v-2A6.8,6.8,0,0,1,28.61,19.31Z"/><path class="cls-1" d="M31.49,19.31h-2a7.68,7.68,0,0,0-7.67-7.67v-2A9.68,9.68,0,0,1,31.49,19.31Z"/></g></g></svg>