<svg id="图层_1" data-name="图层 1" xmlns="http://www.w3.org/2000/svg" width="48" height="48" viewBox="0 0 48 48"><defs><style>.cls-1{fill:#00a4ff;}</style></defs><title>48px，00A4FF，描边2px 副本 16</title><path class="cls-1" d="M24,2.44A34.09,34.09,0,0,1,44,8.88v.71A41.81,41.81,0,0,1,24,45.12,41.84,41.84,0,0,1,4,9.61c0-.24,0-.47,0-.71v0A34,34,0,0,1,24,2.44m0-2A36.28,36.28,0,0,0,2.21,7.7L2,7.86v.27c0,.48,0,1,0,1.48A43.7,43.7,0,0,0,23.71,47.28l.28.16.28-.16A43.68,43.68,0,0,0,46,9.59c0-.49,0-1,0-1.46V7.86l-.22-.16A36.28,36.28,0,0,0,24,.44Z"/><polygon class="cls-1" points="19.46 30.27 12.4 30.27 15.12 12.52 32.74 12.52 33.6 18.07 31.62 18.37 31.02 14.52 16.83 14.52 14.73 28.27 19.46 28.27 19.46 30.27"/><rect class="cls-1" x="23.18" y="28.27" width="12.44" height="2"/><path class="cls-1" d="M33.43,30.27h-8V26.13a4,4,0,0,1,8.05,0Zm-6.05-2h4.05V26.13a2,2,0,0,0-4.05,0Z"/><rect class="cls-1" x="23.81" y="20.89" width="2" height="2.22" transform="translate(-8.34 22.97) rotate(-43.24)"/><rect class="cls-1" x="28.43" y="18.8" width="2" height="2.21"/><rect class="cls-1" x="32.73" y="21" width="2.36" height="2" transform="translate(-5.19 32.27) rotate(-47.69)"/><path class="cls-1" d="M29.26,16.4h-2v-5a3.21,3.21,0,0,0-3.2-3.18,3.17,3.17,0,0,0-3.21,3.15v5h-2v-5a5.21,5.21,0,0,1,10.4-.33h0Z"/></svg>