<?xml version="1.0" encoding="UTF-8"?>
<svg width="48px" height="42px" viewBox="0 0 48 42" version="1.1" xmlns="http://www.w3.org/2000/svg" xmlns:xlink="http://www.w3.org/1999/xlink">
    <!-- Generator: Sketch 56.3 (81716) - https://sketch.com -->
    <title>Group 3 Copy</title>
    <desc>Created with Sketch.</desc>
    <g id="Page-1" stroke="none" stroke-width="1" fill="none" fill-rule="evenodd">
        <g id="Group-3-Copy" transform="translate(0.000000, -3.000000)">
            <g id="Group-7备份">
                <circle id="Oval" fill="#00A4FF" fill-rule="nonzero" cx="3" cy="6" r="3"></circle>
                <circle id="Oval-Copy" fill="#00A4FF" fill-rule="nonzero" cx="45" cy="42" r="3"></circle>
                <rect id="Rectangle" fill="#00A4FF" fill-rule="nonzero" x="2" y="16" width="2" height="27"></rect>
                <rect id="Rectangle-Copy-3" fill="#00A4FF" fill-rule="nonzero" x="44" y="5" width="2" height="27"></rect>
                <rect id="Rectangle" fill="#00A4FF" fill-rule="nonzero" x="2" y="41" width="43" height="2"></rect>
                <rect id="Rectangle-Copy-2" fill="#00A4FF" fill-rule="nonzero" x="2" y="5" width="43" height="2"></rect>
                <path d="M13,22 L13,35 L24,35 L24,25.7420142 L19.4835503,22 L13,22 Z" id="Rectangle" stroke="#00A4FF" stroke-width="2"></path>
                <polyline id="Path" stroke="#00A4FF" stroke-width="2" points="18 22.6706543 18 13 28.3348851 13 35 18.0883789 35 33 24.6475626 33"></polyline>
                <polyline id="Path-7" stroke="#00A4FF" stroke-width="2" points="28 13 28 18 35 18"></polyline>
                <polyline id="Path-8" stroke="#00A4FF" stroke-width="2" points="19 22 19 26 24 26"></polyline>
            </g>
        </g>
    </g>
</svg>