<?xml version="1.0" encoding="utf-8"?>
<!-- Generator: Adobe Illustrator 19.0.0, SVG Export Plug-In . SVG Version: 6.00 Build 0)  -->
<svg version="1.1" id="图层_1" xmlns="http://www.w3.org/2000/svg" xmlns:xlink="http://www.w3.org/1999/xlink" x="0px" y="0px"
	 width="48px" height="48px" viewBox="0 0 48 48" style="enable-background:new 0 0 48 48;" xml:space="preserve">
<style type="text/css">
	.st0{fill:#00A4FF;}
</style>
<g>
	<polygon class="st0" points="36,42 36,43 36,45 10,45 10,8 8,8 8,47 36,47 37,47 42,47 	"/>
	<polygon class="st0" points="12,1 11,1 6,1 12,6 12,5 12,3 38,3 38,40 40,40 40,1 	"/>
</g>
<g>
	<path class="st0" d="M17.987,25V10.103L31,17.552L17.987,25z M19.987,13.552v7.999l6.987-3.999L19.987,13.552z"/>
</g>
<rect x="21" y="39" class="st0" width="6" height="2"/>
</svg>
