<?xml version="1.0" encoding="UTF-8"?>
<svg width="32px" height="32px" viewBox="0 0 32 32" version="1.1" xmlns="http://www.w3.org/2000/svg" xmlns:xlink="http://www.w3.org/1999/xlink">
    <!-- Generator: Sketch 52.6 (67491) - http://www.bohemiancoding.com/sketch -->
    <title>云投屏-32px</title>
    <desc>Created with Sketch.</desc>
    <g id="云投屏-32px" stroke="none" stroke-width="1" fill="none" fill-rule="evenodd">
        <rect id="Rectangle-Copy" fill="#444444" opacity="0" x="0" y="0" width="32" height="32"></rect>
        <path d="M8.32258065,22 L6.62756598,24 L1,24 L1,2 L31,2 L31,24 L25.327566,24 L23.6225806,22 L29,22 L29,4 L3,4 L3,22 L8.32258065,22 Z M11.0377841,15.0627522 L9.75099042,13.5231149 C11.3697868,11.9609238 13.5726755,11 16,11 C18.4171886,11 20.6118119,11.9529154 22.2287,13.5035764 L20.9463795,15.0468868 C19.6798956,13.782114 17.9312841,13 16,13 C14.0606534,13 12.3055076,13.7886578 11.0377841,15.0627522 Z M8.4657221,11.9853026 L7.18127285,10.4484703 C9.49858983,8.30788323 12.5965587,7 16,7 C19.3891584,7 22.4754028,8.29692889 24.7895113,10.4215647 L23.5095109,11.9620827 C21.5436366,10.1246687 18.9031585,9 16,9 C13.0846321,9 10.4341587,10.1341483 8.4657221,11.9853026 Z M15.9788514,20.6230913 L10.044627,28 L21.9479831,28 L15.9788514,20.6230913 Z M26.1390512,30 L5.8689653,30 L15.9742867,17.4379484 L26.1390512,30 Z" id="Combined-Shape" fill="#00A4FF" fill-rule="nonzero"></path>
    </g>
</svg>