<?xml version="1.0" encoding="UTF-8"?>
<svg width="48px" height="48px" viewBox="0 0 48 48" version="1.1" xmlns="http://www.w3.org/2000/svg" xmlns:xlink="http://www.w3.org/1999/xlink">
    <!-- Generator: Sketch 52.6 (67491) - http://www.bohemiancoding.com/sketch -->
    <title>访问管理</title>
    <desc>Created with Sketch.</desc>
    <g id="访问管理" stroke="none" stroke-width="1" fill="none" fill-rule="evenodd">
        <rect id="Rectangle-Copy" fill="#444444" opacity="0" x="0" y="0" width="48" height="48"></rect>
        <g id="Group" transform="translate(1.000000, 4.000000)" fill="#00A4FF" fill-rule="nonzero">
            <path d="M2,20 C2,12.2 6.2,5.5 12.5,1.8 L11.5,0.1 C4.6,4.1 0,11.5 0,20 C0,28.5 4.6,35.9 11.5,39.9 L12.5,38.2 C6.2,34.5 2,27.8 2,20 Z M34.5,0.1 L33.5,1.8 C39.8,5.5 44,12.2 44,20 C44,27.8 39.8,34.5 33.5,38.2 L34.5,39.9 C41.4,35.9 46,28.5 46,20 C46,11.5 41.4,4.1 34.5,0.1 Z" id="Shape"></path>
            <rect id="Rectangle-209" x="10" y="19" width="26" height="2"></rect>
            <circle id="Oval-100" cx="23" cy="20" r="2"></circle>
            <path d="M23,29 L23,27.2 C26.9764502,27.2 30.2,23.9764502 30.2,20 L32,20 C32,24.9705627 27.9705627,29 23,29 Z M14.0549288,21 C14.0186333,20.6716661 14,20.3380091 14,20 C14,15.0294373 18.0294373,11 23,11 L23,12.8 C19.0235498,12.8 15.8,16.0235498 15.8,20 C15.8,20.3393277 15.8234737,20.6731728 15.8688859,21 L14.0549288,21 Z" id="Combined-Shape"></path>
            <path d="M36,20 L34,20 C34,13.9248678 29.0751322,9 23,9 L23,7 C30.1797017,7 36,12.8202983 36,20 Z M23,33 L23,31 C16.9248678,31 12,26.0751322 12,20 L10,20 C10,27.1797017 15.8202983,33 23,33 Z" id="Combined-Shape"></path>
        </g>
    </g>
</svg>