<?xml version="1.0" encoding="utf-8"?>
<!-- Generator: Adobe Illustrator 23.0.3, SVG Export Plug-In . SVG Version: 6.00 Build 0)  -->
<svg version="1.1" id="图层_1" xmlns="http://www.w3.org/2000/svg" xmlns:xlink="http://www.w3.org/1999/xlink" x="0px" y="0px"
	 width="48px" height="48px" viewBox="0 0 48 48" style="enable-background:new 0 0 48 48;" xml:space="preserve">
<g>
	<path style="fill:#00A4FF;" d="M13.432,42.117C7.204,38.47,3,31.724,3,24S7.204,9.53,13.432,5.883l-1.02-1.748
		C5.588,8.125,1,15.524,1,24s4.588,15.875,11.412,19.865L13.432,42.117z"/>
	<path style="fill:#00A4FF;" d="M35.588,4.135l-1.02,1.748C40.796,9.53,45,16.276,45,24s-4.204,14.47-10.432,18.117l1.02,1.748
		C42.412,39.875,47,32.476,47,24S42.412,8.125,35.588,4.135z"/>
</g>
<g>
	<circle style="fill:#00A4FF;" cx="24" cy="24" r="2"/>
</g>
<rect x="30" y="23" style="fill:#00A4FF;" width="7" height="2"/>
<rect x="11" y="23" style="fill:#00A4FF;" width="7" height="2"/>
<g>
	<path style="fill:#00A4FF;" d="M31.875,12.443L31.875,12.443l-0.002-0.001l-1.69-1.027l-7.039,12.097l1.729,1.006l5.984-10.318
		C33.953,16.37,36,19.939,36,24c0,4.414-2.402,8.268-5.961,10.353l1.009,1.73C35.202,33.654,38,29.159,38,24
		C38,19.192,35.568,14.963,31.875,12.443z"/>
	<path style="fill:#00A4FF;" d="M17.961,13.647l-1.009-1.73C12.798,14.346,10,18.841,10,24s2.798,9.654,6.952,12.083l1.009-1.73
		C14.402,32.268,12,28.414,12,24S14.402,15.732,17.961,13.647z"/>
</g>
</svg>
