<?xml version="1.0" encoding="utf-8"?>
<!-- Generator: Adobe Illustrator 22.0.1, SVG Export Plug-In . SVG Version: 6.00 Build 0)  -->
<svg version="1.1" id="图层_1" xmlns="http://www.w3.org/2000/svg" xmlns:xlink="http://www.w3.org/1999/xlink" x="0px" y="0px"
	 width="48px" height="48px" viewBox="0 0 48 48" style="enable-background:new 0 0 48 48;" xml:space="preserve">
<style type="text/css">
	.st0{fill-rule:evenodd;clip-rule:evenodd;fill:#00A4FF;}
</style>
<path class="st0" d="M39,46H9H8H7V2h1h1h28h1h1v36h-2V4H9v40h30V46z M26,38h-6v-2h6V38z M23,21c-2.8,0-5-2.2-5-5v-3c0-2.8,2.2-5,5-5
	s5,2.2,5,5v3C28,18.8,25.8,21,23,21z M26,13c0-1.7-1.3-3-3-3s-3,1.3-3,3v3c0,1.7,1.3,3,3,3s3-1.3,3-3V13z M21,15h4v2h-4V15z M21,12
	h4v2h-4V12z M31,16c0,4.4-3.6,8-8,8s-8-3.6-8-8h2c0,3.3,2.7,6,6,6s6-2.7,6-6H31z"/>
</svg>
