<?xml version="1.0" encoding="utf-8"?>
<!-- Generator: Adobe Illustrator 19.0.0, SVG Export Plug-In . SVG Version: 6.00 Build 0)  -->
<svg version="1.1" id="图层_1" xmlns="http://www.w3.org/2000/svg" xmlns:xlink="http://www.w3.org/1999/xlink" x="0px" y="0px"
	 width="48px" height="48px" viewBox="0 0 48 48" style="enable-background:new 0 0 48 48;" xml:space="preserve">
<style type="text/css">
	.st0{fill:#00A4FF;}
</style>
<g id="XMLID_369_">
	<circle id="XMLID_370_" class="st0" cx="3.256" cy="6.228" r="3.2"/>
</g>
<g id="XMLID_367_">
	<circle id="XMLID_368_" class="st0" cx="44.8" cy="41.885" r="3.2"/>
</g>
<g id="XMLID_365_">
	<polygon id="XMLID_366_" class="st0" points="46,31.997 44,31.997 44,6.997 3,6.997 3,4.997 46,4.997 	"/>
</g>
<g id="XMLID_363_">
	<polygon id="XMLID_364_" class="st0" points="45,42.997 2,42.997 2,15.997 4,15.997 4,40.997 45,40.997 	"/>
</g>
<g id="XMLID_1_">
	<g id="XMLID_8_">
		<path id="XMLID_5_" class="st0" d="M24.515,28c-0.95,0.631-2.087,1-3.31,1c-2.215,0-4.149-1.21-5.188-3h-2.223
			c1.19,2.928,4.061,5,7.411,5c2.52,0,4.768-1.174,6.235-3H24.515z"/>
	</g>
	<g id="XMLID_389_">
		<rect id="XMLID_11_" x="20" y="30" class="st0" width="2" height="4"/>
	</g>
	<g id="XMLID_392_">
		<rect id="XMLID_10_" x="18" y="33" class="st0" width="6" height="2"/>
	</g>
	<g id="XMLID_2_">
		<rect id="XMLID_9_" x="27" y="17" class="st0" width="2" height="9"/>
	</g>
	<g id="XMLID_4_">
		<rect id="XMLID_7_" x="22" y="19" class="st0" width="2" height="5"/>
	</g>
	<g id="XMLID_6_">
		<rect id="XMLID_12_" x="32" y="19" class="st0" width="2" height="5"/>
	</g>
	<path id="XMLID_13_" class="st0" d="M24.021,16h2.083c-0.465-2.279-2.587-4-5.002-4C18.346,12,16,14.243,16,17v12h2V17
		c0-1.654,1.448-3,3.103-3C22.405,14,23.607,14.839,24.021,16z"/>
</g>
</svg>
