<?xml version="1.0" encoding="UTF-8"?>
<svg width="48px" height="42px" viewBox="0 0 48 42" version="1.1" xmlns="http://www.w3.org/2000/svg" xmlns:xlink="http://www.w3.org/1999/xlink">
    <!-- Generator: Sketch 52.2 (67145) - http://www.bohemiancoding.com/sketch -->
    <title>Group 7 Copy</title>
    <desc>Created with Sketch.</desc>
    <g id="Page-1" stroke="none" stroke-width="1" fill="none" fill-rule="evenodd">
        <g id="Artboard-Copy-16" transform="translate(0.000000, -3.000000)" fill-rule="nonzero">
            <g id="Group-7-Copy" transform="translate(0.000000, 3.000000)">
                <path d="M27,20.0555556 L28.4914351,18.6111111 C29.2548182,19.3504423 29.7269805,20.3718187 29.7269805,21.5 C29.7269805,22.6281813 29.2548182,23.6495577 28.4914351,24.3888889 L27,22.9444444 C27.3816915,22.5747789 27.6177727,22.0640906 27.6177727,21.5 C27.6177727,20.9359094 27.3816915,20.4252211 27,20.0555556 Z M30.7285879,16.4444444 L32.220023,15 C33.9376349,16.6634951 35,18.9615921 35,21.5 C35,24.0384079 33.9376349,26.3365049 32.220023,28 L30.7285879,26.5555556 C32.0645083,25.2617261 32.8907922,23.4743173 32.8907922,21.5 C32.8907922,19.5256827 32.0645083,17.7382739 30.7285879,16.4444444 Z" id="Combined-Shape" fill="#00A4FF"></path>
                <path d="M5.82929429,2 L44,2 L46,2 L46,29 L44,29 L44,4 L5.82929429,4 C5.41745788,5.16519237 4.30621883,6 3,6 C1.34314575,6 0,4.65685425 0,3 C0,1.34314575 1.34314575,0 3,0 C4.30621883,0 5.41745788,0.834807627 5.82929429,2 Z M42.1707057,40 L4,40 L2,40 L2,13 L4,13 L4,38 L42.1707057,38 C42.5825421,36.8348076 43.6937812,36 45,36 C46.6568542,36 48,37.3431458 48,39 C48,40.6568542 46.6568542,42 45,42 C43.6937812,42 42.5825421,41.1651924 42.1707057,40 Z" id="Combined-Shape" fill="#00A4FF"></path>
                <path d="M16,24.4793444 L24,30.0793444 L24,11.9206556 L16,17.5206556 L16,24.4793444 Z" id="Path-3" stroke="#00A4FF" stroke-width="2"></path>
                <rect id="Rectangle" stroke="#00A4FF" stroke-width="2" x="12" y="18" width="1" height="6"></rect>
            </g>
        </g>
    </g>
</svg>