<?xml version="1.0" encoding="utf-8"?>
<!-- Generator: Adobe Illustrator 22.0.0, SVG Export Plug-In . SVG Version: 6.00 Build 0)  -->
<svg version="1.1" id="图层_1" xmlns="http://www.w3.org/2000/svg" xmlns:xlink="http://www.w3.org/1999/xlink" x="0px" y="0px"
	 width="48px" height="48px" viewBox="0 0 48 48" style="enable-background:new 0 0 48 48;" xml:space="preserve">
<style type="text/css">
	.st0{fill:#2277DA;}
	.st1{fill:#00A4FF;}
	.st2{fill:none;stroke:#2277DA;stroke-width:2;stroke-miterlimit:10;}
	.st3{fill-rule:evenodd;clip-rule:evenodd;fill:#2277DA;}
	.st4{fill:none;}
</style>
<g id="XMLID_480_">
	<g id="XMLID_302_">
		<g>
			<path class="st1" d="M44.8,27C43.3,37.2,34.6,45,24,45C12.4,45,3,35.6,3,24C3,12.4,12.4,3,24,3c10.6,0,19.3,7.8,20.8,18h2
				C45.3,9.7,35.7,1,24,1C11.3,1,1,11.3,1,24c0,12.7,10.3,23,23,23c11.7,0,21.3-8.7,22.8-20H44.8z"/>
		</g>
	</g>
	<rect id="XMLID_314_" x="15" y="14" class="st1" width="2" height="20"/>
	<rect id="XMLID_315_" x="15" y="14" class="st1" width="11" height="2"/>
	<rect id="XMLID_316_" x="15" y="23" class="st1" width="11" height="2"/>
	<rect id="XMLID_317_" x="15" y="32" class="st1" width="11" height="2"/>
	<circle id="XMLID_318_" class="st1" cx="31" cy="15" r="2"/>
	<circle id="XMLID_319_" class="st1" cx="31" cy="24" r="2"/>
	<circle id="XMLID_320_" class="st1" cx="31" cy="33" r="2"/>
</g>
</svg>
