<?xml version="1.0" encoding="UTF-8"?>
<svg width="48px" height="48px" viewBox="0 0 48 48" version="1.1" xmlns="http://www.w3.org/2000/svg" xmlns:xlink="http://www.w3.org/1999/xlink">
    <!-- Generator: Sketch 56.3 (81716) - https://sketch.com -->
    <title>威胁发现48px</title>
    <desc>Created with Sketch.</desc>
    <g id="威胁发现48px" stroke="none" stroke-width="1" fill="none" fill-rule="evenodd">
        <path d="M37.200773,41.6010306 L36.0007027,40.0009369 C40.8580898,36.3520792 44,30.5429558 44,24 C44,17.4570442 40.8580898,11.6479208 36.0007027,7.99906308 L37.200773,6.39896939 C42.5438988,10.4127129 46,16.8027486 46,24 C46,31.1972514 42.5438988,37.5872871 37.200773,41.6010306 Z M10.799227,41.6010306 C5.45610119,37.5872871 2,31.1972514 2,24 C2,16.8027486 5.45610119,10.4127129 10.799227,6.39896939 L11.9992973,7.99906308 C7.14191018,11.6479208 4,17.4570442 4,24 C4,30.5429558 7.14191018,36.3520792 11.9992973,40.0009369 L10.799227,41.6010306 Z" id="形状结合" fill="#00A4FF" fill-rule="nonzero"></path>
        <path d="M30.6003865,32.8005153 L29.4003162,31.2004216 C31.5861404,29.5584356 33,26.9443301 33,24 C33,21.0556699 31.5861404,18.4415644 29.4003162,16.7995784 L30.6003865,15.1994847 C33.2719494,17.2063564 35,20.4013743 35,24 C35,27.5986257 33.2719494,30.7936436 30.6003865,32.8005153 Z M17.3996135,32.8005153 C14.7280506,30.7936436 13,27.5986257 13,24 C13,20.4013743 14.7280506,17.2063564 17.3996135,15.1994847 L18.5996838,16.7995784 C16.4138596,18.4415644 15,21.0556699 15,24 C15,26.9443301 16.4138596,29.5584356 18.5996838,31.2004216 L17.3996135,32.8005153 Z" id="形状结合" fill="#00A4FF" fill-rule="nonzero"></path>
        <g id="编组" transform="translate(23.000000, 19.000000)" fill="#00A4FF">
            <rect id="矩形" x="0" y="0" width="2" height="7"></rect>
            <rect id="矩形复制" x="0" y="8" width="2" height="2"></rect>
        </g>
    </g>
</svg>