<?xml version="1.0" encoding="UTF-8"?>
<svg width="48px" height="48px" viewBox="0 0 48 48" version="1.1" xmlns="http://www.w3.org/2000/svg" xmlns:xlink="http://www.w3.org/1999/xlink">
    <!-- Generator: Sketch 54.1 (76490) - https://sketchapp.com -->
    <title>帐号安全48px</title>
    <desc>Created with Sketch.</desc>
    <g id="帐号安全48px" stroke="none" stroke-width="1" fill="none" fill-rule="evenodd">
        <g id="Group-85" transform="translate(24.000000, 24.000000) scale(-1, 1) translate(-24.000000, -24.000000) translate(2.000000, 2.000000)" fill="#00A4FF">
            <path d="M4.46575823,8.70839891 L5.89458298,10.1372237 C0.113931712,17.9648794 0.768358844,29.0526301 7.85786438,36.1421356 C14.9473699,43.2316412 26.0351206,43.8860683 33.8627763,38.105417 L35.2916011,39.5342418 C26.6689754,46.0876184 14.3156225,45.4283209 6.44365081,37.5563492 C-1.42832088,29.6843775 -2.08761841,17.3310246 4.46575823,8.70839891 Z M8.70839891,4.46575823 C17.3310246,-2.08761841 29.6843775,-1.42832088 37.5563492,6.44365081 C45.4283209,14.3156225 46.0876184,26.6689754 39.5342418,35.2916011 L38.105417,33.8627763 C43.8860683,26.0351206 43.2316412,14.9473699 36.1421356,7.85786438 C29.0526301,0.768358844 17.9648794,0.113931712 10.1372237,5.89458298 L8.70839891,4.46575823 Z" id="Combined-Shape" fill-rule="nonzero"></path>
            <circle id="Oval-13" cx="10" cy="5" r="2"></circle>
            <circle id="Oval-13-Copy" cx="34" cy="39" r="2"></circle>
        </g>
        <g id="编组" transform="translate(13.000000, 11.000000)" fill="#00A4FF">
            <path d="M11,0 C7.7,0 5,2.7 5,6 C5,9.3 7.7,12 11,12 C14.3,12 17,9.3 17,6 C17,2.7 14.3,0 11,0 Z M11,10 C8.8,10 7,8.2 7,6 C7,3.8 8.8,2 11,2 C13.2,2 15,3.8 15,6 C15,8.2 13.2,10 11,10 Z" id="Shape" fill-rule="nonzero"></path>
            <path d="M12,14 L8,14 C4.1,14 1,17.1 1,21 L1,23 L3,23 L3,21 C3,18.2 5.2,16 8,16 L12,16 L12,14 Z" id="Path"></path>
        </g>
        <path d="M27,26 L27,30 C27,30.9442719 27.4445825,31.8334369 28.2,32.4 L30,33.75 L31.8,32.4 C32.5554175,31.8334369 33,30.9442719 33,30 L33,26 L27,26 Z" id="矩形" stroke="#00A4FF" stroke-width="2"></path>
    </g>
</svg>