<?xml version="1.0" encoding="UTF-8"?>
<svg width="48px" height="48px" viewBox="0 0 48 48" version="1.1" xmlns="http://www.w3.org/2000/svg" xmlns:xlink="http://www.w3.org/1999/xlink">
    <!-- Generator: Sketch 52.6 (67491) - http://www.bohemiancoding.com/sketch -->
    <title>TIC-48px</title>
    <desc>Created with Sketch.</desc>
    <defs>
        <polygon id="path-1" points="1 47.9882 47 47.9882 47 0.0002 1 0.0002"></polygon>
    </defs>
    <g id="TIC-48px" stroke="none" stroke-width="1" fill="none" fill-rule="evenodd">
        <rect id="Rectangle-Copy" fill="#444444" opacity="0" x="0" y="0" width="48" height="48"></rect>
        <path d="M35.48,4.0996 L34.472,5.8426 C40.759,9.4706 45,16.2466 45,24.0276 C45,31.7846 40.783,38.5416 34.527,42.1776 L35.537,43.9206 C42.389,39.9386 47,32.5236 47,24.0276 C47,15.5066 42.364,8.0746 35.48,4.0996 M13.522,5.8456 L12.514,4.1036 C5.633,8.0786 1,15.5096 1,24.0276 C1,32.5316 5.619,39.9526 12.482,43.9326 L13.49,42.1886 C7.225,38.5546 3,31.7906 3,24.0276 C3,16.2486 7.239,9.4756 13.522,5.8456" id="Fill-1" fill="#00A4FF"></path>
        <path d="M24,13.0273 C25.994,13.0273 27.858,13.5653 29.471,14.4933 L30.471,12.7623 C28.564,11.6653 26.358,11.0273 24,11.0273 C21.641,11.0273 19.435,11.6653 17.528,12.7633 L18.529,14.4933 C20.142,13.5653 22.006,13.0273 24,13.0273 Z M29.52,33.5313 C27.896,34.4763 26.015,35.0273 24,35.0273 C21.991,35.0273 20.113,34.4793 18.492,33.5383 L17.492,35.2683 C19.407,36.3803 21.626,37.0273 24,37.0273 C26.38,37.0273 28.603,36.3773 30.521,35.2603 L29.52,33.5313 Z" id="Fill-3" fill="#00A4FF"></path>
        <mask id="mask-2" fill="white">
            <use xlink:href="#path-1"></use>
        </mask>
        <g id="Clip-6"></g>
        <polygon id="Path" fill="#00A4FF" mask="url(#mask-2)" points="23 29 25 29 25 19 23 19"></polygon>
        <path d="M34.0026502,21.0026502 L31.0026502,21.0026502 L31.0026502,27.0026502 L34.0026502,27.0026502 L34.0026502,29.0026502 L30.0026502,29.0026502 C28.8980807,29.0026502 29.0026502,29.1072197 29.0026502,28.0026502 L29.0026502,20.0026502 C29.0026502,18.8980807 28.8980807,19.0026502 30.0026502,19.0026502 L34.0026502,19.0026502 L34.0026502,21.0026502 Z" id="Combined-Shape" fill="#00A4FF" fill-rule="nonzero" mask="url(#mask-2)"></path>
        <polygon id="Path-Copy" fill="#00A4FF" mask="url(#mask-2)" points="15 29 17 29 17 19 15 19"></polygon>
        <rect id="Rectangle" fill="#00A4FF" fill-rule="nonzero" mask="url(#mask-2)" x="12" y="19" width="8" height="2"></rect>
    </g>
</svg>