<?xml version="1.0" encoding="UTF-8"?>
<svg width="48px" height="48px" viewBox="0 0 48 48" version="1.1" xmlns="http://www.w3.org/2000/svg" xmlns:xlink="http://www.w3.org/1999/xlink">
    <title>流量变现-48px</title>
    <g id="流量变现-48px" stroke="none" stroke-width="1" fill="none" fill-rule="evenodd">
        <rect id="Rectangle-Copy" fill="#444444" opacity="0" x="0" y="0" width="48" height="48"></rect>
        <g id="c0ca4ce24e9498385328d06883374fa2" transform="translate(24.500000, 24.000000) rotate(-30.000000) translate(-24.500000, -24.000000) translate(4.000000, 0.000000)" fill="#00A4FF">
            <polygon id="Path" points="39 19.4 39 34.7 20.6 45.3 2.1 34.7 2.1 13.3 20.6 2.7 39 13.3 39 13.4 41 12.2 41 12.2 20.6 0.4 0.1 12.2 0.1 35.8 20.6 47.6 41 35.8 41 18.3"></polygon>
        </g>
        <path d="M18.5705714,25.4848571 L18.5714286,25.5757143 C18.6254286,28.4882857 21.0888571,30.8625714 24.064,30.8625714 C27.0382857,30.8625714 29.5025714,28.4882857 29.5565714,25.5697143 L29.5582857,25.4822857 C29.5565714,25.1394286 29.5282857,24.8282857 29.4734286,24.5257143 C29.2737143,23.1885714 28.798,22.0331429 28.0137143,20.9557143 C27.0802857,19.6742857 25.7525714,18.3954286 24.064,17.1465714 C22.3737143,18.3962857 21.0477143,19.6751429 20.1142857,20.9557143 C19.33,22.0331429 18.8542857,23.1885714 18.6597143,24.488 C18.5997143,24.8282857 18.5714286,25.1394286 18.5705714,25.4488571 L18.5697143,25.4848571 L18.5705714,25.4848571 Z" id="路径"></path>
        <path d="M24.064,33.434 C20.1314286,33.434 16.8065714,30.59 16.126,26.876 L16,25.4042857 C16.0008571,24.9817143 16.042,24.5205714 16.1234286,24.0705714 C16.3702857,22.4128571 17.0165714,20.8425714 18.0357143,19.442 C19.2691429,17.7482857 21.052,16.0888571 23.332,14.5091429 L24.0674286,14 L25.0317143,14.6737143 C27.1994286,16.2037143 28.9008571,17.8065714 30.0922857,19.442 C31.1122857,20.8425714 31.7577143,22.4128571 32.0105714,24.1082857 C32.0851429,24.5197143 32.1271429,24.98 32.1288571,25.4394286 L32.0011429,26.876 C31.3188571,30.5925714 27.9948571,33.434 24.064,33.434 L24.064,33.434 Z" id="路径" stroke="#2CB3FF" stroke-width="2"></path>
    </g>
</svg>