<svg xmlns="http://www.w3.org/2000/svg" width="48" height="48" viewBox="0 0 48 48">
  <path fill="#00A4FF" d="M23.9625951,1 C31.037899,1 37.7166406,3.12494113 43.9768115,7.36072034 L44.497523,7.71858784 L44.8971539,7.99750974 L44.9237049,8.48412797 C45.3845419,16.9302051 43.7574799,24.5773395 40.0400822,31.4044107 C36.4230071,38.0472377 31.4097493,43.1160182 25.0148806,46.5921167 L24.4633658,46.8861671 L24.0257118,47.115011 L23.5779745,46.906584 C16.6041024,43.6601642 11.2112806,38.4626433 7.41982778,31.3409461 C3.72508048,24.4008963 2.34623856,16.9207142 3.28544267,8.92799711 L3.36226126,8.31216227 L3.41904429,7.8818146 L3.77219486,7.62940995 C9.94961122,3.21427167 16.6886547,1 23.9625951,1 Z M23.9625951,3 C17.3066021,3 11.1396048,4.96382716 5.43709922,8.90377004 L5.29002145,9.006 L5.26847324,9.18958016 C4.43146599,16.3546788 5.55129096,23.0557845 8.62974835,29.3161057 L8.90645994,29.8673436 L9.18523162,30.4010794 C12.4891105,36.6069392 17.0483094,41.2418486 22.8786656,44.3267946 L23.396408,44.5949738 L23.974,44.88 L24.6036666,44.5332221 C30.0405009,41.4563157 34.3870493,37.1372132 37.6542953,31.5618681 L37.9774226,31.0001456 L38.2835929,30.4479875 C41.7182155,24.140238 43.277632,17.0920314 42.9596085,9.28400614 L42.949,9.082 L42.8307153,9.00005811 C37.2514072,5.23091231 31.3584704,3.24169883 25.1336438,3.02071574 L24.5490934,3.00517858 L23.9625951,3 Z M21.7359561,8.8871036 L28.5122824,12.1970212 L35.3995386,15.576565 L35.4081521,27.2077054 L34.5080214,27.646 L34.4658026,27.7353007 L34.3950214,27.701 L21.7358082,33.8825644 L14.4,30.2994061 L14.4,12.4696547 L21.7359561,8.8871036 Z M16.3990214,14.692 L16.4,29.051 L20.7990214,31.2 L20.8,16.826 L16.3990214,14.692 Z M28.1000214,24.662 L22.7990214,27.227 L22.7990214,31.137 L32.1030214,26.594 L28.1000214,24.662 Z M27,14.794 L22.7990214,16.827 L22.7990214,25.005 L27,22.972 L27,14.794 Z M28.9990214,14.664 L28.9990214,22.875 L33.4050214,25.002 L33.4,16.823 L28.9990214,14.664 Z M21.735,11.112 L17.6810214,13.092 L21.7990214,15.088 L25.8560214,13.125 L21.735,11.112 Z"/>
</svg>
