<?xml version="1.0" encoding="UTF-8"?>
<svg width="48px" height="48px" viewBox="0 0 48 48" version="1.1" xmlns="http://www.w3.org/2000/svg" xmlns:xlink="http://www.w3.org/1999/xlink">
    <!-- Generator: Sketch 52.2 (67145) - http://www.bohemiancoding.com/sketch -->
    <title>物联网边缘计算模块 ECM-48px </title>
    <desc>Created with Sketch.</desc>
    <g id="物联网边缘计算模块-ECM-48px-" stroke="none" stroke-width="1" fill="none" fill-rule="evenodd">
        <rect id="Rectangle-Copy" fill="#444444" opacity="0" x="0" y="0" width="48" height="48"></rect>
        <g id="137181528fd7f16db8726788caa3233e" transform="translate(1.000000, 0.000000)" fill="#00A4FF">
            <g id="XMLID_327_">
                <g id="icon_1_">
                    <path d="M23.0592,2.78976 C11.3952,2.77728 1.9296,12.22272 1.91712,23.88768 C1.90464,35.55168 11.35008,45.01728 23.01504,45.02976 C33.53952,45.04128 42.46656,37.3008 43.94688,26.88 L45.99072,26.88 C44.4,39.50496 32.87616,48.45024 20.2512,46.85952 C7.62624,45.2688 -1.31808,33.74496 0.27264,21.12 C1.8624,8.49504 13.3872,-0.45024 26.0112,1.14048 C36.45216,2.45568 44.67552,10.67904 45.99072,21.12 L43.97472,21.12 C42.58272,10.63104 33.64032,2.7936 23.0592,2.78976 Z" id="XMLID_7_"></path>
                </g>
            </g>
        </g>
        <g id="分组-4" transform="translate(10.000000, 11.000000)" stroke="#00A4FF" stroke-width="2">
            <g id="分组-3-copy" transform="translate(6.631579, 0.000000)">
                <polygon id="多边形-copy-3" points="7.36842105 0 13.7496609 3.68421053 13.7496609 11.0526316 7.36842105 14.7368421 0.987181235 11.0526316 0.987181235 3.68421053"></polygon>
                <path d="M7.23947368,7.36842105 L13.7421053,3.68421053" id="路径-2-copy-8"></path>
            </g>
            <g id="分组-3-copy-2" transform="translate(0.257895, 11.052632)">
                <polygon id="多边形-copy-3" points="7.36842105 0 13.7496609 3.68421053 13.7496609 11.0526316 7.36842105 14.7368421 0.987181235 11.0526316 0.987181235 3.68421053"></polygon>
                <path d="M7.23947368,7.36842105 L13.7421053,3.68421053" id="路径-2-copy-8"></path>
            </g>
            <g id="分组-3-copy-3" transform="translate(13.005263, 11.052632)">
                <polygon id="多边形-copy-3" points="7.36842105 0 13.7496609 3.68421053 13.7496609 11.0526316 7.36842105 14.7368421 0.987181235 11.0526316 0.987181235 3.68421053"></polygon>
                <path d="M7.23947368,7.36842105 L13.7421053,3.68421053" id="路径-2-copy-8"></path>
            </g>
        </g>
    </g>
</svg>