<?xml version="1.0" encoding="utf-8"?>
<!-- Generator: Adobe Illustrator 21.0.0, SVG Export Plug-In . SVG Version: 6.00 Build 0)  -->
<svg version="1.1" id="图层_1" xmlns="http://www.w3.org/2000/svg" xmlns:xlink="http://www.w3.org/1999/xlink" x="0px" y="0px"
	 width="48px" height="48px" viewBox="0 0 48 48" style="enable-background:new 0 0 48 48;" xml:space="preserve">
<style type="text/css">
	.st0{fill:#00A4FF;}
</style>
<path class="st0" d="M47,24c0,11.7-8.7,21.3-20,22.8v-2C37.2,43.3,45,34.6,45,24c0-11.6-9.4-21-21-21S3,12.4,3,24
	c0,10.6,7.8,19.3,18,20.8v2C9.7,45.3,1,35.7,1,24C1,11.3,11.3,1,24,1S47,11.3,47,24z M14,31h4v-2h-4V31z M27,17H15.8l3.2-3.2
	l-1.4-1.4L12,18l5.6,5.6l1.4-1.4L15.8,19H27V17z M34,17h-4v2h4V17z M29,34.2l1.4,1.4L36,30l-1-1l0,0l0,0l-4.6-4.6L29,25.8l3.2,3.2
	H21v2h11.2L29,34.2z"/>
</svg>
