<?xml version="1.0" encoding="UTF-8"?>
<svg width="48px" height="48px" viewBox="0 0 48 48" version="1.1" xmlns="http://www.w3.org/2000/svg" xmlns:xlink="http://www.w3.org/1999/xlink">
    <!-- Generator: Sketch 55.2 (78181) - https://sketchapp.com -->
    <title>通用文字识别-48px copy</title>
    <desc>Created with Sketch.</desc>
    <g id="通用文字识别-48px-copy" stroke="none" stroke-width="1" fill="none" fill-rule="evenodd">
        <rect id="Rectangle-Copy" fill="#444444" opacity="0" x="0" y="0" width="48" height="48"></rect>
        <g id="9dd4891742d89dbc24705e88f1b2d80c" transform="translate(0.000000, 3.000000)" fill="#00A4FF">
            <path d="M6.4,4 C6,5.4 4.8,6.4 3.3,6.4 C1.5,6.4 0.1,5 0.1,3.2 C0.1,1.5 1.5,0 3.2,0 C4.6,0 5.7,0.8 6.2,2 L46,2 L46,29 L44,29 L44,4 L6.4,4 Z M44.8,35.7 C46.6,35.7 48,37.1 48,38.9 C48,40.7 46.6,42.1 44.8,42.1 C43.4,42.1 42.3,41.2 41.8,40 L2,40 L2,13 L4,13 L4,38 L41.7,38 C42.1,36.7 43.3,35.7 44.8,35.7 Z M35,19.4963221 L29.0315915,19.4963221 L29.0315915,16.3308814 L26.9700379,16.3308814 L26.9700379,27.5886723 L29.0315915,27.5886723 L29.0315915,33 L17.993054,33 L17.993054,27.5886723 L20.0322193,27.5886723 L20.0322193,16.3308814 L17.993054,16.3308814 L17.993054,19.4963221 L12,19.4963221 L12,16.3308814 L12,10 L35,10 L35,16.3308814 L35,19.4963221 Z M33,12 L14,12 L14,17.4963221 L15.993054,17.4963221 L15.993054,14.3308814 L22.0322193,14.3308814 L22.0322193,29.5886723 L19.993054,29.5886723 L19.993054,31 L27.0315915,31 L27.0315915,29.5886723 L26.9700379,29.5886723 L24.9700379,29.5886723 L24.9700379,14.3308814 L31.0315915,14.3308814 L31.0315915,17.4963221 L33,17.4963221 L33,12 Z" id="形状结合"></path>
        </g>
    </g>
</svg>