<?xml version="1.0" encoding="UTF-8"?>
<svg width="48px" height="48px" viewBox="0 0 48 48" version="1.1" xmlns="http://www.w3.org/2000/svg" xmlns:xlink="http://www.w3.org/1999/xlink">
    <title>邮件证书 - 48px</title>
    <g id="邮件证书---48px" stroke="none" stroke-width="1" fill="none" fill-rule="evenodd">
        <g id="邮件证书">
            <rect id="矩形" fill="#D8D8D8" opacity="0" x="0" y="0" width="48" height="48"></rect>
            <path d="M46,8 L46,40 L2,40 L2,8 L46,8 Z M42.255,10 L5.745,10 L14.8548824,16.3766472 C14.5480026,16.6206669 14.2657685,16.8834774 14.0081803,17.1650788 C13.9974633,17.5212506 13.9972766,17.8751988 14.00762,18.2269234 L4,11.221 L4,38 L44,38 L44,11.22 L33.9448991,18.2613038 C33.9712043,17.9007401 33.9895713,17.5353317 34,17.1650788 C33.7354884,16.8863594 33.4474644,16.6260482 33.1359277,16.3841452 L42.255,10 Z M23.95113,15 C28.18073,15 31.19702,15.9495236 33,17.8485709 C32.4321451,21.1995236 31.7440723,24.017064 30.9357817,26.3011921 C30.127491,28.5853201 27.8155638,30.8182561 24,33 C20.3519386,30.8653137 18.0279179,28.6441421 17.0279378,26.3364853 C16.0279577,24.0288284 15.3519784,21.1995236 15,17.8485709 C16.73782,15.9495236 19.72153,15 23.95113,15 Z M23.95113,17.2509207 C20.9469078,17.2509207 18.796115,17.7646567 17.4360811,18.6996264 L17.372,18.745 L17.3759412,18.7652541 C17.7032349,21.2073106 18.2233416,23.3011546 18.9275183,25.0452353 L19.0932842,25.4415059 C19.7519302,26.9614651 21.2800383,28.5589411 23.7171165,30.1745578 L24.013,30.367 L24.2479948,30.2189007 C26.6962698,28.6422852 28.1782092,27.1197048 28.7450553,25.7306941 L28.8138064,25.5502828 C29.4225986,23.8299122 29.9656183,21.7608455 30.4388979,19.347235 L30.558,18.719 C29.2087776,17.8097893 27.1534564,17.2967438 24.3395512,17.2538488 L23.95113,17.2509207 Z M24,19 L25.1755705,21.381966 L27.8042261,21.763932 L25.902113,23.618034 L26.351141,26.236068 L24,25 L21.648859,26.236068 L22.097887,23.618034 L20.1957739,21.763932 L22.8244295,21.381966 L24,19 Z" id="形状结合" fill="#00A4FF" fill-rule="nonzero"></path>
        </g>
    </g>
</svg>