<?xml version="1.0" encoding="UTF-8"?>
<svg width="48px" height="48px" viewBox="0 0 48 48" version="1.1" xmlns="http://www.w3.org/2000/svg" xmlns:xlink="http://www.w3.org/1999/xlink">
    <!-- Generator: Sketch 56.3 (81716) - https://sketch.com -->
    <title>48x48备份</title>
    <desc>Created with Sketch.</desc>
    <g id="48x48备份" stroke="none" stroke-width="1" fill="none" fill-rule="evenodd">
        <path d="M44.76,27 L46.799,27 C45.328,38.284 35.685,47 24,47 C11.297,47 1,36.703 1,24 C1,11.297 11.297,1 24,1 C35.685,1 45.328,9.716 46.798,21 L44.76,21 C43.297,10.84 34.558,3 24,3 C12.421,3 3,12.421 3,24 C3,35.579 12.421,45 24,45 C34.558,45 43.297,37.16 44.76,27 Z M21.4718957,20.648981 L20.1979867,15.8946877 C19.4418486,15.8763627 18.6899165,15.64487 18.0400434,15.2002095 L12.0358041,21.2044488 L14.0867779,28.8587873 C15.0733253,28.6305451 16.129664,28.7806471 17.0244159,29.3090931 L20.5457773,25.7877317 C19.6398431,24.2538262 19.8458428,22.2450256 21.1637763,20.9270921 C21.262751,20.8281174 21.3656221,20.7354137 21.4718957,20.648981 Z M23.3182793,19.8123717 C24.5531062,19.6024148 25.8675267,19.9739883 26.8206305,20.9270921 C27.7737343,21.8801959 28.1453078,23.1946164 27.935351,24.4294433 L32.3051553,25.6003289 C32.4887872,25.2488866 32.7282109,24.9190067 33.0234263,24.6237912 C33.3186417,24.3285758 33.6485217,24.0891522 33.9999639,23.9055203 L31.8533763,15.8943463 L23.8422024,13.7477587 C23.6585704,14.0992009 23.4191468,14.4290809 23.1239314,14.7242963 C22.828716,15.0195117 22.498836,15.2589354 22.1473937,15.4425673 L23.3182793,19.8123717 Z M27.0987416,26.2758269 C27.0123089,26.3821005 26.9196053,26.4849716 26.8206305,26.5839463 C25.502697,27.9018798 23.4938964,28.1078795 21.9599909,27.2019453 L18.4386295,30.7233067 C18.9670756,31.6180586 19.1171775,32.6743973 18.8889353,33.6609447 L26.5432739,35.7119185 L32.5475131,29.7076792 C32.1028526,29.0578061 31.8713599,28.305874 31.8530349,27.5497359 L27.0987416,26.2758269 Z M12.2740249,29.8209076 L9.80509395,20.6067318 L16.7200946,13.6917311 C15.9668389,12.1926485 16.215833,10.3186861 17.4670771,9.06744205 C19.0291743,7.50534489 21.5618342,7.50534489 23.1239314,9.06744205 C23.8801769,9.82368753 24.2703073,10.8074077 24.2943228,11.7983516 L33.4863695,14.2613531 L35.949371,23.4533998 C36.9403149,23.4774153 37.9240351,23.8675458 38.6802806,24.6237912 C40.2423777,26.1858884 40.2423777,28.7185483 38.6802806,30.2806455 C37.4290365,31.5318896 35.5550741,31.7808837 34.0559915,31.027628 L27.1409908,37.9426287 L17.926815,35.4736977 C17.8922607,35.5109533 17.8568659,35.547711 17.8206305,35.5839463 C16.2585333,37.1460435 13.7258734,37.1460435 12.1637763,35.5839463 C10.6016791,34.0218492 10.6016791,31.4891893 12.1637763,29.9270921 C12.2000116,29.8908567 12.2367693,29.8554619 12.2740249,29.8209076 Z M18.8812907,13.3100827 C19.6623393,14.0911313 20.9286692,14.0911313 21.7097178,13.3100827 C22.4907664,12.5290342 22.4907664,11.2627042 21.7097178,10.4816556 C20.9286692,9.70060703 19.6623393,9.70060703 18.8812907,10.4816556 C18.1002421,11.2627042 18.1002421,12.5290342 18.8812907,13.3100827 Z M34.4376399,28.8664319 C35.2186885,29.6474805 36.4850184,29.6474805 37.266067,28.8664319 C38.0471156,28.0853833 38.0471156,26.8190534 37.266067,26.0380048 C36.4850184,25.2569562 35.2186885,25.2569562 34.4376399,26.0380048 C33.6565913,26.8190534 33.6565913,28.0853833 34.4376399,28.8664319 Z M13.5779898,34.1697328 C14.3590384,34.9507814 15.6253684,34.9507814 16.406417,34.1697328 C17.1874655,33.3886842 17.1874655,32.1223542 16.406417,31.3413057 C15.6253684,30.5602571 14.3590384,30.5602571 13.5779898,31.3413057 C12.7969412,32.1223542 12.7969412,33.3886842 13.5779898,34.1697328 Z M22.5779898,25.1697328 C23.3590384,25.9507814 24.6253684,25.9507814 25.406417,25.1697328 C26.1874655,24.3886842 26.1874655,23.1223542 25.406417,22.3413057 C24.6253684,21.5602571 23.3590384,21.5602571 22.5779898,22.3413057 C21.7969412,23.1223542 21.7969412,24.3886842 22.5779898,25.1697328 Z" id="形状结合" fill="#00A4FF" fill-rule="nonzero"></path>
    </g>
</svg>