<?xml version="1.0" encoding="utf-8"?>
<!-- Generator: Adobe Illustrator 21.0.0, SVG Export Plug-In . SVG Version: 6.00 Build 0)  -->
<svg version="1.1" id="图层_1" xmlns="http://www.w3.org/2000/svg" xmlns:xlink="http://www.w3.org/1999/xlink" x="0px" y="0px"
	 width="48px" height="48px" viewBox="0 0 48 48" style="enable-background:new 0 0 48 48;" xml:space="preserve">
<style type="text/css">
	.st0{fill:#00A4FF;}
	.st1{fill:none;stroke:#00A4FF;stroke-width:2;stroke-miterlimit:10;}
	.st2{opacity:0.6;}
	.st3{fill:none;stroke:#00A4FF;stroke-miterlimit:10;}
	.st4{fill:url(#SVGID_1_);}
	.st5{fill:url(#SVGID_2_);}
	.st6{fill:url(#SVGID_3_);}
	.st7{fill:url(#SVGID_4_);}
	.st8{fill:none;stroke:url(#SVGID_5_);stroke-width:3;stroke-miterlimit:10;}
	.st9{fill:none;stroke:url(#SVGID_6_);stroke-width:3;stroke-miterlimit:10;}
	.st10{fill:none;stroke:url(#SVGID_7_);stroke-width:3;stroke-miterlimit:10;}
	.st11{fill:none;stroke:url(#SVGID_8_);stroke-width:3;stroke-miterlimit:10;}
	.st12{fill:none;stroke:url(#SVGID_9_);stroke-width:3;stroke-miterlimit:10;}
	.st13{fill:url(#SVGID_10_);}
	.st14{fill:#FFFFFF;}
	.st15{fill:url(#SVGID_11_);}
	.st16{fill:url(#SVGID_12_);}
	.st17{fill:url(#SVGID_13_);}
</style>
<path class="st0" d="M24.4,45.3c-11.6,0-21-9.4-21-21s9.4-21,21-21c10.4,0,19.3,7.7,20.8,18h2C45.5,8.7,34-0.2,21.4,1.5
	S-0.1,14.7,1.6,27.3s13.2,21.5,25.8,19.8c10.3-1.4,18.4-9.5,19.8-19.8h-2C43.7,37.6,34.8,45.3,24.4,45.3z"/>
<g>
	<path class="st0" d="M19.5,19.5v14.7h14.7V19.5H19.5z M32.2,32.2H21.5V21.5h10.7V32.2z"/>
	<polygon class="st0" points="16.5,16.5 27.2,16.5 27.2,18.5 29.2,18.5 29.2,14.5 14.5,14.5 14.5,29.2 18.5,29.2 18.5,27.2 
		16.5,27.2 	"/>
	<polygon class="st0" points="29.2,22.5 27.2,22.5 27.2,27.2 22.5,27.2 22.5,29.2 29.2,29.2 	"/>
</g>
</svg>
