<svg id="图层_1" data-name="图层 1" xmlns="http://www.w3.org/2000/svg" width="48" height="48" viewBox="0 0 48 48">
  <defs>
    <style>
      .cls-1 {
        fill: #00a4ff;
      }
    </style>
  </defs>
  <title> </title>
  <g>
    <path class="cls-1" d="M46.92,7.91A40.24,40.24,0,0,0,24,.39,40.24,40.24,0,0,0,1.08,7.91,46.79,46.79,0,0,0,24,48.39h0A46.79,46.79,0,0,0,46.92,7.91ZM42.67,22.18A43.67,43.67,0,0,1,24,46,43.67,43.67,0,0,1,5.33,22.18,45.42,45.42,0,0,1,3.06,9,38,38,0,0,1,24,2.39,38,38,0,0,1,44.94,9,45.32,45.32,0,0,1,42.67,22.18Z"/>
    <path class="cls-1" d="M26.46,17.13a15.93,15.93,0,0,1,1.75,7.28,15.71,15.71,0,0,1-.12,1.95q-.09.74-.24,1.44A15.94,15.94,0,0,1,24,35.21h0a23.51,23.51,0,0,0,8-7.88,20.63,20.63,0,0,0,1-1.81,24.29,24.29,0,0,0,2.47-9.25,15,15,0,0,0-3.24-.36A14.55,14.55,0,0,0,26.46,17.13Zm4.81,7.51c-.27.56-.58,1.11-.91,1.65-.1.16-.2.33-.31.49a1.11,1.11,0,0,0,0-.17,17.55,17.55,0,0,0,.14-2.2,18,18,0,0,0-1.06-6.1,12.68,12.68,0,0,1,3.14-.39c.35,0,.71,0,1.06,0A22.38,22.38,0,0,1,31.27,24.64Z"/>
    <path class="cls-1" d="M19.26,11.66A20.84,20.84,0,0,0,13.8,14a14.49,14.49,0,0,0,4.58,8.56,16.21,16.21,0,0,1,6.06-6c.42-.23.86-.45,1.3-.65a15.9,15.9,0,0,1,6.55-1.4,15.47,15.47,0,0,1,3.21.33A20.2,20.2,0,0,0,24,11.05a18.59,18.59,0,0,0-2.71.2A20.09,20.09,0,0,0,19.26,11.66ZM24,13.05a16.57,16.57,0,0,1,2.87.25,20.36,20.36,0,0,0-2,.74c-.49.23-1,.48-1.46.74a18,18,0,0,0-5.31,4.55A12.46,12.46,0,0,1,16.06,15a18.52,18.52,0,0,1,3.7-1.41,17.87,17.87,0,0,1,1.85-.38A17.53,17.53,0,0,1,24,13.05Z"/>
    <path class="cls-1" d="M18.87,24.81q-.61-.45-1.17-.93a16,16,0,0,1-5.22-9h0a23.66,23.66,0,0,0,4,13.27c.39.58.82,1.16,1.29,1.73a23.28,23.28,0,0,0,5,4.59,14.58,14.58,0,0,0,3.61-6.72A15.93,15.93,0,0,1,18.87,24.81Zm3.57,6.88a21.69,21.69,0,0,1-3.16-3.12c-.39-.49-.78-1-1.17-1.58l-.32-.49a18.39,18.39,0,0,0,6,2.76A12.85,12.85,0,0,1,22.44,31.69Z"/>
    <path class="cls-1" d="M26.78,22.54A2.76,2.76,0,1,0,24,25.3,2.77,2.77,0,0,0,26.78,22.54Z"/>
  </g>
</svg>
