<?xml version="1.0" encoding="utf-8"?>
<!-- Generator: Adobe Illustrator 23.0.3, SVG Export Plug-In . SVG Version: 6.00 Build 0)  -->
<svg version="1.1" id="图层_1" xmlns="http://www.w3.org/2000/svg" xmlns:xlink="http://www.w3.org/1999/xlink" x="0px" y="0px"
	 width="48px" height="48px" viewBox="0 0 48 48" style="enable-background:new 0 0 48 48;" xml:space="preserve">
<g>
	<polygon style="fill:#00A4FF;" points="40,41 40,1 8,1 8,47 40,47 40,45 10,45 10,3 38,3 38,41 	"/>
</g>
<g>
	<polygon style="fill:#00A4FF;" points="21,41 21,41 27,41 27,39 21,39 	"/>
</g>
<g>
	<polygon style="fill:#00A4FF;" points="28.566,21.566 27.434,20.434 32.869,15 27.434,9.566 28.566,8.434 35.131,15 	"/>
</g>
<g>
	<polygon style="fill:#00A4FF;" points="19.434,21.566 12.869,15 19.434,8.434 20.566,9.566 15.131,15 20.566,20.434 	"/>
</g>
<g>
	
		<rect x="18.5" y="14.2" transform="matrix(0.1788 -0.9839 0.9839 0.1788 4.9498 35.9306)" style="fill:#00A4FF;" width="11" height="1.6"/>
</g>
</svg>
