<?xml version="1.0" encoding="UTF-8"?>
<svg width="48px" height="48px" viewBox="0 0 48 48" version="1.1" xmlns="http://www.w3.org/2000/svg" xmlns:xlink="http://www.w3.org/1999/xlink">
    <!-- Generator: Sketch 53.2 (72643) - https://sketchapp.com -->
    <title>transfy-48px </title>
    <desc>Created with Sketch.</desc>
    <g id="transfy-48px-" stroke="none" stroke-width="1" fill="none" fill-rule="evenodd">
        <path d="M36,39 L36,9 L12,9 L12,39 L36,39 Z M38,39 L42.1707057,39 C42.5825421,37.8348076 43.6937812,37 45,37 C46.6568542,37 48,38.3431458 48,40 C48,41.6568542 46.6568542,43 45,43 C43.6937812,43 42.5825421,42.1651924 42.1707057,41 L2,41 L2,39 L2,15 L4,15 L4,18 L10,18 L10,9 L5.82929429,9 C5.41745788,10.1651924 4.30621883,11 3,11 C1.34314575,11 0,9.65685425 0,8 C0,6.34314575 1.34314575,5 3,5 C4.30621883,5 5.41745788,5.83480763 5.82929429,7 L46,7 L46,9 L46,33 L44,33 L44,30 L38,30 L38,39 Z M38,28 L44,28 L44,20 L38,20 L38,28 Z M38,18 L44,18 L44,9 L38,9 L38,18 Z M25,19 L25,32 L23,32 L23,19 L17,19 L17,17 L31,17 L31,19 L25,19 Z M10,39 L10,30 L4,30 L4,39 L10,39 Z M10,20 L4,20 L4,28 L10,28 L10,20 Z" id="合并形状" fill="#00A4FF"></path>
    </g>
</svg>