<?xml version="1.0" encoding="UTF-8"?>
<svg width="48px" height="48px" viewBox="0 0 48 48" version="1.1" xmlns="http://www.w3.org/2000/svg" xmlns:xlink="http://www.w3.org/1999/xlink">
    <!-- Generator: Sketch 62 (91390) - https://sketch.com -->
    <title>音频内容安全-48px</title>
    <desc>Created with Sketch.</desc>
    <g id="音频内容安全-48px" stroke="none" stroke-width="1" fill="none" fill-rule="evenodd">
        <g id="9f9c02b63c72475a6ca3a5a0fa04c1cd" fill-rule="nonzero">
            <rect id="矩形" fill-opacity="0.01" fill="#FFFFFF" x="0" y="0" width="48" height="48"></rect>
            <path d="M44.7931133,7.77372248 L45.1874656,8.06506503 L45.96,8.63950483 L45.96,11.0155196 C45.9212518,25.8481137 38.1059515,39.5598104 25.456868,47.117867 L25.0237809,47.3731367 L24.0444573,48.0464219 L22.5832538,47.1950264 C9.98652101,39.6747339 2.19378531,26.151608 2.00354257,11.4810558 L2,10.9747273 L2,8.63950483 L3.16276324,7.77672568 C15.5655112,-1.25790738 32.3893856,-1.25890845 44.7931133,7.77372248 Z M4.35311156,9.38405898 L4,9.643 L3.99999947,10.9736996 C4.01437924,24.9656962 11.2941978,37.9198024 23.1771489,45.2166301 L23.5984541,45.4718086 L23.956,45.683 L24.3834782,45.4316041 C36.1990716,38.362859 43.5704417,25.7461815 43.9451369,12.0079261 L43.9556287,11.510882 L43.96,11.0129075 L43.96,9.644 L43.6039653,9.38187683 C31.9082146,0.872707982 16.0517533,0.872731443 4.35311156,9.38405898 Z M32.1119482,24.1236747 L33.9028486,25.0139981 C33.411929,26.0014912 32.7758556,26.9100742 32.0178551,27.7096121 C30.1710857,29.6575822 27.6906951,30.8721785 25.0004426,31.1149636 L25,36 L23,36 L23.000626,31.1153237 C20.3208043,30.8744605 17.8487816,29.669336 16.0033119,27.7349327 C15.3359399,27.0354 14.7622011,26.2516052 14.2978435,25.4038967 L14.1055758,25.0367393 L15.8944242,24.1423001 C16.2997378,24.9529137 16.8248449,25.6986756 17.4503988,26.354375 C19.149454,28.1353081 21.4912995,29.16 23.9985431,29.16 C26.5157874,29.16 28.8661631,28.1270555 30.5664424,26.333603 C31.0993155,25.7715291 31.5586115,25.1439015 31.932296,24.4664686 L32.1119482,24.1236747 Z M23.9985431,9 C27.5597083,9 30.4609494,11.8254715 30.5827943,15.3569428 L30.5867784,15.5882353 L30.5867784,20.0917647 C30.5867784,23.7303466 27.637125,26.68 23.9985431,26.68 C20.4373779,26.68 17.5361368,23.8545285 17.4142919,20.3230572 L17.4103078,20.0917647 L17.4103078,15.5882353 C17.4103078,11.9496534 20.3599612,9 23.9985431,9 Z M23.9985431,11 C21.5369311,11 19.5280836,12.9385157 19.4153018,15.3722459 L19.4103078,15.5882353 L19.4103078,20.0917647 C19.4103078,22.6257771 21.4645307,24.68 23.9985431,24.68 C26.4601551,24.68 28.4690026,22.7414843 28.5817844,20.3077541 L28.5867784,20.0917647 L28.5867784,15.5882353 C28.5867784,13.0542229 26.5325555,11 23.9985431,11 Z" id="形状结合" fill="#00A4FF"></path>
        </g>
    </g>
</svg>