<?xml version="1.0" encoding="UTF-8"?>
<svg width="48px" height="48px" viewBox="0 0 48 48" version="1.1" xmlns="http://www.w3.org/2000/svg" xmlns:xlink="http://www.w3.org/1999/xlink">
    <!-- Generator: Sketch 53.2 (72643) - https://sketchapp.com -->
    <title>产品icon-48px-灰 copy 2</title>
    <desc>Created with Sketch.</desc>
    <g id="产品icon-48px-灰-copy-2" stroke="none" stroke-width="1" fill="none" fill-rule="evenodd">
        <g id="分组" transform="translate(5.058824, 14.000000)" stroke="#00A4FF" stroke-width="2">
            <polyline id="Stroke-1" points="31.4027149 16 35.5565611 16 36.9411765 8.57270694 31.4027149 6.57270694 27.2488688 0 10.6334842 9.09494702e-13 6.47963801 6.57270694 0.941176471 8.57270694 2.32579186 16 6.47963801 16"></polyline>
            <path d="M16.6633987,19 L10.4411765,19 C8.50817985,19 6.94117647,17.4329966 6.94117647,15.5 L6.94117647,15.5 C6.94117647,13.5670034 8.50817985,12 10.4411765,12 L15.8303001,12 C16.3634948,12 16.8746162,12.2129073 17.2501367,12.5914319 L23.0211051,18.4085681 C23.3966256,18.7870927 23.9077471,19 24.4409417,19 L28.4411765,19 C30.3741731,19 31.9411765,17.4329966 31.9411765,15.5 L31.9411765,15.5 C31.9411765,13.5670034 30.3741731,12 28.4411765,12 L23.6078431,12" id="矩形"></path>
            <path d="M9.94117647,7.5 L27.5910904,7.5" id="直线-2-copy"></path>
        </g>
        <circle id="椭圆形" stroke="#00A4FF" stroke-width="2" cx="24" cy="24" r="23"></circle>
    </g>
</svg>