<svg id="图层_1" data-name="图层 1" xmlns="http://www.w3.org/2000/svg" width="48" height="48" viewBox="0 0 48 48"><defs><style>.cls-1{fill:#00a4ff;}</style></defs><title>48px，00A4FF，描边2px_6</title><path class="cls-1" d="M24,2.44A34.09,34.09,0,0,1,44,8.88v.71A41.81,41.81,0,0,1,24,45.12,41.84,41.84,0,0,1,4,9.61c0-.24,0-.47,0-.71v0A34,34,0,0,1,24,2.44m0-2A36.28,36.28,0,0,0,2.21,7.7L2,7.86v.27c0,.48,0,1,0,1.48A43.7,43.7,0,0,0,23.71,47.28l.28.16.28-.16A43.68,43.68,0,0,0,46,9.59c0-.49,0-1,0-1.46V7.86l-.22-.16A36.28,36.28,0,0,0,24,.44Z"/><path class="cls-1" d="M30.55,32c-3.4,0-7.93-2.27-11.93-6.27C12.86,20,10.7,13.1,13.7,10.1S23.56,9.26,29.31,15h0c5.76,5.76,7.92,12.62,4.92,15.62A5,5,0,0,1,30.55,32ZM17.37,10.76a3.11,3.11,0,0,0-2.26.75c-1.86,1.86-.29,7.57,4.92,12.79S31,31.07,32.82,29.21s.29-7.57-4.92-12.78h0C24.09,12.62,20,10.76,17.37,10.76Z"/><path class="cls-1" d="M17.37,32a5,5,0,0,1-3.67-1.35c-3-3-.84-9.86,4.92-15.62h0C24.37,9.26,31.23,7.1,34.23,10.1s.84,9.85-4.92,15.61C25.31,29.71,20.78,32,17.37,32ZM30.56,10.76c-2.64,0-6.72,1.86-10.53,5.67h0c-5.22,5.21-6.78,10.92-4.92,12.78s7.57.3,12.79-4.91,6.78-10.93,4.92-12.79A3.15,3.15,0,0,0,30.56,10.76Z"/><circle class="cls-1" cx="23.97" cy="20.36" r="2"/></svg>