<svg id="图层_1" data-name="图层 1" xmlns="http://www.w3.org/2000/svg" width="48" height="48" viewBox="0 0 48 48"><defs><style>.cls-1{opacity:0;}.cls-2{fill:#00a4ff;}</style></defs><title>48px，00A4FF，描边2px 副本 12</title><g class="cls-1"><rect class="cls-2" width="48" height="48"/></g><path class="cls-2" d="M46,8.12V7.86L45.8,7.7a36.36,36.36,0,0,0-43.6,0L2,7.86v.26c0,.49,0,1,0,1.49A43.71,43.71,0,0,0,23.71,47.29l.28.16.28-.16A43.73,43.73,0,0,0,46,9.59Q46,8.86,46,8.12Zm-22,37A41.86,41.86,0,0,1,4,9.61c0-.24,0-.48,0-.71v0A34.37,34.37,0,0,1,44,8.88c0,.24,0,.47,0,.71A41.84,41.84,0,0,1,24,45.13Z"/><path class="cls-2" d="M36.77,27.28H11.23V11.61H36.77Zm-23.54-2H34.77V13.61H13.23Z"/><path class="cls-2" d="M16,20.72l.59-1-1-.45.19-.56,1.1.27.1-1.16h.6l.1,1.15,1.11-.26.18.56-1,.45.6,1-.48.35-.76-.89-.77.89Z"/><path class="cls-2" d="M20.47,20.72l.59-1-1-.45.18-.56,1.11.27.1-1.16H22l.1,1.15,1.1-.26.19.56-1,.45.6,1-.48.35-.77-.89-.76.89Z"/><path class="cls-2" d="M24.93,20.72l.59-1-1-.45.18-.56,1.11.27.1-1.16h.6l.1,1.15,1.11-.26.18.56-1,.45.6,1-.48.35-.76-.89-.77.89Z"/><path class="cls-2" d="M29.4,20.72l.59-1-1-.45.19-.56,1.1.27.11-1.16h.59L31,19l1.1-.26.19.56-1,.45.6,1-.48.35-.76-.89-.76.89Z"/></svg>