<svg id="图层_1" data-name="图层 1" xmlns="http://www.w3.org/2000/svg" width="48" height="48" viewBox="0 0 48 48">
  <defs>
    <style>
      .cls-1 {
        fill: #00a4ff;
      }
    </style>
  </defs>
  <title> </title>
  <g>
    <path class="cls-1" d="M46.92,7.52A40.24,40.24,0,0,0,24,0,40.24,40.24,0,0,0,1.08,7.52,46.79,46.79,0,0,0,24,48,46.79,46.79,0,0,0,46.92,7.52ZM42.67,21.79A43.71,43.71,0,0,1,24,45.65,43.71,43.71,0,0,1,5.33,21.79,45.42,45.42,0,0,1,3.06,8.58,38,38,0,0,1,24,2,38,38,0,0,1,44.94,8.58,45.42,45.42,0,0,1,42.67,21.79Z"/>
    <path class="cls-1" d="M11.56,20.56a12.44,12.44,0,1,0,20.28-9.65l-.31-.2-1,1.75A10.44,10.44,0,1,1,24,10.12a10.18,10.18,0,0,1,3.47.61l-1.74,3.74h0a5.44,5.44,0,0,0-.7-.15l-.06,0a6.15,6.15,0,0,0-.74-.06H24a6.32,6.32,0,1,0,4.7,2.07l-1,2.06a4.35,4.35,0,1,1-4.46-2.06,3.38,3.38,0,0,1,.72-.07,4.21,4.21,0,0,1,.87.09l-1.18,2.53a1.74,1.74,0,1,0,2,1.71,1.71,1.71,0,0,0-.24-.86L31,8l-1.82-.84-.83,1.78A12.4,12.4,0,0,0,11.56,20.56Z"/>
  </g>
</svg>
