<?xml version="1.0" encoding="utf-8"?>
<!-- Generator: Adobe Illustrator 23.0.1, SVG Export Plug-In . SVG Version: 6.00 Build 0)  -->
<svg version="1.1" id="图层_1" xmlns="http://www.w3.org/2000/svg" xmlns:xlink="http://www.w3.org/1999/xlink" x="0px" y="0px"
	 width="48px" height="48px" viewBox="0 0 48 48" style="enable-background:new 0 0 48 48;" xml:space="preserve">
<path style="fill:#00A4FF;" d="M45.89,21C44.459,10.227,35.211,2,24,2C11.797,2,2,11.85,2,24c0,12.151,9.797,22,22,22
	c11.146,0,20.347-8.319,21.862-19H48c-1.486,11.836-11.606,21-23.896,21C10.792,48,0,37.255,0,24S10.792,0,24.104,0
	C36.394,0,46.514,9.164,48,21H45.89z"/>
<polygon id="XMLID_1_" style="fill:#00A4FF;" points="28.594,29.406 36,25.255 36,22.99 28.594,27.141 "/>
<polygon style="fill:#00A4FF;" points="24,35.739 14,30.752 14,18 12,19.111 12,31.893 24,38 36,31.893 36,29.621 "/>
<polygon style="fill:#00A4FF;" points="24,12.261 14,17.248 14,30 12,28.889 12,16.107 24,10 36,16.107 36,18.379 "/>
<polygon style="fill:#00A4FF;" points="24.375,22.943 24.375,25.19 34,19.787 34,19.789 36,18.665 36,16.419 "/>
</svg>
